<?xml version="1.0" standalone="no"?>
<!DOCTYPE svg PUBLIC "-//W3C//DTD SVG 1.1//EN" "http://www.w3.org/Graphics/SVG/1.1/DTD/svg11.dtd" >
<svg xmlns="http://www.w3.org/2000/svg" xmlns:xlink="http://www.w3.org/1999/xlink" version="1.1">
<metadata>
Created by FontForge 20170731 at Fri May 12 17:09:29 2006
 By Aleksey,,,
Copyright (c) 1989, 1990, 2002 Adobe Systems Incorporated.  All Rights Reserved. (c) 1981, 2002 Heidelberger Druckmaschinen AG. All rights reserved.
</metadata>
<defs>
<font id="TradeGothicLTStd-Bd2Obl" horiz-adv-x="611" >
  <font-face 
    font-family="Trade Gothic LT Std"
    font-weight="700"
    font-style="italic"
    font-stretch="normal"
    units-per-em="1000"
    panose-1="0 0 8 0 0 0 0 0 0 0"
    ascent="722"
    descent="-278"
    x-height="520"
    cap-height="722"
    bbox="-169 -280 1090 977"
    underline-thickness="50"
    underline-position="-200"
    slope="-12.5"
    unicode-range="U+0020-FB02"
  />
<missing-glyph horiz-adv-x="654" 
d="M154 0v700h500v-700h-500zM404 395l170 255h-340zM434 350l170 -255v510zM234 50h340l-170 255zM204 605v-510l170 255z" />
    <glyph glyph-name="fi" unicode="fi" horiz-adv-x="556" 
d="M607 520l-115 -520h-124l115 520h124zM629 616h-124l25 116h124zM406 420h-105l-93 -420h-124l93 420h-72l22 100h71l14 64q18 82 60 115t120 33h82l-22 -100h-34q-39 0 -57 -13t-25 -43l-13 -56h105z" />
    <glyph glyph-name="fl" unicode="fl" horiz-adv-x="556" 
d="M492 0h-124l160 722h124zM406 420h-105l-93 -420h-124l93 420h-72l22 100h71l14 64q18 82 60 115t120 33h82l-22 -100h-34q-39 0 -57 -13t-25 -43l-13 -56h105z" />
    <glyph glyph-name=".notdef" horiz-adv-x="654" 
d="M154 0v700h500v-700h-500zM404 395l170 255h-340zM434 350l170 -255v510zM234 50h340l-170 255zM204 605v-510l170 255z" />
    <glyph glyph-name=".null" horiz-adv-x="0" 
 />
    <glyph glyph-name="nonmarkingreturn" horiz-adv-x="333" 
 />
    <glyph glyph-name="space" unicode=" " horiz-adv-x="305" 
 />
    <glyph glyph-name="exclam" unicode="!" horiz-adv-x="333" 
d="M400 722l-132 -478h-96l80 478h148zM235 0h-138l31 142h138z" />
    <glyph glyph-name="quotedbl" unicode="&#x22;" horiz-adv-x="333" 
d="M297 450l60 272h112l-60 -272h-112zM124 450l60 272h112l-60 -272h-112z" />
    <glyph glyph-name="numbersign" unicode="#" 
d="M587 301l-20 -90h-93l-75 -211h-94l74 211h-96l-75 -211h-94l74 211h-80l20 90h93l43 120h-80l20 90h92l75 211h94l-74 -211h96l75 211h94l-74 -211h80l-20 -90h-92l-43 -120h80zM455 421h-96l-43 -120h96z" />
    <glyph glyph-name="dollar" unicode="$" 
d="M402 295l-43 -195q46 0 82.5 21t46.5 70q17 76 -86 104zM361 442l40 180q-104 -7 -123 -95q-7 -33 12 -51t71 -34zM285 100l48 217q-88 21 -137.5 71.5t-31.5 129.5q21 96 95 149t164 55l16 72h74l-16 -72q108 -3 183 -99l-95 -77q-27 34 -51 52t-59 24l-44 -200
q104 -33 147 -85.5t23 -142.5q-21 -93 -93 -141t-171 -53l-27 -120h-74l27 120q-140 15 -195 119l103 74q17 -41 44 -62t70 -31z" />
    <glyph glyph-name="percent" unicode="%" horiz-adv-x="889" 
d="M374 722q75 0 116 -53t24 -127t-81 -127t-139 -53t-116 53t-24 127t81 127t139 53zM352 624q-33 0 -62.5 -24.5t-37.5 -57.5q-7 -33 12 -57.5t52 -24.5t63 24.5t37 57.5q8 32 -11 57t-53 25zM755 360q75 0 116 -53t24 -127t-81 -127t-139 -53t-116 53t-24 127t81 127
t139 53zM733 262q-33 0 -63 -24.5t-37 -57.5q-8 -32 11 -57t53 -25q33 0 62.5 24.5t37.5 57.5q7 33 -12 57.5t-52 24.5zM195 -10l579 742h85l-579 -742h-85z" />
    <glyph glyph-name="ampersand" unicode="&#x26;" horiz-adv-x="667" 
d="M342 573q-13 -59 12 -117q98 62 112 120q7 32 -4.5 53t-41.5 21q-23 0 -46.5 -21t-31.5 -56zM590 362l104 -30q-70 -116 -128 -177q43 -48 91 -49l-25 -116q-53 0 -83.5 14t-79.5 62q-91 -76 -200 -76q-106 0 -157 53t-28 157q14 62 54.5 106.5t107.5 83.5q-22 47 -27 82
t5 92q17 76 78.5 122t141.5 46q72 0 112 -46.5t25 -114.5q-7 -33 -24.5 -62t-48 -56t-50.5 -41.5t-61 -42.5q44 -86 95 -143q57 63 98 136zM216 206q-9 -40 16 -70t67 -30q57 0 105 40q-68 64 -109 155q-26 -18 -37.5 -27.5t-24 -27.5t-17.5 -40z" />
    <glyph glyph-name="quotesingle" unicode="'" horiz-adv-x="222" 
d="M155 450l60 272h112l-60 -272h-112z" />
    <glyph glyph-name="parenleft" unicode="(" horiz-adv-x="333" 
d="M348 732h121q-187 -189 -235 -408q-50 -220 54 -408h-121q-23 55 -36.5 97.5t-21 92t-4.5 103t17 115.5q27 119 78.5 207.5t147.5 200.5z" />
    <glyph glyph-name="parenright" unicode=")" horiz-adv-x="333" 
d="M128 -84h-121q186 186 236 408q49 223 -55 408h121q23 -55 36.5 -97.5t21.5 -92t5 -103t-17 -115.5q-27 -119 -79 -208t-148 -200z" />
    <glyph glyph-name="asterisk" unicode="*" horiz-adv-x="500" 
d="M352 572l5 5l1 145h99l-58 -146l4 -5l144 74l10 -90l-151 -23l83 -106l-86 -58l-38 133l-7 -1l-93 -131l-63 53l129 105l-1 6l-142 18l46 89z" />
    <glyph glyph-name="plus" unicode="+" horiz-adv-x="600" 
d="M424 314h206l-24 -108h-206l-46 -206h-108l46 206h-206l24 108h206l45 206h108z" />
    <glyph glyph-name="comma" unicode="," horiz-adv-x="305" 
d="M59 -150l84 150h-60l31 142h138l-31 -142l-97 -150h-65z" />
    <glyph glyph-name="hyphen" unicode="-" horiz-adv-x="333" 
d="M335 206h-245l24 108h245z" />
    <glyph glyph-name="period" unicode="." horiz-adv-x="305" 
d="M221 0h-138l31 142h138z" />
    <glyph glyph-name="slash" unicode="/" horiz-adv-x="278" 
d="M468 732l-389 -742h-109l389 742h109z" />
    <glyph glyph-name="zero" unicode="0" 
d="M122 361q18 80 47 145.5t70.5 117t99.5 80t128 28.5q92 0 142 -50t55 -132.5t-16 -188.5q-18 -80 -47 -145.5t-70.5 -117t-99.5 -80t-128 -28.5q-92 0 -142 50t-55 132.5t16 188.5zM252 361q-59 -263 75 -263q132 0 191 263t-75 263q-132 0 -191 -263z" />
    <glyph glyph-name="one" unicode="1" 
d="M499 0h-353l22 100h112l111 498h-128l18 84q112 5 168 50h101l-140 -632h111z" />
    <glyph glyph-name="two" unicode="2" 
d="M542 0h-486l26 119q13 31 61 72t108.5 82t120 83t104 86.5t52.5 81.5q10 47 -12.5 73.5t-72.5 26.5q-101 0 -155 -114l-110 25q29 84 112 140.5t179 56.5q100 0 155.5 -55.5t33.5 -152.5q-9 -43 -31.5 -81t-49.5 -67t-70 -63t-81.5 -60t-97 -66.5t-103.5 -74.5h342z" />
    <glyph glyph-name="three" unicode="3" 
d="M267 329l24 108q92 0 147.5 21t68.5 80q9 39 -15 62.5t-70 23.5q-69 0 -154 -72l-68 78q119 102 242 102q104 0 160.5 -49t36.5 -137q-24 -109 -144 -156q60 -20 84 -67.5t9 -115.5q-24 -106 -111.5 -161.5t-192.5 -55.5q-80 0 -141.5 36.5t-82.5 103.5l117 59
q34 -91 132 -91q51 0 94.5 29.5t54.5 79.5q7 34 -2.5 58t-27.5 36t-50 19t-54.5 8t-56.5 1z" />
    <glyph glyph-name="four" unicode="4" 
d="M183 266h225l71 322h-2zM61 166l28 127l403 429h141l-101 -456h102l-22 -100h-102l-37 -166h-124l37 166h-325z" />
    <glyph glyph-name="five" unicode="5" 
d="M163 338l112 384h390l-25 -112h-292l-46 -164q49 42 144 42q94 0 139 -73.5t24 -166.5q-27 -121 -111 -189.5t-212 -68.5q-83 0 -135 36t-69 99l120 56q8 -37 39.5 -59t70.5 -23q66 -2 108.5 38.5t58.5 110.5q12 57 -13 94.5t-81 37.5q-75 0 -123 -62z" />
    <glyph glyph-name="six" unicode="6" 
d="M482 223q14 61 -10.5 96t-84.5 35q-87 0 -148 -82q-19 -86 12 -130t89 -44q52 0 91.5 34.5t50.5 90.5zM688 678l-80 -104q-46 50 -111 50q-73 0 -139.5 -64t-88.5 -156q79 58 174 58q96 0 144.5 -65.5t26.5 -168.5q-26 -111 -111 -174.5t-197 -63.5q-117 0 -169.5 84
t-17.5 244q42 191 149 302.5t253 111.5q92 0 167 -54z" />
    <glyph glyph-name="seven" unicode="7" 
d="M193 610l25 112h495l-17 -75l-440 -647h-143l427 610h-347z" />
    <glyph glyph-name="eight" unicode="8" 
d="M668 552q-13 -60 -51 -98.5t-104 -69.5q131 -62 101 -198q-19 -87 -107 -141.5t-204 -54.5t-180 54.5t-45 141.5q30 135 189 198q-51 31 -72.5 69.5t-8.5 98.5q19 83 95 131.5t186 48.5t165 -49t36 -131zM325 90q67 0 108.5 28.5t52.5 76.5q10 44 -38.5 87.5t-79.5 43.5
t-89 -41t-69 -90q-11 -48 18.5 -76.5t96.5 -28.5zM444 632q-109 0 -128 -82q-10 -45 22 -77.5t65 -32.5q30 0 78.5 36.5t56.5 73.5q9 38 -13 60t-81 22z" />
    <glyph glyph-name="nine" unicode="9" 
d="M277 499q-14 -61 10.5 -96t84.5 -35q87 0 148 82q19 86 -12 130t-89 44q-52 0 -91.5 -34.5t-50.5 -90.5zM71 44l80 104q46 -50 111 -50q73 0 139.5 64t88.5 156q-79 -58 -174 -58q-96 0 -144 65.5t-26 168.5q25 111 110 174.5t197 63.5q117 0 169.5 -84t17.5 -244
q-42 -191 -149 -302.5t-253 -111.5q-92 0 -167 54z" />
    <glyph glyph-name="colon" unicode=":" horiz-adv-x="305" 
d="M288 300h-138l31 142h138zM221 0h-138l31 142h138z" />
    <glyph glyph-name="semicolon" unicode=";" horiz-adv-x="305" 
d="M59 -150l84 150h-60l31 142h138l-31 -142l-97 -150h-65zM288 300h-138l31 142h138z" />
    <glyph glyph-name="less" unicode="&#x3c;" horiz-adv-x="600" 
d="M583 103l-25 -111l-471 222l21 92l569 222l-25 -111l-406 -157z" />
    <glyph glyph-name="equal" unicode="=" horiz-adv-x="600" 
d="M654 424l-24 -108h-520l24 108h520zM605 204l-24 -108h-520l24 108h520z" />
    <glyph glyph-name="greater" unicode="&#x3e;" horiz-adv-x="600" 
d="M38 -8l25 111l407 157l-338 157l25 111l471 -222l-21 -92z" />
    <glyph glyph-name="question" unicode="?" horiz-adv-x="444" 
d="M307 243h-110l12 55q14 61 98 151q31 33 43 46.5t28.5 38t20.5 44.5q5 22 -10.5 38t-40.5 16q-33 0 -61.5 -26.5t-40.5 -61.5l-108 32q35 75 97.5 115.5t142.5 40.5q77 0 120 -42.5t26 -117.5q-7 -31 -25.5 -60.5t-35 -47.5t-45.5 -45q-33 -31 -47 -44.5t-32 -41
t-24 -53.5zM269 0h-138l31 142h138z" />
    <glyph glyph-name="at" unicode="@" horiz-adv-x="800" 
d="M436 249q46 0 84.5 36.5t48.5 83.5q8 36 -8.5 59t-50.5 23q-45 0 -82 -34.5t-48 -83.5q-8 -37 6.5 -60.5t49.5 -23.5zM624 492l22 50h88l-103 -244q-13 -33 -14 -36q-5 -22 9 -22q37 0 77 43.5t57 118.5q26 117 -31 181.5t-172 64.5q-121 0 -213 -81.5t-119 -206.5
q-29 -130 32.5 -208t187.5 -78q111 0 208 70h90q-140 -154 -324 -154q-102 0 -177.5 47.5t-107.5 132.5t-9 190q35 157 167 264.5t286 107.5q87 0 155.5 -36.5t102 -106.5t13.5 -159q-14 -62 -45 -113.5t-67.5 -82.5t-76.5 -52.5t-70.5 -30t-50.5 -8.5q-22 0 -34.5 13.5
t-7.5 37.5l-2 1q-56 -52 -108 -52q-63 0 -99 52.5t-21 122.5q21 94 93.5 165t160.5 71q77 0 103 -62z" />
    <glyph glyph-name="A" unicode="A" 
d="M437 584l-154 -314h168l-12 314h-2zM13 0l368 723h172l45 -723h-137l-5 156h-228l-78 -156h-137z" />
    <glyph glyph-name="B" unicode="B" horiz-adv-x="667" 
d="M78 0l160 722h268q113 0 166.5 -42t39.5 -135q-27 -121 -147 -164q66 -29 84 -69.5t0 -121.5q-20 -88 -96 -139t-209 -51h-266zM287 322l-46 -210h138q115 0 138 105t-92 105h-138zM351 610l-39 -176h138q48 0 79 24.5t40 63.5t-11.5 63.5t-68.5 24.5h-138z" />
    <glyph glyph-name="C" unicode="C" 
d="M692 542l-131 -30q-12 104 -108 104q-70 0 -124 -65t-81 -190q-59 -255 95 -255q48 0 84.5 22.5t80.5 84.5l121 -34q-107 -189 -311 -189q-138 0 -192.5 97t-15.5 274t136.5 274t235.5 97q203 0 210 -190z" />
    <glyph glyph-name="D" unicode="D" horiz-adv-x="667" 
d="M78 0l160 722h239q150 0 217 -88.5t27 -272.5q-42 -184 -148 -272.5t-256 -88.5h-239zM350 606l-108 -490h92q57 0 101 19.5t72.5 55.5t46 76.5t29.5 93.5q55 245 -141 245h-92z" />
    <glyph glyph-name="E" unicode="E" 
d="M573 0h-489l160 722h478l-26 -116h-340l-38 -172h247l-26 -116h-247l-44 -202h351z" />
    <glyph glyph-name="F" unicode="F" horiz-adv-x="556" 
d="M216 0h-138l160 722h460l-26 -116h-322l-38 -172h241l-26 -116h-241z" />
    <glyph glyph-name="G" unicode="G" horiz-adv-x="667" 
d="M714 548l-135 -34q-13 55 -41 78.5t-81 23.5q-75 0 -129 -69.5t-82 -192.5q-25 -115 1 -181.5t97 -66.5q67 0 117 40t66 103h-137l26 116h270l-81 -365h-100l16 74q-53 -47 -100 -65.5t-106 -18.5q-141 0 -192 99.5t-15 260.5q16 74 45.5 138.5t75 121t113.5 89.5t151 33
q103 0 158 -50t63 -134z" />
    <glyph glyph-name="H" unicode="H" horiz-adv-x="722" 
d="M222 0h-138l160 722h138l-64 -288h278l64 288h138l-160 -722h-138l69 310h-278z" />
    <glyph glyph-name="I" unicode="I" horiz-adv-x="333" 
d="M235 0h-138l160 722h138z" />
    <glyph glyph-name="J" unicode="J" horiz-adv-x="444" 
d="M14 87l111 71q11 -29 25 -40.5t38 -11.5q57 0 77 86l117 530h138l-117 -527q-46 -205 -240 -205q-106 0 -149 97z" />
    <glyph glyph-name="K" unicode="K" horiz-adv-x="667" 
d="M216 0h-138l160 722h138l-71 -321l312 321h159l-265 -271l138 -451h-153l-103 343l-129 -126z" />
    <glyph glyph-name="L" unicode="L" horiz-adv-x="556" 
d="M530 0h-452l160 722h138l-134 -606h314z" />
    <glyph glyph-name="M" unicode="M" horiz-adv-x="833" 
d="M201 0h-120l160 722h194l27 -504h2l252 504h196l-160 -722h-120l126 568h-2l-288 -568h-105l-34 568h-2z" />
    <glyph glyph-name="N" unicode="N" horiz-adv-x="722" 
d="M211 0h-130l160 722h144l175 -492h2l109 492h130l-160 -722h-133l-181 514h-2z" />
    <glyph glyph-name="O" unicode="O" horiz-adv-x="667" 
d="M578 361q56 255 -108 255q-166 0 -222 -255q-59 -255 108 -255q166 0 222 255zM716 361q-39 -178 -138.5 -274.5t-246.5 -96.5t-203.5 96.5t-17.5 274.5t138.5 274.5t246.5 96.5t203.5 -96.5t17.5 -274.5z" />
    <glyph glyph-name="P" unicode="P" 
d="M206 0h-138l160 722h264q121 0 176.5 -53t30.5 -162q-24 -109 -102.5 -162t-199.5 -53h-126zM341 610l-45 -206h110q74 0 109 26t46 77q12 51 -12 77t-98 26h-110z" />
    <glyph glyph-name="Q" unicode="Q" horiz-adv-x="667" 
d="M376 193l27 123q50 -5 79 -27.5t49 -64.5q28 51 47 137q56 255 -108 255q-166 0 -222 -255q-59 -255 108 -255q52 0 92 24q-24 53 -72 63zM669 62l-26 -116q-66 0 -90.5 14t-60.5 66q-72 -36 -161 -36q-147 0 -203.5 96.5t-17.5 274.5t138.5 274.5t246.5 96.5
t203.5 -96.5t17.5 -274.5q-37 -168 -131 -266q33 -32 84 -33z" />
    <glyph glyph-name="R" unicode="R" horiz-adv-x="667" 
d="M216 0h-138l160 722h288q117 0 160.5 -59t23.5 -155q-15 -68 -60 -118t-114 -68l88 -322h-153l-71 294h-119zM351 610l-45 -204h102q78 0 115 24.5t49 77.5q22 102 -95 102h-126z" />
    <glyph glyph-name="S" unicode="S" 
d="M671 569l-135 -39q-6 44 -33.5 69t-74.5 25q-103 0 -120 -80q-8 -34 25 -59t83 -45t99 -45t77 -71.5t14 -111.5q-24 -110 -102 -166t-200 -56q-90 0 -154.5 46.5t-77.5 124.5l125 50q15 -55 45 -84t87 -29q121 0 143 96q7 33 -15 59t-59.5 42t-81 37t-80 43.5t-55 62.5
t-7.5 92q21 93 100.5 147.5t177.5 54.5q88 0 146 -42.5t73 -120.5z" />
    <glyph glyph-name="T" unicode="T" horiz-adv-x="556" 
d="M180 723h516l-25 -116h-189l-135 -607h-138l135 607h-189z" />
    <glyph glyph-name="U" unicode="U" horiz-adv-x="722" 
d="M559 264l101 458h138l-100 -452q-17 -76 -51.5 -132t-81 -87.5t-97.5 -46t-109 -14.5t-102.5 14t-78 47t-41.5 86.5t7 132.5l100 452h138l-101 -458q-19 -86 6 -122t97 -36t114 36t61 122z" />
    <glyph glyph-name="V" unicode="V" horiz-adv-x="556" 
d="M201 0l-31 722h136l10 -532h2l252 532h136l-351 -722h-154z" />
    <glyph glyph-name="W" unicode="W" horiz-adv-x="833" 
d="M171 0l9 722h129l-17 -487h2l211 487h142l-13 -487h2l207 487h129l-310 -722h-140l9 514h-2l-218 -514h-140z" />
    <glyph glyph-name="X" unicode="X" horiz-adv-x="556" 
d="M285 370l-105 352h150l59 -223l157 223h150l-261 -352l113 -370h-150l-66 245l-174 -245h-150z" />
    <glyph glyph-name="Y" unicode="Y" horiz-adv-x="556" 
d="M314 722l61 -286l187 286h144l-295 -434l-64 -288h-138l64 288l-103 434h144z" />
    <glyph glyph-name="Z" unicode="Z" horiz-adv-x="556" 
d="M556 116l-26 -116h-514l26 117l445 489h-314l26 116h488l-24 -110l-459 -496h352z" />
    <glyph glyph-name="bracketleft" unicode="[" horiz-adv-x="333" 
d="M271 -74h-235l176 796h233l-13 -60h-125l-150 -676h127z" />
    <glyph glyph-name="backslash" unicode="\" horiz-adv-x="278" 
d="M195 -10l-61 742h109l61 -742h-109z" />
    <glyph glyph-name="bracketright" unicode="]" horiz-adv-x="333" 
d="M265 -74h-235l13 60h127l150 676h-125l13 60h233z" />
    <glyph glyph-name="asciicircum" unicode="^" horiz-adv-x="600" 
d="M256 347h-109l263 375h100l97 -375h-110l-62 263z" />
    <glyph glyph-name="underscore" unicode="_" horiz-adv-x="500" 
d="M472 -125h-500l11 50h500z" />
    <glyph glyph-name="grave" unicode="`" horiz-adv-x="278" 
d="M134 732h154l62 -146h-102z" />
    <glyph glyph-name="a" unicode="a" horiz-adv-x="500" 
d="M450 0h-121l2 45q-94 -55 -174 -55q-67 0 -95 40.5t-16 97.5q20 88 103.5 137t240.5 67l9 44q7 29 -10.5 45.5t-51.5 16.5q-68 0 -128 -64l-67 61q34 41 96.5 68.5t118.5 26.5q107 -2 143.5 -48.5t10.5 -161.5l-54 -245q-11 -46 -7 -75zM346 137l25 112
q-44 -8 -66.5 -13.5t-56 -17.5t-51 -30.5t-23.5 -44.5q-7 -29 6 -45t40 -16q48 0 126 55z" />
    <glyph glyph-name="b" unicode="b" horiz-adv-x="556" 
d="M64 0l160 722h124l-55 -250h2q23 24 64.5 41t73.5 17q95 0 134.5 -76.5t17.5 -179.5q-28 -126 -99.5 -205t-171.5 -79q-73 0 -127 66l-26 -56h-97zM274 386l-56 -250q4 -3 15 -15t17 -16.5t20.5 -9.5t33.5 -5q56 0 95.5 44t58.5 126q18 82 -2.5 126t-76.5 44
q-48 0 -105 -44z" />
    <glyph glyph-name="c" unicode="c" horiz-adv-x="500" 
d="M542 391l-112 -40q-9 39 -26.5 59t-58.5 20q-102 0 -139 -170q-20 -87 -3.5 -128.5t71.5 -41.5q65 0 128 83l83 -53q-53 -69 -109 -100t-128 -30q-105 0 -149.5 73t-16.5 197q27 124 103.5 197t181.5 73q74 0 121 -37t54 -102z" />
    <glyph glyph-name="d" unicode="d" horiz-adv-x="556" 
d="M652 722l-160 -722h-105l6 56q-81 -66 -155 -66q-100 0 -136.5 79t-8.5 205q22 103 95.5 179.5t168.5 76.5q32 0 66.5 -17t47.5 -41h2l55 250h124zM398 136l56 250q-38 44 -87 44q-56 0 -95.5 -44t-57.5 -126q-19 -82 1.5 -126t76.5 -44q19 0 36 5t24.5 9.5t24.5 16.5
t21 15z" />
    <glyph glyph-name="e" unicode="e" horiz-adv-x="500" 
d="M220 324h200q10 54 -10 84t-65 30t-78.5 -30t-46.5 -84zM515 240h-314q-16 -77 6 -113.5t69 -36.5q40 0 67.5 15t62.5 47l77 -56q-92 -106 -241 -106q-101 0 -144.5 73t-15.5 197q27 124 103.5 197t181.5 73q98 1 139.5 -69.5t20.5 -169.5z" />
    <glyph glyph-name="f" unicode="f" horiz-adv-x="333" 
d="M406 420h-105l-93 -420h-124l93 420h-72l22 100h71l14 64q18 82 60 115t120 33h82l-22 -100h-34q-39 0 -57 -13t-25 -43l-13 -56h105z" />
    <glyph glyph-name="g" unicode="g" horiz-adv-x="500" 
d="M216 10q-45 0 -70.5 -19t-30.5 -41q-7 -31 21 -44.5t104 -13.5q53 0 84.5 19.5t35.5 38.5q3 14 -7.5 26.5t-45.5 23t-91 10.5zM400 352q8 36 -11.5 61t-54.5 25q-39 0 -70 -24.5t-39 -61.5q-8 -36 12 -61t59 -25q35 0 65.5 25t38.5 61zM605 530l-18 -84q-61 0 -83 -12
q20 -40 8 -92q-17 -76 -77.5 -122t-155.5 -46q-49 0 -74.5 -6t-30.5 -26q-4 -19 19.5 -28t61.5 -9t81 -5.5t79 -15.5t54.5 -40.5t7.5 -79.5q-13 -62 -86 -108t-189 -46q-108 0 -163 32t-42 92q11 46 45 71t71 25v2q-3 2 -19 11t-23.5 16t-14 22t-1.5 35q7 33 41.5 60.5
t60.5 34.5q-64 64 -47 138t83 127.5t162 53.5q34 0 67 -12.5t51 -33.5q47 49 132 46z" />
    <glyph glyph-name="h" unicode="h" horiz-adv-x="556" 
d="M188 0h-124l160 722h124l-57 -258q93 66 164 66q76 0 105 -46t11 -128l-79 -356h-124l75 338q11 51 0 71.5t-44 20.5q-68 0 -128 -55z" />
    <glyph glyph-name="i" unicode="i" horiz-adv-x="278" 
d="M316 520l-115 -520h-124l115 520h124zM338 616h-124l25 116h124z" />
    <glyph glyph-name="j" unicode="j" horiz-adv-x="278" 
d="M-37 -182l22 101q39 -3 40 -3q23 0 37.5 14t23.5 50l119 540h124l-124 -560q-17 -79 -59.5 -114.5t-119.5 -35.5q-34 0 -63 8zM351 616h-124l25 116h124z" />
    <glyph glyph-name="k" unicode="k" horiz-adv-x="500" 
d="M188 0h-124l160 722h124l-89 -403h4l197 201h142l-196 -194l92 -326h-132l-63 233l-80 -73z" />
    <glyph glyph-name="l" unicode="l" horiz-adv-x="278" 
d="M201 0h-124l160 722h124z" />
    <glyph glyph-name="m" unicode="m" horiz-adv-x="833" 
d="M188 0h-124l115 520h113l-12 -56q46 35 83 50.5t87 15.5q42 0 72.5 -20t39.5 -56q92 76 195 76q50 0 81 -36t13 -120l-83 -374h-124l80 363q15 64 -47 67q-43 0 -116 -56l-83 -374h-124l80 363q15 64 -47 67q-43 0 -116 -56z" />
    <glyph glyph-name="n" unicode="n" horiz-adv-x="556" 
d="M188 0h-124l115 520h114l-12 -56q109 66 174 66q76 0 105 -46t11 -128l-79 -356h-124l75 338q11 51 0 71.5t-44 20.5q-68 0 -128 -55z" />
    <glyph glyph-name="o" unicode="o" horiz-adv-x="500" 
d="M410 260q37 170 -65 170t-139 -170q-38 -170 64 -170t140 170zM82 260q27 124 103.5 197t181.5 73t149.5 -73t17.5 -197q-28 -124 -104.5 -197t-181.5 -73t-149.5 73t-16.5 197z" />
    <glyph glyph-name="p" unicode="p" horiz-adv-x="556" 
d="M22 -190l157 710h119l-10 -48q71 58 145 58q100 0 136.5 -78.5t9.5 -205.5q-23 -103 -96.5 -179.5t-168.5 -76.5q-32 0 -66.5 17t-46.5 41h-2l-53 -238h-124zM273 384l-55 -250q38 -44 86 -44q56 0 95.5 44t58.5 126q18 82 -2.5 126t-76.5 44q-19 0 -35.5 -5t-25 -10
t-24 -16t-21.5 -15z" />
    <glyph glyph-name="q" unicode="q" horiz-adv-x="556" 
d="M607 520l-157 -710h-124l53 238h-2q-24 -24 -65.5 -41t-73.5 -17q-64 0 -105 38t-49.5 95t3.5 123q27 126 98.5 205t171.5 79q73 0 127 -66l26 56h97zM398 134l55 250q-2 2 -14 14.5t-17.5 16.5t-20.5 9.5t-34 5.5q-56 0 -95.5 -44t-57.5 -126q-19 -82 1.5 -126t76.5 -44
q49 0 106 44z" />
    <glyph glyph-name="r" unicode="r" horiz-adv-x="333" 
d="M180 0h-124l115 520h114l-19 -89h2q67 96 167 99l-29 -131q-5 1 -21 1q-41 0 -86 -34.5t-49 -49.5z" />
    <glyph glyph-name="s" unicode="s" horiz-adv-x="444" 
d="M495 451l-93 -68q-39 55 -85 55q-69 0 -81 -51q-5 -24 18 -40.5t58 -29t69.5 -29.5t53.5 -53t7 -89q-17 -78 -78 -117t-147 -39q-126 0 -174 105l97 62q38 -75 104 -75q33 0 57 16.5t30 42.5q5 24 -18 41t-58 30t-69.5 30t-53.5 52t-8 85q16 70 75 110.5t130 40.5
q54 0 98 -20t68 -59z" />
    <glyph glyph-name="t" unicode="t" horiz-adv-x="333" 
d="M127 520h72l38 172h124l-38 -172h102l-22 -100h-102l-65 -294q-4 -20 4.5 -28t32.5 -8q11 0 59 10l-22 -102q-70 -8 -100 -8q-128 0 -102 120l69 310h-72z" />
    <glyph glyph-name="u" unicode="u" horiz-adv-x="556" 
d="M483 520h124l-115 -520h-114l12 56q-109 -66 -174 -66q-76 0 -105 46t-11 128l79 356h124l-75 -338q-11 -51 0 -71.5t44 -20.5q68 0 128 55z" />
    <glyph glyph-name="v" unicode="v" horiz-adv-x="444" 
d="M155 0l-30 520h124l8 -352h2l166 352h124l-264 -520h-130z" />
    <glyph glyph-name="w" unicode="w" horiz-adv-x="667" 
d="M144 0l-19 520h118l-1 -324h2l147 324h115v-324h2l146 324h118l-249 -520h-112l-5 324h-2l-148 -324h-112z" />
    <glyph glyph-name="x" unicode="x" horiz-adv-x="444" 
d="M4 0l213 270l-92 250h137l41 -144l106 144h134l-201 -250l98 -270h-132l-51 162l-120 -162h-133z" />
    <glyph glyph-name="y" unicode="y" horiz-adv-x="444" 
d="M-31 -186l22 102q18 -4 51 -4q61 0 92 41q28 42 33 61q2 14 1.5 20t-2 21t-1.5 21l-41 444h125l15 -320h2l160 320h124l-279 -521q-66 -111 -116 -150t-127 -39q-31 0 -59 4z" />
    <glyph glyph-name="z" unicode="z" horiz-adv-x="444" 
d="M132 420l22 100h385l-19 -88l-324 -332h252l-22 -100h-408l20 88l324 332h-230z" />
    <glyph glyph-name="braceleft" unicode="{" horiz-adv-x="333" 
d="M73 294l13 60q31 0 54.5 18t30.5 47l43 194q13 59 54.5 89t99.5 30h71l-13 -60h-49q-20 0 -34 -14.5t-19 -35.5l-42 -190q-11 -49 -34 -73t-66 -34v-2q39 -10 51 -34t1 -73l-42 -190q-5 -21 3 -35.5t28 -14.5h49l-14 -60h-71q-58 0 -86 30t-15 89l43 194q7 29 -9 47
t-47 18z" />
    <glyph glyph-name="bar" unicode="|" horiz-adv-x="470" 
d="M269 840h93v-1120h-93v1120z" />
    <glyph glyph-name="braceright" unicode="}" horiz-adv-x="333" 
d="M403 354l-13 -60q-30 0 -53.5 -17.5t-30.5 -47.5l-43 -194q-13 -59 -55 -89t-100 -30h-71l14 60h49q20 0 34 14.5t19 35.5l42 190q11 49 34 73t66 34v2q-39 10 -51 34t-1 73l42 190q5 21 -3 35.5t-28 14.5h-49l13 60h71q58 0 86.5 -30t15.5 -89l-43 -194
q-7 -30 8.5 -47.5t46.5 -17.5z" />
    <glyph glyph-name="asciitilde" unicode="~" horiz-adv-x="600" 
d="M573 350l15 -90q-26 -28 -42.5 -43t-46 -29.5t-61.5 -14.5q-16 0 -32 5t-25 9.5t-26.5 15.5t-24.5 15q-42 24 -84 24q-56 0 -103 -72l-15 90q61 86 143 86q40 0 107.5 -34t90.5 -34q19 0 39 12t32 24.5t33 35.5z" />
    <glyph glyph-name="uni00A0" unicode="&#xa0;" horiz-adv-x="305" 
 />
    <glyph glyph-name="exclamdown" unicode="&#xa1;" horiz-adv-x="333" 
d="M53 -180l132 478h96l-80 -478h-148zM218 542h138l-31 -142h-138z" />
    <glyph glyph-name="cent" unicode="&#xa2;" 
d="M259 126l174 300q-11 4 -30 4q-53 0 -92 -42.5t-57 -127.5q-20 -91 5 -134zM473 394l-173 -299q11 -5 32 -5q65 0 128 83l83 -53q-53 -69 -109 -100t-128 -30q-33 0 -62 8l-73 -123h-58l84 145q-46 31 -61 93t4 147q27 124 103.5 197t181.5 73q35 0 65 -8l61 106h58
l-74 -128q56 -35 65 -109l-112 -40q-6 23 -15 43z" />
    <glyph glyph-name="sterling" unicode="&#xa3;" 
d="M461 314h-116q-26 -114 -65 -166q60 -42 109 -42q25 0 42.5 8.5t29.5 29t17 33t14 41.5h120q-22 -99 -79 -163.5t-139 -64.5q-67 0 -105.5 14t-84.5 48q-70 -65 -154 -62l27 124q52 4 82.5 45.5t42.5 96.5q6 31 9 58h-95l20 94h81q4 72 15 125q22 97 89 148t175 51
q99 0 143.5 -57.5t22.5 -155.5h-120q6 52 -10.5 78.5t-66.5 26.5q-82 0 -106 -104q-10 -45 -8 -112h130z" />
    <glyph glyph-name="currency" unicode="&#xa4;" 
d="M689 558l-64 -52q32 -67 14 -145t-78 -145l40 -52l-76 -64l-44 51q-75 -44 -152 -44q-79 0 -134 44l-66 -51l-48 64l64 52q-32 67 -14 145t78 145l-40 52l76 64l44 -51q75 44 152 44q79 0 134 -44l66 51zM245 361q-14 -64 16 -106t91 -42t110 42t63 106t-16 106t-91 42
t-110 -42t-63 -106z" />
    <glyph glyph-name="yen" unicode="&#xa5;" 
d="M407 202l-45 -202h-114l45 202h-180l21 94h176l-19 68h-142l21 94h95l-77 264h124l84 -310l223 310h124l-193 -264h94l-21 -94h-141l-50 -68h176l-21 -94h-180z" />
    <glyph glyph-name="brokenbar" unicode="&#xa6;" horiz-adv-x="469" 
d="M269 756h92v-392h-92v392zM269 196h92v-391h-92v391z" />
    <glyph glyph-name="section" unicode="&#xa7;" horiz-adv-x="500" 
d="M550 652l-81 -55q-32 53 -70 53q-20 0 -37 -12t-21 -30q-5 -22 13.5 -52t47.5 -61.5t57 -66t44 -75.5t8 -78q-9 -39 -42 -71.5t-91 -42.5q39 -54 25 -117q-14 -60 -63 -94t-110 -34q-86 0 -141 85l80 53q25 -56 71 -56q59 0 70 50q5 25 -13 58t-47.5 66.5t-58 68
t-45.5 74t-10 73.5q10 48 48.5 80.5t86.5 35.5q-35 57 -22 112q12 53 56 84.5t103 31.5q53 0 83 -17t59 -63zM232 398q-5 -22 47 -93q55 -76 84 -76q19 0 33.5 11t19.5 29q2 11 -4.5 27t-14.5 27.5t-31 43.5q-50 71 -82 71q-17 0 -32.5 -11.5t-19.5 -28.5z" />
    <glyph glyph-name="dieresis" unicode="&#xa8;" horiz-adv-x="278" 
d="M142 712h120l-26 -116h-120zM332 712h120l-26 -116h-120z" />
    <glyph glyph-name="copyright" unicode="&#xa9;" horiz-adv-x="800" 
d="M398 -10q-75 0 -138.5 25t-106 73t-58.5 117t3 156q38 168 172.5 269.5t291.5 101.5q75 0 138.5 -25t106 -73t58.5 -117t-3 -156q-38 -168 -172.5 -269.5t-291.5 -101.5zM764 361q29 130 -35 214.5t-183 84.5q-120 0 -220.5 -84t-129.5 -215t34.5 -215t183.5 -84
q119 0 220 84.5t130 214.5zM572 305h90q-28 -74 -87.5 -115.5t-126.5 -41.5q-93 0 -137.5 61.5t-23.5 154.5q21 95 91 155.5t164 60.5q69 0 108 -39.5t35 -112.5h-86q1 33 -20.5 48.5t-56.5 15.5q-48 0 -82 -34t-47 -92q-12 -56 8 -93t66 -37q82 0 105 69z" />
    <glyph glyph-name="ordfeminine" unicode="&#xaa;" horiz-adv-x="300" 
d="M379 414h-84l1 28q-53 -34 -109 -34q-43 0 -61.5 24t-10.5 59q12 53 64.5 82t150.5 40l5 23q4 16 -5.5 24t-31.5 8q-48 0 -81 -30l-43 37q21 25 61.5 41.5t76.5 15.5q70 -2 93.5 -29.5t8.5 -96.5l-32 -147q-7 -27 -3 -45zM304 496l15 67q-25 -4 -39 -7.5t-33 -10.5
t-29.5 -18t-14.5 -27q-7 -28 27 -28q48 0 74 24z" />
    <glyph glyph-name="guillemotleft" unicode="&#xab;" horiz-adv-x="556" 
d="M117 257l156 163h112l-159 -163l88 -157h-112zM321 257l156 163h112l-159 -163l88 -157h-112z" />
    <glyph glyph-name="logicalnot" unicode="&#xac;" horiz-adv-x="600" 
d="M473 96l49 220h-412l24 108h520l-73 -328h-108z" />
    <glyph glyph-name="uni00AD" unicode="&#xad;" horiz-adv-x="333" 
d="M335 206h-245l24 108h245z" />
    <glyph glyph-name="registered" unicode="&#xae;" horiz-adv-x="800" 
d="M410 329l-38 -171h-88l90 407h153q84 0 119 -28t20 -95q-23 -102 -136 -108l67 -176h-89l-57 171h-41zM447 497l-22 -100h77q66 0 78 54q6 26 -10 36t-50 10h-73zM398 -10q-75 0 -138.5 25t-106 73t-58.5 117t3 156q38 168 172.5 269.5t291.5 101.5q75 0 138.5 -25
t106 -73t58.5 -117t-3 -156q-38 -168 -172.5 -269.5t-291.5 -101.5zM764 361q29 130 -35 214.5t-183 84.5q-120 0 -220.5 -84t-129.5 -215t34.5 -215t183.5 -84q119 0 220 84.5t130 214.5z" />
    <glyph glyph-name="macron" unicode="&#xaf;" horiz-adv-x="278" 
d="M449 618h-346l16 74h346z" />
    <glyph glyph-name="degree" unicode="&#xb0;" horiz-adv-x="400" 
d="M299 446q-60 0 -92 41.5t-19 101.5t63.5 101.5t110.5 41.5t92.5 -41.5t19.5 -101.5q-14 -60 -64.5 -101.5t-110.5 -41.5zM252 589q-8 -33 9.5 -58t50.5 -25t61.5 25t36.5 58q7 33 -10.5 58t-50.5 25t-61.5 -25t-35.5 -58z" />
    <glyph glyph-name="plusminus" unicode="&#xb1;" horiz-adv-x="600" 
d="M332 388l29 132h108l-29 -132h206l-24 -108h-206l-29 -133h-108l29 133h-206l24 108h206zM40 0l24 108h520l-24 -108h-520z" />
    <glyph glyph-name="twosuperior" unicode="&#xb2;" horiz-adv-x="366" 
d="M401 292h-316l16 72q10 22 54 55t91 61.5t88.5 62t46.5 58.5q14 59 -53 59q-66 0 -100 -67l-71 15q20 54 72.5 89t115.5 35q65 0 102 -33.5t24 -91.5q-7 -30 -23.5 -55.5t-45.5 -49t-55.5 -41.5t-70.5 -46.5t-75 -50.5h216z" />
    <glyph glyph-name="threesuperior" unicode="&#xb3;" horiz-adv-x="366" 
d="M229 490l14 66q120 0 132 55q5 21 -9 34.5t-43 14.5q-48 -1 -99 -43l-46 48q78 67 164 67q67 0 101.5 -29t22.5 -82q-15 -67 -91 -93v-2q80 -23 61 -109q-14 -63 -70.5 -97t-124.5 -34q-52 0 -91.5 23.5t-53.5 67.5l75 35q25 -54 87 -54q32 0 58.5 17.5t33.5 47.5
q4 19 -2.5 32t-17.5 19.5t-31 10.5t-34 4.5t-36 0.5z" />
    <glyph glyph-name="acute" unicode="&#xb4;" horiz-adv-x="278" 
d="M314 732h154l-178 -146h-102z" />
    <glyph glyph-name="mu" unicode="&#xb5;" horiz-adv-x="556" 
d="M483 520h124l-115 -520h-114l12 56q-109 -66 -174 -66q-12 0 -30 2l-40 -182h-124l157 710h124l-75 -338q-11 -51 0 -71.5t44 -20.5q68 0 128 55z" />
    <glyph glyph-name="paragraph" unicode="&#xb6;" horiz-adv-x="620" 
d="M205 -68l97 437q-89 0 -133.5 47t-26.5 126q41 180 250 180h354l-19 -84h-73l-156 -706h-102l156 706h-89l-156 -706h-102z" />
    <glyph glyph-name="periodcentered" unicode="&#xb7;" horiz-adv-x="305" 
d="M286 260q-7 -32 -35 -54t-60 -22q-31 0 -48 22t-9 54q7 31 33 53.5t57 22.5q32 0 50.5 -22.5t11.5 -53.5z" />
    <glyph glyph-name="cedilla" unicode="&#xb8;" horiz-adv-x="278" 
d="M-24 -203l27 42q43 -16 75 -16q27 0 41.5 9t19.5 33q4 18 -6 24.5t-30 6.5q-13 0 -43 -6l-16 20l79 90h53l-57 -63q22 5 37 5q37 0 58 -19.5t13 -56.5q-10 -46 -54.5 -70.5t-93.5 -24.5q-44 0 -103 26z" />
    <glyph glyph-name="onesuperior" unicode="&#xb9;" horiz-adv-x="366" 
d="M369 292h-229l14 66h67l64 288h-77l13 56q72 3 108 30h67l-83 -374h70z" />
    <glyph glyph-name="ordmasculine" unicode="&#xba;" horiz-adv-x="300" 
d="M336 570q22 98 -38 98q-61 0 -83 -98q-20 -98 40 -98q61 0 81 98zM129 570q17 75 65.5 118.5t117.5 43.5q68 0 97.5 -43.5t12.5 -118.5t-65.5 -118.5t-116.5 -43.5q-69 0 -98.5 43.5t-12.5 118.5z" />
    <glyph glyph-name="guillemotright" unicode="&#xbb;" horiz-adv-x="556" 
d="M554 263l-156 -163h-112l159 163l-88 157h112zM350 263l-156 -163h-112l159 163l-88 157h112z" />
    <glyph glyph-name="onequarter" unicode="&#xbc;" horiz-adv-x="916" 
d="M770 166l39 176h-2l-164 -176h127zM552 100l19 84l247 250h103l-59 -268h63l-15 -66h-63l-22 -100h-92l22 100h-203zM209 -10l577 742h88l-576 -742h-89zM379 292h-229l14 66h67l64 288h-77l13 56q72 3 108 30h67l-83 -374h70z" />
    <glyph glyph-name="onehalf" unicode="&#xbd;" horiz-adv-x="916" 
d="M193 -10l577 742h88l-576 -742h-89zM379 292h-229l14 66h67l64 288h-77l13 56q72 3 108 30h67l-83 -374h70zM848 0h-316l16 72q10 22 54 55t91 61.5t88.5 62t47.5 58.5q12 59 -53 59q-67 0 -100 -67l-72 15q20 54 73 89t116 35q65 0 101.5 -33t23.5 -92
q-7 -30 -23.5 -55.5t-45 -49t-55.5 -41.5t-71 -46.5t-75 -50.5h216z" />
    <glyph glyph-name="threequarters" unicode="&#xbe;" horiz-adv-x="916" 
d="M245 490l14 66q120 0 132 55q5 21 -9 34.5t-43 14.5q-48 -1 -99 -43l-46 48q78 67 164 67q67 0 101.5 -29t22.5 -82q-15 -67 -91 -93v-2q80 -23 61 -109q-14 -63 -70.5 -97t-124.5 -34q-52 0 -91.5 23.5t-53.5 67.5l75 35q25 -54 87 -54q32 0 58.5 17.5t33.5 47.5
q4 19 -2.5 32t-17.5 19.5t-31 10.5t-34 4.5t-36 0.5zM223 -10l577 742h88l-576 -742h-89zM552 100l19 84l247 250h103l-59 -268h63l-15 -66h-63l-22 -100h-92l22 100h-203zM770 166l39 176h-2l-164 -176h127z" />
    <glyph glyph-name="questiondown" unicode="&#xbf;" horiz-adv-x="444" 
d="M257 299h110l-12 -55q-14 -62 -97 -151q-3 -3 -12.5 -13.5t-12.5 -13.5t-11.5 -12.5t-12 -13.5t-10.5 -12.5t-10 -13l-8 -12t-7.5 -13.5t-5 -12.5t-3.5 -12.5q-5 -22 10.5 -38t40.5 -16q33 0 61.5 26.5t41.5 61.5l107 -32q-35 -74 -97.5 -115t-142.5 -41q-77 0 -120 42.5
t-26 117.5q7 31 25.5 60.5t35 47.5t45.5 45q33 31 47 44.5t32 41t24 53.5zM295 542h138l-31 -142h-138z" />
    <glyph glyph-name="Agrave" unicode="&#xc0;" 
d="M437 584l-154 -314h168l-12 314h-2zM13 0l368 723h172l45 -723h-137l-5 156h-228l-78 -156h-137zM340 908h154l62 -146h-102z" />
    <glyph glyph-name="Aacute" unicode="&#xc1;" 
d="M437 584l-154 -314h168l-12 314h-2zM13 0l368 723h172l45 -723h-137l-5 156h-228l-78 -156h-137zM520 908h154l-178 -146h-102z" />
    <glyph glyph-name="Acircumflex" unicode="&#xc2;" 
d="M437 584l-154 -314h168l-12 314h-2zM13 0l368 723h172l45 -723h-137l-5 156h-228l-78 -156h-137zM444 908h124l83 -146h-113l-45 82l-82 -82h-112z" />
    <glyph glyph-name="Atilde" unicode="&#xc3;" 
d="M437 584l-154 -314h168l-12 314h-2zM13 0l368 723h172l45 -723h-137l-5 156h-228l-78 -156h-137zM623 898h65q-53 -122 -138 -122q-26 0 -73 17.5t-66 17.5q-32 0 -55 -41h-62q18 51 55 86.5t86 35.5q30 0 74.5 -18.5t57.5 -18.5q17 0 32.5 12.5t23.5 30.5z" />
    <glyph glyph-name="Adieresis" unicode="&#xc4;" 
d="M437 584l-154 -314h168l-12 314h-2zM13 0l368 723h172l45 -723h-137l-5 156h-228l-78 -156h-137zM348 888h120l-26 -116h-120zM538 888h120l-26 -116h-120z" />
    <glyph glyph-name="Aring" unicode="&#xc5;" 
d="M437 584l-154 -314h168l-12 314h-2zM13 0l368 723h172l45 -723h-137l-5 156h-228l-78 -156h-137zM391 869q10 45 48.5 76.5t83.5 31.5t69.5 -31.5t14.5 -76.5q-11 -45 -49 -76.5t-83 -31.5t-69.5 31.5t-14.5 76.5zM445 869q-5 -22 7 -38t35 -16q22 0 41.5 15.5t24.5 38.5
t-7.5 38.5t-34.5 15.5q-23 0 -42.5 -16t-23.5 -38z" />
    <glyph glyph-name="AE" unicode="&#xc6;" horiz-adv-x="944" 
d="M154 0h-147l523 722h525l-26 -116h-303l-38 -172h210l-26 -116h-210l-44 -202h314l-26 -116h-452l37 169h-220zM354 285h163l75 337h-2z" />
    <glyph glyph-name="Ccedilla" unicode="&#xc7;" 
d="M692 542l-131 -30q-12 104 -108 104q-70 0 -123.5 -65t-81.5 -190q-57 -255 95 -255q48 0 84.5 22.5t80.5 84.5l121 -34q-99 -176 -285 -188l-49 -54q22 5 37 5q37 0 58 -19.5t13 -56.5q-10 -46 -54.5 -70.5t-93.5 -24.5q-44 0 -103 26l27 42q43 -16 75 -16q27 0 41.5 9
t19.5 33q4 18 -6 24.5t-30 6.5q-13 0 -43 -6l-16 20l71 81q-123 10 -170.5 106t-10.5 264q39 177 136.5 274t235.5 97q203 0 210 -190z" />
    <glyph glyph-name="Egrave" unicode="&#xc8;" 
d="M573 0h-489l160 722h478l-26 -116h-340l-38 -172h247l-26 -116h-247l-44 -202h351zM359 908h154l62 -146h-102z" />
    <glyph glyph-name="Eacute" unicode="&#xc9;" 
d="M573 0h-489l160 722h478l-26 -116h-340l-38 -172h247l-26 -116h-247l-44 -202h351zM539 908h154l-178 -146h-102z" />
    <glyph glyph-name="Ecircumflex" unicode="&#xca;" 
d="M573 0h-489l160 722h478l-26 -116h-340l-38 -172h247l-26 -116h-247l-44 -202h351zM463 908h124l83 -146h-113l-45 82l-82 -82h-112z" />
    <glyph glyph-name="Edieresis" unicode="&#xcb;" 
d="M573 0h-489l160 722h478l-26 -116h-340l-38 -172h247l-26 -116h-247l-44 -202h351zM367 888h120l-26 -116h-120zM557 888h120l-26 -116h-120z" />
    <glyph glyph-name="Igrave" unicode="&#xcc;" horiz-adv-x="333" 
d="M235 0h-138l160 722h138zM198 908h154l62 -146h-102z" />
    <glyph glyph-name="Iacute" unicode="&#xcd;" horiz-adv-x="333" 
d="M235 0h-138l160 722h138zM378 908h154l-178 -146h-102z" />
    <glyph glyph-name="Icircumflex" unicode="&#xce;" horiz-adv-x="333" 
d="M235 0h-138l160 722h138zM302 908h124l83 -146h-113l-45 82l-82 -82h-112z" />
    <glyph glyph-name="Idieresis" unicode="&#xcf;" horiz-adv-x="333" 
d="M235 0h-138l160 722h138zM206 888h120l-26 -116h-120zM396 888h120l-26 -116h-120z" />
    <glyph glyph-name="Eth" unicode="&#xd0;" horiz-adv-x="667" 
d="M78 0l69 310h-67l27 124h67l64 288h239q150 0 217 -88.5t27 -272.5q-42 -184 -148 -272.5t-256 -88.5h-239zM350 606l-38 -172h149l-27 -124h-149l-43 -194h92q57 0 101 19.5t72.5 55.5t46 76.5t29.5 93.5q55 245 -141 245h-92z" />
    <glyph glyph-name="Ntilde" unicode="&#xd1;" horiz-adv-x="722" 
d="M211 0h-130l160 722h144l175 -492h2l109 492h130l-160 -722h-133l-181 514h-2zM678 898h65q-53 -122 -138 -122q-26 0 -73 17.5t-66 17.5q-32 0 -55 -41h-62q18 51 55 86.5t86 35.5q30 0 74.5 -18.5t57.5 -18.5q17 0 32.5 12.5t23.5 30.5z" />
    <glyph glyph-name="Ograve" unicode="&#xd2;" horiz-adv-x="667" 
d="M578 361q56 255 -108 255q-166 0 -222 -255q-59 -255 108 -255q166 0 222 255zM716 361q-39 -178 -138.5 -274.5t-246.5 -96.5t-203.5 96.5t-17.5 274.5t138.5 274.5t246.5 96.5t203.5 -96.5t17.5 -274.5zM368 908h154l62 -146h-102z" />
    <glyph glyph-name="Oacute" unicode="&#xd3;" horiz-adv-x="667" 
d="M578 361q56 255 -108 255q-166 0 -222 -255q-59 -255 108 -255q166 0 222 255zM716 361q-39 -178 -138.5 -274.5t-246.5 -96.5t-203.5 96.5t-17.5 274.5t138.5 274.5t246.5 96.5t203.5 -96.5t17.5 -274.5zM548 908h154l-178 -146h-102z" />
    <glyph glyph-name="Ocircumflex" unicode="&#xd4;" horiz-adv-x="667" 
d="M578 361q56 255 -108 255q-166 0 -222 -255q-59 -255 108 -255q166 0 222 255zM716 361q-39 -178 -138.5 -274.5t-246.5 -96.5t-203.5 96.5t-17.5 274.5t138.5 274.5t246.5 96.5t203.5 -96.5t17.5 -274.5zM472 908h124l83 -146h-113l-45 82l-82 -82h-112z" />
    <glyph glyph-name="Otilde" unicode="&#xd5;" horiz-adv-x="667" 
d="M578 361q56 255 -108 255q-166 0 -222 -255q-59 -255 108 -255q166 0 222 255zM716 361q-39 -178 -138.5 -274.5t-246.5 -96.5t-203.5 96.5t-17.5 274.5t138.5 274.5t246.5 96.5t203.5 -96.5t17.5 -274.5zM651 898h65q-53 -122 -138 -122q-26 0 -73 17.5t-66 17.5
q-32 0 -55 -41h-62q18 51 55 86.5t86 35.5q30 0 74.5 -18.5t57.5 -18.5q17 0 32.5 12.5t23.5 30.5z" />
    <glyph glyph-name="Odieresis" unicode="&#xd6;" horiz-adv-x="667" 
d="M578 361q56 255 -108 255q-166 0 -222 -255q-59 -255 108 -255q166 0 222 255zM716 361q-39 -178 -138.5 -274.5t-246.5 -96.5t-203.5 96.5t-17.5 274.5t138.5 274.5t246.5 96.5t203.5 -96.5t17.5 -274.5zM376 888h120l-26 -116h-120zM566 888h120l-26 -116h-120z" />
    <glyph glyph-name="multiply" unicode="&#xd7;" horiz-adv-x="600" 
d="M341 184l-224 -184l-60 78l224 183l-143 183l94 76l143 -182l223 182l60 -76l-223 -183l142 -183l-94 -78z" />
    <glyph glyph-name="Oslash" unicode="&#xd8;" horiz-adv-x="667" 
d="M591 499l-323 -363q31 -30 88 -30q166 0 222 255q19 87 13 138zM233 226l322 362q-29 28 -85 28q-166 0 -222 -255q-19 -86 -15 -135zM825 762l-121 -136q50 -95 12 -265q-39 -178 -138.5 -274.5t-246.5 -96.5q-99 0 -155 43l-88 -99h-114l147 165q-49 95 -11 262
q39 178 138.5 274.5t246.5 96.5q95 0 152 -42l63 72h115z" />
    <glyph glyph-name="Ugrave" unicode="&#xd9;" horiz-adv-x="722" 
d="M559 264l101 458h138l-100 -452q-17 -76 -51.5 -132t-81 -87.5t-97.5 -46t-109 -14.5t-102.5 14t-78 47t-41.5 86.5t7 132.5l100 452h138l-101 -458q-19 -86 6 -122t97 -36t114 36t61 122zM392 908h154l62 -146h-102z" />
    <glyph glyph-name="Uacute" unicode="&#xda;" horiz-adv-x="722" 
d="M559 264l101 458h138l-100 -452q-17 -76 -51.5 -132t-81 -87.5t-97.5 -46t-109 -14.5t-102.5 14t-78 47t-41.5 86.5t7 132.5l100 452h138l-101 -458q-19 -86 6 -122t97 -36t114 36t61 122zM572 908h154l-178 -146h-102z" />
    <glyph glyph-name="Ucircumflex" unicode="&#xdb;" horiz-adv-x="722" 
d="M559 264l101 458h138l-100 -452q-17 -76 -51.5 -132t-81 -87.5t-97.5 -46t-109 -14.5t-102.5 14t-78 47t-41.5 86.5t7 132.5l100 452h138l-101 -458q-19 -86 6 -122t97 -36t114 36t61 122zM496 908h124l83 -146h-113l-45 82l-82 -82h-112z" />
    <glyph glyph-name="Udieresis" unicode="&#xdc;" horiz-adv-x="722" 
d="M559 264l101 458h138l-100 -452q-17 -76 -51.5 -132t-81 -87.5t-97.5 -46t-109 -14.5t-102.5 14t-78 47t-41.5 86.5t7 132.5l100 452h138l-101 -458q-19 -86 6 -122t97 -36t114 36t61 122zM400 888h120l-26 -116h-120zM590 888h120l-26 -116h-120z" />
    <glyph glyph-name="Yacute" unicode="&#xdd;" horiz-adv-x="556" 
d="M314 722l61 -286l187 286h144l-295 -434l-64 -288h-138l64 288l-103 434h144zM492 908h154l-178 -146h-102z" />
    <glyph glyph-name="Thorn" unicode="&#xde;" 
d="M206 0h-138l160 722h138l-29 -133h126q121 0 176 -53t31 -162t-103 -162t-200 -53h-126zM312 477l-46 -206h110q74 0 109.5 26t46.5 77t-12.5 77t-97.5 26h-110z" />
    <glyph glyph-name="germandbls" unicode="&#xdf;" horiz-adv-x="500" 
d="M177 0h-124l122 550q17 77 75.5 124.5t149.5 47.5q97 0 136 -46.5t21 -129.5q-12 -56 -36.5 -91.5t-72.5 -56.5v-2q52 -16 73.5 -65.5t2.5 -132.5q-25 -113 -82 -160.5t-143 -47.5q-17 0 -41 7t-35 17l50 88q19 -12 42 -12q61 0 86 114q30 132 -61 132h-26l23 100h16
q60 0 79 89q22 97 -52 97q-64 0 -82 -76z" />
    <glyph glyph-name="agrave" unicode="&#xe0;" horiz-adv-x="500" 
d="M450 0h-121l2 45q-94 -55 -174 -55q-67 0 -95 40.5t-16 97.5q20 88 103.5 137t240.5 67l9 44q7 29 -10.5 45.5t-51.5 16.5q-68 0 -128 -64l-67 61q34 41 96.5 68.5t118.5 26.5q107 -2 143.5 -48.5t10.5 -161.5l-54 -245q-11 -46 -7 -75zM346 137l25 112
q-44 -8 -66.5 -13.5t-56 -17.5t-51 -30.5t-23.5 -44.5q-7 -29 6 -45t40 -16q48 0 126 55zM245 732h154l62 -146h-102z" />
    <glyph glyph-name="aacute" unicode="&#xe1;" horiz-adv-x="500" 
d="M450 0h-121l2 45q-94 -55 -174 -55q-67 0 -95 40.5t-16 97.5q20 88 103.5 137t240.5 67l9 44q7 29 -10.5 45.5t-51.5 16.5q-68 0 -128 -64l-67 61q34 41 96.5 68.5t118.5 26.5q107 -2 143.5 -48.5t10.5 -161.5l-54 -245q-11 -46 -7 -75zM346 137l25 112
q-44 -8 -66.5 -13.5t-56 -17.5t-51 -30.5t-23.5 -44.5q-7 -29 6 -45t40 -16q48 0 126 55zM425 732h154l-178 -146h-102z" />
    <glyph glyph-name="acircumflex" unicode="&#xe2;" horiz-adv-x="500" 
d="M450 0h-121l2 45q-94 -55 -174 -55q-67 0 -95 40.5t-16 97.5q20 88 103.5 137t240.5 67l9 44q7 29 -10.5 45.5t-51.5 16.5q-68 0 -128 -64l-67 61q34 41 96.5 68.5t118.5 26.5q107 -2 143.5 -48.5t10.5 -161.5l-54 -245q-11 -46 -7 -75zM346 137l25 112
q-44 -8 -66.5 -13.5t-56 -17.5t-51 -30.5t-23.5 -44.5q-7 -29 6 -45t40 -16q48 0 126 55zM349 732h124l83 -146h-113l-45 82l-82 -82h-112z" />
    <glyph glyph-name="atilde" unicode="&#xe3;" horiz-adv-x="500" 
d="M450 0h-121l2 45q-94 -55 -174 -55q-67 0 -95 40.5t-16 97.5q20 88 103.5 137t240.5 67l9 44q7 29 -10.5 45.5t-51.5 16.5q-68 0 -128 -64l-67 61q34 41 96.5 68.5t118.5 26.5q107 -2 143.5 -48.5t10.5 -161.5l-54 -245q-11 -46 -7 -75zM346 137l25 112
q-44 -8 -66.5 -13.5t-56 -17.5t-51 -30.5t-23.5 -44.5q-7 -29 6 -45t40 -16q48 0 126 55zM528 722h65q-53 -122 -138 -122q-26 0 -73 17.5t-66 17.5q-32 0 -55 -41h-62q18 51 55 86.5t86 35.5q30 0 74.5 -18.5t57.5 -18.5q17 0 32.5 12.5t23.5 30.5z" />
    <glyph glyph-name="adieresis" unicode="&#xe4;" horiz-adv-x="500" 
d="M450 0h-121l2 45q-94 -55 -174 -55q-67 0 -95 40.5t-16 97.5q20 88 103.5 137t240.5 67l9 44q7 29 -10.5 45.5t-51.5 16.5q-68 0 -128 -64l-67 61q34 41 96.5 68.5t118.5 26.5q107 -2 143.5 -48.5t10.5 -161.5l-54 -245q-11 -46 -7 -75zM346 137l25 112
q-44 -8 -66.5 -13.5t-56 -17.5t-51 -30.5t-23.5 -44.5q-7 -29 6 -45t40 -16q48 0 126 55zM253 712h120l-26 -116h-120zM443 712h120l-26 -116h-120z" />
    <glyph glyph-name="aring" unicode="&#xe5;" horiz-adv-x="500" 
d="M450 0h-121l2 45q-94 -55 -174 -55q-67 0 -95 40.5t-16 97.5q20 88 103.5 137t240.5 67l9 44q7 29 -10.5 45.5t-51.5 16.5q-68 0 -128 -64l-67 61q34 41 96.5 68.5t118.5 26.5q107 -2 143.5 -48.5t10.5 -161.5l-54 -245q-11 -46 -7 -75zM346 137l25 112
q-44 -8 -66.5 -13.5t-56 -17.5t-51 -30.5t-23.5 -44.5q-7 -29 6 -45t40 -16q48 0 126 55zM296 693q10 45 48.5 76.5t83.5 31.5t69.5 -31.5t14.5 -76.5q-11 -45 -49 -76.5t-83 -31.5t-69.5 31.5t-14.5 76.5zM350 693q-5 -22 7 -38t35 -16q22 0 41.5 15.5t24.5 38.5t-7.5 38.5
t-34.5 15.5q-23 0 -42.5 -16t-23.5 -38z" />
    <glyph glyph-name="ae" unicode="&#xe6;" horiz-adv-x="778" 
d="M350 137l25 112q-45 -8 -69 -13.5t-57.5 -17.5t-51 -30.5t-23.5 -44.5q-7 -29 6 -45t40 -16q42 0 130 55zM506 324h202q10 54 -10 84t-65 30q-47 0 -80.5 -30t-46.5 -84zM803 240h-316l-11 -52q-10 -44 14 -71t72 -27q41 0 69 15t63 47l77 -56q-92 -106 -241 -106
q-111 0 -145 81q-79 -49 -129.5 -65t-98.5 -16q-67 0 -95 40.5t-16 97.5q20 88 104 137t244 67l9 44q7 29 -12.5 45.5t-53.5 16.5q-68 0 -128 -64l-67 61q34 41 96.5 68.5t118.5 26.5q108 -3 139 -56q65 56 153 56q102 1 145 -69t21 -170z" />
    <glyph glyph-name="ccedilla" unicode="&#xe7;" horiz-adv-x="500" 
d="M542 391l-112 -40q-9 39 -26.5 59t-58.5 20q-102 0 -139 -170q-20 -87 -3.5 -128.5t71.5 -41.5q65 0 128 83l83 -53q-91 -119 -206 -129l-49 -54q22 5 37 5q37 0 58 -19.5t13 -56.5q-10 -46 -54.5 -70.5t-93.5 -24.5q-44 0 -103 26l27 42q43 -16 75 -16q27 0 41.5 9
t19.5 33q4 18 -6 24.5t-30 6.5q-13 0 -43 -6l-16 20l71 81q-94 8 -132 80t-12 189q27 124 103.5 197t181.5 73q74 0 121 -37t54 -102z" />
    <glyph glyph-name="egrave" unicode="&#xe8;" horiz-adv-x="500" 
d="M220 324h200q10 54 -10 84t-65 30t-78.5 -30t-46.5 -84zM515 240h-314q-16 -77 6 -113.5t69 -36.5q40 0 67.5 15t62.5 47l77 -56q-92 -106 -241 -106q-101 0 -144.5 73t-15.5 197q27 124 103.5 197t181.5 73q98 1 139.5 -69.5t20.5 -169.5zM245 732h154l62 -146h-102z
" />
    <glyph glyph-name="eacute" unicode="&#xe9;" horiz-adv-x="500" 
d="M220 324h200q10 54 -10 84t-65 30t-78.5 -30t-46.5 -84zM515 240h-314q-16 -77 6 -113.5t69 -36.5q40 0 67.5 15t62.5 47l77 -56q-92 -106 -241 -106q-101 0 -144.5 73t-15.5 197q27 124 103.5 197t181.5 73q98 1 139.5 -69.5t20.5 -169.5zM425 732h154l-178 -146h-102z
" />
    <glyph glyph-name="ecircumflex" unicode="&#xea;" horiz-adv-x="500" 
d="M220 324h200q10 54 -10 84t-65 30t-78.5 -30t-46.5 -84zM515 240h-314q-16 -77 6 -113.5t69 -36.5q40 0 67.5 15t62.5 47l77 -56q-92 -106 -241 -106q-101 0 -144.5 73t-15.5 197q27 124 103.5 197t181.5 73q98 1 139.5 -69.5t20.5 -169.5zM349 732h124l83 -146h-113
l-45 82l-82 -82h-112z" />
    <glyph glyph-name="edieresis" unicode="&#xeb;" horiz-adv-x="500" 
d="M220 324h200q10 54 -10 84t-65 30t-78.5 -30t-46.5 -84zM515 240h-314q-16 -77 6 -113.5t69 -36.5q40 0 67.5 15t62.5 47l77 -56q-92 -106 -241 -106q-101 0 -144.5 73t-15.5 197q27 124 103.5 197t181.5 73q98 1 139.5 -69.5t20.5 -169.5zM253 712h120l-26 -116h-120z
M443 712h120l-26 -116h-120z" />
    <glyph glyph-name="igrave" unicode="&#xec;" horiz-adv-x="278" 
d="M316 520l-115 -520h-124l115 520h124zM136 732h154l62 -146h-102z" />
    <glyph glyph-name="iacute" unicode="&#xed;" horiz-adv-x="278" 
d="M316 520l-115 -520h-124l115 520h124zM316 732h154l-178 -146h-102z" />
    <glyph glyph-name="icircumflex" unicode="&#xee;" horiz-adv-x="278" 
d="M316 520l-115 -520h-124l115 520h124zM240 732h124l83 -146h-113l-45 82l-82 -82h-112z" />
    <glyph glyph-name="idieresis" unicode="&#xef;" horiz-adv-x="278" 
d="M316 520l-115 -520h-124l115 520h124zM144 712h120l-26 -116h-120zM334 712h120l-26 -116h-120z" />
    <glyph glyph-name="eth" unicode="&#xf0;" horiz-adv-x="500" 
d="M270 90q102 0 136 154t-68 154t-136 -154t68 -154zM291 688l115 34q21 -18 45 -48l111 48l22 -64l-98 -43q41 -79 53 -178t-9 -193q-25 -114 -101.5 -184t-180.5 -70t-149.5 70.5t-20.5 183.5q25 114 101.5 184t180.5 70q21 0 41 -5q-7 38 -25 74l-113 -49l-22 64l101 44
q-17 26 -51 62z" />
    <glyph glyph-name="ntilde" unicode="&#xf1;" horiz-adv-x="556" 
d="M188 0h-124l115 520h114l-12 -56q109 66 174 66q76 0 105 -46t11 -128l-79 -356h-124l75 338q11 51 0 71.5t-44 20.5q-68 0 -128 -55zM551 722h65q-53 -122 -138 -122q-26 0 -73 17.5t-66 17.5q-32 0 -55 -41h-62q18 51 55 86.5t86 35.5q30 0 74.5 -18.5t57.5 -18.5
q17 0 32.5 12.5t23.5 30.5z" />
    <glyph glyph-name="ograve" unicode="&#xf2;" horiz-adv-x="500" 
d="M410 260q37 170 -65 170t-139 -170q-38 -170 64 -170t140 170zM82 260q27 124 103.5 197t181.5 73t149.5 -73t17.5 -197q-28 -124 -104.5 -197t-181.5 -73t-149.5 73t-16.5 197zM242 732h154l62 -146h-102z" />
    <glyph glyph-name="oacute" unicode="&#xf3;" horiz-adv-x="500" 
d="M410 260q37 170 -65 170t-139 -170q-38 -170 64 -170t140 170zM82 260q27 124 103.5 197t181.5 73t149.5 -73t17.5 -197q-28 -124 -104.5 -197t-181.5 -73t-149.5 73t-16.5 197zM422 732h154l-178 -146h-102z" />
    <glyph glyph-name="ocircumflex" unicode="&#xf4;" horiz-adv-x="500" 
d="M410 260q37 170 -65 170t-139 -170q-38 -170 64 -170t140 170zM82 260q27 124 103.5 197t181.5 73t149.5 -73t17.5 -197q-28 -124 -104.5 -197t-181.5 -73t-149.5 73t-16.5 197zM346 732h124l83 -146h-113l-45 82l-82 -82h-112z" />
    <glyph glyph-name="otilde" unicode="&#xf5;" horiz-adv-x="500" 
d="M410 260q37 170 -65 170t-139 -170q-38 -170 64 -170t140 170zM82 260q27 124 103.5 197t181.5 73t149.5 -73t17.5 -197q-28 -124 -104.5 -197t-181.5 -73t-149.5 73t-16.5 197zM525 722h65q-53 -122 -138 -122q-26 0 -73 17.5t-66 17.5q-32 0 -55 -41h-62q18 51 55 86.5
t86 35.5q30 0 74.5 -18.5t57.5 -18.5q17 0 32.5 12.5t23.5 30.5z" />
    <glyph glyph-name="odieresis" unicode="&#xf6;" horiz-adv-x="500" 
d="M410 260q37 170 -65 170t-139 -170q-38 -170 64 -170t140 170zM82 260q27 124 103.5 197t181.5 73t149.5 -73t17.5 -197q-28 -124 -104.5 -197t-181.5 -73t-149.5 73t-16.5 197zM250 712h120l-26 -116h-120zM440 712h120l-26 -116h-120z" />
    <glyph glyph-name="divide" unicode="&#xf7;" horiz-adv-x="600" 
d="M606 206h-520l24 108h520zM489 449q-8 -34 -41 -61t-69 -27q-34 0 -54.5 27.5t-12.5 60.5q7 33 39.5 61t66.5 28q36 0 57 -27.5t14 -61.5zM405 70q-8 -34 -41 -61t-69 -27q-34 0 -54.5 27.5t-12.5 60.5q7 33 39.5 61t66.5 28q36 0 57 -27.5t14 -61.5z" />
    <glyph glyph-name="oslash" unicode="&#xf8;" horiz-adv-x="500" 
d="M420 342l-188 -244q16 -8 38 -8q102 0 140 170q10 46 10 82zM162 7l-83 -107h-91l118 153q-55 73 -24 207q27 124 103.5 197t181.5 73q55 0 92 -20l79 102h91l-115 -149q49 -74 20 -203q-28 -124 -104.5 -197t-181.5 -73q-49 0 -86 17zM195 169l194 250q-19 11 -44 11
q-102 0 -139 -170q-12 -56 -11 -91z" />
    <glyph glyph-name="ugrave" unicode="&#xf9;" horiz-adv-x="556" 
d="M483 520h124l-115 -520h-114l12 56q-109 -66 -174 -66q-76 0 -105 46t-11 128l79 356h124l-75 -338q-11 -51 0 -71.5t44 -20.5q68 0 128 55zM273 732h154l62 -146h-102z" />
    <glyph glyph-name="uacute" unicode="&#xfa;" horiz-adv-x="556" 
d="M483 520h124l-115 -520h-114l12 56q-109 -66 -174 -66q-76 0 -105 46t-11 128l79 356h124l-75 -338q-11 -51 0 -71.5t44 -20.5q68 0 128 55zM453 732h154l-178 -146h-102z" />
    <glyph glyph-name="ucircumflex" unicode="&#xfb;" horiz-adv-x="556" 
d="M483 520h124l-115 -520h-114l12 56q-109 -66 -174 -66q-76 0 -105 46t-11 128l79 356h124l-75 -338q-11 -51 0 -71.5t44 -20.5q68 0 128 55zM377 732h124l83 -146h-113l-45 82l-82 -82h-112z" />
    <glyph glyph-name="udieresis" unicode="&#xfc;" horiz-adv-x="556" 
d="M483 520h124l-115 -520h-114l12 56q-109 -66 -174 -66q-76 0 -105 46t-11 128l79 356h124l-75 -338q-11 -51 0 -71.5t44 -20.5q68 0 128 55zM281 712h120l-26 -116h-120zM471 712h120l-26 -116h-120z" />
    <glyph glyph-name="yacute" unicode="&#xfd;" horiz-adv-x="444" 
d="M-31 -186l22 102q18 -4 51 -4q61 0 92 41q28 42 33 61q2 14 1.5 20t-2 21t-1.5 21l-41 444h125l15 -320h2l160 320h124l-279 -521q-66 -111 -116 -150t-127 -39q-31 0 -59 4zM397 732h154l-178 -146h-102z" />
    <glyph glyph-name="thorn" unicode="&#xfe;" horiz-adv-x="556" 
d="M22 -190l202 912h119l-55 -250q71 58 145 58q100 0 136.5 -78.5t9.5 -205.5q-23 -103 -96.5 -179.5t-168.5 -76.5q-32 0 -66.5 17t-46.5 41h-2l-53 -238h-124zM273 384l-55 -250q38 -44 86 -44q56 0 95.5 44t58.5 126q18 82 -2.5 126t-76.5 44q-19 0 -35.5 -5t-25 -10
t-24 -16t-21.5 -15z" />
    <glyph glyph-name="ydieresis" unicode="&#xff;" horiz-adv-x="444" 
d="M-31 -186l22 102q18 -4 51 -4q61 0 92 41q28 42 33 61q2 14 1.5 20t-2 21t-1.5 21l-41 444h125l15 -320h2l160 320h124l-279 -521q-66 -111 -116 -150t-127 -39q-31 0 -59 4zM225 712h120l-26 -116h-120zM415 712h120l-26 -116h-120z" />
    <glyph glyph-name="dotlessi" unicode="&#x131;" horiz-adv-x="278" 
d="M316 520l-115 -520h-124l115 520h124z" />
    <glyph glyph-name="Lslash" unicode="&#x141;" horiz-adv-x="556" 
d="M293 346l-51 -230h314l-26 -116h-452l64 290l-85 -32l22 100l85 32l74 332h138l-61 -276l172 64l-22 -100z" />
    <glyph glyph-name="lslash" unicode="&#x142;" horiz-adv-x="278" 
d="M285 379l-84 -379h-124l70 317l-85 -39l22 100l85 39l68 305h124l-54 -243l86 39l-22 -100z" />
    <glyph glyph-name="OE" unicode="&#x152;" horiz-adv-x="944" 
d="M518 266l42 190q20 94 -3 127t-100 33q-38 0 -68 -10t-61 -36t-55.5 -78.5t-41.5 -130.5q-14 -63 -15.5 -109.5t7 -74t27.5 -44t41 -22t52 -5.5q77 0 116 33.5t59 126.5zM909 434l-26 -116h-216l-44 -202h323l-26 -116h-403q-38 0 -88 -5q-75 -5 -89 -5q-171 0 -229.5 93
t-17.5 278q41 186 140.5 278.5t270.5 92.5q29 0 72 -5q67 -5 84 -5h403l-26 -116h-306l-38 -172h216z" />
    <glyph glyph-name="oe" unicode="&#x153;" horiz-adv-x="778" 
d="M194 260q-38 -170 60 -170t136 170q37 170 -61 170t-135 -170zM518 324h190q10 53 -9 83.5t-61 30.5t-74.5 -30.5t-45.5 -83.5zM803 240h-304q-16 -80 2.5 -115t74.5 -35q32 0 58 15t60 47l77 -56q-92 -106 -225 -106q-98 0 -138 69q-68 -69 -178 -69q-101 0 -144.5 73
t-15.5 197q27 124 102.5 197t176.5 73q108 0 147 -67q67 67 161 67q97 1 138 -69.5t20 -169.5z" />
    <glyph glyph-name="Scaron" unicode="&#x160;" 
d="M671 569l-135 -39q-6 44 -33.5 69t-74.5 25q-103 0 -120 -80q-8 -34 25 -59t83 -45t99 -45t77 -71.5t14 -111.5q-24 -110 -102 -166t-200 -56q-90 0 -154.5 46.5t-77.5 124.5l125 50q15 -55 45 -84t87 -29q121 0 143 96q7 33 -15 59t-59.5 42t-81 37t-80 43.5t-55 62.5
t-7.5 92q21 93 100.5 147.5t177.5 54.5q88 0 146 -42.5t73 -120.5zM536 762h-124l-81 146h112l46 -82l81 82h113z" />
    <glyph glyph-name="scaron" unicode="&#x161;" horiz-adv-x="444" 
d="M495 451l-93 -68q-39 55 -85 55q-69 0 -81 -51q-5 -24 18 -40.5t58 -29t69.5 -29.5t53.5 -53t7 -89q-17 -78 -78 -117t-147 -39q-126 0 -174 105l97 62q38 -75 104 -75q33 0 57 16.5t30 42.5q5 24 -18 41t-58 30t-69.5 30t-53.5 52t-8 85q16 70 75 110.5t130 40.5
q54 0 98 -20t68 -59zM413 586h-124l-81 146h112l46 -82l81 82h113z" />
    <glyph glyph-name="Ydieresis" unicode="&#x178;" horiz-adv-x="556" 
d="M314 722l61 -286l187 286h144l-295 -434l-64 -288h-138l64 288l-103 434h144zM320 888h120l-26 -116h-120zM510 888h120l-26 -116h-120z" />
    <glyph glyph-name="Zcaron" unicode="&#x17d;" horiz-adv-x="556" 
d="M556 116l-26 -116h-514l26 117l445 489h-314l26 116h488l-24 -110l-459 -496h352zM508 762h-124l-81 146h112l46 -82l81 82h113z" />
    <glyph glyph-name="zcaron" unicode="&#x17e;" horiz-adv-x="444" 
d="M132 420l22 100h385l-19 -88l-324 -332h252l-22 -100h-408l20 88l324 332h-230zM413 586h-124l-81 146h112l46 -82l81 82h113z" />
    <glyph glyph-name="florin" unicode="&#x192;" 
d="M18 -182l42 106q33 -10 52 -10q34 0 66.5 64t164.5 388h-97l21 94h119q64 155 114.5 213.5t136.5 58.5q36 0 76 -9l-39 -106q-28 11 -45 11q-38 0 -63 -38.5t-57 -129.5h103l-21 -94h-120q-24 -55 -52 -124t-45 -111.5t-39.5 -92.5t-39.5 -80t-40 -61t-46.5 -47.5
t-54 -27.5t-67.5 -12q-25 -1 -69 8z" />
    <glyph glyph-name="circumflex" unicode="&#x2c6;" horiz-adv-x="278" 
d="M238 732h124l83 -146h-113l-45 82l-82 -82h-112z" />
    <glyph glyph-name="caron" unicode="&#x2c7;" horiz-adv-x="278" 
d="M330 586h-124l-81 146h112l46 -82l81 82h113z" />
    <glyph glyph-name="uni02C9" unicode="&#x2c9;" horiz-adv-x="278" 
d="M449 618h-346l16 74h346z" />
    <glyph glyph-name="breve" unicode="&#x2d8;" horiz-adv-x="278" 
d="M404 732h66q-53 -146 -208 -146q-72 0 -106.5 37.5t-23.5 108.5h66q-4 -37 25 -56q24 -14 64 -14q43 0 71.5 15.5t45.5 54.5z" />
    <glyph glyph-name="dotaccent" unicode="&#x2d9;" horiz-adv-x="278" 
d="M237 712h120l-26 -116h-120z" />
    <glyph glyph-name="ring" unicode="&#x2da;" horiz-adv-x="278" 
d="M185 693q10 45 48.5 76.5t83.5 31.5t69.5 -31.5t14.5 -76.5q-11 -45 -49 -76.5t-83 -31.5t-69.5 31.5t-14.5 76.5zM239 693q-5 -22 7 -38t35 -16q22 0 41.5 15.5t24.5 38.5t-7.5 38.5t-34.5 15.5q-23 0 -42.5 -16t-23.5 -38z" />
    <glyph glyph-name="ogonek" unicode="&#x2db;" horiz-adv-x="278" 
d="M263 21l-3 -12q-153 -54 -169 -125q-5 -22 7 -35t35 -13q33 0 105 41l12 -36q-99 -57 -164 -57q-45 0 -69.5 23t-15.5 66q8 36 36.5 64t69 44.5t78.5 25.5t78 14z" />
    <glyph glyph-name="tilde" unicode="&#x2dc;" horiz-adv-x="278" 
d="M417 722h65q-53 -122 -138 -122q-26 0 -73 17.5t-66 17.5q-32 0 -55 -41h-62q18 51 55 86.5t86 35.5q30 0 74.5 -18.5t57.5 -18.5q17 0 32.5 12.5t23.5 30.5z" />
    <glyph glyph-name="hungarumlaut" unicode="&#x2dd;" horiz-adv-x="278" 
d="M194 732h154l-164 -146h-98zM388 732h154l-178 -146h-102z" />
    <glyph glyph-name="uni03A9" unicode="&#x3a9;" horiz-adv-x="785" 
d="M222 91l1 3q-49 49 -72.5 125.5t-2.5 171.5q31 142 147 238.5t261 96.5q98 0 163.5 -49t86.5 -123t3 -158q-22 -97 -80 -175.5t-129 -126.5l-1 -3h157l-20 -91h-280l15 68q73 39 132.5 116t84.5 190q23 104 -16.5 182t-136.5 78q-96 0 -173 -75.5t-102 -188.5
q-23 -106 2.5 -186.5t79.5 -115.5l-15 -68h-281l20 91h156z" />
    <glyph glyph-name="uni03BC" unicode="&#x3bc;" horiz-adv-x="556" 
d="M483 520h124l-115 -520h-114l12 56q-109 -66 -174 -66q-12 0 -30 2l-40 -182h-124l157 710h124l-75 -338q-11 -51 0 -71.5t44 -20.5q68 0 128 55z" />
    <glyph glyph-name="pi" unicode="&#x3c0;" horiz-adv-x="641" 
d="M712 440h-81l-63 -283q-22 -100 -20 -157h-112q-12 28 14 149l65 291h-169q-27 -101 -78 -236t-93 -204h-113q46 82 96 213t74 227q-78 0 -117 -12l3 75q52 32 176 32h449z" />
    <glyph glyph-name="endash" unicode="&#x2013;" horiz-adv-x="500" 
d="M548 218h-500l19 84h500z" />
    <glyph glyph-name="emdash" unicode="&#x2014;" horiz-adv-x="1000" 
d="M1048 218h-1000l19 84h1000z" />
    <glyph glyph-name="quoteleft" unicode="&#x2018;" horiz-adv-x="278" 
d="M361 732l-84 -150h60l-31 -142h-138l31 142l97 150h65z" />
    <glyph glyph-name="quoteright" unicode="&#x2019;" horiz-adv-x="278" 
d="M174 430l85 150h-60l31 142h138l-31 -142l-98 -150h-65z" />
    <glyph glyph-name="quotesinglbase" unicode="&#x201a;" horiz-adv-x="278" 
d="M46 -150l84 150h-60l31 142h138l-31 -142l-97 -150h-65z" />
    <glyph glyph-name="quotedblleft" unicode="&#x201c;" horiz-adv-x="444" 
d="M556 732l-84 -150h60l-31 -142h-138l31 142l97 150h65zM333 732l-84 -150h60l-31 -142h-138l31 142l97 150h65z" />
    <glyph glyph-name="quotedblright" unicode="&#x201d;" horiz-adv-x="444" 
d="M145 430l85 150h-60l31 142h138l-31 -142l-98 -150h-65zM368 430l85 150h-60l31 142h138l-31 -142l-98 -150h-65z" />
    <glyph glyph-name="quotedblbase" unicode="&#x201e;" horiz-adv-x="444" 
d="M17 -150l84 150h-60l31 142h138l-31 -142l-97 -150h-65zM240 -150l84 150h-60l31 142h138l-31 -142l-97 -150h-65z" />
    <glyph glyph-name="dagger" unicode="&#x2020;" horiz-adv-x="500" 
d="M558 570l-23 -106l-151 30l-10 -161l-122 -407h-36l58 407l62 161l-165 -30l23 106l152 -30l16 192h100l-68 -192z" />
    <glyph glyph-name="daggerdbl" unicode="&#x2021;" horiz-adv-x="500" 
d="M273 329l64 173l-164 -30l23 106l151 -30l15 184h100l-67 -184l165 30l-23 -106l-152 30l-12 -173l-64 -173l164 30l-23 -106l-152 30l-14 -184h-100l66 184l-164 -30l23 106l152 -30z" />
    <glyph glyph-name="bullet" unicode="&#x2022;" horiz-adv-x="500" 
d="M149 361q16 75 80.5 127.5t139.5 52.5t116 -52.5t25 -127.5t-81 -128t-140 -53t-116 53t-24 128z" />
    <glyph glyph-name="ellipsis" unicode="&#x2026;" horiz-adv-x="1000" 
d="M904 0h-142l31 142h142zM571 0h-142l31 142h142zM238 0h-142l31 142h142z" />
    <glyph glyph-name="perthousand" unicode="&#x2030;" horiz-adv-x="1000" 
d="M322 722q61 0 95 -43.5t20 -104.5t-67 -104.5t-114 -43.5t-95 43.5t-20 104.5t67 104.5t114 43.5zM304 640q-28 0 -51.5 -19t-29.5 -47t9 -47t43 -19t51 19t29 47t-8.5 47t-42.5 19zM524 214q-28 0 -51 -19t-29 -47t8.5 -47t42.5 -19t51.5 19t29.5 47t-9 47t-43 19z
M543 296q61 0 95 -43.5t20 -104.5t-67 -104.5t-114 -43.5t-95 43.5t-20 104.5t67 104.5t114 43.5zM885 214q-28 0 -51 -19t-29 -47t8.5 -47t42.5 -19t51.5 19t29.5 47t-9 47t-43 19zM904 296q61 0 95 -43.5t20 -104.5t-67 -104.5t-114 -43.5t-95 43.5t-20 104.5t67 104.5
t114 43.5zM74 -10l572 742h77l-572 -742h-77z" />
    <glyph glyph-name="guilsinglleft" unicode="&#x2039;" horiz-adv-x="333" 
d="M98 257l156 163h112l-159 -163l88 -157h-112z" />
    <glyph glyph-name="guilsinglright" unicode="&#x203a;" horiz-adv-x="333" 
d="M265 420l84 -163l-155 -157h-112l158 157l-87 163h112z" />
    <glyph glyph-name="fraction" unicode="&#x2044;" horiz-adv-x="167" 
d="M-169 -10l577 742h88l-576 -742h-89z" />
    <glyph glyph-name="Euro" unicode="&#x20ac;" 
d="M128 318h50q6 28 9 43l6 25h-75l45 94h60q50 122 137 187t200 65q115 0 171 -65l-61 -123q-29 40 -60.5 58t-79.5 18q-110 0 -176 -140h284l-46 -94h-270l-16 -68h251l-45 -94h-213q5 -122 128 -122q90 0 155 47l-28 -125q-73 -34 -154 -34q-119 0 -173.5 62.5
t-55.5 171.5h-89z" />
    <glyph glyph-name="afii61289" unicode="&#x2113;" horiz-adv-x="549" 
d="M517 184l38 -48q-107 -142 -250 -142q-87 0 -123 48.5t-27 125.5q0 4 2 12q-45 -30 -68 -45l-17 62q12 8 48.5 32t54.5 38l58 263q30 132 95.5 196t145.5 64q72 0 98.5 -50t9.5 -128q-20 -90 -95.5 -178t-205.5 -187l-8 -35q-12 -62 10.5 -94.5t67.5 -32.5q83 0 166 99z
M346 540l-42 -190q176 153 201 263q22 96 -45 96q-32 0 -63 -40t-51 -129z" />
    <glyph glyph-name="trademark" unicode="&#x2122;" horiz-adv-x="1000" 
d="M754 722l36 -258h2l149 258h149l-91 -412h-100l62 281l-4 2l-162 -283h-77l-38 282h-4l-62 -282h-100l91 412h149zM523 722l-19 -84h-121l-72 -328h-100l72 328h-120l19 84h341z" />
    <glyph glyph-name="Omega" unicode="&#x2126;" horiz-adv-x="785" 
d="M222 91l1 3q-49 49 -72.5 125.5t-2.5 171.5q31 142 147 238.5t261 96.5q98 0 163.5 -49t86.5 -123t3 -158q-22 -97 -80 -175.5t-129 -126.5l-1 -3h157l-20 -91h-280l15 68q73 39 132.5 116t84.5 190q23 104 -16.5 182t-136.5 78q-96 0 -173 -75.5t-102 -188.5
q-23 -106 2.5 -186.5t79.5 -115.5l-15 -68h-281l20 91h156z" />
    <glyph glyph-name="estimated" unicode="&#x212e;" horiz-adv-x="1056" 
d="M1021 351h-668q-5 0 -5 -5v-202q0 -12 9 -23q105 -110 252 -110q158 0 266 123h59q-57 -66 -142.5 -104.5t-183.5 -38.5q-170 0 -291 108t-121 261q0 154 121 263t291 109q171 0 292 -109t121 -263v-9zM869 377v203q0 15 -10 24q-106 106 -250 106q-145 0 -251 -109
q-10 -10 -10 -25v-199q0 -7 5 -7h512q4 0 4 7z" />
    <glyph glyph-name="partialdiff" unicode="&#x2202;" 
d="M258 666l-17 81q94 60 206 60q123 0 184 -103.5t20 -287.5q-41 -186 -146 -304t-245 -118q-54 0 -93 22.5t-56 57.5t-23 78t5 84q26 117 110 190.5t182 73.5q63 0 100 -31t50 -63h1q2 5 5.5 19.5t4.5 19.5q25 115 -12 192.5t-120 77.5q-81 0 -156 -49zM291 87h1
q64 0 122.5 67t88.5 156q-4 35 -34.5 67.5t-81.5 32.5q-60 0 -112 -51.5t-68 -124.5q-14 -63 9 -105t75 -42z" />
    <glyph glyph-name="Delta" unicode="&#x2206;" horiz-adv-x="712" 
d="M30 0l15 68l407 664h137l107 -663l-15 -69h-651zM169 91h407l-60 340q-2 19 -12 89t-12 96h-4q-10 -20 -48 -85t-49 -84z" />
    <glyph glyph-name="product" unicode="&#x220f;" horiz-adv-x="929" 
d="M904 612h-115v-711h-114v711h-262v-711h-114v711h-116v102h721v-102z" />
    <glyph glyph-name="summation" unicode="&#x2211;" horiz-adv-x="761" 
d="M741 -99h-559v72l272 334l-261 329v78h531v-97h-372v-4l234 -289l-256 -315v-3h411v-105z" />
    <glyph glyph-name="minus" unicode="&#x2212;" horiz-adv-x="600" 
d="M606 206h-520l24 108h520z" />
    <glyph glyph-name="uni2215" unicode="&#x2215;" horiz-adv-x="167" 
d="M-169 -10l577 742h88l-576 -742h-89z" />
    <glyph glyph-name="uni2219" unicode="&#x2219;" horiz-adv-x="305" 
d="M286 260q-7 -32 -35 -54t-60 -22q-31 0 -48 22t-9 54q7 31 33 53.5t57 22.5q32 0 50.5 -22.5t11.5 -53.5z" />
    <glyph glyph-name="radical" unicode="&#x221a;" horiz-adv-x="792" 
d="M802 853l-244 -1001h-95l-167 457l-80 -31l-20 64l169 68l125 -353q2 -9 6.5 -26.5t8 -30.5t5.5 -23h2q1 6 4 22.5t6 32t6 29.5l191 792h83z" />
    <glyph glyph-name="infinity" unicode="&#x221e;" horiz-adv-x="927" 
d="M875 296v-1q0 -79 -50 -128t-117 -49q-48 0 -93.5 28t-98.5 94q-49 -59 -94 -90.5t-104 -31.5q-66 0 -114.5 49.5t-48.5 123.5q0 76 49 125.5t123 49.5q55 0 100.5 -31t92.5 -89q56 62 81 81q53 39 113 39q70 0 115.5 -47t45.5 -123zM327 183h1q22 0 43 8.5t43 28
t32.5 30.5t33.5 38q-31 40 -46.5 58.5t-46.5 38t-65 19.5q-45 0 -72.5 -32.5t-27.5 -81.5q0 -45 29.5 -76t75.5 -31zM707 404h-1q-19 0 -37 -7t-36 -21.5t-29 -25.5t-28.5 -31t-22.5 -25q53 -62 86 -86.5t72 -24.5q44 0 70.5 33t26.5 74q0 51 -28.5 82.5t-72.5 31.5z" />
    <glyph glyph-name="integral" unicode="&#x222b;" horiz-adv-x="565" 
d="M547 867l-14 -77q-18 9 -39 9q-36 0 -54 -25q-32 -38 -32 -176q0 -80 7.5 -244t7.5 -255q0 -136 -41 -204q-38 -68 -126 -68q-49 0 -79 18l16 80q24 -12 48 -12q32 0 49 21q33 43 33 166q0 91 -8 258.5t-8 250.5q0 88 14 140.5t48 86.5q41 44 115 44q37 0 63 -13z" />
    <glyph glyph-name="approxequal" unicode="&#x2248;" horiz-adv-x="700" 
d="M613 460l42 -40q-56 -104 -143 -104q-31 0 -56.5 9.5t-66.5 33.5q-59 35 -96 35q-23 0 -43.5 -12t-32 -25.5t-29.5 -38.5l-43 39q25 47 66 75.5t88 28.5q12 0 25 -2t21.5 -4.5t21 -8t17 -8t17 -9.5t14.5 -8q4 -2 15.5 -8.5t15 -8.5t12.5 -7t14 -6.5t12.5 -3.5t14 -3
t14.5 -1q30 0 53 19t47 58zM613 269l42 -40q-57 -104 -144 -104q-30 0 -55 9.5t-67 33.5q-63 36 -96 36q-23 0 -44 -12.5t-32 -26t-29 -39.5l-43 40q25 47 66 75.5t88 28.5q15 0 28.5 -2t27.5 -7.5t21 -9t21.5 -11.5t17.5 -9q6 -3 19 -11t19.5 -11.5t17.5 -8t21 -6.5t21 -2
q30 0 52.5 18.5t47.5 58.5z" />
    <glyph glyph-name="notequal" unicode="&#x2260;" horiz-adv-x="720" 
d="M557 529l-45 -97h156v-68h-183l-67 -147h250v-68h-277l-56 -124l-54 24l46 100h-152v68h179l67 147h-246v68h273l54 121z" />
    <glyph glyph-name="lessequal" unicode="&#x2264;" horiz-adv-x="741" 
d="M686 100l-486 235v73l485 234v-79l-414 -190v-2l415 -192v-79zM689 -9h-494v69h494v-69z" />
    <glyph glyph-name="greaterequal" unicode="&#x2265;" horiz-adv-x="740" 
d="M201 642l486 -235v-72l-486 -235v79l415 191v3l-415 190v79zM687 -9h-491v69h491v-69z" />
    <glyph glyph-name="lozenge" unicode="&#x25ca;" horiz-adv-x="793" 
d="M738 357l-217 -408h-91l-213 408l216 408h92zM636 354l-137 264q-12 26 -20 55h-3q-8 -26 -21 -55l-136 -259l138 -267q13 -30 18 -53h4q9 33 19 52z" />
    </font>
</defs>
</svg>
