<?xml version="1.0" standalone="no"?>
<!DOCTYPE svg PUBLIC "-//W3C//DTD SVG 1.1//EN" "http://www.w3.org/Graphics/SVG/1.1/DTD/svg11.dtd" >
<svg xmlns="http://www.w3.org/2000/svg" xmlns:xlink="http://www.w3.org/1999/xlink" version="1.1">
<metadata>
Created by FontForge 20170731 at Thu Jul 16 20:23:50 2015
 By Aleksey,,,
Copyright (c) Mark Simonson, 2005. All rights reserved.
</metadata>
<defs>
<font id="ProximaNova-RegularIt" horiz-adv-x="572" >
  <font-face 
    font-family="Proxima Nova"
    font-weight="400"
    font-style="italic"
    font-stretch="normal"
    units-per-em="1000"
    panose-1="2 0 5 6 3 0 0 2 0 4"
    ascent="790"
    descent="-210"
    x-height="483"
    cap-height="667"
    bbox="-276 -311 1144 887"
    underline-thickness="20"
    underline-position="-153"
    slope="-12.5"
    unicode-range="U+0020-FB04"
  />
<missing-glyph horiz-adv-x="507" 
d="M98 752h351v-842h-351v842zM129 722v-782h288v782h-288z" />
    <glyph glyph-name="f_f_j" unicode="ffj" horiz-adv-x="792" 
d="M134 417h-80l15 66h80l8 37q17 76 56.5 116.5t101.5 40.5q50 0 87 -23l-29 -54q-19 15 -52 15q-36 0 -57.5 -23.5t-31.5 -71.5l-8 -37h98l-15 -66h-98l-92 -417h-75zM417 417h-80l15 66h80l8 37q17 76 56.5 116.5t101.5 40.5q50 0 87 -23l-29 -54q-19 15 -52 15
q-36 0 -57.5 -23.5t-31.5 -71.5l-8 -37h98l-15 -66h-98l-92 -417h-75zM725 637q18 16 39 16q19 0 32.5 -13t13.5 -31q0 -25 -18 -41t-39 -16q-20 0 -33 12.5t-13 31.5q0 25 18 41zM453 -123q18 -9 39 -9q65 0 85 85l118 530h75l-118 -530q-16 -74 -53 -111.5t-100 -37.5
q-37 0 -65 12z" />
    <glyph glyph-name="f_j" unicode="fj" horiz-adv-x="509" 
d="M134 417h-80l15 66h80l8 37q17 76 56.5 116.5t101.5 40.5q50 0 87 -23l-29 -54q-19 15 -52 15q-36 0 -57.5 -23.5t-31.5 -71.5l-8 -37h98l-15 -66h-98l-92 -417h-75zM441 637q18 16 39 16q19 0 32.5 -13t13.5 -31q0 -25 -18 -41t-39 -16q-20 0 -33 12.5t-13 31.5
q0 25 18 41zM169 -123q18 -9 39 -9q65 0 85 85l118 530h75l-118 -530q-16 -74 -53 -111.5t-100 -37.5q-37 0 -65 12z" />
    <glyph glyph-name="f_f" unicode="ff" horiz-adv-x="567" 
d="M134 417h-80l15 66h80l8 37q17 76 56.5 116.5t101.5 40.5q50 0 87 -23l-29 -54q-19 15 -52 15q-36 0 -57.5 -23.5t-31.5 -71.5l-8 -37h98l-15 -66h-98l-92 -417h-75zM417 417h-80l15 66h80l8 37q17 76 56.5 116.5t101.5 40.5q50 0 87 -23l-29 -54q-19 15 -52 15
q-36 0 -57.5 -23.5t-31.5 -71.5l-8 -37h98l-15 -66h-98l-92 -417h-75z" />
    <glyph glyph-name="fi" unicode="fi" horiz-adv-x="509" 
d="M134 417h-80l15 66h80l8 37q17 76 56.5 116.5t101.5 40.5q50 0 87 -23l-29 -54q-19 15 -52 15q-36 0 -57.5 -23.5t-31.5 -71.5l-8 -37h98l-15 -66h-98l-92 -417h-75zM441 637q18 16 39 16q19 0 32.5 -13t13.5 -31q0 -25 -18 -41t-39 -16q-20 0 -33 12.5t-13 31.5
q0 25 18 41zM411 483h75l-107 -483h-75z" />
    <glyph glyph-name="fl" unicode="fl" horiz-adv-x="509" 
d="M134 417h-80l15 66h80l8 37q17 76 56.5 116.5t101.5 40.5q50 0 87 -23l-29 -54q-19 15 -52 15q-36 0 -57.5 -23.5t-31.5 -71.5l-8 -37h98l-15 -66h-98l-92 -417h-75zM451 667h75l-147 -667h-75z" />
    <glyph glyph-name="f_f_i" unicode="ffi" horiz-adv-x="792" 
d="M134 417h-80l15 66h80l8 37q17 76 56.5 116.5t101.5 40.5q50 0 87 -23l-29 -54q-19 15 -52 15q-36 0 -57.5 -23.5t-31.5 -71.5l-8 -37h98l-15 -66h-98l-92 -417h-75zM417 417h-80l15 66h80l8 37q17 76 56.5 116.5t101.5 40.5q50 0 87 -23l-29 -54q-19 15 -52 15
q-36 0 -57.5 -23.5t-31.5 -71.5l-8 -37h98l-15 -66h-98l-92 -417h-75zM725 637q18 16 39 16q19 0 32.5 -13t13.5 -31q0 -25 -18 -41t-39 -16q-20 0 -33 12.5t-13 31.5q0 25 18 41zM695 483h75l-107 -483h-75z" />
    <glyph glyph-name="f_f_l" unicode="ffl" horiz-adv-x="792" 
d="M134 417h-80l15 66h80l8 37q17 76 56.5 116.5t101.5 40.5q50 0 87 -23l-29 -54q-19 15 -52 15q-36 0 -57.5 -23.5t-31.5 -71.5l-8 -37h98l-15 -66h-98l-92 -417h-75zM417 417h-80l15 66h80l8 37q17 76 56.5 116.5t101.5 40.5q50 0 87 -23l-29 -54q-19 15 -52 15
q-36 0 -57.5 -23.5t-31.5 -71.5l-8 -37h98l-15 -66h-98l-92 -417h-75zM735 667h75l-147 -667h-75z" />
    <glyph glyph-name="f_b" unicode="fb" horiz-adv-x="858" 
d="M134 417h-80l15 66h80l8 37q17 76 56.5 116.5t101.5 40.5q50 0 87 -23l-29 -54q-19 15 -52 15q-36 0 -57.5 -23.5t-31.5 -71.5l-8 -37h98l-15 -66h-98l-92 -417h-75zM379 0h-75l147 667h75l-56 -253q66 81 160 81q84 0 135.5 -53t51.5 -146q0 -79 -31.5 -150t-89 -114.5
t-132.5 -43.5q-56 0 -99.5 23.5t-68.5 64.5zM701 388.5q-37 39.5 -98 39.5q-44 0 -83 -23.5t-65 -59.5l-47 -212q19 -35 57.5 -56.5t88.5 -21.5q53 0 95 32t65.5 84.5t23.5 110.5q0 67 -37 106.5z" />
    <glyph glyph-name="f_h" unicode="fh" horiz-adv-x="835" 
d="M134 417h-80l15 66h80l8 37q17 76 56.5 116.5t101.5 40.5q50 0 87 -23l-29 -54q-19 15 -52 15q-36 0 -57.5 -23.5t-31.5 -71.5l-8 -37h98l-15 -66h-98l-92 -417h-75zM700 317q6 27 6 33q0 40 -27 59t-73 19q-39 0 -78.5 -22t-70.5 -55l-78 -351h-75l147 667h75l-56 -254
q86 82 171 82q65 0 104.5 -31.5t39.5 -88.5q0 -8 -1.5 -19.5t-4.5 -20.5l-73 -335h-75z" />
    <glyph glyph-name="f_k" unicode="fk" horiz-adv-x="798" 
d="M134 417h-80l15 66h80l8 37q17 76 56.5 116.5t101.5 40.5q50 0 87 -23l-29 -54q-19 15 -52 15q-36 0 -57.5 -23.5t-31.5 -71.5l-8 -37h98l-15 -66h-98l-92 -417h-75zM510 220l-101 -82l-30 -138h-75l147 667h75l-96 -437l306 253h99l-263 -219l157 -264h-91z" />
    <glyph glyph-name=".notdef" horiz-adv-x="507" 
d="M98 752h351v-842h-351v842zM129 722v-782h288v782h-288z" />
    <glyph glyph-name=".null" horiz-adv-x="0" 
 />
    <glyph glyph-name="nonmarkingreturn" horiz-adv-x="0" 
 />
    <glyph glyph-name="NULL" horiz-adv-x="0" 
 />
    <glyph glyph-name="NULL" horiz-adv-x="0" 
 />
    <glyph glyph-name="space" unicode=" " horiz-adv-x="258" 
 />
    <glyph glyph-name="exclam" unicode="!" horiz-adv-x="230" 
d="M161 667h94l-122 -480h-63zM33 82.5q18 17.5 43 17.5q21 0 35.5 -15t14.5 -36q0 -24 -18 -41.5t-42 -17.5q-22 0 -36.5 14.5t-14.5 35.5q0 25 18 42.5z" />
    <glyph glyph-name="quotedbl" unicode="&#x22;" horiz-adv-x="343" 
d="M126 512.5q7 69.5 10 109.5q2 24 17 39.5t37 15.5q17 0 28.5 -12t11.5 -30q0 -6 -2.5 -13.5t-2.5 -9.5l-72 -200h-37q3 31 10 100.5zM273 512.5q7 69.5 10 109.5q2 24 16.5 39.5t36.5 15.5q17 0 29 -12t12 -30q0 -11 -6 -23l-71 -200h-37q3 31 10 100.5z" />
    <glyph glyph-name="numbersign" unicode="#" horiz-adv-x="590" 
d="M286 181h-111l-100 -181h-62l101 181h-107l29 53h107l111 199h-108l27 52h110l100 182h62l-101 -182h111l100 182h61l-101 -182h107l-26 -52h-109l-112 -199h111l-28 -53h-112l-100 -181h-61zM315 433l-111 -199h110l111 199h-110z" />
    <glyph glyph-name="dollar" unicode="$" horiz-adv-x="593" 
d="M450 332.5q36 -21.5 60 -54.5t24 -79q0 -62 -34.5 -112t-94 -76.5t-130.5 -22.5l-20 -88h-61l21 95q-64 12 -116 42t-79 70l57 60q26 -36 66 -61.5t89 -36.5l53 241q-54 22 -89 42.5t-58.5 52.5t-23.5 78q0 59 36 105t94 69.5t123 19.5l20 91h61l-22 -99
q53 -10 95.5 -35.5t68.5 -61.5l-56 -58q-43 60 -125 80l-48 -218q53 -22 89 -43.5zM350 603q-37 3 -71 -11t-55.5 -40t-21.5 -58q0 -31 26.5 -52.5t76.5 -42.5zM378.5 80.5q34.5 18.5 50 47.5t15.5 58q0 34 -26.5 57t-76.5 45l-50 -226q53 0 87.5 18.5z" />
    <glyph glyph-name="percent" unicode="%" horiz-adv-x="731" 
d="M111.5 583.5q24.5 44.5 65.5 69t88 24.5q63 0 106 -37.5t43 -97.5q0 -56 -24.5 -100.5t-65.5 -69t-88 -24.5q-63 0 -106 37.5t-43 97.5q0 56 24.5 100.5zM647 667h55l-574 -667h-54zM329 600.5q-26 25.5 -66 25.5q-30 0 -57 -18t-43 -49.5t-16 -70.5q0 -38 26 -64t65 -26
q31 0 58 18t43 50t16 71q0 38 -26 63.5zM379.5 223.5q24.5 44.5 65.5 69t88 24.5q63 0 106.5 -37.5t43.5 -97.5q0 -56 -24.5 -100.5t-65.5 -69t-88 -24.5q-63 0 -106.5 37.5t-43.5 97.5q0 56 24.5 100.5zM597 240.5q-26 25.5 -66 25.5q-30 0 -57 -18t-43 -49.5t-16 -70.5
q0 -38 26 -64t65 -26q31 0 58 18t43 50t16 71q0 38 -26 63.5z" />
    <glyph glyph-name="ampersand" unicode="&#x26;" horiz-adv-x="641" 
d="M457 107q44 -60 81 -107h-95q-25 31 -43 56q-92 -68 -183 -68q-88 0 -144.5 43.5t-56.5 123.5q0 88 52.5 138.5t143.5 86.5q-23 61 -23 116q0 49 25 90.5t67.5 66t91.5 24.5q64 0 106 -31.5t42 -88.5q0 -55 -29 -91.5t-71.5 -58.5t-113.5 -49q12 -26 51 -95
q36 -62 63 -102q33 36 61.5 75.5t44.5 69.5l58 -34q-68 -103 -128 -165zM285 408q54 21 88 38.5t55 43t21 60.5q0 32 -20.5 50t-52.5 18q-26 0 -51.5 -14.5t-41.5 -42t-16 -65.5q0 -37 18 -88zM364 108q-56 81 -71 109q-37 62 -59 111q-64 -29 -99 -66.5t-35 -96.5
q0 -55 36 -85t90 -30q65 0 138 58z" />
    <glyph glyph-name="quotesingle" unicode="'" horiz-adv-x="199" 
d="M126 512.5q7 69.5 10 109.5q2 24 17 39.5t37 15.5q17 0 28.5 -12t11.5 -30q0 -6 -2.5 -13.5t-2.5 -9.5l-72 -200h-37q3 31 10 100.5z" />
    <glyph glyph-name="parenleft" unicode="(" horiz-adv-x="248" 
d="M41.5 -65q-16.5 74 -16.5 156q0 155 66.5 309t190.5 285l39 -38q-217 -283 -217 -584q0 -53 10 -114t27 -118l-53 -30q-30 60 -46.5 134z" />
    <glyph glyph-name="parenright" unicode=")" horiz-adv-x="248" 
d="M205.5 550.5q16.5 -74.5 16.5 -155.5q0 -155 -67 -308.5t-191 -285.5l-38 38q217 283 217 583q0 106 -37 233l53 30q30 -60 46.5 -134.5z" />
    <glyph glyph-name="asterisk" unicode="*" horiz-adv-x="340" 
d="M210 506l-111 -50l-13 40l113 41l-89 62l31 36l82 -71l19 113h47l-33 -117l111 51l13 -41l-112 -41l89 -62l-32 -36l-82 71l-19 -113h-46z" />
    <glyph glyph-name="plus" unicode="+" horiz-adv-x="499" 
d="M245 98h-57l47 213h-191l11 52h192l45 207h58l-46 -207h192l-12 -52h-191z" />
    <glyph glyph-name="comma" unicode="," horiz-adv-x="230" 
d="M-18 -88q28 14 52 37t32 47h-8q-18 0 -30.5 12t-12.5 32q0 24 18 42t42 18q23 0 38 -15.5t15 -43.5q0 -45 -33.5 -91t-81.5 -71z" />
    <glyph glyph-name="hyphen" unicode="-" horiz-adv-x="300" 
d="M36 275h240l-14 -66h-240z" />
    <glyph glyph-name="period" unicode="." horiz-adv-x="230" 
d="M33 82.5q18 17.5 43 17.5q21 0 35.5 -15t14.5 -36q0 -24 -18 -41.5t-42 -17.5q-22 0 -36.5 14.5t-14.5 35.5q0 25 18 42.5z" />
    <glyph glyph-name="slash" unicode="/" horiz-adv-x="296" 
d="M333 687h63l-394 -707h-62z" />
    <glyph glyph-name="zero" unicode="0" horiz-adv-x="612" 
d="M98 450.5q39 99.5 110.5 163t164.5 63.5q104 0 161 -69t57 -190q0 -103 -38.5 -203t-110 -163.5t-164.5 -63.5q-105 0 -162 69.5t-57 190.5q0 103 39 202.5zM472 554.5q-34 48.5 -107 48.5q-65 0 -116 -55.5t-78.5 -139.5t-27.5 -165q0 -82 35 -131.5t107 -49.5
q66 0 116.5 55.5t77.5 140t27 165.5q0 83 -34 131.5z" />
    <glyph glyph-name="one" unicode="1" horiz-adv-x="339" 
d="M247 557l-132 -113l-39 51l205 172h73l-147 -667h-83z" />
    <glyph glyph-name="two" unicode="2" horiz-adv-x="588" 
d="M18 81q160 98 254 164.5t150.5 130t56.5 122.5q0 49 -40 77t-104 28q-101 0 -171 -65l-39 59q38 36 95.5 58t119.5 22q61 0 112.5 -19.5t83 -59t31.5 -96.5q0 -103 -110 -205t-310 -223h326l-15 -74h-458z" />
    <glyph glyph-name="three" unicode="3" horiz-adv-x="557" 
d="M57 174q25 -52 78.5 -82t115.5 -30q73 0 116 39.5t43 100.5q0 46 -39 74.5t-109 28.5q-53 0 -64 -1l17 76q11 -1 91 -1q68 0 114 30t46 88q0 46 -41.5 76t-110.5 30q-96 0 -169 -66l-35 57q39 39 95 61t115 22q103 0 166.5 -44.5t63.5 -123.5q0 -48 -26 -85.5t-68 -59.5
t-86 -26q53 -12 87.5 -49t34.5 -94t-30.5 -104.5t-85.5 -75t-124 -27.5q-86 0 -157 38.5t-98 100.5z" />
    <glyph glyph-name="four" unicode="4" horiz-adv-x="558" 
d="M332 169h-317l17 75l374 423h119l-95 -425h94l-15 -73h-94l-37 -169h-83zM114 242h233l78 348z" />
    <glyph glyph-name="five" unicode="5" horiz-adv-x="590" 
d="M98 171q50 -109 184 -109q46 0 84.5 21t60.5 58t22 81q0 60 -42 93.5t-109 33.5q-39 0 -72 -11.5t-66 -36.5l-55 27l75 339h408l-16 -74h-325l-49 -220q25 20 61 32.5t79 12.5q54 0 99 -22t72 -64.5t27 -101.5q0 -65 -33 -120.5t-92 -88.5t-133 -33q-174 0 -243 133z" />
    <glyph glyph-name="six" unicode="6" horiz-adv-x="591" 
d="M92 437q37 103 111 171.5t180 68.5q68 0 119.5 -26t81.5 -74l-56 -56q-20 39 -59 60.5t-91 21.5q-88 0 -144.5 -73.5t-82.5 -177.5q-5 -15 -5 -20q30 33 83 59t109 26q89 0 145.5 -47.5t56.5 -127.5q0 -68 -34 -126.5t-93 -93t-130 -34.5q-109 0 -168.5 64.5t-59.5 181.5
q0 100 37 203zM412.5 316.5q-40.5 31.5 -107.5 31.5q-47 0 -90 -21.5t-78 -60.5q-2 -18 -2 -48q0 -70 39.5 -113t109.5 -43q48 0 86.5 23.5t60.5 62.5t22 83q0 54 -40.5 85.5z" />
    <glyph glyph-name="seven" unicode="7" horiz-adv-x="515" 
d="M462 593h-355l17 74h455l-13 -57l-405 -610h-96z" />
    <glyph glyph-name="eight" unicode="8" horiz-adv-x="581" 
d="M84.5 282.5q54.5 51.5 147.5 70.5q-48 19 -82 55.5t-34 85.5q0 60 34.5 101t89 61.5t113.5 20.5q60 0 112 -19.5t84 -56.5t32 -88q0 -71 -52 -117.5t-137 -59.5q52 -24 88.5 -63.5t36.5 -94.5t-33.5 -98.5t-90 -67.5t-122.5 -24q-104 0 -172.5 44.5t-68.5 125.5
q0 73 54.5 124.5zM450 572.5q-42 29.5 -102 29.5q-62 0 -105.5 -31.5t-43.5 -84.5q0 -38 38.5 -68t82.5 -40q77 5 124.5 37t47.5 85q0 43 -42 72.5zM393 262q-40 32 -88 45q-81 -5 -134 -41.5t-53 -92.5q0 -53 44.5 -82t111.5 -29q40 0 77 15t59.5 43.5t22.5 65.5
q0 44 -40 76z" />
    <glyph glyph-name="nine" unicode="9" horiz-adv-x="591" 
d="M538 229q-37 -103 -111.5 -171.5t-180.5 -68.5q-68 0 -119.5 26t-81.5 74l56 56q20 -39 59 -60.5t91 -21.5q89 0 145 72.5t82 177.5l6 21q-31 -33 -84 -59.5t-108 -26.5q-89 0 -146 48t-57 128q0 67 34 125.5t93.5 93.5t130.5 35q109 0 168.5 -64.5t59.5 -181.5
q0 -100 -37 -203zM216.5 349q41.5 -32 107.5 -32q47 0 90 22t79 60q1 9 1 48q0 70 -39.5 113.5t-109.5 43.5q-48 0 -87 -23.5t-61 -62.5t-22 -83q0 -54 41.5 -86z" />
    <glyph glyph-name="colon" unicode=":" horiz-adv-x="230" 
d="M119.5 473q17.5 17 42.5 17q21 0 35.5 -15t14.5 -35q0 -25 -17.5 -42.5t-42.5 -17.5q-21 0 -35.5 15t-14.5 36q0 25 17.5 42zM33 82.5q18 17.5 43 17.5q21 0 35.5 -15t14.5 -36q0 -24 -18 -41.5t-42 -17.5q-22 0 -36.5 14.5t-14.5 35.5q0 25 18 42.5z" />
    <glyph glyph-name="semicolon" unicode=";" horiz-adv-x="230" 
d="M119.5 473q17.5 17 42.5 17q21 0 35.5 -15t14.5 -35q0 -25 -17.5 -42.5t-42.5 -17.5q-21 0 -35.5 15t-14.5 36q0 25 17.5 42zM-18 -88q28 14 52 37t32 47h-8q-18 0 -30.5 12t-12.5 32q0 24 18 42t42 18q23 0 38 -15.5t15 -43.5q0 -45 -33.5 -91t-81.5 -71z" />
    <glyph glyph-name="less" unicode="&#x3c;" horiz-adv-x="499" 
d="M55 361l489 219l-15 -66l-417 -183l336 -181l-13 -60l-393 218z" />
    <glyph glyph-name="equal" unicode="=" horiz-adv-x="499" 
d="M76 457h441l-12 -53h-441zM33 263h441l-12 -52h-441z" />
    <glyph glyph-name="greater" unicode="&#x3e;" horiz-adv-x="499" 
d="M9 156l417 181l-336 183l13 60l392 -219l-12 -53l-489 -218z" />
    <glyph glyph-name="question" unicode="?" horiz-adv-x="462" 
d="M166 256q0 35 17 60t41.5 41.5t66.5 39.5q56 29 84.5 53.5t28.5 65.5q0 40 -32 63.5t-90 23.5q-89 0 -153 -64l-38 56q88 82 201 82q58 0 103.5 -18t71.5 -51.5t26 -76.5q0 -46 -21 -79t-51 -53.5t-77 -44.5q-38 -20 -57.5 -32.5t-33.5 -30t-14 -40.5t18 -40l-67 -26
q-24 32 -24 71zM142 82.5q18 17.5 42 17.5q22 0 36.5 -15t14.5 -36q0 -25 -18 -42t-43 -17q-21 0 -35.5 14.5t-14.5 35.5q0 25 18 42.5z" />
    <glyph glyph-name="at" unicode="@" horiz-adv-x="783" 
d="M110.5 440q55.5 91 147 144.5t194.5 53.5q92 0 164 -42.5t111.5 -115t39.5 -159.5q0 -75 -25 -128.5t-64.5 -80.5t-83.5 -27q-40 0 -64.5 23.5t-26.5 57.5l-1 6q-27 -38 -69.5 -62.5t-88.5 -24.5q-69 0 -111 45t-42 118q0 67 33.5 125t88 92t113.5 34q46 0 79.5 -22
t48.5 -56l13 62h68l-57 -271q-2 -12 -2 -21q0 -25 13.5 -38.5t33.5 -13.5q23 0 48 18t42.5 59t17.5 105q0 81 -35.5 145.5t-99.5 101t-148 36.5q-94 0 -177 -50t-132.5 -133t-49.5 -175q0 -80 37 -144.5t102.5 -101.5t147.5 -37q97 0 186 56l18 -26q-98 -63 -208 -63
q-89 0 -161.5 41.5t-114 113.5t-41.5 159q0 105 55.5 196zM542 369q-10 29 -36.5 51.5t-66.5 22.5q-48 0 -89 -27.5t-64.5 -71.5t-23.5 -92q0 -49 27.5 -80t74.5 -31t85 26t64 64z" />
    <glyph glyph-name="A" unicode="A" horiz-adv-x="658" 
d="M478 148h-333l-91 -148h-99l415 667h103l122 -667h-91zM187 222h283l-63 359z" />
    <glyph glyph-name="B" unicode="B" horiz-adv-x="629" 
d="M171 667h277q48 0 87 -19.5t61 -54.5t22 -79q0 -46 -21 -85.5t-57 -64.5t-77 -29q43 -11 70.5 -50.5t27.5 -86.5q0 -51 -25 -96.5t-76.5 -73.5t-126.5 -28h-309zM498.5 567q-29.5 26 -71.5 26h-189l-48 -215h207q68 0 99.5 36.5t31.5 87.5q0 39 -29.5 65zM447 276
q-29 28 -78 28h-196l-51 -230h209q68 0 106.5 38t38.5 92q0 44 -29 72z" />
    <glyph glyph-name="C" unicode="C" horiz-adv-x="676" 
d="M112.5 487q52.5 91 139 141t183.5 50t167 -42t105 -115l-79 -31q-29 57 -80.5 85.5t-117.5 28.5q-72 0 -137 -40.5t-105 -113.5t-40 -166q0 -65 27.5 -115.5t78.5 -78.5t119 -28q47 0 93.5 19.5t85.5 56.5l61 -46q-50 -53 -114.5 -78.5t-130.5 -25.5q-88 0 -158 36
t-110 102.5t-40 153.5q0 116 52.5 207z" />
    <glyph glyph-name="D" unicode="D" horiz-adv-x="700" 
d="M531.5 630.5q63.5 -36.5 101.5 -102t38 -146.5q0 -96 -46.5 -183.5t-141.5 -143t-232 -55.5h-227l147 667h223q74 0 137.5 -36.5zM432.5 115q72.5 41 112 110.5t39.5 152.5q0 61 -27 110t-74 77t-105 28h-140l-116 -519h143q95 0 167.5 41z" />
    <glyph glyph-name="E" unicode="E" horiz-adv-x="569" 
d="M171 667h437l-16 -74h-354l-48 -215h347l-16 -74h-348l-51 -230h355l-16 -74h-437z" />
    <glyph glyph-name="F" unicode="F" horiz-adv-x="550" 
d="M171 667h437l-16 -74h-354l-48 -215h347l-16 -74h-348l-66 -304h-83z" />
    <glyph glyph-name="G" unicode="G" horiz-adv-x="713" 
d="M111 484q51 91 138.5 142.5t191.5 51.5q91 0 158.5 -40t104.5 -106l-75 -35q-26 51 -79.5 79t-119.5 28q-73 0 -138 -41.5t-104.5 -115t-39.5 -163.5q0 -66 27.5 -116t78.5 -78t119 -28q96 0 175 71l31 136h-230l16 74h313l-54 -245q-53 -53 -117.5 -81.5t-138.5 -28.5
q-90 0 -160 37t-109 103.5t-39 151.5q0 113 51 204z" />
    <glyph glyph-name="H" unicode="H" horiz-adv-x="712" 
d="M564 306h-390l-67 -306h-83l147 667h83l-63 -287h390l63 287h83l-147 -667h-83z" />
    <glyph glyph-name="I" unicode="I" horiz-adv-x="239" 
d="M171 667h83l-147 -667h-83z" />
    <glyph glyph-name="J" unicode="J" horiz-adv-x="475" 
d="M28 132q18 -33 50.5 -51.5t75.5 -18.5q60 0 98 37.5t52 102.5l103 465h83l-103 -466q-47 -213 -229 -213q-58 0 -106 21.5t-74 62.5z" />
    <glyph glyph-name="K" unicode="K" horiz-adv-x="601" 
d="M243 304l-87 -80l-49 -224h-83l147 667h83l-75 -337l365 337h109l-348 -317l225 -350h-97z" />
    <glyph glyph-name="L" unicode="L" horiz-adv-x="517" 
d="M171 667h83l-132 -593h311l-16 -74h-393z" />
    <glyph glyph-name="M" unicode="M" horiz-adv-x="809" 
d="M718 561l-351 -561h-34l-103 561l-123 -561h-83l147 667h115l94 -514l321 514h123l-147 -667h-83z" />
    <glyph glyph-name="N" unicode="N" horiz-adv-x="708" 
d="M227 544l-120 -544h-83l147 667h85l266 -534l118 534h83l-147 -667h-80z" />
    <glyph glyph-name="O" unicode="O" horiz-adv-x="765" 
d="M110 481q50 91 136 144t189 53q86 0 156.5 -35t111 -101t40.5 -155q0 -110 -50 -201.5t-136 -144.5t-189 -53q-86 0 -156.5 35t-111 101t-40.5 156q0 110 50 201zM625 501q-30 50 -81 76.5t-114 26.5q-76 0 -140.5 -41.5t-103 -115t-38.5 -163.5q0 -69 29.5 -119.5
t81 -76.5t114.5 -26q75 0 140 41.5t103.5 115t38.5 163.5q0 69 -30 119z" />
    <glyph glyph-name="P" unicode="P" horiz-adv-x="587" 
d="M171 667h248q56 0 98 -23.5t64.5 -63t22.5 -86.5q0 -55 -26.5 -107.5t-83.5 -87t-145 -34.5h-184l-58 -265h-83zM474.5 382q42.5 43 42.5 106q0 44 -31.5 74.5t-79.5 30.5h-168l-57 -254h175q76 0 118.5 43z" />
    <glyph glyph-name="Q" unicode="Q" horiz-adv-x="765" 
d="M702 203.5q-41 -84.5 -111 -139.5l41 -59l-67 -36l-39 55q-75 -36 -158 -36q-86 0 -156.5 35t-111 101t-40.5 156q0 110 50 201t136 144t189 53q86 0 156.5 -35t111 -101t40.5 -155q0 -99 -41 -183.5zM482 87l-78 112l66 36l76 -107q51 44 80 110t29 144q0 69 -30 119
t-81 76.5t-114 26.5q-76 0 -140.5 -41.5t-103 -115t-38.5 -163.5q0 -69 29.5 -119.5t81 -76.5t114.5 -26q56 0 109 25z" />
    <glyph glyph-name="R" unicode="R" horiz-adv-x="608" 
d="M304 265h-140l-57 -265h-83l147 667h245q49 0 92.5 -21t70 -61t26.5 -92q0 -61 -27 -110.5t-76.5 -79.5t-113.5 -34l120 -269h-92zM474.5 380.5q42.5 42.5 42.5 105.5q0 46 -34.5 76.5t-78.5 30.5h-166l-57 -255h176q75 0 117.5 42.5z" />
    <glyph glyph-name="S" unicode="S" horiz-adv-x="586" 
d="M73 167q35 -49 93 -77t127 -28q49 0 82 18.5t49 47t16 58.5q0 40 -35 64.5t-106 52.5q-62 25 -99.5 45t-64 53t-26.5 82q0 51 30.5 96t84.5 71.5t121 26.5q77 0 141.5 -28t99.5 -77l-57 -58q-32 44 -84 67t-109 23q-38 0 -69.5 -15.5t-50 -41t-18.5 -53.5q0 -25 18 -44
t45 -32.5t74 -32.5q62 -25 100.5 -46t66 -55.5t27.5 -84.5q0 -54 -28.5 -102.5t-84 -78.5t-130.5 -30q-88 0 -161.5 33.5t-108.5 85.5z" />
    <glyph glyph-name="T" unicode="T" horiz-adv-x="570" 
d="M320 593h-211l16 74h506l-16 -74h-212l-131 -593h-83z" />
    <glyph glyph-name="U" unicode="U" horiz-adv-x="700" 
d="M81 259l90 408h83l-89 -406q-5 -20 -5 -42q0 -70 46.5 -113.5t129.5 -43.5q88 0 136.5 50.5t69.5 148.5l90 406h83l-89 -407q-30 -133 -97 -202.5t-193 -69.5q-123 0 -191.5 60t-68.5 162q0 19 5 49z" />
    <glyph glyph-name="V" unicode="V" horiz-adv-x="658" 
d="M102 667h90l98 -576l353 576h99l-416 -667h-103z" />
    <glyph glyph-name="W" unicode="W" horiz-adv-x="883" 
d="M506 538l-266 -538h-90l-43 667h90l24 -556l276 556h70l29 -556l271 556h94l-337 -667h-90z" />
    <glyph glyph-name="X" unicode="X" horiz-adv-x="652" 
d="M337 282l-272 -282h-107l336 347l-174 320h95l142 -265l252 265h108l-317 -330l185 -337h-94z" />
    <glyph glyph-name="Y" unicode="Y" horiz-adv-x="626" 
d="M280 282l-178 385h91l139 -310l275 310h103l-347 -385l-62 -282h-83z" />
    <glyph glyph-name="Z" unicode="Z" horiz-adv-x="585" 
d="M9 69l485 524h-369l16 74h481l-14 -69l-487 -524h378l-17 -74h-488z" />
    <glyph glyph-name="bracketleft" unicode="[" horiz-adv-x="243" 
d="M136 678h186l-12 -55h-128l-168 -758h128l-13 -55h-186z" />
    <glyph glyph-name="backslash" unicode="\" horiz-adv-x="296" 
d="M157 687l80 -707h-59l-80 707h59z" />
    <glyph glyph-name="bracketright" unicode="]" horiz-adv-x="243" 
d="M-67 -135h127l169 758h-128l12 55h186l-193 -868h-185z" />
    <glyph glyph-name="asciicircum" unicode="^" horiz-adv-x="432" 
d="M300 612l-197 -279h-65l243 334h57l94 -334h-59z" />
    <glyph glyph-name="underscore" unicode="_" horiz-adv-x="564" 
d="M-65 -40h569l-13 -55h-569z" />
    <glyph glyph-name="grave" unicode="`" horiz-adv-x="226" 
d="M101 700h78l116 -144h-57z" />
    <glyph glyph-name="a" unicode="a" horiz-adv-x="575" 
d="M478 483h75l-107 -483h-75l15 69q-31 -39 -71 -60t-88 -21q-85 0 -136 53t-51 146q0 80 31.5 150.5t89 114t132.5 43.5q55 0 99.5 -23.5t68.5 -64.5zM156 94.5q37 -39.5 98 -39.5q43 0 83 23.5t64 58.5l48 213q-19 34 -57.5 56t-88.5 22q-53 0 -95 -32t-65.5 -84.5
t-23.5 -110.5q0 -67 37 -106.5z" />
    <glyph glyph-name="b" unicode="b" horiz-adv-x="575" 
d="M96 0h-75l147 667h75l-56 -253q66 81 160 81q84 0 135.5 -53t51.5 -146q0 -79 -31.5 -150t-89 -114.5t-132.5 -43.5q-56 0 -99.5 23.5t-68.5 64.5zM418 388.5q-37 39.5 -98 39.5q-44 0 -83 -23.5t-65 -59.5l-47 -212q19 -35 57.5 -56.5t88.5 -21.5q53 0 95 32t65.5 84.5
t23.5 110.5q0 67 -37 106.5z" />
    <glyph glyph-name="c" unicode="c" horiz-adv-x="495" 
d="M76 349.5q36 66.5 98.5 106t137.5 39.5q65 0 110 -23.5t71 -66.5l-57 -43q-18 32 -50.5 49t-71.5 17q-58 0 -103 -31t-69 -82t-24 -110q0 -72 42.5 -111t108.5 -39q36 0 67.5 15.5t54.5 41.5l43 -50q-72 -74 -172 -74q-65 0 -115.5 26t-78.5 75t-28 115q0 79 36 145.5z
" />
    <glyph glyph-name="d" unicode="d" horiz-adv-x="575" 
d="M519 667h75l-148 -667h-75l15 69q-31 -39 -71 -60t-88 -21q-85 0 -136 53t-51 146q0 80 31.5 150.5t89 114t132.5 43.5q55 0 99.5 -23.5t68.5 -64.5zM156 94.5q37 -39.5 98 -39.5q43 0 83 23.5t64 58.5l48 213q-19 34 -57.5 56t-88.5 22q-53 0 -95 -32t-65.5 -84.5
t-23.5 -110.5q0 -67 37 -106.5z" />
    <glyph glyph-name="e" unicode="e" horiz-adv-x="563" 
d="M76 348.5q36 67.5 98.5 107t137.5 39.5q62 0 109.5 -27t73 -75t25.5 -109q0 -30 -8 -67h-394l-1 -23q0 -39 19 -71.5t56 -52.5t89 -20q36 0 73 12t66 35l25 -52q-33 -26 -78 -41.5t-91 -15.5q-109 0 -172.5 58t-63.5 156q0 79 36 146.5zM452 291q0 62 -38.5 102
t-108.5 40q-43 0 -81.5 -22t-64.5 -59t-33 -80h324q2 8 2 19z" />
    <glyph glyph-name="f" unicode="f" horiz-adv-x="283" 
d="M134 417h-80l15 66h80l8 37q17 76 56.5 116.5t101.5 40.5q50 0 87 -23l-29 -54q-19 15 -52 15q-36 0 -57.5 -23.5t-31.5 -71.5l-8 -37h98l-15 -66h-98l-92 -417h-75z" />
    <glyph glyph-name="g" unicode="g" horiz-adv-x="574" 
d="M44 -63q24 -35 67 -53t100 -18q59 0 101.5 35t60.5 113l14 63q-30 -38 -72.5 -60t-91.5 -22q-81 0 -132.5 51t-51.5 149q0 77 31 146t88.5 111.5t132.5 42.5q48 0 95 -24.5t74 -63.5l17 76h75l-104 -469q-25 -112 -87.5 -161t-148.5 -49q-73 0 -126 18.5t-90 63.5z
M447 348q-20 37 -61 58.5t-89 21.5q-53 0 -94 -31.5t-63 -82.5t-22 -107q0 -67 36.5 -106t98.5 -39q40 0 80 22t68 55z" />
    <glyph glyph-name="h" unicode="h" horiz-adv-x="552" 
d="M417 317q6 27 6 33q0 40 -27 59t-73 19q-39 0 -78.5 -22t-70.5 -55l-78 -351h-75l147 667h75l-56 -254q86 82 171 82q65 0 104.5 -31.5t39.5 -88.5q0 -8 -1.5 -19.5t-4.5 -20.5l-73 -335h-75z" />
    <glyph glyph-name="i" unicode="i" horiz-adv-x="225" 
d="M158 637q18 16 39 16q19 0 32.5 -13t13.5 -31q0 -25 -18 -41t-39 -16q-20 0 -33 12.5t-13 31.5q0 25 18 41zM128 483h75l-107 -483h-75z" />
    <glyph glyph-name="j" unicode="j" horiz-adv-x="225" 
d="M158 637q18 16 39 16q19 0 32.5 -13t13.5 -31q0 -25 -18 -41t-39 -16q-20 0 -33 12.5t-13 31.5q0 25 18 41zM-114 -123q18 -9 39 -9q65 0 85 85l118 530h75l-118 -530q-16 -74 -53 -111.5t-100 -37.5q-37 0 -65 12z" />
    <glyph glyph-name="k" unicode="k" horiz-adv-x="514" 
d="M227 220l-101 -82l-30 -138h-75l147 667h75l-96 -437l306 253h99l-263 -219l157 -264h-91z" />
    <glyph glyph-name="l" unicode="l" horiz-adv-x="225" 
d="M168 667h75l-147 -667h-75z" />
    <glyph glyph-name="m" unicode="m" horiz-adv-x="808" 
d="M675 324q4 20 4 29q0 35 -23.5 55t-58.5 20q-33 0 -68.5 -22t-63.5 -54l-78 -352h-75l72 324q4 26 4 35q-1 30 -22.5 49.5t-61.5 19.5q-32 0 -67 -22t-63 -54l-78 -352h-75l107 483h75l-16 -70q28 32 67 57t85 25q40 0 68 -15.5t42 -36.5t14 -38v-2q33 40 76 66t92 26
q53 0 90 -32t37 -88q0 -10 -5 -40l-74 -335h-75z" />
    <glyph glyph-name="n" unicode="n" horiz-adv-x="551" 
d="M417 317q1 3 3.5 13.5t2.5 19.5q0 40 -26.5 59t-68.5 19q-43 0 -83 -21.5t-71 -54.5l-78 -352h-75l107 483h75l-16 -70q86 82 171 82q65 0 104.5 -31.5t39.5 -88.5q0 -9 -1.5 -20t-4.5 -20l-74 -335h-75z" />
    <glyph glyph-name="o" unicode="o" 
d="M75 345.5q35 67.5 96.5 108.5t137.5 41q67 0 117 -27t77 -75.5t27 -112.5q0 -76 -35 -143t-97 -108t-137 -41q-102 0 -161.5 58.5t-59.5 155.5q0 76 35 143.5zM413 387.5q-38 40.5 -106 40.5q-53 0 -96 -31.5t-67.5 -83t-24.5 -108.5q0 -69 38 -109.5t106 -40.5
q53 0 96 31.5t67.5 83t24.5 108.5q0 69 -38 109.5z" />
    <glyph glyph-name="p" unicode="p" 
d="M55 -184h-75l148 667h75l-16 -69q66 81 160 81q84 0 135.5 -53t51.5 -146q0 -79 -31.5 -150t-89 -114.5t-132.5 -43.5q-56 0 -99.5 23.5t-68.5 64.5zM418 388.5q-37 39.5 -98 39.5q-44 0 -83 -23.5t-65 -59.5l-47 -212q19 -35 57.5 -56.5t88.5 -21.5q53 0 95 32
t65.5 84.5t23.5 110.5q0 67 -37 106.5z" />
    <glyph glyph-name="q" unicode="q" 
d="M478 483h75l-148 -667h-75l56 253q-31 -39 -71 -60t-88 -21q-85 0 -136 53t-51 146q0 80 31.5 150.5t89 114t132.5 43.5q55 0 99.5 -23.5t68.5 -64.5zM156 94.5q37 -39.5 98 -39.5q43 0 83 23.5t64 58.5l48 213q-19 34 -57.5 56t-88.5 22q-53 0 -95 -32t-65.5 -84.5
t-23.5 -110.5q0 -67 37 -106.5z" />
    <glyph glyph-name="r" unicode="r" horiz-adv-x="330" 
d="M128 483h75l-17 -74q38 43 79 63.5t101 20.5l-17 -77q-12 4 -38 4q-40 0 -77.5 -23t-62.5 -56l-75 -341h-75z" />
    <glyph glyph-name="s" unicode="s" horiz-adv-x="465" 
d="M50 124q21 -31 65.5 -53t95.5 -22q50 0 80.5 25t30.5 60q0 27 -26 44t-81 39q-48 19 -77 33.5t-49.5 38.5t-20.5 59q0 40 21.5 73.5t63 53.5t98.5 20q60 0 109.5 -22.5t74.5 -56.5l-43 -49q-17 28 -58.5 47.5t-86.5 19.5q-47 0 -75.5 -21t-28.5 -53q0 -25 25 -41t78 -37
q48 -18 78 -33t51.5 -40.5t21.5 -62.5q0 -42 -22.5 -78.5t-66 -58t-101.5 -21.5q-65 0 -118 22t-86 63z" />
    <glyph glyph-name="t" unicode="t" horiz-adv-x="294" 
d="M59 104l70 314h-80l15 65h80l29 132h75l-29 -132h98l-15 -65h-98l-66 -298q-2 -12 -2 -20q0 -45 48 -45q13 0 25.5 4.5t20.5 11.5l9 -60q-30 -23 -73 -23q-52 0 -81 22t-29 66q0 13 3 28z" />
    <glyph glyph-name="u" unicode="u" horiz-adv-x="551" 
d="M133 167q-5 -25 -5 -34q0 -40 27 -59t73 -19q38 0 77.5 22t71.5 54l77 352h75l-107 -483h-75l16 70q-86 -82 -170 -82q-66 0 -105 31.5t-39 88.5q0 15 5 40l74 335h75z" />
    <glyph glyph-name="v" unicode="v" horiz-adv-x="490" 
d="M56 483h79l72 -396l249 396h84l-308 -483h-82z" />
    <glyph glyph-name="w" unicode="w" horiz-adv-x="734" 
d="M399 388l-212 -388h-75l-47 483h75l32 -385l212 385h66l41 -385l202 385h82l-261 -483h-75z" />
    <glyph glyph-name="x" unicode="x" horiz-adv-x="486" 
d="M236 198l-189 -198h-89l239 248l-122 235h83l93 -184l176 184h90l-228 -235l132 -248h-83z" />
    <glyph glyph-name="y" unicode="y" horiz-adv-x="490" 
d="M27 -126q21 0 37.5 10.5t34.5 37.5l49 75l-92 486h79l72 -396l249 396h84l-372 -581q-33 -51 -68.5 -74.5t-82.5 -23.5q-36 0 -63 11l26 67q18 -8 47 -8z" />
    <glyph glyph-name="z" unicode="z" horiz-adv-x="472" 
d="M10 58l342 359h-262l15 66h364l-13 -57l-344 -361h268l-14 -65h-368z" />
    <glyph glyph-name="braceleft" unicode="{" horiz-adv-x="260" 
d="M20.5 -160q-33.5 30 -33.5 77q0 15 3 27l46 206q2 12 2 17q0 22 -10.5 37t-28.5 15l12 50q27 0 43.5 19t23.5 50l45 205q15 67 55.5 101t99.5 34h61l-12 -55h-61q-33 0 -54.5 -21t-29.5 -59l-49 -217q-15 -70 -64 -88q29 -15 29 -54q0 -18 -4 -34l-45 -205q-2 -12 -2 -21
q0 -26 16 -42.5t41 -16.5h55l-13 -55h-47q-45 0 -78.5 30z" />
    <glyph glyph-name="bar" unicode="|" horiz-adv-x="211" 
d="M98 687h55v-707h-55v707z" />
    <glyph glyph-name="braceright" unicode="}" horiz-adv-x="260" 
d="M239 648q33 -30 33 -77q0 -16 -3 -28l-46 -205q-2 -12 -2 -17q0 -23 10.5 -37.5t28.5 -14.5l-11 -50q-28 0 -44.5 -19t-23.5 -50l-45 -205q-15 -67 -55.5 -101t-99.5 -34h-61l12 55h62q32 0 53.5 20.5t29.5 58.5l49 218q15 70 65 88q-29 15 -29 54q0 18 4 34l45 205
q2 12 2 21q0 25 -16.5 42t-41.5 17h-55l13 55h48q45 0 78 -30z" />
    <glyph glyph-name="asciitilde" unicode="~" horiz-adv-x="503" 
d="M500.5 489q-43.5 -66 -111.5 -66q-36 0 -56 16t-27.5 38.5t-12.5 58.5q-7 40 -16.5 58.5t-34.5 18.5q-36 0 -67.5 -52t-52.5 -139l-54 7q23 104 66.5 170.5t111.5 66.5q36 0 55.5 -16t27 -38.5t13.5 -58.5q6 -39 15.5 -58.5t34.5 -19.5q37 0 69 52.5t51 139.5l56 -7
q-24 -105 -67.5 -171z" />
    <glyph glyph-name="uni00A0" unicode="&#xa0;" horiz-adv-x="258" 
 />
    <glyph glyph-name="exclamdown" unicode="&#xa1;" horiz-adv-x="230" 
d="M194.5 400.5q-17.5 -17.5 -42.5 -17.5q-21 0 -35.5 15t-14.5 36q0 25 17.5 42t42.5 17q21 0 35.5 -14.5t14.5 -36.5q0 -24 -17.5 -41.5zM67 -184h-94l122 480h62z" />
    <glyph glyph-name="cent" unicode="&#xa2;" horiz-adv-x="495" 
d="M335.5 70q32.5 15 55.5 42l43 -50q-75 -77 -180 -74l-20 -88h-59l21 96q-72 17 -114 71.5t-42 136.5q0 78 35.5 144.5t97 106t134.5 40.5l16 70h59l-18 -75q88 -16 129 -85l-57 -43q-29 47 -86 62l-82 -368q35 -1 67.5 14zM143 114q25 -36 68 -50l81 363
q-53 -6 -92.5 -38t-60.5 -80.5t-21 -103.5t25 -91z" />
    <glyph glyph-name="sterling" unicode="&#xa3;" horiz-adv-x="518" 
d="M264.5 588q-35.5 -19 -57 -53.5t-21.5 -79.5q0 -27 8 -47.5t25 -49.5q14 -24 20 -36h146l-12 -54h-121v-8q0 -49 -33.5 -95t-75.5 -71q26 8 46 8q22 0 41 -5.5t43 -16.5q5 -2 20.5 -7.5t29 -8.5t26.5 -3q53 0 91 40l21 -67q-54 -47 -117 -47q-31 0 -55 6t-56 18
q-31 11 -51.5 16.5t-46.5 5.5q-48 0 -115 -40l-16 62q72 29 121 82t49 108q0 7 -2 23h-148l12 54h116l-16 26q-20 35 -30 59t-10 55q0 57 32.5 106.5t88 79t122.5 29.5q73 0 131.5 -33t74.5 -87l-75 -32q-9 36 -45 59t-83 23q-42 0 -77.5 -19z" />
    <glyph glyph-name="currency" unicode="&#xa4;" horiz-adv-x="598" 
d="M565 363q0 -54 -20.5 -103t-57.5 -87l56 -70l-52 -42l-56 71q-63 -37 -134 -37q-93 0 -155 51l-99 -81l-42 52l99 80q-27 45 -27 104q0 55 20.5 104.5t57.5 86.5l-57 74l52 41l57 -74q60 37 135 37q94 0 155 -52l99 81l41 -50l-98 -81q26 -46 26 -105zM398 191
q42 27 65.5 71t23.5 94q0 62 -38.5 103.5t-112.5 41.5q-51 0 -92.5 -27t-65 -72t-23.5 -95q0 -61 39 -102t111 -41q51 0 93 27z" />
    <glyph glyph-name="yen" unicode="&#xa5;" horiz-adv-x="626" 
d="M412 334h212l-11 -52h-247l-24 -107h247l-12 -53h-246l-28 -122h-83l28 122h-254l12 53h253l24 107h-253l12 52h217l-154 333h91l139 -310l275 310h102z" />
    <glyph glyph-name="brokenbar" unicode="&#xa6;" horiz-adv-x="211" 
d="M98 687h55v-316h-55v316zM98 296h55v-316h-55v316z" />
    <glyph glyph-name="section" unicode="&#xa7;" horiz-adv-x="468" 
d="M365 132q16 -25 16 -57q0 -41 -23 -77t-65.5 -57.5t-98.5 -21.5q-70 0 -125 21t-90 60l48 46q25 -33 69.5 -52.5t95.5 -19.5q49 0 81 26.5t32 64.5q0 31 -26 48t-81 38q-48 19 -76 33.5t-48 39t-20 61.5q0 50 38 88t107 50q-91 35 -91 109q0 38 22 71t63 53.5t96 20.5
q65 0 115 -20t80 -55l-45 -41q-23 30 -63 45t-84 15q-48 0 -78.5 -23t-30.5 -57q0 -30 26.5 -47.5t81.5 -36.5q47 -17 75.5 -31.5t49 -40t20.5 -63.5q0 -48 -32 -87.5t-92 -57.5q37 -20 53 -45zM163 359.5q-34 -26.5 -34 -61.5q0 -34 29 -53.5t93 -41.5q55 15 81.5 43
t26.5 60t-25 52.5t-69 36.5q-68 -9 -102 -35.5z" />
    <glyph glyph-name="dieresis" unicode="&#xa8;" horiz-adv-x="272" 
d="M77.5 569.5q-12.5 12.5 -12.5 29.5q0 20 16 35.5t36 15.5q18 0 30 -12t12 -29q0 -20 -16 -36t-36 -16q-17 0 -29.5 12.5zM284 569.5q-12 12.5 -12 29.5q0 20 15.5 35.5t36.5 15.5q17 0 29 -12t12 -29q0 -20 -15.5 -36t-36.5 -16q-17 0 -29 12.5z" />
    <glyph glyph-name="copyright" unicode="&#xa9;" horiz-adv-x="778" 
d="M236 35.5q-79 46.5 -125.5 126t-46.5 172.5q0 94 46.5 173t125.5 125.5t172 46.5q94 0 173.5 -46.5t126 -125.5t46.5 -173q0 -93 -46.5 -172.5t-126 -126t-173.5 -46.5q-93 0 -172 46.5zM251 605.5q-72 -42.5 -114 -114.5t-42 -157t42 -157t114 -114.5t157 -42.5
t157.5 42.5t115 114.5t42.5 157t-42.5 157t-115 114.5t-157.5 42.5t-157 -42.5zM390 121q-58 0 -102 24.5t-67 67t-23 94.5q0 66 33.5 121.5t88 87.5t114.5 32q52 0 92 -20t64 -60l-31 -22q-18 33 -51 51t-76 18q-48 0 -93.5 -27t-74.5 -74.5t-29 -105.5q0 -42 19.5 -77.5
t54.5 -56t81 -20.5q32 0 63 13t52 34l19 -28q-62 -52 -134 -52z" />
    <glyph glyph-name="ordfeminine" unicode="&#xaa;" horiz-adv-x="410" 
d="M367 326h-58l11 46q-24 -28 -50 -41t-58 -13q-53 0 -89 35t-36 99q0 52 22 97t61 72t86 27q38 0 67.5 -14t46.5 -40l9 46h58zM170.5 389q23.5 -24 63.5 -24q53 0 96 49l32 143q-13 20 -38.5 32t-56.5 12q-33 0 -60.5 -20t-43.5 -52.5t-16 -70.5q0 -45 23.5 -69z" />
    <glyph glyph-name="guillemotleft" unicode="&#xab;" horiz-adv-x="439" 
d="M29 243l200 177h79l-204 -182l116 -175h-71zM173 243l200 177h79l-204 -182l116 -175h-71z" />
    <glyph glyph-name="logicalnot" unicode="&#xac;" horiz-adv-x="504" 
d="M407 211l43 193h-386l12 53h441l-55 -246h-55z" />
    <glyph glyph-name="uni00AD" unicode="&#xad;" horiz-adv-x="300" 
d="M36 275h240l-14 -66h-240z" />
    <glyph glyph-name="registered" unicode="&#xae;" horiz-adv-x="494" 
d="M189 281.5q-48 28.5 -76.5 77t-28.5 106.5t28.5 106.5t77 77t106.5 28.5t106.5 -28.5t77 -77t28.5 -106.5t-28.5 -106.5t-77.5 -77t-107 -28.5t-106 28.5zM203 623.5q-42 -24.5 -66.5 -66.5t-24.5 -92t24.5 -92t66.5 -67t92 -25t92 25t67 67t25 92t-25 92t-67 66.5
t-92 24.5t-92 -24.5zM287 439h-46l-21 -96h-32l53 243h92q29 0 49.5 -17.5t20.5 -46.5q0 -35 -25 -58.5t-55 -23.5l44 -97h-38zM267 558l-20 -90h67q23 0 39 14.5t16 36.5q0 18 -11.5 28.5t-29.5 10.5h-61z" />
    <glyph glyph-name="macron" unicode="&#xaf;" horiz-adv-x="363" 
d="M83 620h362l-10 -48h-362z" />
    <glyph glyph-name="degree" unicode="&#xb0;" horiz-adv-x="290" 
d="M127.5 468.5q-35.5 35.5 -35.5 86.5q0 50 35.5 86t85.5 36q51 0 86.5 -36t35.5 -86q0 -51 -35.5 -86.5t-86.5 -35.5q-50 0 -85.5 35.5zM161.5 607q-21.5 -22 -21.5 -52q0 -31 21 -52.5t51 -21.5t52.5 22t22.5 52t-22 52t-52 22t-51.5 -22z" />
    <glyph glyph-name="plusminus" unicode="&#xb1;" horiz-adv-x="499" 
d="M248 110h-57l47 214h-192l12 52h192l45 207h58l-46 -207h192l-12 -52h-192zM-14 52h441l-11 -52h-441z" />
    <glyph glyph-name="uni00B2" unicode="&#xb2;" horiz-adv-x="388" 
d="M100 470q105 62 161.5 100t88.5 73.5t32 70.5q0 31 -25 47.5t-60 16.5q-34 0 -63 -12.5t-49 -34.5l-28 40q26 27 63.5 41.5t78.5 14.5q59 0 101.5 -27.5t42.5 -81.5q0 -42 -32.5 -82.5t-85 -78t-135.5 -87.5h201l-11 -49h-291z" />
    <glyph glyph-name="uni00B3" unicode="&#xb3;" horiz-adv-x="388" 
d="M163 433q-42 19 -63 54l40 34q19 -28 50 -43t68 -15q41 0 64.5 22.5t23.5 56.5q0 27 -27 43.5t-72 16.5q-23 0 -30 -1l11 50q28 -2 61 -2q42 0 66.5 18t24.5 50q0 28 -27 44.5t-65 16.5q-30 0 -56 -10.5t-52 -32.5l-23 39q25 23 61.5 38t73.5 15q65 0 107 -26.5t42 -75.5
q0 -44 -31 -72t-80 -32q32 -6 54.5 -29t22.5 -57q0 -30 -18 -58t-51.5 -45.5t-77.5 -17.5q-55 0 -97 19z" />
    <glyph glyph-name="acute" unicode="&#xb4;" horiz-adv-x="226" 
d="M67 556l180 144h80l-201 -144h-59z" />
    <glyph glyph-name="uni03BC.1" unicode="&#xb5;" horiz-adv-x="564" 
d="M-22 -184l151 667h75l-71 -317q-4 -16 -4 -34q0 -39 24 -59t64 -20t84 22t73 53l79 355h75l-82 -370q-3 -10 -3 -20q0 -38 37 -38q10 0 20 2l-9 -65q-22 -4 -41 -4q-89 0 -84 86q-37 -38 -83 -62t-90 -24q-69 0 -90 48l-50 -220h-75z" />
    <glyph glyph-name="paragraph" unicode="&#xb6;" horiz-adv-x="449" 
d="M416 622h-89l-160 -722h-45l94 423q-37 0 -68.5 20t-50 56t-18.5 80q0 47 25.5 90.5t70 70.5t98.5 27h198l-170 -767h-45z" />
    <glyph glyph-name="periodcentered" unicode="&#xb7;" horiz-adv-x="230" 
d="M77.5 282.5q17.5 17.5 42.5 17.5q21 0 35.5 -15t14.5 -36q0 -25 -17.5 -42t-42.5 -17q-21 0 -35.5 14.5t-14.5 35.5q0 25 17.5 42.5z" />
    <glyph glyph-name="cedilla" unicode="&#xb8;" horiz-adv-x="205" 
d="M-62 -117q16 -17 38 -26t45 -9q29 0 45 13t16 34q0 14 -9.5 22t-27.5 8q-20 0 -35 -17l-29 19l50 84h45l-41 -66q15 11 34 11q26 0 42 -15.5t16 -43.5q0 -39 -30 -63.5t-78 -24.5q-34 0 -62 10.5t-46 27.5z" />
    <glyph glyph-name="uni00B9" unicode="&#xb9;" horiz-adv-x="235" 
d="M223 739l-78 -66l-29 38l133 110h53l-88 -400h-60z" />
    <glyph glyph-name="ordmasculine" unicode="&#xba;" horiz-adv-x="405" 
d="M110.5 554q24.5 43 66.5 68.5t92 25.5q68 0 109 -39.5t41 -103.5q0 -51 -24.5 -94t-66.5 -68t-92 -25q-68 0 -109 39.5t-41 102.5q0 51 24.5 94zM334 572.5q-25 25.5 -66 25.5q-54 0 -88 -41.5t-34 -97.5q0 -42 25 -67.5t67 -25.5q54 0 87.5 41.5t33.5 98.5
q0 41 -25 66.5z" />
    <glyph glyph-name="guillemotright" unicode="&#xbb;" horiz-adv-x="439" 
d="M268 240l-200 -177h-79l204 182l-116 175h71zM412 240l-200 -177h-79l204 182l-116 175h71z" />
    <glyph glyph-name="onequarter" unicode="&#xbc;" horiz-adv-x="770" 
d="M54 0l573 667h56l-574 -667h-55zM621 0h-59l22 100h-196l9 44l229 256h83l-55 -251h57l-10 -49h-58zM459 149h135l43 194zM189 585l-78 -66l-29 38l133 110h53l-88 -400h-60z" />
    <glyph glyph-name="onehalf" unicode="&#xbd;" horiz-adv-x="807" 
d="M54 0l573 667h56l-574 -667h-55zM425 49q105 62 161.5 100t88.5 73.5t32 70.5q0 31 -25 47.5t-60 16.5q-34 0 -63 -12.5t-49 -34.5l-28 40q26 27 63.5 41.5t78.5 14.5q59 0 101.5 -27.5t42.5 -81.5q0 -42 -32.5 -82.5t-85 -78t-135.5 -87.5h201l-11 -49h-291zM189 585
l-78 -66l-29 38l133 110h53l-88 -400h-60z" />
    <glyph glyph-name="threequarters" unicode="&#xbe;" horiz-adv-x="878" 
d="M162 0l573 667h56l-574 -667h-55zM730 0h-59l22 100h-196l9 44l229 256h83l-55 -251h57l-10 -49h-58zM568 149h135l43 194zM129 279q-42 19 -63 54l40 34q19 -28 50 -43t68 -15q41 0 64.5 22.5t23.5 56.5q0 27 -27 43.5t-72 16.5q-23 0 -30 -1l11 50q28 -2 61 -2
q42 0 66.5 18t24.5 50q0 28 -27 44.5t-65 16.5q-30 0 -56 -10.5t-52 -32.5l-23 39q25 23 61.5 38t73.5 15q65 0 107 -26.5t42 -75.5q0 -44 -31 -72t-80 -32q32 -6 54.5 -29t22.5 -57q0 -30 -18 -58t-51.5 -45.5t-77.5 -17.5q-55 0 -97 19z" />
    <glyph glyph-name="questiondown" unicode="&#xbf;" horiz-adv-x="394" 
d="M318 400q-18 -17 -43 -17q-21 0 -35.5 14.5t-14.5 36.5q0 24 18 41.5t42 17.5q22 0 36.5 -15t14.5 -36q0 -25 -18 -42zM293 227q0 -35 -17 -60.5t-41.5 -42.5t-65.5 -38q-38 -20 -60.5 -34.5t-37.5 -36t-15 -49.5q0 -40 32 -63.5t90 -23.5q87 0 154 65l37 -57
q-88 -82 -201 -82q-58 0 -103.5 18.5t-71.5 51.5t-26 77q0 46 21 78.5t50 52.5t77 46q53 27 79 48.5t26 54.5q0 22 -16 39l66 27q23 -32 23 -71z" />
    <glyph glyph-name="Agrave" unicode="&#xc0;" horiz-adv-x="658" 
d="M297 867h78l116 -144h-57zM478 148h-333l-91 -148h-99l415 667h103l122 -667h-91zM187 222h283l-63 359z" />
    <glyph glyph-name="Aacute" unicode="&#xc1;" horiz-adv-x="658" 
d="M375 723l180 144h80l-201 -144h-59zM478 148h-333l-91 -148h-99l415 667h103l122 -667h-91zM187 222h283l-63 359z" />
    <glyph glyph-name="Acircumflex" unicode="&#xc2;" horiz-adv-x="658" 
d="M458 829l-103 -106h-53l127 144h72l66 -144h-49zM478 148h-333l-91 -148h-99l415 667h103l122 -667h-91zM187 222h283l-63 359z" />
    <glyph glyph-name="Atilde" unicode="&#xc3;" horiz-adv-x="658" 
d="M413 803q-10 10 -27 10q-42 0 -61 -86h-46q27 134 112 134q27 0 42 -13t30 -38q12 -21 22 -31t27 -10q20 0 35.5 21t26.5 65h46q-29 -134 -113 -134q-27 0 -42 13t-30 38q-12 21 -22 31zM478 148h-333l-91 -148h-99l415 667h103l122 -667h-91zM187 222h283l-63 359z" />
    <glyph glyph-name="Adieresis" unicode="&#xc4;" horiz-adv-x="658" 
d="M307.5 736.5q-12.5 12.5 -12.5 29.5q0 20 16 35.5t36 15.5q18 0 30 -12t12 -29q0 -20 -16 -36t-36 -16q-17 0 -29.5 12.5zM514 736.5q-12 12.5 -12 29.5q0 20 15.5 35.5t36.5 15.5q17 0 29 -12t12 -29q0 -20 -15.5 -36t-36.5 -16q-17 0 -29 12.5zM478 148h-333l-91 -148
h-99l415 667h103l122 -667h-91zM187 222h283l-63 359z" />
    <glyph glyph-name="Aring" unicode="&#xc5;" horiz-adv-x="658" 
d="M382.5 855q32.5 32 75.5 32q39 0 64 -25t25 -64q0 -44 -32 -76t-76 -32q-39 0 -64 25t-25 64q0 44 32.5 76zM493 832.5q-14 14.5 -38 14.5q-26 0 -45.5 -19t-19.5 -45q0 -23 14.5 -38t37.5 -15q26 0 45.5 19t19.5 45q0 24 -14 38.5zM478 148h-333l-91 -148h-99l415 667
h103l122 -667h-91zM187 222h283l-63 359z" />
    <glyph glyph-name="AE" unicode="&#xc6;" horiz-adv-x="947" 
d="M434 148h-259l-124 -148h-98l563 667h470l-16 -74h-354l-48 -215h347l-16 -74h-348l-51 -230h355l-16 -74h-437zM232 222h219l77 354z" />
    <glyph glyph-name="Ccedilla" unicode="&#xc7;" horiz-adv-x="676" 
d="M293 563.5q-65 -40.5 -105 -113.5t-40 -166q0 -65 27.5 -115.5t78.5 -78.5t119 -28q47 0 93.5 19.5t85.5 56.5l61 -46q-50 -53 -114.5 -78.5t-130.5 -25.5h-19l-27 -43q15 11 34 11q26 0 42 -15.5t16 -43.5q0 -39 -30 -63.5t-78 -24.5q-34 0 -62 10.5t-46 27.5l27 36
q16 -17 38 -26t45 -9q29 0 45 13t16 34q0 14 -9.5 22t-27.5 8q-20 0 -35 -17l-29 19l39 66q-73 12 -129 50.5t-87 99t-31 137.5q0 116 52.5 207t139 141t183.5 50t167 -42t105 -115l-79 -31q-29 57 -80.5 85.5t-117.5 28.5q-72 0 -137 -40.5z" />
    <glyph glyph-name="Egrave" unicode="&#xc8;" horiz-adv-x="569" 
d="M266 867h78l116 -144h-57zM171 667h437l-16 -74h-354l-48 -215h347l-16 -74h-348l-51 -230h355l-16 -74h-437z" />
    <glyph glyph-name="Eacute" unicode="&#xc9;" horiz-adv-x="569" 
d="M343 723l180 144h80l-201 -144h-59zM171 667h437l-16 -74h-354l-48 -215h347l-16 -74h-348l-51 -230h355l-16 -74h-437z" />
    <glyph glyph-name="Ecircumflex" unicode="&#xca;" horiz-adv-x="569" 
d="M425 829l-103 -106h-53l127 144h72l66 -144h-49zM171 667h437l-16 -74h-354l-48 -215h347l-16 -74h-348l-51 -230h355l-16 -74h-437z" />
    <glyph glyph-name="Edieresis" unicode="&#xcb;" horiz-adv-x="569" 
d="M274.5 736.5q-12.5 12.5 -12.5 29.5q0 20 16 35.5t36 15.5q18 0 30 -12t12 -29q0 -20 -16 -36t-36 -16q-17 0 -29.5 12.5zM481 736.5q-12 12.5 -12 29.5q0 20 15.5 35.5t36.5 15.5q17 0 29 -12t12 -29q0 -20 -15.5 -36t-36.5 -16q-17 0 -29 12.5zM171 667h437l-16 -74
h-354l-48 -215h347l-16 -74h-348l-51 -230h355l-16 -74h-437z" />
    <glyph glyph-name="Igrave" unicode="&#xcc;" horiz-adv-x="239" 
d="M88 867h78l116 -144h-57zM171 667h83l-147 -667h-83z" />
    <glyph glyph-name="Iacute" unicode="&#xcd;" horiz-adv-x="239" 
d="M166 723l180 144h80l-201 -144h-59zM171 667h83l-147 -667h-83z" />
    <glyph glyph-name="Icircumflex" unicode="&#xce;" horiz-adv-x="239" 
d="M249 829l-103 -106h-53l127 144h72l66 -144h-49zM171 667h83l-147 -667h-83z" />
    <glyph glyph-name="Idieresis" unicode="&#xcf;" horiz-adv-x="239" 
d="M97.5 736.5q-12.5 12.5 -12.5 29.5q0 20 16 35.5t36 15.5q18 0 30 -12t12 -29q0 -20 -16 -36t-36 -16q-17 0 -29.5 12.5zM304 736.5q-12 12.5 -12 29.5q0 20 15.5 35.5t36.5 15.5q17 0 29 -12t12 -29q0 -20 -15.5 -36t-36.5 -16q-17 0 -29 12.5zM171 667h83l-147 -667
h-83z" />
    <glyph glyph-name="Eth" unicode="&#xd0;" horiz-adv-x="728" 
d="M559.5 630.5q63.5 -36.5 101.5 -102t38 -146.5q0 -96 -46.5 -183.5t-141.5 -143t-232 -55.5h-227l66 299h-96l15 69h96l66 299h223q74 0 137.5 -36.5zM460.5 115q72.5 41 112 110.5t39.5 152.5q0 61 -27 110t-74 77t-105 28h-140l-50 -225h169l-15 -69h-170l-50 -225h143
q95 0 167.5 41z" />
    <glyph glyph-name="Ntilde" unicode="&#xd1;" horiz-adv-x="708" 
d="M438 803q-10 10 -27 10q-42 0 -61 -86h-46q27 134 112 134q27 0 42 -13t30 -38q12 -21 22 -31t27 -10q20 0 35.5 21t26.5 65h46q-29 -134 -113 -134q-27 0 -42 13t-30 38q-12 21 -22 31zM227 544l-120 -544h-83l147 667h85l266 -534l118 534h83l-147 -667h-80z" />
    <glyph glyph-name="Ograve" unicode="&#xd2;" horiz-adv-x="765" 
d="M352 867h78l116 -144h-57zM110 481q50 91 136 144t189 53q86 0 156.5 -35t111 -101t40.5 -155q0 -110 -50 -201.5t-136 -144.5t-189 -53q-86 0 -156.5 35t-111 101t-40.5 156q0 110 50 201zM625 501q-30 50 -81 76.5t-114 26.5q-76 0 -140.5 -41.5t-103 -115
t-38.5 -163.5q0 -69 29.5 -119.5t81 -76.5t114.5 -26q75 0 140 41.5t103.5 115t38.5 163.5q0 69 -30 119z" />
    <glyph glyph-name="Oacute" unicode="&#xd3;" horiz-adv-x="765" 
d="M429 723l180 144h80l-201 -144h-59zM110 481q50 91 136 144t189 53q86 0 156.5 -35t111 -101t40.5 -155q0 -110 -50 -201.5t-136 -144.5t-189 -53q-86 0 -156.5 35t-111 101t-40.5 156q0 110 50 201zM625 501q-30 50 -81 76.5t-114 26.5q-76 0 -140.5 -41.5t-103 -115
t-38.5 -163.5q0 -69 29.5 -119.5t81 -76.5t114.5 -26q75 0 140 41.5t103.5 115t38.5 163.5q0 69 -30 119z" />
    <glyph glyph-name="Ocircumflex" unicode="&#xd4;" horiz-adv-x="765" 
d="M513 829l-103 -106h-53l127 144h72l66 -144h-49zM110 481q50 91 136 144t189 53q86 0 156.5 -35t111 -101t40.5 -155q0 -110 -50 -201.5t-136 -144.5t-189 -53q-86 0 -156.5 35t-111 101t-40.5 156q0 110 50 201zM625 501q-30 50 -81 76.5t-114 26.5q-76 0 -140.5 -41.5
t-103 -115t-38.5 -163.5q0 -69 29.5 -119.5t81 -76.5t114.5 -26q75 0 140 41.5t103.5 115t38.5 163.5q0 69 -30 119z" />
    <glyph glyph-name="Otilde" unicode="&#xd5;" horiz-adv-x="765" 
d="M467 803q-10 10 -27 10q-42 0 -61 -86h-46q27 134 112 134q27 0 42 -13t30 -38q12 -21 22 -31t27 -10q20 0 35.5 21t26.5 65h46q-29 -134 -113 -134q-27 0 -42 13t-30 38q-12 21 -22 31zM110 481q50 91 136 144t189 53q86 0 156.5 -35t111 -101t40.5 -155
q0 -110 -50 -201.5t-136 -144.5t-189 -53q-86 0 -156.5 35t-111 101t-40.5 156q0 110 50 201zM625 501q-30 50 -81 76.5t-114 26.5q-76 0 -140.5 -41.5t-103 -115t-38.5 -163.5q0 -69 29.5 -119.5t81 -76.5t114.5 -26q75 0 140 41.5t103.5 115t38.5 163.5q0 69 -30 119z" />
    <glyph glyph-name="Odieresis" unicode="&#xd6;" horiz-adv-x="765" 
d="M361.5 736.5q-12.5 12.5 -12.5 29.5q0 20 16 35.5t36 15.5q18 0 30 -12t12 -29q0 -20 -16 -36t-36 -16q-17 0 -29.5 12.5zM568 736.5q-12 12.5 -12 29.5q0 20 15.5 35.5t36.5 15.5q17 0 29 -12t12 -29q0 -20 -15.5 -36t-36.5 -16q-17 0 -29 12.5zM110 481q50 91 136 144
t189 53q86 0 156.5 -35t111 -101t40.5 -155q0 -110 -50 -201.5t-136 -144.5t-189 -53q-86 0 -156.5 35t-111 101t-40.5 156q0 110 50 201zM625 501q-30 50 -81 76.5t-114 26.5q-76 0 -140.5 -41.5t-103 -115t-38.5 -163.5q0 -69 29.5 -119.5t81 -76.5t114.5 -26
q75 0 140 41.5t103.5 115t38.5 163.5q0 69 -30 119z" />
    <glyph glyph-name="multiply" unicode="&#xd7;" horiz-adv-x="499" 
d="M81 147l-33 40l185 150l-115 147l42 34l113 -147l184 150l32 -40l-183 -151l114 -147l-41 -33l-115 147z" />
    <glyph glyph-name="Oslash" unicode="&#xd8;" horiz-adv-x="765" 
d="M743 387q0 -110 -50 -201.5t-136 -144.5t-189 -53q-112 0 -194 57l-41 -45h-66l69 78q-76 79 -76 202q0 110 50 201t136 144t189 53q109 0 189 -54l39 43h66l-66 -74q80 -80 80 -206zM193 142l376 420q-59 42 -139 42q-76 0 -140.5 -41.5t-103 -115t-38.5 -163.5
q0 -84 45 -142zM513 103.5q65 41.5 103.5 115t38.5 163.5q0 89 -49 147l-377 -422q61 -45 144 -45q75 0 140 41.5z" />
    <glyph glyph-name="Ugrave" unicode="&#xd9;" horiz-adv-x="700" 
d="M319 867h78l116 -144h-57zM81 259l90 408h83l-89 -406q-5 -20 -5 -42q0 -70 46.5 -113.5t129.5 -43.5q88 0 136.5 50.5t69.5 148.5l90 406h83l-89 -407q-30 -133 -97 -202.5t-193 -69.5q-123 0 -191.5 60t-68.5 162q0 19 5 49z" />
    <glyph glyph-name="Uacute" unicode="&#xda;" horiz-adv-x="700" 
d="M397 723l180 144h80l-201 -144h-59zM81 259l90 408h83l-89 -406q-5 -20 -5 -42q0 -70 46.5 -113.5t129.5 -43.5q88 0 136.5 50.5t69.5 148.5l90 406h83l-89 -407q-30 -133 -97 -202.5t-193 -69.5q-123 0 -191.5 60t-68.5 162q0 19 5 49z" />
    <glyph glyph-name="Ucircumflex" unicode="&#xdb;" horiz-adv-x="700" 
d="M479 829l-103 -106h-53l127 144h72l66 -144h-49zM81 259l90 408h83l-89 -406q-5 -20 -5 -42q0 -70 46.5 -113.5t129.5 -43.5q88 0 136.5 50.5t69.5 148.5l90 406h83l-89 -407q-30 -133 -97 -202.5t-193 -69.5q-123 0 -191.5 60t-68.5 162q0 19 5 49z" />
    <glyph glyph-name="Udieresis" unicode="&#xdc;" horiz-adv-x="700" 
d="M328.5 736.5q-12.5 12.5 -12.5 29.5q0 20 16 35.5t36 15.5q18 0 30 -12t12 -29q0 -20 -16 -36t-36 -16q-17 0 -29.5 12.5zM535 736.5q-12 12.5 -12 29.5q0 20 15.5 35.5t36.5 15.5q17 0 29 -12t12 -29q0 -20 -15.5 -36t-36.5 -16q-17 0 -29 12.5zM81 259l90 408h83
l-89 -406q-5 -20 -5 -42q0 -70 46.5 -113.5t129.5 -43.5q88 0 136.5 50.5t69.5 148.5l90 406h83l-89 -407q-30 -133 -97 -202.5t-193 -69.5q-123 0 -191.5 60t-68.5 162q0 19 5 49z" />
    <glyph glyph-name="Yacute" unicode="&#xdd;" horiz-adv-x="626" 
d="M359 723l180 144h80l-201 -144h-59zM280 282l-178 385h91l139 -310l275 310h103l-347 -385l-62 -282h-83z" />
    <glyph glyph-name="Thorn" unicode="&#xde;" horiz-adv-x="587" 
d="M171 667h83l-26 -119h175q49 0 89 -23.5t63 -63t23 -86.5q0 -56 -27 -108.5t-84.5 -86.5t-143.5 -34h-184l-32 -146h-83zM458 443.5q-33 30.5 -78 30.5h-169l-56 -254h174q52 0 88.5 20.5t55 54.5t18.5 73q0 45 -33 75.5z" />
    <glyph glyph-name="germandbls" unicode="&#xdf;" horiz-adv-x="597" 
d="M255.5 9q-47.5 21 -87.5 68l47 48q59 -76 159 -76q50 0 80 26t30 61q0 27 -24.5 42.5t-77.5 35.5q-45 16 -72.5 29t-47 36t-19.5 58q0 36 16 61t38.5 40t59.5 34q39 19 58 34t19 37q0 30 -30 48.5t-68 18.5q-48 0 -83 -30t-47 -81l-110 -499h-75l110 499
q18 79 71.5 128.5t135.5 49.5q44 0 84 -15t65 -42.5t25 -63.5q0 -33 -15.5 -56.5t-37.5 -37.5t-57 -31q-43 -20 -64 -37.5t-21 -45.5q0 -25 24 -39.5t75 -33.5q46 -16 74.5 -30t48.5 -38.5t20 -61.5q0 -40 -22 -76t-65 -58.5t-101 -22.5q-68 0 -115.5 21z" />
    <glyph glyph-name="agrave" unicode="&#xe0;" horiz-adv-x="575" 
d="M478 483h75l-107 -483h-75l15 69q-31 -39 -71 -60t-88 -21q-85 0 -136 53t-51 146q0 80 31.5 150.5t89 114t132.5 43.5q55 0 99.5 -23.5t68.5 -64.5zM156 94.5q37 -39.5 98 -39.5q43 0 83 23.5t64 58.5l48 213q-19 34 -57.5 56t-88.5 22q-53 0 -95 -32t-65.5 -84.5
t-23.5 -110.5q0 -67 37 -106.5zM214 700h78l116 -144h-57z" />
    <glyph glyph-name="aacute" unicode="&#xe1;" horiz-adv-x="575" 
d="M478 483h75l-107 -483h-75l15 69q-31 -39 -71 -60t-88 -21q-85 0 -136 53t-51 146q0 80 31.5 150.5t89 114t132.5 43.5q55 0 99.5 -23.5t68.5 -64.5zM156 94.5q37 -39.5 98 -39.5q43 0 83 23.5t64 58.5l48 213q-19 34 -57.5 56t-88.5 22q-53 0 -95 -32t-65.5 -84.5
t-23.5 -110.5q0 -67 37 -106.5zM290 556l180 144h80l-201 -144h-59z" />
    <glyph glyph-name="acircumflex" unicode="&#xe2;" horiz-adv-x="575" 
d="M478 483h75l-107 -483h-75l15 69q-31 -39 -71 -60t-88 -21q-85 0 -136 53t-51 146q0 80 31.5 150.5t89 114t132.5 43.5q55 0 99.5 -23.5t68.5 -64.5zM156 94.5q37 -39.5 98 -39.5q43 0 83 23.5t64 58.5l48 213q-19 34 -57.5 56t-88.5 22q-53 0 -95 -32t-65.5 -84.5
t-23.5 -110.5q0 -67 37 -106.5zM374 662l-103 -106h-53l127 144h72l66 -144h-49z" />
    <glyph glyph-name="atilde" unicode="&#xe3;" horiz-adv-x="575" 
d="M478 483h75l-107 -483h-75l15 69q-31 -39 -71 -60t-88 -21q-85 0 -136 53t-51 146q0 80 31.5 150.5t89 114t132.5 43.5q55 0 99.5 -23.5t68.5 -64.5zM156 94.5q37 -39.5 98 -39.5q43 0 83 23.5t64 58.5l48 213q-19 34 -57.5 56t-88.5 22q-53 0 -95 -32t-65.5 -84.5
t-23.5 -110.5q0 -67 37 -106.5zM330 636q-10 10 -27 10q-42 0 -61 -86h-46q27 134 112 134q27 0 42 -13t30 -38q12 -21 22 -31t27 -10q20 0 35.5 21t26.5 65h46q-29 -134 -113 -134q-27 0 -42 13t-30 38q-12 21 -22 31z" />
    <glyph glyph-name="adieresis" unicode="&#xe4;" horiz-adv-x="575" 
d="M478 483h75l-107 -483h-75l15 69q-31 -39 -71 -60t-88 -21q-85 0 -136 53t-51 146q0 80 31.5 150.5t89 114t132.5 43.5q55 0 99.5 -23.5t68.5 -64.5zM156 94.5q37 -39.5 98 -39.5q43 0 83 23.5t64 58.5l48 213q-19 34 -57.5 56t-88.5 22q-53 0 -95 -32t-65.5 -84.5
t-23.5 -110.5q0 -67 37 -106.5zM223.5 569.5q-12.5 12.5 -12.5 29.5q0 20 16 35.5t36 15.5q18 0 30 -12t12 -29q0 -20 -16 -36t-36 -16q-17 0 -29.5 12.5zM430 569.5q-12 12.5 -12 29.5q0 20 15.5 35.5t36.5 15.5q17 0 29 -12t12 -29q0 -20 -15.5 -36t-36.5 -16
q-17 0 -29 12.5z" />
    <glyph glyph-name="aring" unicode="&#xe5;" horiz-adv-x="575" 
d="M478 483h75l-107 -483h-75l15 69q-31 -39 -71 -60t-88 -21q-85 0 -136 53t-51 146q0 80 31.5 150.5t89 114t132.5 43.5q55 0 99.5 -23.5t68.5 -64.5zM156 94.5q37 -39.5 98 -39.5q43 0 83 23.5t64 58.5l48 213q-19 34 -57.5 56t-88.5 22q-53 0 -95 -32t-65.5 -84.5
t-23.5 -110.5q0 -67 37 -106.5zM302.5 705q32.5 32 75.5 32q39 0 64 -25t25 -64q0 -44 -32 -76t-76 -32q-39 0 -64 25t-25 64q0 44 32.5 76zM413 682.5q-14 14.5 -38 14.5q-26 0 -45.5 -19t-19.5 -45q0 -23 14.5 -38t37.5 -15q26 0 45.5 19t19.5 45q0 24 -14 38.5z" />
    <glyph glyph-name="ae" unicode="&#xe6;" horiz-adv-x="938" 
d="M371 0l15 69q-31 -39 -71 -60t-88 -21q-85 0 -136 53t-51 146q0 80 31.5 150.5t89 114t132.5 43.5q55 0 99.5 -23.5t68.5 -64.5l17 76h75l-18 -82q30 39 76 66.5t99 27.5q90 0 138.5 -56t48.5 -151q0 -17 -3 -38.5t-6 -32.5h-390q-1 -4 -1 -23q0 -60 42.5 -101t120.5 -41
q37 0 72 12t63 35l26 -54q-34 -26 -76 -41.5t-82 -15.5q-77 0 -125.5 35.5t-65.5 94.5l-26 -118h-75zM827 291q0 63 -36.5 102.5t-105.5 39.5q-43 0 -81.5 -22t-64.5 -59t-34 -80h320q2 8 2 19zM156 94.5q37 -39.5 98 -39.5q43 0 83 23.5t64 58.5l48 213q-19 34 -57.5 56
t-88.5 22q-53 0 -95 -32t-65.5 -84.5t-23.5 -110.5q0 -67 37 -106.5z" />
    <glyph glyph-name="ccedilla" unicode="&#xe7;" horiz-adv-x="495" 
d="M211 397q-45 -31 -69 -82t-24 -110q0 -72 42.5 -111t108.5 -39q36 0 67.5 15.5t54.5 41.5l43 -50q-72 -74 -172 -74h-12l-26 -43q15 11 33 11q26 0 42 -15.5t16 -43.5q0 -39 -30 -63.5t-78 -24.5q-34 0 -62 10.5t-46 27.5l27 36q16 -17 38.5 -26t44.5 -9q30 0 46 13
t16 34q0 14 -10 22t-27 8q-21 0 -36 -17l-28 19l38 66q-77 15 -122.5 70.5t-45.5 140.5q0 79 36 145.5t98.5 106t137.5 39.5q65 0 110 -23.5t71 -66.5l-57 -43q-18 32 -50.5 49t-71.5 17q-58 0 -103 -31z" />
    <glyph glyph-name="egrave" unicode="&#xe8;" horiz-adv-x="563" 
d="M76 348.5q36 67.5 98.5 107t137.5 39.5q62 0 109.5 -27t73 -75t25.5 -109q0 -30 -8 -67h-394l-1 -23q0 -39 19 -71.5t56 -52.5t89 -20q36 0 73 12t66 35l25 -52q-33 -26 -78 -41.5t-91 -15.5q-109 0 -172.5 58t-63.5 156q0 79 36 146.5zM452 291q0 62 -38.5 102
t-108.5 40q-43 0 -81.5 -22t-64.5 -59t-33 -80h324q2 8 2 19zM217 700h78l116 -144h-57z" />
    <glyph glyph-name="eacute" unicode="&#xe9;" horiz-adv-x="563" 
d="M76 348.5q36 67.5 98.5 107t137.5 39.5q62 0 109.5 -27t73 -75t25.5 -109q0 -30 -8 -67h-394l-1 -23q0 -39 19 -71.5t56 -52.5t89 -20q36 0 73 12t66 35l25 -52q-33 -26 -78 -41.5t-91 -15.5q-109 0 -172.5 58t-63.5 156q0 79 36 146.5zM452 291q0 62 -38.5 102
t-108.5 40q-43 0 -81.5 -22t-64.5 -59t-33 -80h324q2 8 2 19zM295 556l180 144h80l-201 -144h-59z" />
    <glyph glyph-name="ecircumflex" unicode="&#xea;" horiz-adv-x="563" 
d="M76 348.5q36 67.5 98.5 107t137.5 39.5q62 0 109.5 -27t73 -75t25.5 -109q0 -30 -8 -67h-394l-1 -23q0 -39 19 -71.5t56 -52.5t89 -20q36 0 73 12t66 35l25 -52q-33 -26 -78 -41.5t-91 -15.5q-109 0 -172.5 58t-63.5 156q0 79 36 146.5zM452 291q0 62 -38.5 102
t-108.5 40q-43 0 -81.5 -22t-64.5 -59t-33 -80h324q2 8 2 19zM376 662l-103 -106h-53l127 144h72l66 -144h-49z" />
    <glyph glyph-name="edieresis" unicode="&#xeb;" horiz-adv-x="563" 
d="M76 348.5q36 67.5 98.5 107t137.5 39.5q62 0 109.5 -27t73 -75t25.5 -109q0 -30 -8 -67h-394l-1 -23q0 -39 19 -71.5t56 -52.5t89 -20q36 0 73 12t66 35l25 -52q-33 -26 -78 -41.5t-91 -15.5q-109 0 -172.5 58t-63.5 156q0 79 36 146.5zM452 291q0 62 -38.5 102
t-108.5 40q-43 0 -81.5 -22t-64.5 -59t-33 -80h324q2 8 2 19zM226.5 569.5q-12.5 12.5 -12.5 29.5q0 20 16 35.5t36 15.5q18 0 30 -12t12 -29q0 -20 -16 -36t-36 -16q-17 0 -29.5 12.5zM433 569.5q-12 12.5 -12 29.5q0 20 15.5 35.5t36.5 15.5q17 0 29 -12t12 -29
q0 -20 -15.5 -36t-36.5 -16q-17 0 -29 12.5z" />
    <glyph glyph-name="igrave" unicode="&#xec;" horiz-adv-x="225" 
d="M45 700h78l116 -144h-57zM128 483h75l-107 -483h-75z" />
    <glyph glyph-name="iacute" unicode="&#xed;" horiz-adv-x="225" 
d="M123 556l180 144h80l-201 -144h-59zM128 483h75l-107 -483h-75z" />
    <glyph glyph-name="icircumflex" unicode="&#xee;" horiz-adv-x="225" 
d="M205 662l-103 -106h-53l127 144h72l66 -144h-49zM128 483h75l-107 -483h-75z" />
    <glyph glyph-name="idieresis" unicode="&#xef;" horiz-adv-x="225" 
d="M54.5 569.5q-12.5 12.5 -12.5 29.5q0 20 16 35.5t36 15.5q18 0 30 -12t12 -29q0 -20 -16 -36t-36 -16q-17 0 -29.5 12.5zM261 569.5q-12 12.5 -12 29.5q0 20 15.5 35.5t36.5 15.5q17 0 29 -12t12 -29q0 -20 -15.5 -36t-36.5 -16q-17 0 -29 12.5zM128 483h75l-107 -483
h-75z" />
    <glyph glyph-name="eth" unicode="&#xf0;" 
d="M502.5 446q29.5 -71 29.5 -144q0 -86 -34 -158t-95 -114t-139 -42q-66 0 -117.5 26.5t-79.5 73.5t-28 106q0 78 34 143.5t91 103.5t125 38q53 0 98.5 -26.5t68.5 -80.5q-31 96 -120 186l-158 -47l-11 40l134 40q-32 29 -65 53l53 57q52 -39 97 -84l114 33l11 -40l-94 -28
q56 -65 85.5 -136zM356.5 84q42.5 29 67 78.5t24.5 107.5q0 36 -16 68.5t-49.5 53t-82.5 20.5t-91 -28t-66.5 -76.5t-24.5 -106.5q0 -65 39 -105.5t107 -40.5q50 0 92.5 29z" />
    <glyph glyph-name="ntilde" unicode="&#xf1;" horiz-adv-x="551" 
d="M417 317q1 3 3.5 13.5t2.5 19.5q0 40 -26.5 59t-68.5 19q-43 0 -83 -21.5t-71 -54.5l-78 -352h-75l107 483h75l-16 -70q86 82 171 82q65 0 104.5 -31.5t39.5 -88.5q0 -9 -1.5 -20t-4.5 -20l-74 -335h-75zM323 636q-10 10 -27 10q-42 0 -61 -86h-46q27 134 112 134
q27 0 42 -13t30 -38q12 -21 22 -31t27 -10q20 0 35.5 21t26.5 65h46q-29 -134 -113 -134q-27 0 -42 13t-30 38q-12 21 -22 31z" />
    <glyph glyph-name="ograve" unicode="&#xf2;" 
d="M75 345.5q35 67.5 96.5 108.5t137.5 41q67 0 117 -27t77 -75.5t27 -112.5q0 -76 -35 -143t-97 -108t-137 -41q-102 0 -161.5 58.5t-59.5 155.5q0 76 35 143.5zM413 387.5q-38 40.5 -106 40.5q-53 0 -96 -31.5t-67.5 -83t-24.5 -108.5q0 -69 38 -109.5t106 -40.5
q53 0 96 31.5t67.5 83t24.5 108.5q0 69 -38 109.5zM219 700h78l116 -144h-57z" />
    <glyph glyph-name="oacute" unicode="&#xf3;" 
d="M75 345.5q35 67.5 96.5 108.5t137.5 41q67 0 117 -27t77 -75.5t27 -112.5q0 -76 -35 -143t-97 -108t-137 -41q-102 0 -161.5 58.5t-59.5 155.5q0 76 35 143.5zM413 387.5q-38 40.5 -106 40.5q-53 0 -96 -31.5t-67.5 -83t-24.5 -108.5q0 -69 38 -109.5t106 -40.5
q53 0 96 31.5t67.5 83t24.5 108.5q0 69 -38 109.5zM295 556l180 144h80l-201 -144h-59z" />
    <glyph glyph-name="ocircumflex" unicode="&#xf4;" 
d="M75 345.5q35 67.5 96.5 108.5t137.5 41q67 0 117 -27t77 -75.5t27 -112.5q0 -76 -35 -143t-97 -108t-137 -41q-102 0 -161.5 58.5t-59.5 155.5q0 76 35 143.5zM413 387.5q-38 40.5 -106 40.5q-53 0 -96 -31.5t-67.5 -83t-24.5 -108.5q0 -69 38 -109.5t106 -40.5
q53 0 96 31.5t67.5 83t24.5 108.5q0 69 -38 109.5zM378 662l-103 -106h-53l127 144h72l66 -144h-49z" />
    <glyph glyph-name="otilde" unicode="&#xf5;" 
d="M75 345.5q35 67.5 96.5 108.5t137.5 41q67 0 117 -27t77 -75.5t27 -112.5q0 -76 -35 -143t-97 -108t-137 -41q-102 0 -161.5 58.5t-59.5 155.5q0 76 35 143.5zM413 387.5q-38 40.5 -106 40.5q-53 0 -96 -31.5t-67.5 -83t-24.5 -108.5q0 -69 38 -109.5t106 -40.5
q53 0 96 31.5t67.5 83t24.5 108.5q0 69 -38 109.5zM335 636q-10 10 -27 10q-42 0 -61 -86h-46q27 134 112 134q27 0 42 -13t30 -38q12 -21 22 -31t27 -10q20 0 35.5 21t26.5 65h46q-29 -134 -113 -134q-27 0 -42 13t-30 38q-12 21 -22 31z" />
    <glyph glyph-name="odieresis" unicode="&#xf6;" 
d="M75 345.5q35 67.5 96.5 108.5t137.5 41q67 0 117 -27t77 -75.5t27 -112.5q0 -76 -35 -143t-97 -108t-137 -41q-102 0 -161.5 58.5t-59.5 155.5q0 76 35 143.5zM413 387.5q-38 40.5 -106 40.5q-53 0 -96 -31.5t-67.5 -83t-24.5 -108.5q0 -69 38 -109.5t106 -40.5
q53 0 96 31.5t67.5 83t24.5 108.5q0 69 -38 109.5zM228.5 569.5q-12.5 12.5 -12.5 29.5q0 20 16 35.5t36 15.5q18 0 30 -12t12 -29q0 -20 -16 -36t-36 -16q-17 0 -29.5 12.5zM435 569.5q-12 12.5 -12 29.5q0 20 15.5 35.5t36.5 15.5q17 0 29 -12t12 -29q0 -20 -15.5 -36
t-36.5 -16q-17 0 -29 12.5z" />
    <glyph glyph-name="divide" unicode="&#xf7;" horiz-adv-x="511" 
d="M286 557q15 15 36 15q17 0 29 -12.5t12 -29.5q0 -21 -14.5 -35.5t-35.5 -14.5q-17 0 -29.5 12.5t-12.5 29.5q0 20 15 35zM55 363h453l-11 -52h-453zM202 175.5q15 14.5 35 14.5q18 0 30 -12.5t12 -29.5q0 -21 -14.5 -35t-35.5 -14q-17 0 -29.5 12.5t-12.5 29.5
q0 20 15 34.5z" />
    <glyph glyph-name="oslash" unicode="&#xf8;" 
d="M487 417q43 -55 43 -137q0 -76 -35 -143t-97 -108t-137 -41q-95 0 -155 52l-40 -40h-58l71 70q-39 55 -39 132q0 76 35 143.5t96.5 108.5t137.5 41q93 0 151 -49l37 37h58zM136 125l270 269q-37 34 -99 34q-53 0 -96 -31.5t-67.5 -83t-24.5 -108.5q0 -44 17 -80zM431 362
l-271 -270q37 -37 103 -37q53 0 96 31.5t67.5 83t24.5 108.5q0 49 -20 84z" />
    <glyph glyph-name="ugrave" unicode="&#xf9;" horiz-adv-x="551" 
d="M133 167q-5 -25 -5 -34q0 -40 27 -59t73 -19q38 0 77.5 22t71.5 54l77 352h75l-107 -483h-75l16 70q-86 -82 -170 -82q-66 0 -105 31.5t-39 88.5q0 15 5 40l74 335h75zM208 700h78l116 -144h-57z" />
    <glyph glyph-name="uacute" unicode="&#xfa;" horiz-adv-x="551" 
d="M133 167q-5 -25 -5 -34q0 -40 27 -59t73 -19q38 0 77.5 22t71.5 54l77 352h75l-107 -483h-75l16 70q-86 -82 -170 -82q-66 0 -105 31.5t-39 88.5q0 15 5 40l74 335h75zM285 556l180 144h80l-201 -144h-59z" />
    <glyph glyph-name="ucircumflex" unicode="&#xfb;" horiz-adv-x="551" 
d="M133 167q-5 -25 -5 -34q0 -40 27 -59t73 -19q38 0 77.5 22t71.5 54l77 352h75l-107 -483h-75l16 70q-86 -82 -170 -82q-66 0 -105 31.5t-39 88.5q0 15 5 40l74 335h75zM368 662l-103 -106h-53l127 144h72l66 -144h-49z" />
    <glyph glyph-name="udieresis" unicode="&#xfc;" horiz-adv-x="551" 
d="M133 167q-5 -25 -5 -34q0 -40 27 -59t73 -19q38 0 77.5 22t71.5 54l77 352h75l-107 -483h-75l16 70q-86 -82 -170 -82q-66 0 -105 31.5t-39 88.5q0 15 5 40l74 335h75zM218.5 569.5q-12.5 12.5 -12.5 29.5q0 20 16 35.5t36 15.5q18 0 30 -12t12 -29q0 -20 -16 -36
t-36 -16q-17 0 -29.5 12.5zM425 569.5q-12 12.5 -12 29.5q0 20 15.5 35.5t36.5 15.5q17 0 29 -12t12 -29q0 -20 -15.5 -36t-36.5 -16q-17 0 -29 12.5z" />
    <glyph glyph-name="yacute" unicode="&#xfd;" horiz-adv-x="490" 
d="M27 -126q21 0 37.5 10.5t34.5 37.5l49 75l-92 486h79l72 -396l249 396h84l-372 -581q-33 -51 -68.5 -74.5t-82.5 -23.5q-36 0 -63 11l26 67q18 -8 47 -8zM252 556l180 144h80l-201 -144h-59z" />
    <glyph glyph-name="thorn" unicode="&#xfe;" 
d="M55 -184h-75l188 851h75l-56 -253q66 81 160 81q84 0 135.5 -53t51.5 -146q0 -79 -31.5 -150t-89 -114.5t-132.5 -43.5q-56 0 -99.5 23.5t-68.5 64.5zM418 388.5q-37 39.5 -98 39.5q-44 0 -83 -23.5t-65 -59.5l-47 -212q19 -35 57.5 -56.5t88.5 -21.5q53 0 95 32
t65.5 84.5t23.5 110.5q0 67 -37 106.5z" />
    <glyph glyph-name="ydieresis" unicode="&#xff;" horiz-adv-x="490" 
d="M27 -126q21 0 37.5 10.5t34.5 37.5l49 75l-92 486h79l72 -396l249 396h84l-372 -581q-33 -51 -68.5 -74.5t-82.5 -23.5q-36 0 -63 11l26 67q18 -8 47 -8zM185.5 569.5q-12.5 12.5 -12.5 29.5q0 20 16 35.5t36 15.5q18 0 30 -12t12 -29q0 -20 -16 -36t-36 -16
q-17 0 -29.5 12.5zM392 569.5q-12 12.5 -12 29.5q0 20 15.5 35.5t36.5 15.5q17 0 29 -12t12 -29q0 -20 -15.5 -36t-36.5 -16q-17 0 -29 12.5z" />
    <glyph glyph-name="Amacron" unicode="&#x100;" horiz-adv-x="658" 
d="M478 148h-333l-91 -148h-99l415 667h103l122 -667h-91zM187 222h283l-63 359zM267 787h362l-10 -48h-362z" />
    <glyph glyph-name="amacron" unicode="&#x101;" horiz-adv-x="575" 
d="M478 483h75l-107 -483h-75l15 69q-31 -39 -71 -60t-88 -21q-85 0 -136 53t-51 146q0 80 31.5 150.5t89 114t132.5 43.5q55 0 99.5 -23.5t68.5 -64.5zM156 94.5q37 -39.5 98 -39.5q43 0 83 23.5t64 58.5l48 213q-19 34 -57.5 56t-88.5 22q-53 0 -95 -32t-65.5 -84.5
t-23.5 -110.5q0 -67 37 -106.5zM184 620h362l-10 -48h-362z" />
    <glyph glyph-name="Abreve" unicode="&#x102;" horiz-adv-x="658" 
d="M478 148h-333l-91 -148h-99l415 667h103l122 -667h-91zM187 222h283l-63 359zM331 728.5q-41 23.5 -63 64.5l42 32q17 -34 48.5 -53t74.5 -19t83 19t71 53l32 -32q-40 -41 -90.5 -64.5t-103.5 -23.5t-94 23.5z" />
    <glyph glyph-name="abreve" unicode="&#x103;" horiz-adv-x="575" 
d="M478 483h75l-107 -483h-75l15 69q-31 -39 -71 -60t-88 -21q-85 0 -136 53t-51 146q0 80 31.5 150.5t89 114t132.5 43.5q55 0 99.5 -23.5t68.5 -64.5zM156 94.5q37 -39.5 98 -39.5q43 0 83 23.5t64 58.5l48 213q-19 34 -57.5 56t-88.5 22q-53 0 -95 -32t-65.5 -84.5
t-23.5 -110.5q0 -67 37 -106.5zM248 561.5q-41 23.5 -63 64.5l42 32q17 -34 48.5 -53t74.5 -19t83 19t71 53l32 -32q-40 -41 -90.5 -64.5t-103.5 -23.5t-94 23.5z" />
    <glyph glyph-name="Aogonek" unicode="&#x104;" horiz-adv-x="658" 
d="M469 -104q0 -12 9 -20.5t26 -8.5q18 0 34 9l10 -45q-31 -17 -72 -17q-37 0 -60 16.5t-23 42.5q0 39 38.5 72.5t93.5 54.5h-21l-26 148h-333l-91 -148h-99l415 667h103l122 -667h-9q-117 -47 -117 -104zM470 222l-63 359l-220 -359h283z" />
    <glyph glyph-name="aogonek" unicode="&#x105;" horiz-adv-x="575" 
d="M329 -104q0 -12 9 -20.5t26 -8.5t35 9l9 -45q-31 -17 -72 -17q-37 0 -60 16.5t-23 42.5q0 39 38.5 72.5t93.5 54.5h-14l15 69q-31 -39 -71 -60t-88 -21q-85 0 -136 53t-51 146q0 80 31.5 150.5t89 114t132.5 43.5q55 0 99.5 -23.5t68.5 -64.5l17 76h75l-107 -483
q-117 -47 -117 -104zM337 78.5q40 23.5 64 58.5l48 213q-19 34 -57.5 56t-88.5 22q-53 0 -95 -32t-65.5 -84.5t-23.5 -110.5q0 -67 37 -106.5t98 -39.5q43 0 83 23.5z" />
    <glyph glyph-name="Cacute" unicode="&#x106;" horiz-adv-x="676" 
d="M112.5 487q52.5 91 139 141t183.5 50t167 -42t105 -115l-79 -31q-29 57 -80.5 85.5t-117.5 28.5q-72 0 -137 -40.5t-105 -113.5t-40 -166q0 -65 27.5 -115.5t78.5 -78.5t119 -28q47 0 93.5 19.5t85.5 56.5l61 -46q-50 -53 -114.5 -78.5t-130.5 -25.5q-88 0 -158 36
t-110 102.5t-40 153.5q0 116 52.5 207zM431 728l180 144h80l-201 -144h-59z" />
    <glyph glyph-name="cacute" unicode="&#x107;" horiz-adv-x="495" 
d="M76 349.5q36 66.5 98.5 106t137.5 39.5q65 0 110 -23.5t71 -66.5l-57 -43q-18 32 -50.5 49t-71.5 17q-58 0 -103 -31t-69 -82t-24 -110q0 -72 42.5 -111t108.5 -39q36 0 67.5 15.5t54.5 41.5l43 -50q-72 -74 -172 -74q-65 0 -115.5 26t-78.5 75t-28 115q0 79 36 145.5z
M300 556l180 144h80l-201 -144h-59z" />
    <glyph glyph-name="Ccircumflex" unicode="&#x108;" horiz-adv-x="676" 
d="M112.5 487q52.5 91 139 141t183.5 50t167 -42t105 -115l-79 -31q-29 57 -80.5 85.5t-117.5 28.5q-72 0 -137 -40.5t-105 -113.5t-40 -166q0 -65 27.5 -115.5t78.5 -78.5t119 -28q47 0 93.5 19.5t85.5 56.5l61 -46q-50 -53 -114.5 -78.5t-130.5 -25.5q-88 0 -158 36
t-110 102.5t-40 153.5q0 116 52.5 207zM512 829l-103 -106h-53l127 144h72l66 -144h-49z" />
    <glyph glyph-name="ccircumflex" unicode="&#x109;" horiz-adv-x="495" 
d="M76 349.5q36 66.5 98.5 106t137.5 39.5q65 0 110 -23.5t71 -66.5l-57 -43q-18 32 -50.5 49t-71.5 17q-58 0 -103 -31t-69 -82t-24 -110q0 -72 42.5 -111t108.5 -39q36 0 67.5 15.5t54.5 41.5l43 -50q-72 -74 -172 -74q-65 0 -115.5 26t-78.5 75t-28 115q0 79 36 145.5z
M382 662l-103 -106h-53l127 144h72l66 -144h-49z" />
    <glyph glyph-name="Cdotaccent" unicode="&#x10a;" horiz-adv-x="676" 
d="M112.5 487q52.5 91 139 141t183.5 50t167 -42t105 -115l-79 -31q-29 57 -80.5 85.5t-117.5 28.5q-72 0 -137 -40.5t-105 -113.5t-40 -166q0 -65 27.5 -115.5t78.5 -78.5t119 -28q47 0 93.5 19.5t85.5 56.5l61 -46q-50 -53 -114.5 -78.5t-130.5 -25.5q-88 0 -158 36
t-110 102.5t-40 153.5q0 116 52.5 207zM463 734q-12 12 -12 30q0 21 15.5 36.5t37.5 15.5q18 0 30 -12t12 -30q0 -21 -16 -36.5t-37 -15.5q-18 0 -30 12z" />
    <glyph glyph-name="cdotaccent" unicode="&#x10b;" horiz-adv-x="495" 
d="M76 349.5q36 66.5 98.5 106t137.5 39.5q65 0 110 -23.5t71 -66.5l-57 -43q-18 32 -50.5 49t-71.5 17q-58 0 -103 -31t-69 -82t-24 -110q0 -72 42.5 -111t108.5 -39q36 0 67.5 15.5t54.5 41.5l43 -50q-72 -74 -172 -74q-65 0 -115.5 26t-78.5 75t-28 115q0 79 36 145.5z
M334 567q-12 12 -12 30q0 21 15.5 36.5t37.5 15.5q18 0 30 -12t12 -30q0 -21 -16 -36.5t-37 -15.5q-18 0 -30 12z" />
    <glyph glyph-name="Ccaron" unicode="&#x10c;" horiz-adv-x="676" 
d="M112.5 487q52.5 91 139 141t183.5 50t167 -42t105 -115l-79 -31q-29 57 -80.5 85.5t-117.5 28.5q-72 0 -137 -40.5t-105 -113.5t-40 -166q0 -65 27.5 -115.5t78.5 -78.5t119 -28q47 0 93.5 19.5t85.5 56.5l61 -46q-50 -53 -114.5 -78.5t-130.5 -25.5q-88 0 -158 36
t-110 102.5t-40 153.5q0 116 52.5 207zM389 867h49l59 -106l104 106h53l-127 -144h-72z" />
    <glyph glyph-name="ccaron" unicode="&#x10d;" horiz-adv-x="495" 
d="M76 349.5q36 66.5 98.5 106t137.5 39.5q65 0 110 -23.5t71 -66.5l-57 -43q-18 32 -50.5 49t-71.5 17q-58 0 -103 -31t-69 -82t-24 -110q0 -72 42.5 -111t108.5 -39q36 0 67.5 15.5t54.5 41.5l43 -50q-72 -74 -172 -74q-65 0 -115.5 26t-78.5 75t-28 115q0 79 36 145.5z
M259 700h49l59 -106l104 106h53l-127 -144h-72z" />
    <glyph glyph-name="Dcaron" unicode="&#x10e;" horiz-adv-x="700" 
d="M531.5 630.5q63.5 -36.5 101.5 -102t38 -146.5q0 -96 -46.5 -183.5t-141.5 -143t-232 -55.5h-227l147 667h223q74 0 137.5 -36.5zM432.5 115q72.5 41 112 110.5t39.5 152.5q0 61 -27 110t-74 77t-105 28h-140l-116 -519h143q95 0 167.5 41zM360 867h49l59 -106l104 106
h53l-127 -144h-72z" />
    <glyph glyph-name="dcaron" unicode="&#x10f;" horiz-adv-x="644" 
d="M519 667h75l-148 -667h-75l15 69q-31 -39 -71 -60t-88 -21q-85 0 -136 53t-51 146q0 80 31.5 150.5t89 114t132.5 43.5q55 0 99.5 -23.5t68.5 -64.5zM156 94.5q37 -39.5 98 -39.5q43 0 83 23.5t64 58.5l48 213q-19 34 -57.5 56t-88.5 22q-53 0 -95 -32t-65.5 -84.5
t-23.5 -110.5q0 -67 37 -106.5zM600 513q26 13 47.5 34.5t28.5 42.5h-7q-15 0 -26 11t-11 28q0 21 15.5 36t36.5 15q19 0 32 -13.5t13 -36.5q0 -41 -30 -82t-72 -63z" />
    <glyph glyph-name="Dcroat" unicode="&#x110;" horiz-adv-x="728" 
d="M559.5 630.5q63.5 -36.5 101.5 -102t38 -146.5q0 -96 -46.5 -183.5t-141.5 -143t-232 -55.5h-227l66 299h-96l15 69h96l66 299h223q74 0 137.5 -36.5zM460.5 115q72.5 41 112 110.5t39.5 152.5q0 61 -27 110t-74 77t-105 28h-140l-50 -225h169l-15 -69h-170l-50 -225h143
q95 0 167.5 41z" />
    <glyph glyph-name="dcroat" unicode="&#x111;" horiz-adv-x="579" 
d="M619 535h-54l-119 -535h-75l15 69q-31 -39 -71 -60t-88 -21q-85 0 -136 53t-51 146q0 80 31.5 150.5t89 114t132.5 43.5q55 0 99.5 -23.5t68.5 -64.5l29 128h-170l9 48h171l19 84h75l-19 -84h53zM449 350q-19 34 -57.5 56t-88.5 22q-53 0 -95 -32t-65.5 -84.5
t-23.5 -110.5q0 -67 37 -106.5t98 -39.5q43 0 83 23.5t64 58.5z" />
    <glyph glyph-name="Emacron" unicode="&#x112;" horiz-adv-x="569" 
d="M171 667h437l-16 -74h-354l-48 -215h347l-16 -74h-348l-51 -230h355l-16 -74h-437zM234 787h362l-10 -48h-362z" />
    <glyph glyph-name="emacron" unicode="&#x113;" horiz-adv-x="563" 
d="M76 348.5q36 67.5 98.5 107t137.5 39.5q62 0 109.5 -27t73 -75t25.5 -109q0 -30 -8 -67h-394l-1 -23q0 -39 19 -71.5t56 -52.5t89 -20q36 0 73 12t66 35l25 -52q-33 -26 -78 -41.5t-91 -15.5q-109 0 -172.5 58t-63.5 156q0 79 36 146.5zM452 291q0 62 -38.5 102
t-108.5 40q-43 0 -81.5 -22t-64.5 -59t-33 -80h324q2 8 2 19zM187 620h362l-10 -48h-362z" />
    <glyph glyph-name="Ebreve" unicode="&#x114;" horiz-adv-x="569" 
d="M171 667h437l-16 -74h-354l-48 -215h347l-16 -74h-348l-51 -230h355l-16 -74h-437zM299 728.5q-41 23.5 -63 64.5l42 32q17 -34 48.5 -53t74.5 -19t83 19t71 53l32 -32q-40 -41 -90.5 -64.5t-103.5 -23.5t-94 23.5z" />
    <glyph glyph-name="ebreve" unicode="&#x115;" horiz-adv-x="563" 
d="M76 348.5q36 67.5 98.5 107t137.5 39.5q62 0 109.5 -27t73 -75t25.5 -109q0 -30 -8 -67h-394l-1 -23q0 -39 19 -71.5t56 -52.5t89 -20q36 0 73 12t66 35l25 -52q-33 -26 -78 -41.5t-91 -15.5q-109 0 -172.5 58t-63.5 156q0 79 36 146.5zM452 291q0 62 -38.5 102
t-108.5 40q-43 0 -81.5 -22t-64.5 -59t-33 -80h324q2 8 2 19zM251 561.5q-41 23.5 -63 64.5l42 32q17 -34 48.5 -53t74.5 -19t83 19t71 53l32 -32q-40 -41 -90.5 -64.5t-103.5 -23.5t-94 23.5z" />
    <glyph glyph-name="Edotaccent" unicode="&#x116;" horiz-adv-x="569" 
d="M171 667h437l-16 -74h-354l-48 -215h347l-16 -74h-348l-51 -230h355l-16 -74h-437zM378 736q-12 12 -12 30q0 21 15.5 36.5t37.5 15.5q18 0 30 -12t12 -30q0 -21 -16 -36.5t-37 -15.5q-18 0 -30 12z" />
    <glyph glyph-name="edotaccent" unicode="&#x117;" horiz-adv-x="563" 
d="M76 348.5q36 67.5 98.5 107t137.5 39.5q62 0 109.5 -27t73 -75t25.5 -109q0 -30 -8 -67h-394l-1 -23q0 -39 19 -71.5t56 -52.5t89 -20q36 0 73 12t66 35l25 -52q-33 -26 -78 -41.5t-91 -15.5q-109 0 -172.5 58t-63.5 156q0 79 36 146.5zM452 291q0 62 -38.5 102
t-108.5 40q-43 0 -81.5 -22t-64.5 -59t-33 -80h324q2 8 2 19zM329 567q-12 12 -12 30q0 21 15.5 36.5t37.5 15.5q18 0 30 -12t12 -30q0 -21 -16 -36.5t-37 -15.5q-18 0 -30 12z" />
    <glyph glyph-name="Eogonek" unicode="&#x118;" horiz-adv-x="569" 
d="M238 593l-48 -215h347l-16 -74h-348l-51 -230h355l-16 -74q-117 -47 -117 -104q0 -12 9 -20.5t26 -8.5q18 0 34 9l10 -45q-31 -17 -72 -17q-37 0 -60 16.5t-23 42.5q0 39 38.5 72.5t93.5 54.5h-376l147 667h437l-16 -74h-354z" />
    <glyph glyph-name="eogonek" unicode="&#x119;" horiz-adv-x="563" 
d="M244.5 -61q29.5 32 73.5 53q-19 -4 -42 -4q-109 0 -172.5 58t-63.5 156q0 79 36 146.5t98.5 107t137.5 39.5q62 0 109.5 -27t73 -75t25.5 -109q0 -30 -8 -67h-394l-1 -23q0 -39 19 -71.5t56 -52.5t89 -20q36 0 73 12t66 35l25 -52q-86 -58 -118 -88t-36 -57
q-2 -14 7.5 -23.5t26.5 -9.5t35 9l9 -45q-13 -8 -32 -12.5t-39 -4.5q-36 0 -59.5 15.5t-23.5 43.5q0 34 29.5 66zM452 291q0 62 -38.5 102t-108.5 40q-43 0 -81.5 -22t-64.5 -59t-33 -80h324q2 8 2 19z" />
    <glyph glyph-name="Ecaron" unicode="&#x11a;" horiz-adv-x="569" 
d="M171 667h437l-16 -74h-354l-48 -215h347l-16 -74h-348l-51 -230h355l-16 -74h-437zM301 867h49l59 -106l104 106h53l-127 -144h-72z" />
    <glyph glyph-name="ecaron" unicode="&#x11b;" horiz-adv-x="563" 
d="M76 348.5q36 67.5 98.5 107t137.5 39.5q62 0 109.5 -27t73 -75t25.5 -109q0 -30 -8 -67h-394l-1 -23q0 -39 19 -71.5t56 -52.5t89 -20q36 0 73 12t66 35l25 -52q-33 -26 -78 -41.5t-91 -15.5q-109 0 -172.5 58t-63.5 156q0 79 36 146.5zM452 291q0 62 -38.5 102
t-108.5 40q-43 0 -81.5 -22t-64.5 -59t-33 -80h324q2 8 2 19zM254 700h49l59 -106l104 106h53l-127 -144h-72z" />
    <glyph glyph-name="Gcircumflex" unicode="&#x11c;" horiz-adv-x="713" 
d="M111 484q51 91 138.5 142.5t191.5 51.5q91 0 158.5 -40t104.5 -106l-75 -35q-26 51 -79.5 79t-119.5 28q-73 0 -138 -41.5t-104.5 -115t-39.5 -163.5q0 -66 27.5 -116t78.5 -78t119 -28q96 0 175 71l31 136h-230l16 74h313l-54 -245q-53 -53 -117.5 -81.5t-138.5 -28.5
q-90 0 -160 37t-109 103.5t-39 151.5q0 113 51 204zM516 829l-103 -106h-53l127 144h72l66 -144h-49z" />
    <glyph glyph-name="gcircumflex" unicode="&#x11d;" horiz-adv-x="574" 
d="M44 -63q24 -35 67 -53t100 -18q59 0 101.5 35t60.5 113l14 63q-30 -38 -72.5 -60t-91.5 -22q-81 0 -132.5 51t-51.5 149q0 77 31 146t88.5 111.5t132.5 42.5q48 0 95 -24.5t74 -63.5l17 76h75l-104 -469q-25 -112 -87.5 -161t-148.5 -49q-73 0 -126 18.5t-90 63.5z
M447 348q-20 37 -61 58.5t-89 21.5q-53 0 -94 -31.5t-63 -82.5t-22 -107q0 -67 36.5 -106t98.5 -39q40 0 80 22t68 55zM367 655l-103 -106h-53l127 144h72l66 -144h-49z" />
    <glyph glyph-name="Gbreve" unicode="&#x11e;" horiz-adv-x="713" 
d="M111 484q51 91 138.5 142.5t191.5 51.5q91 0 158.5 -40t104.5 -106l-75 -35q-26 51 -79.5 79t-119.5 28q-73 0 -138 -41.5t-104.5 -115t-39.5 -163.5q0 -66 27.5 -116t78.5 -78t119 -28q96 0 175 71l31 136h-230l16 74h313l-54 -245q-53 -53 -117.5 -81.5t-138.5 -28.5
q-90 0 -160 37t-109 103.5t-39 151.5q0 113 51 204zM390 728.5q-41 23.5 -63 64.5l42 32q17 -34 48.5 -53t74.5 -19t83 19t71 53l32 -32q-40 -41 -90.5 -64.5t-103.5 -23.5t-94 23.5z" />
    <glyph glyph-name="gbreve" unicode="&#x11f;" horiz-adv-x="574" 
d="M44 -63q24 -35 67 -53t100 -18q59 0 101.5 35t60.5 113l14 63q-30 -38 -72.5 -60t-91.5 -22q-81 0 -132.5 51t-51.5 149q0 77 31 146t88.5 111.5t132.5 42.5q48 0 95 -24.5t74 -63.5l17 76h75l-104 -469q-25 -112 -87.5 -161t-148.5 -49q-73 0 -126 18.5t-90 63.5z
M447 348q-20 37 -61 58.5t-89 21.5q-53 0 -94 -31.5t-63 -82.5t-22 -107q0 -67 36.5 -106t98.5 -39q40 0 80 22t68 55zM242 561.5q-41 23.5 -63 64.5l42 32q17 -34 48.5 -53t74.5 -19t83 19t71 53l32 -32q-40 -41 -90.5 -64.5t-103.5 -23.5t-94 23.5z" />
    <glyph glyph-name="Gdotaccent" unicode="&#x120;" horiz-adv-x="713" 
d="M111 484q51 91 138.5 142.5t191.5 51.5q91 0 158.5 -40t104.5 -106l-75 -35q-26 51 -79.5 79t-119.5 28q-73 0 -138 -41.5t-104.5 -115t-39.5 -163.5q0 -66 27.5 -116t78.5 -78t119 -28q96 0 175 71l31 136h-230l16 74h313l-54 -245q-53 -53 -117.5 -81.5t-138.5 -28.5
q-90 0 -160 37t-109 103.5t-39 151.5q0 113 51 204zM467 734q-12 12 -12 30q0 21 15.5 36.5t37.5 15.5q18 0 30 -12t12 -30q0 -21 -16 -36.5t-37 -15.5q-18 0 -30 12z" />
    <glyph glyph-name="gdotaccent" unicode="&#x121;" horiz-adv-x="574" 
d="M44 -63q24 -35 67 -53t100 -18q59 0 101.5 35t60.5 113l14 63q-30 -38 -72.5 -60t-91.5 -22q-81 0 -132.5 51t-51.5 149q0 77 31 146t88.5 111.5t132.5 42.5q48 0 95 -24.5t74 -63.5l17 76h75l-104 -469q-25 -112 -87.5 -161t-148.5 -49q-73 0 -126 18.5t-90 63.5z
M447 348q-20 37 -61 58.5t-89 21.5q-53 0 -94 -31.5t-63 -82.5t-22 -107q0 -67 36.5 -106t98.5 -39q40 0 80 22t68 55zM320 567q-12 12 -12 30q0 21 15.5 36.5t37.5 15.5q18 0 30 -12t12 -30q0 -21 -16 -36.5t-37 -15.5q-18 0 -30 12z" />
    <glyph glyph-name="uni0122" unicode="&#x122;" horiz-adv-x="713" 
d="M111 484q51 91 138.5 142.5t191.5 51.5q91 0 158.5 -40t104.5 -106l-75 -35q-26 51 -79.5 79t-119.5 28q-73 0 -138 -41.5t-104.5 -115t-39.5 -163.5q0 -66 27.5 -116t78.5 -78t119 -28q96 0 175 71l31 136h-230l16 74h313l-54 -245q-53 -53 -117.5 -81.5t-138.5 -28.5
q-90 0 -160 37t-109 103.5t-39 151.5q0 113 51 204zM224 -238q26 13 47.5 34.5t28.5 42.5h-7q-15 0 -26 11t-11 28q0 21 15.5 36t36.5 15q19 0 32 -13.5t13 -36.5q0 -41 -30 -82t-72 -63z" />
    <glyph glyph-name="uni0123" unicode="&#x123;" horiz-adv-x="574" 
d="M441 723q-26 -13 -47.5 -34.5t-28.5 -43.5h7q15 0 26 -11t11 -28q0 -21 -15 -36t-36 -15q-20 0 -33 13t-13 37q0 41 30.5 82.5t72.5 63.5zM44 -63q24 -35 67 -53t100 -18q59 0 101.5 35t60.5 113l14 63q-30 -38 -72.5 -60t-91.5 -22q-81 0 -132.5 51t-51.5 149
q0 77 31 146t88.5 111.5t132.5 42.5q48 0 95 -24.5t74 -63.5l17 76h75l-104 -469q-25 -112 -87.5 -161t-148.5 -49q-73 0 -126 18.5t-90 63.5zM447 348q-20 37 -61 58.5t-89 21.5q-53 0 -94 -31.5t-63 -82.5t-22 -107q0 -67 36.5 -106t98.5 -39q40 0 80 22t68 55z" />
    <glyph glyph-name="Hcircumflex" unicode="&#x124;" horiz-adv-x="712" 
d="M564 306h-390l-67 -306h-83l147 667h83l-63 -287h390l63 287h83l-147 -667h-83zM485 829l-103 -106h-53l127 144h72l66 -144h-49z" />
    <glyph glyph-name="hcircumflex" unicode="&#x125;" horiz-adv-x="552" 
d="M417 317q6 27 6 33q0 40 -27 59t-73 19q-39 0 -78.5 -22t-70.5 -55l-78 -351h-75l147 667h75l-56 -254q86 82 171 82q65 0 104.5 -31.5t39.5 -88.5q0 -8 -1.5 -19.5t-4.5 -20.5l-73 -335h-75zM408 829l-103 -106h-53l127 144h72l66 -144h-49z" />
    <glyph glyph-name="Hbar" unicode="&#x126;" horiz-adv-x="731" 
d="M776 501h-76l-110 -501h-83l67 306h-390l-67 -306h-83l110 501h-77l11 48h77l26 118h83l-26 -118h390l26 118h83l-26 -118h75zM618 501h-390l-27 -121h390z" />
    <glyph glyph-name="hbar" unicode="&#x127;" horiz-adv-x="553" 
d="M463 463.5q39 -31.5 39 -88.5q0 -15 -5 -40l-73 -335h-75l69 317q6 27 6 33q0 40 -27 59t-73 19q-39 0 -78.5 -22t-70.5 -55l-78 -351h-75l118 535h-67l11 48h66l19 84h75l-19 -84h158l-11 -48h-157l-27 -122q86 82 170 82q66 0 105 -31.5z" />
    <glyph glyph-name="Itilde" unicode="&#x128;" horiz-adv-x="239" 
d="M171 667h83l-147 -667h-83zM204 803q-10 10 -27 10q-42 0 -61 -86h-46q27 134 112 134q27 0 42 -13t30 -38q12 -21 22 -31t27 -10q20 0 35.5 21t26.5 65h46q-29 -134 -113 -134q-27 0 -42 13t-30 38q-12 21 -22 31z" />
    <glyph glyph-name="itilde" unicode="&#x129;" horiz-adv-x="225" 
d="M128 483h75l-107 -483h-75zM161 636q-10 10 -27 10q-42 0 -61 -86h-46q27 134 112 134q27 0 42 -13t30 -38q12 -21 22 -31t27 -10q20 0 35.5 21t26.5 65h46q-29 -134 -113 -134q-27 0 -42 13t-30 38q-12 21 -22 31z" />
    <glyph glyph-name="Imacron" unicode="&#x12a;" horiz-adv-x="239" 
d="M171 667h83l-147 -667h-83zM58 787h362l-10 -48h-362z" />
    <glyph glyph-name="imacron" unicode="&#x12b;" horiz-adv-x="225" 
d="M128 483h75l-107 -483h-75zM15 620h362l-10 -48h-362z" />
    <glyph glyph-name="Ibreve" unicode="&#x12c;" horiz-adv-x="239" 
d="M171 667h83l-147 -667h-83zM122 728.5q-41 23.5 -63 64.5l42 32q17 -34 48.5 -53t74.5 -19t83 19t71 53l32 -32q-40 -41 -90.5 -64.5t-103.5 -23.5t-94 23.5z" />
    <glyph glyph-name="ibreve" unicode="&#x12d;" horiz-adv-x="225" 
d="M128 483h75l-107 -483h-75zM80 561.5q-41 23.5 -63 64.5l42 32q17 -34 48.5 -53t74.5 -19t83 19t71 53l32 -32q-40 -41 -90.5 -64.5t-103.5 -23.5t-94 23.5z" />
    <glyph glyph-name="Iogonek" unicode="&#x12e;" horiz-adv-x="239" 
d="M-10 -104q0 -12 9 -20.5t26 -8.5t35 9l9 -45q-31 -17 -72 -17q-37 0 -60 16.5t-23 42.5q0 39 38.5 72.5t93.5 54.5h-22l147 667h83l-147 -667q-117 -47 -117 -104z" />
    <glyph glyph-name="iogonek" unicode="&#x12f;" horiz-adv-x="225" 
d="M229.5 640q13.5 -13 13.5 -31q0 -25 -18 -41t-39 -16q-20 0 -33 12.5t-13 31.5q0 25 18 41t39 16q19 0 32.5 -13zM128 483h75l-107 -483q-116 -47 -116 -104q0 -12 8.5 -20.5t25.5 -8.5t35 9l9 -45q-31 -17 -71 -17q-38 0 -61 16.5t-23 42.5q0 39 39 72.5t94 54.5h-15z
" />
    <glyph glyph-name="Idotaccent" unicode="&#x130;" horiz-adv-x="239" 
d="M171 667h83l-147 -667h-83zM200 734q-12 12 -12 30q0 21 15.5 36.5t37.5 15.5q18 0 30 -12t12 -30q0 -21 -16 -36.5t-37 -15.5q-18 0 -30 12z" />
    <glyph glyph-name="dotlessi" unicode="&#x131;" horiz-adv-x="225" 
d="M128 483h75l-107 -483h-75z" />
    <glyph glyph-name="IJ" unicode="&#x132;" horiz-adv-x="713" 
d="M171 667h83l-147 -667h-83zM267 132q18 -33 50.5 -51.5t75.5 -18.5q60 0 98 37.5t52 102.5l103 465h83l-103 -466q-47 -213 -229 -213q-58 0 -106 21.5t-74 62.5z" />
    <glyph glyph-name="ij" unicode="&#x133;" horiz-adv-x="451" 
d="M158 637q18 16 39 16q19 0 32.5 -13t13.5 -31q0 -25 -18 -41t-39 -16q-20 0 -33 12.5t-13 31.5q0 25 18 41zM128 483h75l-107 -483h-75zM383 637q18 16 39 16q19 0 32.5 -13t13.5 -31q0 -25 -18 -41t-39 -16q-20 0 -33 12.5t-13 31.5q0 25 18 41zM111 -123q18 -9 39 -9
q65 0 85 85l118 530h75l-118 -530q-16 -74 -53 -111.5t-100 -37.5q-37 0 -65 12z" />
    <glyph glyph-name="Jcircumflex" unicode="&#x134;" horiz-adv-x="475" 
d="M28 132q18 -33 50.5 -51.5t75.5 -18.5q60 0 98 37.5t52 102.5l103 465h83l-103 -466q-47 -213 -229 -213q-58 0 -106 21.5t-74 62.5zM487 829l-103 -106h-53l127 144h72l66 -144h-49z" />
    <glyph glyph-name="jcircumflex" unicode="&#x135;" horiz-adv-x="225" 
d="M207 662l-103 -106h-53l127 144h72l66 -144h-49zM-114 -123q18 -9 39 -9q65 0 85 85l118 530h75l-118 -530q-16 -74 -53 -111.5t-100 -37.5q-37 0 -65 12z" />
    <glyph glyph-name="uni0136" unicode="&#x136;" horiz-adv-x="601" 
d="M243 304l-87 -80l-49 -224h-83l147 667h83l-75 -337l365 337h109l-348 -317l225 -350h-97zM150 -238q26 13 47.5 34.5t28.5 42.5h-7q-15 0 -26 11t-11 28q0 21 15.5 36t36.5 15q19 0 32 -13.5t13 -36.5q0 -41 -30 -82t-72 -63z" />
    <glyph glyph-name="uni0137" unicode="&#x137;" horiz-adv-x="514" 
d="M227 220l-101 -82l-30 -138h-75l147 667h75l-96 -437l306 253h99l-263 -219l157 -264h-91zM106 -238q26 13 47.5 34.5t28.5 42.5h-7q-15 0 -26 11t-11 28q0 21 15.5 36t36.5 15q19 0 32 -13.5t13 -36.5q0 -41 -30 -82t-72 -63z" />
    <glyph glyph-name="kgreenlandic" unicode="&#x138;" horiz-adv-x="514" 
d="M227 220l-101 -82l-30 -138h-75l107 483h75l-56 -253l306 253h99l-263 -219l157 -264h-91z" />
    <glyph glyph-name="Lacute" unicode="&#x139;" horiz-adv-x="517" 
d="M171 667h83l-132 -593h311l-16 -74h-393zM320 723l180 144h80l-201 -144h-59z" />
    <glyph glyph-name="lacute" unicode="&#x13a;" horiz-adv-x="225" 
d="M168 667h75l-147 -667h-75zM161 723l180 144h80l-201 -144h-59z" />
    <glyph glyph-name="uni013B" unicode="&#x13b;" horiz-adv-x="517" 
d="M171 667h83l-132 -593h311l-16 -74h-393zM106 -238q26 13 47.5 34.5t28.5 42.5h-7q-15 0 -26 11t-11 28q0 21 15.5 36t36.5 15q19 0 32 -13.5t13 -36.5q0 -41 -30 -82t-72 -63z" />
    <glyph glyph-name="uni013C" unicode="&#x13c;" horiz-adv-x="225" 
d="M168 667h75l-147 -667h-75zM-49 -238q26 13 47.5 34.5t28.5 42.5h-7q-15 0 -26 11t-11 28q0 21 15.5 36t36.5 15q19 0 32 -13.5t13 -36.5q0 -41 -30 -82t-72 -63z" />
    <glyph glyph-name="Lcaron" unicode="&#x13d;" horiz-adv-x="517" 
d="M171 667h83l-132 -593h311l-16 -74h-393zM306 513q26 13 47.5 34.5t28.5 42.5h-7q-15 0 -26 11t-11 28q0 21 15.5 36t36.5 15q19 0 32 -13.5t13 -36.5q0 -41 -30 -82t-72 -63z" />
    <glyph glyph-name="lcaron" unicode="&#x13e;" horiz-adv-x="291" 
d="M168 667h75l-147 -667h-75zM263 513q26 13 47.5 34.5t28.5 42.5h-7q-15 0 -26 11t-11 28q0 21 15.5 36t36.5 15q19 0 32 -13.5t13 -36.5q0 -41 -30 -82t-72 -63z" />
    <glyph glyph-name="Ldot" unicode="&#x13f;" horiz-adv-x="517" 
d="M171 667h83l-132 -593h311l-16 -74h-393zM353.5 379.5q17.5 17.5 42.5 17.5q21 0 35.5 -15t14.5 -36q0 -25 -17.5 -42t-42.5 -17q-21 0 -35.5 14.5t-14.5 35.5q0 25 17.5 42.5z" />
    <glyph glyph-name="ldot" unicode="&#x140;" horiz-adv-x="307" 
d="M168 667h75l-147 -667h-75zM228.5 282.5q17.5 17.5 42.5 17.5q21 0 35.5 -15t14.5 -36q0 -25 -17.5 -42t-42.5 -17q-21 0 -35.5 14.5t-14.5 35.5q0 25 17.5 42.5z" />
    <glyph glyph-name="Lslash" unicode="&#x141;" horiz-adv-x="547" 
d="M463 74l-15 -74h-394l60 271l-98 -50l16 72l98 50l71 324h83l-61 -276l109 56l-15 -72l-110 -56l-54 -245h310z" />
    <glyph glyph-name="lslash" unicode="&#x142;" horiz-adv-x="287" 
d="M306 380l-107 -54l-72 -326h-75l62 283l-108 -55l14 60l107 55l72 324h75l-62 -281l108 54z" />
    <glyph glyph-name="Nacute" unicode="&#x143;" horiz-adv-x="708" 
d="M227 544l-120 -544h-83l147 667h85l266 -534l118 534h83l-147 -667h-80zM401 723l180 144h80l-201 -144h-59z" />
    <glyph glyph-name="nacute" unicode="&#x144;" horiz-adv-x="551" 
d="M417 317q1 3 3.5 13.5t2.5 19.5q0 40 -26.5 59t-68.5 19q-43 0 -83 -21.5t-71 -54.5l-78 -352h-75l107 483h75l-16 -70q86 82 171 82q65 0 104.5 -31.5t39.5 -88.5q0 -9 -1.5 -20t-4.5 -20l-74 -335h-75zM284 556l180 144h80l-201 -144h-59z" />
    <glyph glyph-name="uni0145" unicode="&#x145;" horiz-adv-x="708" 
d="M227 544l-120 -544h-83l147 667h85l266 -534l118 534h83l-147 -667h-80zM190 -238q26 13 47.5 34.5t28.5 42.5h-7q-15 0 -26 11t-11 28q0 21 15.5 36t36.5 15q19 0 32 -13.5t13 -36.5q0 -41 -30 -82t-72 -63z" />
    <glyph glyph-name="uni0146" unicode="&#x146;" horiz-adv-x="551" 
d="M417 317q1 3 3.5 13.5t2.5 19.5q0 40 -26.5 59t-68.5 19q-43 0 -83 -21.5t-71 -54.5l-78 -352h-75l107 483h75l-16 -70q86 82 171 82q65 0 104.5 -31.5t39.5 -88.5q0 -9 -1.5 -20t-4.5 -20l-74 -335h-75zM113 -238q26 13 47.5 34.5t28.5 42.5h-7q-15 0 -26 11t-11 28
q0 21 15.5 36t36.5 15q19 0 32 -13.5t13 -36.5q0 -41 -30 -82t-72 -63z" />
    <glyph glyph-name="Ncaron" unicode="&#x147;" horiz-adv-x="708" 
d="M227 544l-120 -544h-83l147 667h85l266 -534l118 534h83l-147 -667h-80zM360 867h49l59 -106l104 106h53l-127 -144h-72z" />
    <glyph glyph-name="ncaron" unicode="&#x148;" horiz-adv-x="551" 
d="M417 317q1 3 3.5 13.5t2.5 19.5q0 40 -26.5 59t-68.5 19q-43 0 -83 -21.5t-71 -54.5l-78 -352h-75l107 483h75l-16 -70q86 82 171 82q65 0 104.5 -31.5t39.5 -88.5q0 -9 -1.5 -20t-4.5 -20l-74 -335h-75zM244 700h49l59 -106l104 106h53l-127 -144h-72z" />
    <glyph glyph-name="napostrophe" unicode="&#x149;" horiz-adv-x="551" 
d="M417 317q1 3 3.5 13.5t2.5 19.5q0 40 -26.5 59t-68.5 19q-43 0 -83 -21.5t-71 -54.5l-78 -352h-75l107 483h75l-16 -70q86 82 171 82q65 0 104.5 -31.5t39.5 -88.5q0 -9 -1.5 -20t-4.5 -20l-74 -335h-75zM127 576q26 13 47.5 34.5t28.5 42.5h-7q-15 0 -26 11t-11 28
q0 21 15.5 36t36.5 15q19 0 32 -13.5t13 -36.5q0 -41 -30 -82t-72 -63z" />
    <glyph glyph-name="Eng" unicode="&#x14a;" horiz-adv-x="708" 
d="M723 667l-144 -654q-26 -107 -83 -158t-146 -51q-60 0 -107 22t-73 62l49 54q17 -32 50 -51t76 -19q56 0 94.5 34.5t54.5 97.5l-267 540l-120 -544h-83l147 667h85l266 -534l118 534h83z" />
    <glyph glyph-name="eng" unicode="&#x14b;" horiz-adv-x="551" 
d="M359 -158.5q-37 -37.5 -100 -37.5q-37 0 -66 12l20 61q17 -9 39 -9q65 0 85 85l80 364q6 26 6 34q0 39 -27 58t-68 19q-43 0 -83 -21.5t-71 -54.5l-78 -352h-75l107 483h75l-16 -70q86 82 171 82q63 0 103.5 -30.5t40.5 -89.5q0 -12 -6 -40l-84 -382q-16 -74 -53 -111.5z
" />
    <glyph glyph-name="Omacron" unicode="&#x14c;" horiz-adv-x="765" 
d="M110 481q50 91 136 144t189 53q86 0 156.5 -35t111 -101t40.5 -155q0 -110 -50 -201.5t-136 -144.5t-189 -53q-86 0 -156.5 35t-111 101t-40.5 156q0 110 50 201zM625 501q-30 50 -81 76.5t-114 26.5q-76 0 -140.5 -41.5t-103 -115t-38.5 -163.5q0 -69 29.5 -119.5
t81 -76.5t114.5 -26q75 0 140 41.5t103.5 115t38.5 163.5q0 69 -30 119zM322 787h362l-10 -48h-362z" />
    <glyph glyph-name="omacron" unicode="&#x14d;" 
d="M75 345.5q35 67.5 96.5 108.5t137.5 41q67 0 117 -27t77 -75.5t27 -112.5q0 -76 -35 -143t-97 -108t-137 -41q-102 0 -161.5 58.5t-59.5 155.5q0 76 35 143.5zM413 387.5q-38 40.5 -106 40.5q-53 0 -96 -31.5t-67.5 -83t-24.5 -108.5q0 -69 38 -109.5t106 -40.5
q53 0 96 31.5t67.5 83t24.5 108.5q0 69 -38 109.5zM188 620h362l-10 -48h-362z" />
    <glyph glyph-name="Obreve" unicode="&#x14e;" horiz-adv-x="765" 
d="M110 481q50 91 136 144t189 53q86 0 156.5 -35t111 -101t40.5 -155q0 -110 -50 -201.5t-136 -144.5t-189 -53q-86 0 -156.5 35t-111 101t-40.5 156q0 110 50 201zM625 501q-30 50 -81 76.5t-114 26.5q-76 0 -140.5 -41.5t-103 -115t-38.5 -163.5q0 -69 29.5 -119.5
t81 -76.5t114.5 -26q75 0 140 41.5t103.5 115t38.5 163.5q0 69 -30 119zM385 728.5q-41 23.5 -63 64.5l42 32q17 -34 48.5 -53t74.5 -19t83 19t71 53l32 -32q-40 -41 -90.5 -64.5t-103.5 -23.5t-94 23.5z" />
    <glyph glyph-name="obreve" unicode="&#x14f;" 
d="M75 345.5q35 67.5 96.5 108.5t137.5 41q67 0 117 -27t77 -75.5t27 -112.5q0 -76 -35 -143t-97 -108t-137 -41q-102 0 -161.5 58.5t-59.5 155.5q0 76 35 143.5zM413 387.5q-38 40.5 -106 40.5q-53 0 -96 -31.5t-67.5 -83t-24.5 -108.5q0 -69 38 -109.5t106 -40.5
q53 0 96 31.5t67.5 83t24.5 108.5q0 69 -38 109.5zM252 561.5q-41 23.5 -63 64.5l42 32q17 -34 48.5 -53t74.5 -19t83 19t71 53l32 -32q-40 -41 -90.5 -64.5t-103.5 -23.5t-94 23.5z" />
    <glyph glyph-name="Ohungarumlaut" unicode="&#x150;" horiz-adv-x="765" 
d="M110 481q50 91 136 144t189 53q86 0 156.5 -35t111 -101t40.5 -155q0 -110 -50 -201.5t-136 -144.5t-189 -53q-86 0 -156.5 35t-111 101t-40.5 156q0 110 50 201zM625 501q-30 50 -81 76.5t-114 26.5q-76 0 -140.5 -41.5t-103 -115t-38.5 -163.5q0 -69 29.5 -119.5
t81 -76.5t114.5 -26q75 0 140 41.5t103.5 115t38.5 163.5q0 69 -30 119zM376 723l126 144h71l-147 -144h-50zM518 723l126 144h71l-147 -144h-50z" />
    <glyph glyph-name="ohungarumlaut" unicode="&#x151;" 
d="M75 345.5q35 67.5 96.5 108.5t137.5 41q67 0 117 -27t77 -75.5t27 -112.5q0 -76 -35 -143t-97 -108t-137 -41q-102 0 -161.5 58.5t-59.5 155.5q0 76 35 143.5zM413 387.5q-38 40.5 -106 40.5q-53 0 -96 -31.5t-67.5 -83t-24.5 -108.5q0 -69 38 -109.5t106 -40.5
q53 0 96 31.5t67.5 83t24.5 108.5q0 69 -38 109.5zM243 556l126 144h71l-147 -144h-50zM385 556l126 144h71l-147 -144h-50z" />
    <glyph glyph-name="OE" unicode="&#x152;" horiz-adv-x="1105" 
d="M581 102q-41 -54 -102 -84t-138 -30q-81 0 -145 37.5t-100 103.5t-36 151q0 114 51.5 205t137.5 141.5t187 50.5q84 0 147 -37t92 -118l31 145h438l-16 -74h-354l-48 -215h347l-16 -74h-348l-51 -230h355l-16 -74h-438zM580.5 556q-57.5 47 -144.5 47q-78 0 -144 -42
t-105 -115t-39 -162q0 -67 27.5 -117.5t77 -77.5t113.5 -27q71 0 135 37t103 102l49 222q-15 86 -72.5 133z" />
    <glyph glyph-name="oe" unicode="&#x153;" horiz-adv-x="962" 
d="M521 194q0 -39 19 -72t55.5 -52.5t88.5 -19.5q36 0 73 12.5t63 34.5l26 -52q-32 -26 -76.5 -41.5t-90.5 -15.5q-58 0 -103 21.5t-71 53.5t-33 63q-25 -38 -50.5 -66.5t-66.5 -50t-96 -21.5q-99 0 -159 57.5t-60 156.5q0 75 34.5 142.5t95.5 109t137 41.5q56 0 97.5 -22.5
t64.5 -54.5t29 -61q38 57 89 97.5t127 40.5q60 0 107 -25t73.5 -73t26.5 -113q0 -29 -9 -67h-389q-2 -8 -2 -23zM852 291q0 62 -37.5 102t-106.5 40q-46 0 -84.5 -24.5t-63 -62t-29.5 -74.5h320q1 5 1 19zM211.5 397.5q-42.5 -30.5 -67.5 -82t-25 -110.5q0 -69 37.5 -109.5
t104.5 -40.5q52 0 94.5 30.5t67 82t24.5 110.5q0 75 -40.5 112.5t-101.5 37.5q-51 0 -93.5 -30.5z" />
    <glyph glyph-name="Racute" unicode="&#x154;" horiz-adv-x="608" 
d="M304 265h-140l-57 -265h-83l147 667h245q49 0 92.5 -21t70 -61t26.5 -92q0 -61 -27 -110.5t-76.5 -79.5t-113.5 -34l120 -269h-92zM474.5 380.5q42.5 42.5 42.5 105.5q0 46 -34.5 76.5t-78.5 30.5h-166l-57 -255h176q75 0 117.5 42.5zM356 723l180 144h80l-201 -144h-59z
" />
    <glyph glyph-name="racute" unicode="&#x155;" horiz-adv-x="330" 
d="M128 483h75l-17 -74q38 43 79 63.5t101 20.5l-17 -77q-12 4 -38 4q-40 0 -77.5 -23t-62.5 -56l-75 -341h-75zM204 556l180 144h80l-201 -144h-59z" />
    <glyph glyph-name="uni0156" unicode="&#x156;" horiz-adv-x="608" 
d="M304 265h-140l-57 -265h-83l147 667h245q49 0 92.5 -21t70 -61t26.5 -92q0 -61 -27 -110.5t-76.5 -79.5t-113.5 -34l120 -269h-92zM474.5 380.5q42.5 42.5 42.5 105.5q0 46 -34.5 76.5t-78.5 30.5h-166l-57 -255h176q75 0 117.5 42.5zM147 -238q26 13 47.5 34.5
t28.5 42.5h-7q-15 0 -26 11t-11 28q0 21 15.5 36t36.5 15q19 0 32 -13.5t13 -36.5q0 -41 -30 -82t-72 -63z" />
    <glyph glyph-name="uni0157" unicode="&#x157;" horiz-adv-x="330" 
d="M128 483h75l-17 -74q38 43 79 63.5t101 20.5l-17 -77q-12 4 -38 4q-40 0 -77.5 -23t-62.5 -56l-75 -341h-75zM33 -238q26 13 47.5 34.5t28.5 42.5h-7q-15 0 -26 11t-11 28q0 21 15.5 36t36.5 15q19 0 32 -13.5t13 -36.5q0 -41 -30 -82t-72 -63z" />
    <glyph glyph-name="Rcaron" unicode="&#x158;" horiz-adv-x="608" 
d="M304 265h-140l-57 -265h-83l147 667h245q49 0 92.5 -21t70 -61t26.5 -92q0 -61 -27 -110.5t-76.5 -79.5t-113.5 -34l120 -269h-92zM474.5 380.5q42.5 42.5 42.5 105.5q0 46 -34.5 76.5t-78.5 30.5h-166l-57 -255h176q75 0 117.5 42.5zM315 867h49l59 -106l104 106h53
l-127 -144h-72z" />
    <glyph glyph-name="rcaron" unicode="&#x159;" horiz-adv-x="330" 
d="M128 483h75l-17 -74q38 43 79 63.5t101 20.5l-17 -77q-12 4 -38 4q-40 0 -77.5 -23t-62.5 -56l-75 -341h-75zM163 700h49l59 -106l104 106h53l-127 -144h-72z" />
    <glyph glyph-name="Sacute" unicode="&#x15a;" horiz-adv-x="586" 
d="M73 167q35 -49 93 -77t127 -28q49 0 82 18.5t49 47t16 58.5q0 40 -35 64.5t-106 52.5q-62 25 -99.5 45t-64 53t-26.5 82q0 51 30.5 96t84.5 71.5t121 26.5q77 0 141.5 -28t99.5 -77l-57 -58q-32 44 -84 67t-109 23q-38 0 -69.5 -15.5t-50 -41t-18.5 -53.5q0 -25 18 -44
t45 -32.5t74 -32.5q62 -25 100.5 -46t66 -55.5t27.5 -84.5q0 -54 -28.5 -102.5t-84 -78.5t-130.5 -30q-88 0 -161.5 33.5t-108.5 85.5zM343 723l180 144h80l-201 -144h-59z" />
    <glyph glyph-name="sacute" unicode="&#x15b;" horiz-adv-x="465" 
d="M50 124q21 -31 65.5 -53t95.5 -22q50 0 80.5 25t30.5 60q0 27 -26 44t-81 39q-48 19 -77 33.5t-49.5 38.5t-20.5 59q0 40 21.5 73.5t63 53.5t98.5 20q60 0 109.5 -22.5t74.5 -56.5l-43 -49q-17 28 -58.5 47.5t-86.5 19.5q-47 0 -75.5 -21t-28.5 -53q0 -25 25 -41t78 -37
q48 -18 78 -33t51.5 -40.5t21.5 -62.5q0 -42 -22.5 -78.5t-66 -58t-101.5 -21.5q-65 0 -118 22t-86 63zM240 556l180 144h80l-201 -144h-59z" />
    <glyph glyph-name="Scircumflex" unicode="&#x15c;" horiz-adv-x="586" 
d="M425 829l-103 -106h-53l127 144h72l66 -144h-49zM73 167q35 -49 93 -77t127 -28q49 0 82 18.5t49 47t16 58.5q0 40 -35 64.5t-106 52.5q-62 25 -99.5 45t-64 53t-26.5 82q0 51 30.5 96t84.5 71.5t121 26.5q77 0 141.5 -28t99.5 -77l-57 -58q-32 44 -84 67t-109 23
q-38 0 -69.5 -15.5t-50 -41t-18.5 -53.5q0 -25 18 -44t45 -32.5t74 -32.5q62 -25 100.5 -46t66 -55.5t27.5 -84.5q0 -54 -28.5 -102.5t-84 -78.5t-130.5 -30q-88 0 -161.5 33.5t-108.5 85.5z" />
    <glyph glyph-name="scircumflex" unicode="&#x15d;" horiz-adv-x="465" 
d="M50 124q21 -31 65.5 -53t95.5 -22q50 0 80.5 25t30.5 60q0 27 -26 44t-81 39q-48 19 -77 33.5t-49.5 38.5t-20.5 59q0 40 21.5 73.5t63 53.5t98.5 20q60 0 109.5 -22.5t74.5 -56.5l-43 -49q-17 28 -58.5 47.5t-86.5 19.5q-47 0 -75.5 -21t-28.5 -53q0 -25 25 -41t78 -37
q48 -18 78 -33t51.5 -40.5t21.5 -62.5q0 -42 -22.5 -78.5t-66 -58t-101.5 -21.5q-65 0 -118 22t-86 63zM324 662l-103 -106h-53l127 144h72l66 -144h-49z" />
    <glyph glyph-name="uni015E" unicode="&#x15e;" horiz-adv-x="586" 
d="M266.5 588.5q-31.5 -15.5 -50 -41t-18.5 -53.5q0 -25 18 -44t45 -32.5t74 -32.5q62 -25 100.5 -46t66 -55.5t27.5 -84.5q0 -54 -28.5 -102.5t-84 -78.5t-130.5 -30q-14 0 -36 2l-28 -45q15 11 33 11q26 0 42.5 -15.5t16.5 -43.5q0 -39 -30.5 -63.5t-77.5 -24.5
q-34 0 -62 10.5t-46 27.5l26 36q17 -17 39 -26t45 -9q29 0 45 13t16 34q0 14 -10 22t-27 8q-20 0 -35 -17l-29 19l41 68q-64 13 -115 42.5t-78 69.5l57 60q35 -49 93 -77t127 -28q49 0 82 18.5t49 47t16 58.5q0 40 -35 64.5t-106 52.5q-62 25 -99.5 45t-64 53t-26.5 82
q0 51 30.5 96t84.5 71.5t121 26.5q77 0 141.5 -28t99.5 -77l-57 -58q-32 44 -84 67t-109 23q-38 0 -69.5 -15.5z" />
    <glyph glyph-name="uni015F" unicode="&#x15f;" horiz-adv-x="465" 
d="M324 249q30 -15 51.5 -40.5t21.5 -62.5q0 -42 -22.5 -78.5t-66 -58t-101.5 -21.5h-19l-26 -43q15 11 33 11q26 0 42 -15.5t16 -43.5q0 -39 -30 -63.5t-78 -24.5q-34 0 -62 10.5t-46 27.5l27 36q16 -17 38.5 -26t44.5 -9q30 0 46 13t16 34q0 14 -10 22t-27 8
q-21 0 -36 -17l-28 19l39 66q-95 17 -144 80l47 51q21 -31 65.5 -53t95.5 -22q50 0 80.5 25t30.5 60q0 27 -26 44t-81 39q-48 19 -77 33.5t-49.5 38.5t-20.5 59q0 40 21.5 73.5t63 53.5t98.5 20q60 0 109.5 -22.5t74.5 -56.5l-43 -49q-17 28 -58.5 47.5t-86.5 19.5
q-47 0 -75.5 -21t-28.5 -53q0 -25 25 -41t78 -37q48 -18 78 -33z" />
    <glyph glyph-name="Scaron" unicode="&#x160;" horiz-adv-x="586" 
d="M302 867h49l59 -106l104 106h53l-127 -144h-72zM73 167q35 -49 93 -77t127 -28q49 0 82 18.5t49 47t16 58.5q0 40 -35 64.5t-106 52.5q-62 25 -99.5 45t-64 53t-26.5 82q0 51 30.5 96t84.5 71.5t121 26.5q77 0 141.5 -28t99.5 -77l-57 -58q-32 44 -84 67t-109 23
q-38 0 -69.5 -15.5t-50 -41t-18.5 -53.5q0 -25 18 -44t45 -32.5t74 -32.5q62 -25 100.5 -46t66 -55.5t27.5 -84.5q0 -54 -28.5 -102.5t-84 -78.5t-130.5 -30q-88 0 -161.5 33.5t-108.5 85.5z" />
    <glyph glyph-name="scaron" unicode="&#x161;" horiz-adv-x="465" 
d="M50 124q21 -31 65.5 -53t95.5 -22q50 0 80.5 25t30.5 60q0 27 -26 44t-81 39q-48 19 -77 33.5t-49.5 38.5t-20.5 59q0 40 21.5 73.5t63 53.5t98.5 20q60 0 109.5 -22.5t74.5 -56.5l-43 -49q-17 28 -58.5 47.5t-86.5 19.5q-47 0 -75.5 -21t-28.5 -53q0 -25 25 -41t78 -37
q48 -18 78 -33t51.5 -40.5t21.5 -62.5q0 -42 -22.5 -78.5t-66 -58t-101.5 -21.5q-65 0 -118 22t-86 63zM200 700h49l59 -106l104 106h53l-127 -144h-72z" />
    <glyph glyph-name="uni0162" unicode="&#x162;" horiz-adv-x="570" 
d="M320 593h-211l16 74h506l-16 -74h-212l-131 -593h-83zM123 -238q26 13 47.5 34.5t28.5 42.5h-7q-15 0 -26 11t-11 28q0 21 15.5 36t36.5 15q19 0 32 -13.5t13 -36.5q0 -41 -30 -82t-72 -63z" />
    <glyph glyph-name="uni0163" unicode="&#x163;" horiz-adv-x="294" 
d="M59 104l70 314h-80l15 65h80l29 132h75l-29 -132h98l-15 -65h-98l-66 -298q-2 -12 -2 -20q0 -45 48 -45q13 0 25.5 4.5t20.5 11.5l9 -60q-30 -23 -73 -23q-52 0 -81 22t-29 66q0 13 3 28zM-24 -238q26 13 47.5 34.5t28.5 42.5h-7q-15 0 -26 11t-11 28q0 21 15.5 36
t36.5 15q19 0 32 -13.5t13 -36.5q0 -41 -30 -82t-72 -63z" />
    <glyph glyph-name="Tcaron" unicode="&#x164;" horiz-adv-x="570" 
d="M320 593h-211l16 74h506l-16 -74h-212l-131 -593h-83zM283 867h49l59 -106l104 106h53l-127 -144h-72z" />
    <glyph glyph-name="tcaron" unicode="&#x165;" horiz-adv-x="313" 
d="M59 104l70 314h-80l15 65h80l29 132h75l-29 -132h98l-15 -65h-98l-66 -298q-2 -12 -2 -20q0 -45 48 -45q13 0 25.5 4.5t20.5 11.5l9 -60q-30 -23 -73 -23q-52 0 -81 22t-29 66q0 13 3 28zM291 576q26 13 47.5 34.5t28.5 42.5h-7q-15 0 -26 11t-11 28q0 21 15.5 36
t36.5 15q19 0 32 -13.5t13 -36.5q0 -41 -30 -82t-72 -63z" />
    <glyph glyph-name="Tbar" unicode="&#x166;" horiz-adv-x="570" 
d="M403 593l-55 -251h150l-11 -48h-150l-65 -294h-83l65 294h-150l10 48h151l55 251h-211l16 74h506l-16 -74h-212z" />
    <glyph glyph-name="tbar" unicode="&#x167;" horiz-adv-x="294" 
d="M204 418l-32 -143h70l-11 -48h-70l-23 -107q-2 -12 -2 -20q0 -45 48 -45q13 0 25.5 4.5t20.5 11.5l9 -60q-30 -23 -73 -23q-52 0 -81 22t-29 66q0 13 3 28l27 123h-79l10 48h80l32 143h-80l15 65h80l29 132h75l-29 -132h98l-15 -65h-98z" />
    <glyph glyph-name="Utilde" unicode="&#x168;" horiz-adv-x="700" 
d="M81 259l90 408h83l-89 -406q-5 -20 -5 -42q0 -70 46.5 -113.5t129.5 -43.5q88 0 136.5 50.5t69.5 148.5l90 406h83l-89 -407q-30 -133 -97 -202.5t-193 -69.5q-123 0 -191.5 60t-68.5 162q0 19 5 49zM435 803q-10 10 -27 10q-42 0 -61 -86h-46q27 134 112 134
q27 0 42 -13t30 -38q12 -21 22 -31t27 -10q20 0 35.5 21t26.5 65h46q-29 -134 -113 -134q-27 0 -42 13t-30 38q-12 21 -22 31z" />
    <glyph glyph-name="utilde" unicode="&#x169;" horiz-adv-x="551" 
d="M133 167q-5 -25 -5 -34q0 -40 27 -59t73 -19q38 0 77.5 22t71.5 54l77 352h75l-107 -483h-75l16 70q-86 -82 -170 -82q-66 0 -105 31.5t-39 88.5q0 15 5 40l74 335h75zM323 636q-10 10 -27 10q-42 0 -61 -86h-46q27 134 112 134q27 0 42 -13t30 -38q12 -21 22 -31t27 -10
q20 0 35.5 21t26.5 65h46q-29 -134 -113 -134q-27 0 -42 13t-30 38q-12 21 -22 31z" />
    <glyph glyph-name="Umacron" unicode="&#x16a;" horiz-adv-x="700" 
d="M81 259l90 408h83l-89 -406q-5 -20 -5 -42q0 -70 46.5 -113.5t129.5 -43.5q88 0 136.5 50.5t69.5 148.5l90 406h83l-89 -407q-30 -133 -97 -202.5t-193 -69.5q-123 0 -191.5 60t-68.5 162q0 19 5 49zM288 787h362l-10 -48h-362z" />
    <glyph glyph-name="umacron" unicode="&#x16b;" horiz-adv-x="551" 
d="M133 167q-5 -25 -5 -34q0 -40 27 -59t73 -19q38 0 77.5 22t71.5 54l77 352h75l-107 -483h-75l16 70q-86 -82 -170 -82q-66 0 -105 31.5t-39 88.5q0 15 5 40l74 335h75zM178 620h362l-10 -48h-362z" />
    <glyph glyph-name="Ubreve" unicode="&#x16c;" horiz-adv-x="700" 
d="M81 259l90 408h83l-89 -406q-5 -20 -5 -42q0 -70 46.5 -113.5t129.5 -43.5q88 0 136.5 50.5t69.5 148.5l90 406h83l-89 -407q-30 -133 -97 -202.5t-193 -69.5q-123 0 -191.5 60t-68.5 162q0 19 5 49zM353 728.5q-41 23.5 -63 64.5l42 32q17 -34 48.5 -53t74.5 -19t83 19
t71 53l32 -32q-40 -41 -90.5 -64.5t-103.5 -23.5t-94 23.5z" />
    <glyph glyph-name="ubreve" unicode="&#x16d;" horiz-adv-x="551" 
d="M133 167q-5 -25 -5 -34q0 -40 27 -59t73 -19q38 0 77.5 22t71.5 54l77 352h75l-107 -483h-75l16 70q-86 -82 -170 -82q-66 0 -105 31.5t-39 88.5q0 15 5 40l74 335h75zM241 561.5q-41 23.5 -63 64.5l42 32q17 -34 48.5 -53t74.5 -19t83 19t71 53l32 -32
q-40 -41 -90.5 -64.5t-103.5 -23.5t-94 23.5z" />
    <glyph glyph-name="Uring" unicode="&#x16e;" horiz-adv-x="700" 
d="M81 259l90 408h83l-89 -406q-5 -20 -5 -42q0 -70 46.5 -113.5t129.5 -43.5q88 0 136.5 50.5t69.5 148.5l90 406h83l-89 -407q-30 -133 -97 -202.5t-193 -69.5q-123 0 -191.5 60t-68.5 162q0 19 5 49zM403.5 855q32.5 32 75.5 32q39 0 64 -25t25 -64q0 -44 -32 -76
t-76 -32q-39 0 -64 25t-25 64q0 44 32.5 76zM514 832.5q-14 14.5 -38 14.5q-26 0 -45.5 -19t-19.5 -45q0 -23 14.5 -38t37.5 -15q26 0 45.5 19t19.5 45q0 24 -14 38.5z" />
    <glyph glyph-name="uring" unicode="&#x16f;" horiz-adv-x="551" 
d="M133 167q-5 -25 -5 -34q0 -40 27 -59t73 -19q38 0 77.5 22t71.5 54l77 352h75l-107 -483h-75l16 70q-86 -82 -170 -82q-66 0 -105 31.5t-39 88.5q0 15 5 40l74 335h75zM296.5 708q32.5 32 75.5 32q39 0 64 -25t25 -64q0 -44 -32 -76t-76 -32q-39 0 -64 25t-25 64
q0 44 32.5 76zM407 685.5q-14 14.5 -38 14.5q-26 0 -45.5 -19t-19.5 -45q0 -23 14.5 -38t37.5 -15q26 0 45.5 19t19.5 45q0 24 -14 38.5z" />
    <glyph glyph-name="Uhungarumlaut" unicode="&#x170;" horiz-adv-x="700" 
d="M81 259l90 408h83l-89 -406q-5 -20 -5 -42q0 -70 46.5 -113.5t129.5 -43.5q88 0 136.5 50.5t69.5 148.5l90 406h83l-89 -407q-30 -133 -97 -202.5t-193 -69.5q-123 0 -191.5 60t-68.5 162q0 19 5 49zM345 723l126 144h71l-147 -144h-50zM487 723l126 144h71l-147 -144
h-50z" />
    <glyph glyph-name="uhungarumlaut" unicode="&#x171;" horiz-adv-x="551" 
d="M133 167q-5 -25 -5 -34q0 -40 27 -59t73 -19q38 0 77.5 22t71.5 54l77 352h75l-107 -483h-75l16 70q-86 -82 -170 -82q-66 0 -105 31.5t-39 88.5q0 15 5 40l74 335h75zM233 556l126 144h71l-147 -144h-50zM375 556l126 144h71l-147 -144h-50z" />
    <glyph glyph-name="Uogonek" unicode="&#x172;" horiz-adv-x="700" 
d="M320 -123.5q9 -9.5 27 -9.5t34 9l10 -45q-31 -17 -72 -17q-36 0 -59.5 15.5t-23.5 43.5q0 34 30 64t75 51h-17q-117 3 -182.5 62.5t-65.5 159.5q0 19 5 49l90 408h83l-89 -406q-5 -20 -5 -42q0 -70 46.5 -113.5t129.5 -43.5q88 0 136.5 50.5t69.5 148.5l90 406h83
l-89 -407q-23 -102 -67.5 -167t-117.5 -89q-57 -19 -91 -46.5t-37 -57.5q-2 -14 7 -23.5z" />
    <glyph glyph-name="uogonek" unicode="&#x173;" horiz-adv-x="551" 
d="M529 483l-107 -483q-116 -47 -116 -104q0 -12 8.5 -20.5t25.5 -8.5t35 9l9 -45q-31 -17 -71 -17q-38 0 -61 16.5t-23 42.5q0 39 39 72.5t94 54.5h-15l16 70q-86 -82 -170 -82q-66 0 -105 31.5t-39 88.5q0 15 5 40l74 335h75l-70 -316q-5 -25 -5 -34q0 -40 27 -59t73 -19
q38 0 77.5 22t71.5 54l77 352h75z" />
    <glyph glyph-name="Wcircumflex" unicode="&#x174;" horiz-adv-x="883" 
d="M506 538l-266 -538h-90l-43 667h90l24 -556l276 556h70l29 -556l271 556h94l-337 -667h-90zM569 829l-103 -106h-53l127 144h72l66 -144h-49z" />
    <glyph glyph-name="wcircumflex" unicode="&#x175;" horiz-adv-x="734" 
d="M399 388l-212 -388h-75l-47 483h75l32 -385l212 385h66l41 -385l202 385h82l-261 -483h-75zM458 662l-103 -106h-53l127 144h72l66 -144h-49z" />
    <glyph glyph-name="Ycircumflex" unicode="&#x176;" horiz-adv-x="626" 
d="M443 829l-103 -106h-53l127 144h72l66 -144h-49zM280 282l-178 385h91l139 -310l275 310h103l-347 -385l-62 -282h-83z" />
    <glyph glyph-name="ycircumflex" unicode="&#x177;" horiz-adv-x="490" 
d="M27 -126q21 0 37.5 10.5t34.5 37.5l49 75l-92 486h79l72 -396l249 396h84l-372 -581q-33 -51 -68.5 -74.5t-82.5 -23.5q-36 0 -63 11l26 67q18 -8 47 -8zM336 662l-103 -106h-53l127 144h72l66 -144h-49z" />
    <glyph glyph-name="Ydieresis" unicode="&#x178;" horiz-adv-x="626" 
d="M292.5 736.5q-12.5 12.5 -12.5 29.5q0 20 16 35.5t36 15.5q18 0 30 -12t12 -29q0 -20 -16 -36t-36 -16q-17 0 -29.5 12.5zM499 736.5q-12 12.5 -12 29.5q0 20 15.5 35.5t36.5 15.5q17 0 29 -12t12 -29q0 -20 -15.5 -36t-36.5 -16q-17 0 -29 12.5zM280 282l-178 385h91
l139 -310l275 310h103l-347 -385l-62 -282h-83z" />
    <glyph glyph-name="Zacute" unicode="&#x179;" horiz-adv-x="585" 
d="M9 69l485 524h-369l16 74h481l-14 -69l-487 -524h378l-17 -74h-488zM335 723l180 144h80l-201 -144h-59z" />
    <glyph glyph-name="zacute" unicode="&#x17a;" horiz-adv-x="472" 
d="M10 58l342 359h-262l15 66h364l-13 -57l-344 -361h268l-14 -65h-368zM242 556l180 144h80l-201 -144h-59z" />
    <glyph glyph-name="Zdotaccent" unicode="&#x17b;" horiz-adv-x="585" 
d="M9 69l485 524h-369l16 74h481l-14 -69l-487 -524h378l-17 -74h-488zM369 734q-12 12 -12 30q0 21 15.5 36.5t37.5 15.5q18 0 30 -12t12 -30q0 -21 -16 -36.5t-37 -15.5q-18 0 -30 12z" />
    <glyph glyph-name="zdotaccent" unicode="&#x17c;" horiz-adv-x="472" 
d="M10 58l342 359h-262l15 66h364l-13 -57l-344 -361h268l-14 -65h-368zM277 567q-12 12 -12 30q0 21 15.5 36.5t37.5 15.5q18 0 30 -12t12 -30q0 -21 -16 -36.5t-37 -15.5q-18 0 -30 12z" />
    <glyph glyph-name="Zcaron" unicode="&#x17d;" horiz-adv-x="585" 
d="M296 867h49l59 -106l104 106h53l-127 -144h-72zM9 69l485 524h-369l16 74h481l-14 -69l-487 -524h378l-17 -74h-488z" />
    <glyph glyph-name="zcaron" unicode="&#x17e;" horiz-adv-x="472" 
d="M10 58l342 359h-262l15 66h364l-13 -57l-344 -361h268l-14 -65h-368zM201 700h49l59 -106l104 106h53l-127 -144h-72z" />
    <glyph glyph-name="longs" unicode="&#x17f;" horiz-adv-x="283" 
d="M134 417h-80l15 66h80l8 37q17 76 56.5 116.5t101.5 40.5q50 0 87 -23l-29 -54q-19 15 -52 15q-36 0 -57.5 -23.5t-31.5 -71.5l-115 -520h-75z" />
    <glyph glyph-name="uni018F" unicode="&#x18f;" horiz-adv-x="729" 
d="M558 642q70 -36 110 -102.5t40 -153.5q0 -116 -52.5 -207t-139 -141t-183.5 -50q-88 0 -155.5 36.5t-104.5 102.5t-37 153q0 39 7 77h576q1 8 1 25q0 65 -27.5 115.5t-78.5 78.5t-119 28q-47 0 -93.5 -19.5t-85.5 -56.5l-61 46q50 53 114.5 78.5t130.5 25.5q88 0 158 -36
zM451.5 89q54.5 27 95.5 77.5t60 116.5h-487q-3 -60 23.5 -110.5t77.5 -80.5t117 -30q59 0 113.5 27z" />
    <glyph glyph-name="uni0192" unicode="&#x192;" horiz-adv-x="431" 
d="M63 254h-68v68h82l46 204q15 72 55 111.5t103 39.5q69 0 109 -41l-36 -58q-19 25 -58 25q-35 0 -58.5 -24t-33.5 -68l-42 -189h139v-68h-154l-92 -415h-84z" />
    <glyph glyph-name="Ohorn" unicode="&#x1a0;" horiz-adv-x="765" 
d="M768.5 602.5q-27.5 -38.5 -66.5 -59.5q41 -68 41 -156q0 -110 -50 -201.5t-136 -144.5t-189 -53q-86 0 -156.5 35t-111 101t-40.5 156q0 110 50 201t136 144t189 53q76 0 140.5 -27.5t106.5 -78.5q23 13 40.5 32.5t24.5 38.5h-7q-14 0 -24 10.5t-10 25.5q0 19 14.5 33.5
t33.5 14.5q18 0 30 -13t12 -35q0 -38 -27.5 -76.5zM513 103.5q65 41.5 103.5 115t38.5 163.5q0 69 -30 119t-81 76.5t-114 26.5q-76 0 -140.5 -41.5t-103 -115t-38.5 -163.5q0 -69 29.5 -119.5t81 -76.5t114.5 -26q75 0 140 41.5z" />
    <glyph glyph-name="ohorn" unicode="&#x1a1;" 
d="M550 473.5q-25 -36.5 -61 -58.5q41 -55 41 -135q0 -76 -35 -143t-97 -108t-137 -41q-102 0 -161.5 58.5t-59.5 155.5q0 76 35 143.5t96.5 108.5t137.5 41q48 0 88 -14t68 -40q22 13 38.5 31.5t21.5 37.5q0 -1 -6 -1q-14 0 -24 10t-10 26q0 20 14 34t33 14t31 -12.5
t12 -34.5q0 -36 -25 -72.5zM359 86.5q43 31.5 67.5 83t24.5 108.5q0 69 -38 109.5t-106 40.5q-53 0 -96 -31.5t-67.5 -83t-24.5 -108.5q0 -69 38 -109.5t106 -40.5q53 0 96 31.5z" />
    <glyph glyph-name="Uhorn" unicode="&#x1af;" horiz-adv-x="700" 
d="M801.5 650q-41.5 -44 -104.5 -68l-71 -322q-30 -133 -97 -202.5t-193 -69.5q-123 0 -191.5 60t-68.5 162q0 24 5 49l90 408h83l-89 -406q-5 -20 -5 -42q0 -70 46.5 -113.5t129.5 -43.5q88 0 136.5 50.5t69.5 148.5l90 406h83l-9 -44q36 18 58.5 40t28.5 45q0 -1 -6 -1
q-14 0 -24 10t-10 26q0 20 14 34t33 14t31 -12.5t12 -34.5q0 -50 -41.5 -94z" />
    <glyph glyph-name="uhorn" unicode="&#x1b0;" horiz-adv-x="551" 
d="M604.5 463q-36.5 -41 -94.5 -67l-88 -396h-75l16 69q-85 -81 -170 -81q-66 0 -105.5 31t-39.5 88q0 9 2 20t4 21l74 335h75l-71 -317q-4 -18 -4 -33q0 -40 27 -59t73 -19q39 0 78 22t70 54l78 352h75l-10 -45q62 35 72 77h-6q-14 0 -24.5 10.5t-10.5 25.5q0 19 14.5 33
t33.5 14t31 -12.5t12 -34.5q0 -47 -36.5 -88z" />
    <glyph glyph-name="AEacute" unicode="&#x1fc;" horiz-adv-x="947" 
d="M434 148h-259l-124 -148h-98l563 667h470l-16 -74h-354l-48 -215h347l-16 -74h-348l-51 -230h355l-16 -74h-437zM232 222h219l77 354zM544 723l180 144h80l-201 -144h-59z" />
    <glyph glyph-name="aeacute" unicode="&#x1fd;" horiz-adv-x="938" 
d="M371 0l15 69q-31 -39 -71 -60t-88 -21q-85 0 -136 53t-51 146q0 80 31.5 150.5t89 114t132.5 43.5q55 0 99.5 -23.5t68.5 -64.5l17 76h75l-18 -82q30 39 76 66.5t99 27.5q90 0 138.5 -56t48.5 -151q0 -17 -3 -38.5t-6 -32.5h-390q-1 -4 -1 -23q0 -60 42.5 -101t120.5 -41
q37 0 72 12t63 35l26 -54q-34 -26 -76 -41.5t-82 -15.5q-77 0 -125.5 35.5t-65.5 94.5l-26 -118h-75zM827 291q0 63 -36.5 102.5t-105.5 39.5q-43 0 -81.5 -22t-64.5 -59t-34 -80h320q2 8 2 19zM156 94.5q37 -39.5 98 -39.5q43 0 83 23.5t64 58.5l48 213q-19 34 -57.5 56
t-88.5 22q-53 0 -95 -32t-65.5 -84.5t-23.5 -110.5q0 -67 37 -106.5zM472 556l180 144h80l-201 -144h-59z" />
    <glyph glyph-name="Oslashacute" unicode="&#x1fe;" horiz-adv-x="765" 
d="M488 723h-59l180 144h80zM743 387q0 -110 -50 -201.5t-136 -144.5t-189 -53q-112 0 -194 57l-41 -45h-66l69 78q-76 79 -76 202q0 110 50 201t136 144t189 53q109 0 189 -54l39 43h66l-66 -74q80 -80 80 -206zM193 142l376 420q-59 42 -139 42q-76 0 -140.5 -41.5
t-103 -115t-38.5 -163.5q0 -84 45 -142zM513 103.5q65 41.5 103.5 115t38.5 163.5q0 89 -49 147l-377 -422q61 -45 144 -45q75 0 140 41.5z" />
    <glyph glyph-name="oslashacute" unicode="&#x1ff;" 
d="M355 556h-59l180 144h80zM555 483l-67 -66q42 -56 42 -137q0 -76 -35 -143t-97 -108t-137 -41q-95 0 -155 52l-40 -40h-58l71 70q-39 53 -39 132q0 76 35 143.5t96.5 108.5t137.5 41q91 0 151 -49l37 37h58zM136 126l271 268q-39 34 -100 34q-53 0 -96 -31.5t-67.5 -83
t-24.5 -108.5q0 -48 17 -79zM432 362l-273 -269q38 -38 104 -38q53 0 96 31.5t67.5 83t24.5 108.5q0 49 -19 84z" />
    <glyph glyph-name="uni0218" unicode="&#x218;" horiz-adv-x="586" 
d="M73 167q35 -49 93 -77t127 -28q49 0 82 18.5t49 47t16 58.5q0 40 -35 64.5t-106 52.5q-62 25 -99.5 45t-64 53t-26.5 82q0 51 30.5 96t84.5 71.5t121 26.5q77 0 141.5 -28t99.5 -77l-57 -58q-32 44 -84 67t-109 23q-38 0 -69.5 -15.5t-50 -41t-18.5 -53.5q0 -25 18 -44
t45 -32.5t74 -32.5q62 -25 100.5 -46t66 -55.5t27.5 -84.5q0 -54 -28.5 -102.5t-84 -78.5t-130.5 -30q-88 0 -161.5 33.5t-108.5 85.5zM133 -238q26 13 47.5 34.5t28.5 42.5h-7q-15 0 -26 11t-11 28q0 21 15.5 36t36.5 15q19 0 32 -13.5t13 -36.5q0 -41 -30 -82t-72 -63z
" />
    <glyph glyph-name="uni0219" unicode="&#x219;" horiz-adv-x="465" 
d="M50 124q21 -31 65.5 -53t95.5 -22q50 0 80.5 25t30.5 60q0 27 -26 44t-81 39q-48 19 -77 33.5t-49.5 38.5t-20.5 59q0 40 21.5 73.5t63 53.5t98.5 20q60 0 109.5 -22.5t74.5 -56.5l-43 -49q-17 28 -58.5 47.5t-86.5 19.5q-47 0 -75.5 -21t-28.5 -53q0 -25 25 -41t78 -37
q48 -18 78 -33t51.5 -40.5t21.5 -62.5q0 -42 -22.5 -78.5t-66 -58t-101.5 -21.5q-65 0 -118 22t-86 63zM68 -238q26 13 47.5 34.5t28.5 42.5h-7q-15 0 -26 11t-11 28q0 21 15.5 36t36.5 15q19 0 32 -13.5t13 -36.5q0 -41 -30 -82t-72 -63z" />
    <glyph glyph-name="uni021A" unicode="&#x21a;" horiz-adv-x="570" 
d="M320 593h-211l16 74h506l-16 -74h-212l-131 -593h-83zM123 -238q26 13 47.5 34.5t28.5 42.5h-7q-15 0 -26 11t-11 28q0 21 15.5 36t36.5 15q19 0 32 -13.5t13 -36.5q0 -41 -30 -82t-72 -63z" />
    <glyph glyph-name="uni021B" unicode="&#x21b;" horiz-adv-x="294" 
d="M59 104l70 314h-80l15 65h80l29 132h75l-29 -132h98l-15 -65h-98l-66 -298q-2 -12 -2 -20q0 -45 48 -45q13 0 25.5 4.5t20.5 11.5l9 -60q-30 -23 -73 -23q-52 0 -81 22t-29 66q0 13 3 28zM-30 -238q26 13 47.5 34.5t28.5 42.5h-7q-15 0 -26 11t-11 28q0 21 15.5 36
t36.5 15q19 0 32 -13.5t13 -36.5q0 -41 -30 -82t-72 -63z" />
    <glyph glyph-name="uni0237" unicode="&#x237;" horiz-adv-x="225" 
d="M-114 -123q18 -9 39 -9q65 0 85 85l118 530h75l-118 -530q-16 -74 -53 -111.5t-100 -37.5q-37 0 -65 12z" />
    <glyph glyph-name="uni0259" unicode="&#x259;" horiz-adv-x="563" 
d="M485 134.5q-36 -67.5 -98.5 -107t-137.5 -39.5q-62 0 -109.5 27t-73 75t-25.5 109q0 30 8 67h394l1 23q0 39 -19 71.5t-56 52.5t-89 20q-36 0 -73 -12t-65 -35l-26 52q34 26 78.5 41.5t90.5 15.5q109 0 172.5 -58t63.5 -156q0 -79 -36 -146.5zM110 192q0 -62 38 -102
t108 -40q43 0 81.5 22t64.5 59t33 80h-324q-1 -4 -1 -19z" />
    <glyph glyph-name="uni02B0" unicode="&#x2b0;" horiz-adv-x="398" 
d="M339 526l2 20q0 26 -17.5 40t-47.5 14q-45 0 -95 -50l-49 -224h-58l96 434h58l-36 -165q22 23 51 38t61 15q47 0 73 -21t26 -59q0 -11 -4 -31l-47 -211h-57z" />
    <glyph glyph-name="uni02BC" unicode="&#x2bc;" horiz-adv-x="230" 
d="M110 489q28 14 52 37t32 47h-8q-18 0 -30.5 12.5t-12.5 32.5q0 24 18 41.5t42 17.5q23 0 38 -15.5t15 -42.5q0 -46 -34 -92t-82 -71z" />
    <glyph glyph-name="circumflex" unicode="&#x2c6;" horiz-adv-x="265" 
d="M225 662l-103 -106h-53l127 144h72l66 -144h-49z" />
    <glyph glyph-name="caron" unicode="&#x2c7;" horiz-adv-x="265" 
d="M101 700h49l59 -106l104 106h53l-127 -144h-72z" />
    <glyph glyph-name="uni02C9" unicode="&#x2c9;" horiz-adv-x="363" 
d="M87 639h362l-10 -48h-362z" />
    <glyph glyph-name="uni02CB" unicode="&#x2cb;" horiz-adv-x="226" 
d="M101 700h78l116 -144h-57z" />
    <glyph glyph-name="breve" unicode="&#x2d8;" horiz-adv-x="351" 
d="M146 561.5q-41 23.5 -63 64.5l42 32q17 -34 48.5 -53t74.5 -19t83 19t71 53l32 -32q-40 -41 -90.5 -64.5t-103.5 -23.5t-94 23.5z" />
    <glyph glyph-name="dotaccent" unicode="&#x2d9;" horiz-adv-x="111" 
d="M100 567q-12 12 -12 30q0 21 15.5 36.5t37.5 15.5q18 0 30 -12t12 -30q0 -21 -16 -36.5t-37 -15.5q-18 0 -30 12z" />
    <glyph glyph-name="ring" unicode="&#x2da;" horiz-adv-x="196" 
d="M118.5 708q32.5 32 75.5 32q39 0 64 -25t25 -64q0 -44 -32 -76t-76 -32q-39 0 -64 25t-25 64q0 44 32.5 76zM229 685.5q-14 14.5 -38 14.5q-26 0 -45.5 -19t-19.5 -45q0 -23 14.5 -38t37.5 -15q26 0 45.5 19t19.5 45q0 24 -14 38.5z" />
    <glyph glyph-name="ogonek" unicode="&#x2db;" horiz-adv-x="178" 
d="M-42 -186q-38 0 -61 16.5t-23 42.5q0 41 42.5 75.5t101.5 55.5l49 -4q-116 -47 -116 -104q0 -12 8.5 -20.5t25.5 -8.5t35 9l9 -45q-31 -17 -71 -17z" />
    <glyph glyph-name="tilde" unicode="&#x2dc;" horiz-adv-x="313" 
d="M204 636q-10 10 -27 10q-42 0 -61 -86h-46q27 134 112 134q27 0 42 -13t30 -38q12 -21 22 -31t27 -10q20 0 35.5 21t26.5 65h46q-29 -134 -113 -134q-27 0 -42 13t-30 38q-12 21 -22 31z" />
    <glyph glyph-name="hungarumlaut" unicode="&#x2dd;" horiz-adv-x="305" 
d="M67 556l126 144h71l-147 -144h-50zM209 556l126 144h71l-147 -144h-50z" />
    <glyph glyph-name="uni02E1" unicode="&#x2e1;" horiz-adv-x="174" 
d="M170 760h58l-96 -434h-58z" />
    <glyph glyph-name="uni02E2" unicode="&#x2e2;" horiz-adv-x="330" 
d="M92 411q15 -22 43.5 -36.5t62.5 -14.5q32 0 51.5 14t19.5 35q0 20 -18.5 32.5t-54.5 24.5q-33 12 -51.5 21t-32 25t-13.5 41q0 24 15 46t44 35.5t67 13.5q41 0 74.5 -15t51.5 -39l-32 -31q-15 20 -40.5 31.5t-55.5 11.5t-48 -13.5t-18 -35.5q0 -17 16.5 -27t50.5 -20
q49 -15 76 -35t27 -60q0 -24 -15 -46.5t-44.5 -36.5t-70.5 -14q-46 0 -79.5 14.5t-59.5 45.5z" />
    <glyph glyph-name="uni0309" unicode="&#x309;" horiz-adv-x="0" 
d="M36.5 777.5q19.5 12.5 42.5 12.5q28 0 47.5 -16t19.5 -43q0 -36 -28 -64h-43q18 16 26.5 30t8.5 31q0 14 -10 22t-23 8q-26 0 -43 -29l-29 15q12 21 31.5 33.5z" />
    <glyph glyph-name="uni0326" unicode="&#x326;" horiz-adv-x="0" 
d="M-276 -238q26 13 47.5 34.5t28.5 42.5h-7q-15 0 -26 11t-11 28q0 21 15.5 36t36.5 15q19 0 32 -13.5t13 -36.5q0 -41 -30 -82t-72 -63z" />
    <glyph glyph-name="uni037E" unicode="&#x37e;" horiz-adv-x="230" 
d="M119.5 473q17.5 17 42.5 17q21 0 35.5 -15t14.5 -35q0 -25 -17.5 -42.5t-42.5 -17.5q-21 0 -35.5 15t-14.5 36q0 25 17.5 42zM-18 -88q28 14 52 37t32 47h-8q-18 0 -30.5 12t-12.5 32q0 24 18 42t42 18q23 0 38 -15.5t15 -43.5q0 -45 -33.5 -91t-81.5 -71z" />
    <glyph glyph-name="tonos" unicode="&#x384;" horiz-adv-x="551" 
d="M238 765h76l-103 -200h-38z" />
    <glyph glyph-name="dieresistonos" unicode="&#x385;" horiz-adv-x="551" 
d="M381 765h76l-102 -200h-38zM189.5 569q-11.5 12 -11.5 30q0 20 15.5 35.5t36.5 15.5q17 0 29 -12t12 -29q0 -20 -16 -36t-36 -16q-18 0 -29.5 12zM457.5 569q-11.5 12 -11.5 30q0 20 15.5 35.5t36.5 15.5q17 0 29 -12t12 -29q0 -20 -16 -36t-36 -16q-18 0 -29.5 12z" />
    <glyph glyph-name="Alphatonos" unicode="&#x386;" horiz-adv-x="658" 
d="M229 765h76l-103 -200h-38zM478 148h-333l-91 -148h-99l415 667h103l122 -667h-91zM187 222h283l-63 359z" />
    <glyph glyph-name="Epsilontonos" unicode="&#x388;" horiz-adv-x="586" 
d="M125 765h76l-103 -200h-38zM188 667h437l-16 -74h-354l-48 -215h347l-16 -74h-348l-51 -230h355l-16 -74h-437z" />
    <glyph glyph-name="Etatonos" unicode="&#x389;" horiz-adv-x="729" 
d="M125 765h76l-103 -200h-38zM581 306h-390l-67 -306h-83l147 667h83l-63 -287h390l63 287h83l-147 -667h-83z" />
    <glyph glyph-name="Iotatonos" unicode="&#x38a;" horiz-adv-x="255" 
d="M125 765h76l-103 -200h-38zM188 667h83l-147 -667h-83z" />
    <glyph glyph-name="Omicrontonos" unicode="&#x38c;" horiz-adv-x="765" 
d="M160 765h76l-103 -200h-38zM110 481q50 91 136 144t189 53q86 0 156.5 -35t111 -101t40.5 -155q0 -110 -50 -201.5t-136 -144.5t-189 -53q-86 0 -156.5 35t-111 101t-40.5 156q0 110 50 201zM625 501q-30 50 -81 76.5t-114 26.5q-76 0 -140.5 -41.5t-103 -115
t-38.5 -163.5q0 -69 29.5 -119.5t81 -76.5t114.5 -26q75 0 140 41.5t103.5 115t38.5 163.5q0 69 -30 119z" />
    <glyph glyph-name="Upsilontonos" unicode="&#x38e;" horiz-adv-x="684" 
d="M125 765h76l-103 -200h-38zM338 282l-178 385h91l139 -310l275 310h103l-347 -385l-62 -282h-83z" />
    <glyph glyph-name="Omegatonos" unicode="&#x38f;" horiz-adv-x="769" 
d="M160 765h76l-103 -200h-38zM102 170.5q-32 58.5 -32 134.5q0 96 46 182t130 138.5t193 52.5q90 0 160 -34.5t109 -99.5t39 -153q0 -113 -59.5 -193.5t-147.5 -123.5h122l-16 -74h-240l16 74q66 14 119.5 57.5t84.5 109t31 141.5q0 67 -27.5 117t-77.5 77t-116 27
q-81 0 -146 -43.5t-101.5 -117t-36.5 -158.5q0 -74 34 -127.5t89 -82.5l-16 -74h-240l16 74h152q-53 38 -85 96.5z" />
    <glyph glyph-name="iotadieresistonos" unicode="&#x390;" horiz-adv-x="238" 
d="M129 483h75l-84 -370q-3 -10 -3 -20q0 -38 37 -38q10 0 20 2l-9 -65q-22 -4 -41 -4q-86 0 -86 76q0 14 5 37zM227 765h76l-102 -200h-38zM35.5 569q-11.5 12 -11.5 30q0 20 15.5 35.5t36.5 15.5q17 0 29 -12t12 -29q0 -20 -16 -36t-36 -16q-18 0 -29.5 12zM303.5 569
q-11.5 12 -11.5 30q0 20 15.5 35.5t36.5 15.5q17 0 29 -12t12 -29q0 -20 -16 -36t-36 -16q-18 0 -29.5 12z" />
    <glyph glyph-name="Alpha" unicode="&#x391;" horiz-adv-x="658" 
d="M478 148h-333l-91 -148h-99l415 667h103l122 -667h-91zM187 222h283l-63 359z" />
    <glyph glyph-name="Beta" unicode="&#x392;" horiz-adv-x="629" 
d="M171 667h277q48 0 87 -19.5t61 -54.5t22 -79q0 -46 -21 -85.5t-57 -64.5t-77 -29q43 -11 70.5 -50.5t27.5 -86.5q0 -51 -25 -96.5t-76.5 -73.5t-126.5 -28h-309zM498.5 567q-29.5 26 -71.5 26h-189l-48 -215h207q68 0 99.5 36.5t31.5 87.5q0 39 -29.5 65zM447 276
q-29 28 -78 28h-196l-51 -230h209q68 0 106.5 38t38.5 92q0 44 -29 72z" />
    <glyph glyph-name="Gamma" unicode="&#x393;" horiz-adv-x="550" 
d="M171 667h437l-16 -74h-354l-131 -593h-83z" />
    <glyph glyph-name="uni0394" unicode="&#x394;" horiz-adv-x="658" 
d="M370 667h103l122 -667h-640zM95 74h401l-89 507z" />
    <glyph glyph-name="Epsilon" unicode="&#x395;" horiz-adv-x="569" 
d="M171 667h437l-16 -74h-354l-48 -215h347l-16 -74h-348l-51 -230h355l-16 -74h-437z" />
    <glyph glyph-name="Zeta" unicode="&#x396;" horiz-adv-x="585" 
d="M9 69l485 524h-369l16 74h481l-14 -69l-487 -524h378l-17 -74h-488z" />
    <glyph glyph-name="Eta" unicode="&#x397;" horiz-adv-x="712" 
d="M564 306h-390l-67 -306h-83l147 667h83l-63 -287h390l63 287h83l-147 -667h-83z" />
    <glyph glyph-name="Theta" unicode="&#x398;" horiz-adv-x="765" 
d="M110 481q50 91 136 144t189 53q86 0 156.5 -35t111 -101t40.5 -155q0 -110 -50 -201.5t-136 -144.5t-189 -53q-86 0 -156.5 35t-111 101t-40.5 156q0 110 50 201zM625 501q-30 50 -81 76.5t-114 26.5q-76 0 -140.5 -41.5t-103 -115t-38.5 -163.5q0 -69 29.5 -119.5
t81 -76.5t114.5 -26q75 0 140 41.5t103.5 115t38.5 163.5q0 69 -30 119zM222 378h371l-16 -74h-371z" />
    <glyph glyph-name="Iota" unicode="&#x399;" horiz-adv-x="239" 
d="M171 667h83l-147 -667h-83z" />
    <glyph glyph-name="Kappa" unicode="&#x39a;" horiz-adv-x="601" 
d="M243 304l-87 -80l-49 -224h-83l147 667h83l-75 -337l365 337h109l-348 -317l225 -350h-97z" />
    <glyph glyph-name="Lambda" unicode="&#x39b;" horiz-adv-x="658" 
d="M407 581l-353 -581h-99l415 667h103l122 -667h-91z" />
    <glyph glyph-name="Mu" unicode="&#x39c;" horiz-adv-x="809" 
d="M718 561l-351 -561h-34l-103 561l-123 -561h-83l147 667h115l94 -514l321 514h123l-147 -667h-83z" />
    <glyph glyph-name="Nu" unicode="&#x39d;" horiz-adv-x="708" 
d="M227 544l-120 -544h-83l147 667h85l266 -534l118 534h83l-147 -667h-80z" />
    <glyph glyph-name="Xi" unicode="&#x39e;" horiz-adv-x="615" 
d="M148 667h506l-15 -74h-506zM91 378h493l-16 -74h-493zM18 74h505l-15 -74h-506z" />
    <glyph glyph-name="Omicron" unicode="&#x39f;" horiz-adv-x="765" 
d="M110 481q50 91 136 144t189 53q86 0 156.5 -35t111 -101t40.5 -155q0 -110 -50 -201.5t-136 -144.5t-189 -53q-86 0 -156.5 35t-111 101t-40.5 156q0 110 50 201zM625 501q-30 50 -81 76.5t-114 26.5q-76 0 -140.5 -41.5t-103 -115t-38.5 -163.5q0 -69 29.5 -119.5
t81 -76.5t114.5 -26q75 0 140 41.5t103.5 115t38.5 163.5q0 69 -30 119z" />
    <glyph glyph-name="Pi" unicode="&#x3a0;" horiz-adv-x="712" 
d="M627 593h-390l-130 -593h-83l147 667h556l-147 -667h-83z" />
    <glyph glyph-name="Rho" unicode="&#x3a1;" horiz-adv-x="587" 
d="M171 667h248q56 0 98 -23.5t64.5 -63t22.5 -86.5q0 -55 -26.5 -107.5t-83.5 -87t-145 -34.5h-184l-58 -265h-83zM474.5 382q42.5 43 42.5 106q0 44 -31.5 74.5t-79.5 30.5h-168l-57 -254h175q76 0 118.5 43z" />
    <glyph glyph-name="Sigma" unicode="&#x3a3;" horiz-adv-x="545" 
d="M460 74l-16 -74h-438l16 80l291 268l-174 251l15 68h437l-16 -74h-339l177 -256l-287 -263h334z" />
    <glyph glyph-name="Tau" unicode="&#x3a4;" horiz-adv-x="570" 
d="M320 593h-211l16 74h506l-16 -74h-212l-131 -593h-83z" />
    <glyph glyph-name="Upsilon" unicode="&#x3a5;" horiz-adv-x="626" 
d="M280 282l-178 385h91l139 -310l275 310h103l-347 -385l-62 -282h-83z" />
    <glyph glyph-name="Phi" unicode="&#x3a6;" horiz-adv-x="806" 
d="M734 218.5q-49 -67.5 -135.5 -108.5t-193.5 -45l-15 -65h-83l16 67q-126 10 -191.5 70.5t-65.5 160.5q0 82 49 149.5t135 108.5t194 45l15 66h83l-15 -68q124 -10 190 -71t66 -161q0 -81 -49 -148.5zM201.5 189.5q48.5 -42.5 137.5 -49.5l88 386q-82 -6 -144 -36.5
t-96 -80.5t-34 -111q0 -66 48.5 -108.5zM565.5 176.5q62.5 30.5 96.5 80t34 110.5q0 67 -49 109.5t-137 49.5l-88 -386q81 6 143.5 36.5z" />
    <glyph glyph-name="Chi" unicode="&#x3a7;" horiz-adv-x="652" 
d="M337 282l-272 -282h-107l336 347l-174 320h95l142 -265l252 265h108l-317 -330l185 -337h-94z" />
    <glyph glyph-name="Psi" unicode="&#x3a8;" horiz-adv-x="796" 
d="M816 667l-65 -288q-25 -110 -114 -179t-223 -75l-28 -125h-83l28 126q-114 10 -169 62.5t-55 141.5q0 37 10 80l59 257h83l-61 -270q-7 -23 -7 -57q0 -59 39 -95.5t119 -43.5l106 466h83l-106 -466q96 8 157.5 59t80.5 137l62 270h84z" />
    <glyph glyph-name="uni03A9" unicode="&#x3a9;" horiz-adv-x="765" 
d="M98 170.5q-32 58.5 -32 134.5q0 96 46 182t130 138.5t193 52.5q90 0 160 -34.5t109 -99.5t39 -153q0 -113 -59.5 -193.5t-147.5 -123.5h122l-16 -74h-240l16 74q66 14 119.5 57.5t84.5 109t31 141.5q0 67 -27.5 117t-77.5 77t-116 27q-81 0 -146 -43.5t-101.5 -117
t-36.5 -158.5q0 -74 34 -127.5t89 -82.5l-16 -74h-240l16 74h152q-53 38 -85 96.5z" />
    <glyph glyph-name="Iotadieresis" unicode="&#x3aa;" horiz-adv-x="239" 
d="M171 667h83l-147 -667h-83zM101.5 753.5q-12.5 12.5 -12.5 29.5q0 20 16 35.5t36 15.5q18 0 30 -12t12 -29q0 -20 -16 -36t-36 -16q-17 0 -29.5 12.5zM308 753.5q-12 12.5 -12 29.5q0 20 15.5 35.5t36.5 15.5q17 0 29 -12t12 -29q0 -20 -15.5 -36t-36.5 -16
q-17 0 -29 12.5z" />
    <glyph glyph-name="Upsilondieresis" unicode="&#x3ab;" horiz-adv-x="626" 
d="M280 282l-178 385h91l139 -310l275 310h103l-347 -385l-62 -282h-83zM295.5 753.5q-12.5 12.5 -12.5 29.5q0 20 16 35.5t36 15.5q18 0 30 -12t12 -29q0 -20 -16 -36t-36 -16q-17 0 -29.5 12.5zM502 753.5q-12 12.5 -12 29.5q0 20 15.5 35.5t36.5 15.5q17 0 29 -12t12 -29
q0 -20 -15.5 -36t-36.5 -16q-17 0 -29 12.5z" />
    <glyph glyph-name="alphatonos" unicode="&#x3ac;" horiz-adv-x="589" 
d="M475 -12q-46 0 -66.5 23t-16.5 66q-71 -89 -165 -89q-85 0 -136 53t-51 146q0 80 31.5 150.5t89 114t132.5 43.5q55 0 99.5 -23.5t68.5 -64.5l17 76h75l-82 -370q-3 -10 -3 -20q0 -38 36 -38q11 0 21 2l-9 -65q-22 -4 -41 -4zM449 350q-19 34 -57.5 56t-88.5 22
q-53 0 -95 -32t-65.5 -84.5t-23.5 -110.5q0 -67 37 -106.5t98 -39.5q43 0 82.5 23.5t64.5 58.5zM400 765h76l-103 -200h-38z" />
    <glyph glyph-name="epsilontonos" unicode="&#x3ad;" horiz-adv-x="514" 
d="M47 184.5q28 29.5 67.5 45t74.5 17.5q-43 7 -74.5 33t-31.5 68q0 44 33 77.5t88 51.5t119 18q68 0 116.5 -21t78.5 -57l-48 -44q-46 60 -147 60q-68 0 -115.5 -25t-47.5 -64q0 -33 35 -51t91 -18h109l-14 -61h-108q-77 0 -124.5 -22t-47.5 -70q0 -33 33.5 -52.5
t94.5 -19.5q51 0 100.5 17t90.5 49l29 -50q-47 -37 -104.5 -57.5t-121.5 -20.5q-101 0 -152.5 34t-51.5 91q0 42 28 71.5zM373 765h76l-103 -200h-38z" />
    <glyph glyph-name="etatonos" unicode="&#x3ae;" horiz-adv-x="551" 
d="M417 317q1 3 3.5 13.5t2.5 19.5q0 40 -27 59t-73 19q-39 0 -78.5 -22t-70.5 -54l-78 -352h-75l107 483h75l-16 -70q86 82 171 82q65 0 104.5 -31.5t39.5 -88.5q0 -9 -1.5 -20t-4.5 -20l-116 -519h-75zM390 765h76l-103 -200h-38z" />
    <glyph glyph-name="iotatonos" unicode="&#x3af;" horiz-adv-x="238" 
d="M129 483h75l-84 -370q-3 -10 -3 -20q0 -38 37 -38q10 0 20 2l-9 -65q-22 -4 -41 -4q-86 0 -86 76q0 14 5 37zM230 765h76l-103 -200h-38z" />
    <glyph glyph-name="upsilondieresistonos" unicode="&#x3b0;" horiz-adv-x="562" 
d="M131 483h75l-62 -270q-6 -30 -6 -54q0 -50 26 -77t80 -27q59 0 106.5 37t75 98.5t27.5 133.5q0 39 -9 77.5t-26 66.5l70 27q19 -32 29.5 -78t10.5 -92q0 -92 -37 -169t-102 -122.5t-145 -45.5q-89 0 -135 44.5t-46 120.5q0 36 8 68zM404 765h76l-102 -200h-38zM212.5 569
q-11.5 12 -11.5 30q0 20 15.5 35.5t36.5 15.5q17 0 29 -12t12 -29q0 -20 -16 -36t-36 -16q-18 0 -29.5 12zM480.5 569q-11.5 12 -11.5 30q0 20 15.5 35.5t36.5 15.5q17 0 29 -12t12 -29q0 -20 -16 -36t-36 -16q-18 0 -29.5 12z" />
    <glyph glyph-name="alpha" unicode="&#x3b1;" horiz-adv-x="589" 
d="M475 -12q-46 0 -66.5 23t-16.5 66q-71 -89 -165 -89q-85 0 -136 53t-51 146q0 80 31.5 150.5t89 114t132.5 43.5q55 0 99.5 -23.5t68.5 -64.5l17 76h75l-82 -370q-3 -10 -3 -20q0 -38 36 -38q11 0 21 2l-9 -65q-22 -4 -41 -4zM449 350q-19 34 -57.5 56t-88.5 22
q-53 0 -95 -32t-65.5 -84.5t-23.5 -110.5q0 -67 37 -106.5t98 -39.5q43 0 82.5 23.5t64.5 58.5z" />
    <glyph glyph-name="beta" unicode="&#x3b2;" horiz-adv-x="575" 
d="M175 10.5q-41 22.5 -63 60.5l-58 -255h-75l145 639q18 76 59.5 126t95.5 73t111 23q86 0 136.5 -39t50.5 -111q0 -53 -27.5 -92t-69 -61.5t-82.5 -29.5q47 -6 83.5 -40.5t36.5 -97.5q0 -62 -34 -111.5t-90 -78t-119 -28.5q-59 0 -100 22.5zM356.5 75q40.5 20 62.5 55
t22 79q0 49 -36.5 74t-95.5 25h-35l15 67h33q73 0 123 37t50 102q0 45 -31 70.5t-83 25.5q-61 0 -113 -40.5t-69 -114.5l-74 -324q15 -33 51.5 -54.5t86.5 -21.5q53 0 93.5 20z" />
    <glyph glyph-name="gamma" unicode="&#x3b3;" horiz-adv-x="490" 
d="M412.5 237.5q-78.5 -129.5 -182.5 -232.5l-43 -189h-75l30 135q19 82 19 166q0 108 -30 203.5t-82 162.5h88q42 -57 68 -148t26 -181q0 -21 -4 -61q73 77 133.5 184t82.5 206h75q-27 -116 -105.5 -245.5z" />
    <glyph glyph-name="delta" unicode="&#x3b4;" 
d="M437 409.5q37 -21.5 64 -60.5t27 -99q0 -66 -34 -126.5t-95.5 -98t-140.5 -37.5q-72 0 -122 27t-74 72t-24 99q0 81 53.5 147t139.5 98q-29 18 -44.5 41t-15.5 56q0 39 26.5 73.5t73.5 56t106 21.5q117 0 171 -70l-46 -47q-18 26 -51.5 41t-79.5 15q-54 0 -90 -25
t-36 -60q0 -26 23.5 -42t76.5 -38q55 -22 92 -43.5zM359.5 81.5q43.5 26.5 68.5 70.5t25 92q0 43 -20 71.5t-49 45t-78 36.5l-7 3q-86 -26 -133.5 -82t-47.5 -125q0 -58 37 -98t108 -40q53 0 96.5 26.5z" />
    <glyph glyph-name="epsilon" unicode="&#x3b5;" horiz-adv-x="514" 
d="M47 184.5q28 29.5 67.5 45t74.5 17.5q-43 7 -74.5 33t-31.5 68q0 44 33 77.5t88 51.5t119 18q68 0 116.5 -21t78.5 -57l-48 -44q-46 60 -147 60q-68 0 -115.5 -25t-47.5 -64q0 -33 35 -51t91 -18h109l-14 -61h-108q-77 0 -124.5 -22t-47.5 -70q0 -33 33.5 -52.5
t94.5 -19.5q51 0 100.5 17t90.5 49l29 -50q-47 -37 -104.5 -57.5t-121.5 -20.5q-101 0 -152.5 34t-51.5 91q0 42 28 71.5z" />
    <glyph glyph-name="zeta" unicode="&#x3b6;" horiz-adv-x="489" 
d="M95 43q-60 43 -60 125q0 123 104.5 232.5t289.5 200.5h-284l16 66h382l-14 -57q-199 -101 -306 -207t-107 -220q0 -59 44.5 -87.5t124.5 -28.5q57 0 83.5 -16t26.5 -51q0 -59 -79 -157h-86q33 34 57 71t24 59q0 15 -12 21t-38 6q-106 0 -166 43z" />
    <glyph glyph-name="eta" unicode="&#x3b7;" horiz-adv-x="551" 
d="M417 317q1 3 3.5 13.5t2.5 19.5q0 40 -27 59t-73 19q-39 0 -78.5 -22t-70.5 -54l-78 -352h-75l107 483h75l-16 -70q86 82 171 82q65 0 104.5 -31.5t39.5 -88.5q0 -9 -1.5 -20t-4.5 -20l-116 -519h-75z" />
    <glyph glyph-name="theta" unicode="&#x3b8;" 
d="M511 609q53 -70 53 -191q0 -103 -37.5 -203t-106.5 -163.5t-159 -63.5q-100 0 -154 69t-54 191q0 103 38 203t107.5 164t159.5 64q100 0 153 -70zM227.5 541q-54.5 -71 -79.5 -173h334q4 28 4 61q0 83 -32 133t-102 50t-124.5 -71zM390.5 127q53.5 72 78.5 175h-334
q-5 -27 -5 -65q0 -83 33 -132.5t103 -49.5q71 0 124.5 72z" />
    <glyph glyph-name="iota" unicode="&#x3b9;" horiz-adv-x="238" 
d="M129 483h75l-84 -370q-3 -10 -3 -20q0 -38 37 -38q10 0 20 2l-9 -65q-22 -4 -41 -4q-86 0 -86 76q0 14 5 37z" />
    <glyph glyph-name="kappa" unicode="&#x3ba;" horiz-adv-x="514" 
d="M227 220l-101 -82l-30 -138h-75l107 483h75l-56 -253l306 253h99l-263 -219l157 -264h-91z" />
    <glyph glyph-name="lambda" unicode="&#x3bb;" horiz-adv-x="490" 
d="M283.5 654q30.5 -23 39.5 -74l110 -580h-79l-72 396l-248 -396h-85l312 486l-15 73q-6 30 -20 41t-40 11q-24 0 -43 -8l4 67q24 8 56 8q50 -1 80.5 -24z" />
    <glyph glyph-name="uni03BC" unicode="&#x3bc;" horiz-adv-x="564" 
d="M-22 -184l151 667h75l-71 -317q-4 -16 -4 -34q0 -39 24 -59t64 -20t84 22t73 53l79 355h75l-82 -370q-3 -10 -3 -20q0 -38 37 -38q10 0 20 2l-9 -65q-22 -4 -41 -4q-89 0 -84 86q-37 -38 -83 -62t-90 -24q-69 0 -90 48l-50 -220h-75z" />
    <glyph glyph-name="nu" unicode="&#x3bd;" horiz-adv-x="490" 
d="M59 483h81l72 -407q84 90 146.5 198t84.5 209h75q-27 -117 -107 -248t-186 -235h-75z" />
    <glyph glyph-name="xi" unicode="&#x3be;" horiz-adv-x="489" 
d="M54 239.5q27 39.5 68 62.5t84 31q-40 7 -70.5 35t-30.5 77q0 47 42 92t100 64h-100l16 66h371l-16 -66h-187q-57 -13 -100 -53t-43 -84q0 -43 37 -66t95 -23h142l-15 -65h-138q-87 0 -143 -38.5t-56 -110.5q0 -94 175 -94q57 0 83.5 -16t26.5 -51q0 -59 -79 -157h-81
q31 36 53.5 72.5t22.5 57.5q0 14 -11 20.5t-33 6.5q-119 0 -179.5 35.5t-60.5 110.5q0 54 27 93.5z" />
    <glyph glyph-name="omicron" unicode="&#x3bf;" 
d="M75 345.5q35 67.5 96.5 108.5t137.5 41q67 0 117 -27t77 -75.5t27 -112.5q0 -76 -35 -143t-97 -108t-137 -41q-102 0 -161.5 58.5t-59.5 155.5q0 76 35 143.5zM413 387.5q-38 40.5 -106 40.5q-53 0 -96 -31.5t-67.5 -83t-24.5 -108.5q0 -69 38 -109.5t106 -40.5
q53 0 96 31.5t67.5 83t24.5 108.5q0 69 -38 109.5z" />
    <glyph glyph-name="pi" unicode="&#x3c0;" horiz-adv-x="582" 
d="M458 417h-252l-95 -417h-75l95 417h-80l15 66h562l-15 -66h-80l-95 -417h-75z" />
    <glyph glyph-name="rho" unicode="&#x3c1;" 
d="M54 -184h-75l96 426q25 115 96.5 184t172.5 69q91 0 140.5 -57.5t49.5 -147.5q0 -77 -31.5 -146.5t-89 -112.5t-132.5 -43q-55 0 -99.5 24t-68.5 64zM424 386q-31 42 -89 42q-70 0 -118 -52t-67 -134l-25 -109q19 -35 57.5 -56.5t88.5 -21.5q53 0 95 32t65.5 84.5
t23.5 110.5q0 62 -31 104z" />
    <glyph glyph-name="uni03C2" unicode="&#x3c2;" horiz-adv-x="483" 
d="M76 349.5q36 66.5 98.5 106t137.5 39.5q65 0 110 -23.5t71 -66.5l-57 -43q-18 32 -50.5 49t-71.5 17q-58 0 -103 -31t-69 -82t-24 -110q0 -138 175 -138q102 0 102 -69q0 -56 -78 -155h-83q32 34 57 71.5t25 57.5q0 15 -13 21.5t-40 6.5q-100 0 -161.5 52t-61.5 152
q0 79 36 145.5z" />
    <glyph glyph-name="sigma" unicode="&#x3c3;" 
d="M100 46.5q-59 58.5 -59 155.5q0 75 39 139.5t109.5 103t159.5 38.5h254l-15 -67h-117q25 -24 39.5 -59.5t14.5 -81.5q0 -74 -34 -140t-94.5 -106.5t-135.5 -40.5q-102 0 -161 58.5zM340 416q-67 0 -117 -30.5t-76.5 -79t-26.5 -101.5q0 -69 38 -109.5t105 -40.5
q53 0 96.5 31.5t68 82t24.5 105.5q0 50 -17.5 87.5t-47.5 54.5h-47z" />
    <glyph glyph-name="tau" unicode="&#x3c4;" horiz-adv-x="468" 
d="M237 417h-170l15 66h416l-15 -66h-171l-67 -303q-2 -12 -2 -16q0 -21 14 -32t36 -11q13 0 25.5 4.5t20.5 11.5l8 -60q-28 -23 -72 -23q-49 0 -80 21t-31 66q0 13 3 29z" />
    <glyph glyph-name="upsilon" unicode="&#x3c5;" horiz-adv-x="562" 
d="M131 483h75l-62 -270q-6 -30 -6 -54q0 -50 26 -77t80 -27q59 0 106.5 37t75 98.5t27.5 133.5q0 39 -9 77.5t-26 66.5l70 27q19 -32 29.5 -78t10.5 -92q0 -92 -37 -169t-102 -122.5t-145 -45.5q-89 0 -135 44.5t-46 120.5q0 36 8 68z" />
    <glyph glyph-name="phi" unicode="&#x3c6;" horiz-adv-x="744" 
d="M663.5 134q-41.5 -64 -121.5 -103t-190 -42l-39 -173h-75l40 175q-117 13 -176.5 71t-59.5 154q0 95 66 166.5t176 112.5l20 -60q-86 -34 -134 -89.5t-48 -129.5q0 -68 41 -109.5t130 -49.5l99 438h38q132 0 203.5 -59t71.5 -162q0 -76 -41.5 -140zM509 90q58 30 87 78
t29 106q0 69 -42 109t-131 44l-84 -371q83 4 141 34z" />
    <glyph glyph-name="chi" unicode="&#x3c7;" horiz-adv-x="486" 
d="M213 89l-211 -273h-86l263 343l-101 324h80l79 -254l195 254h88l-249 -324l108 -343h-80z" />
    <glyph glyph-name="psi" unicode="&#x3c8;" horiz-adv-x="744" 
d="M725 483l-63 -273q-22 -98 -103 -157.5t-207 -63.5l-39 -173h-75l40 175q-107 8 -159.5 54t-52.5 124q0 33 9 69l56 245h75l-58 -255q-7 -30 -7 -50q0 -50 38.5 -82t113.5 -39l139 610h75l-139 -611q88 7 146.5 50.5t75.5 115.5l60 261h75z" />
    <glyph glyph-name="omega" unicode="&#x3c9;" horiz-adv-x="808" 
d="M424 29.5q-34 41.5 -38 105.5q-71 -147 -187 -147q-78 0 -119.5 53.5t-41.5 142.5q0 49 19 107.5t56.5 113t89.5 90.5l48 -50q-65 -46 -100.5 -116t-35.5 -144q0 -58 23 -94t74 -36q56 0 96 52.5t59 134.5l28 123h75l-28 -123q-8 -38 -8 -68q0 -54 23.5 -86.5t72.5 -32.5
q48 0 87 38t61 100.5t22 131.5q0 37 -10 72.5t-30 59.5l61 38q26 -27 39.5 -72t13.5 -97q0 -90 -32.5 -168t-87.5 -124t-118 -46q-78 0 -112 41.5z" />
    <glyph glyph-name="iotadieresis" unicode="&#x3ca;" horiz-adv-x="238" 
d="M129 483h75l-84 -370q-3 -10 -3 -20q0 -38 37 -38q10 0 20 2l-9 -65q-22 -4 -41 -4q-86 0 -86 76q0 14 5 37zM56.5 569.5q-12.5 12.5 -12.5 29.5q0 20 16 35.5t36 15.5q18 0 30 -12t12 -29q0 -20 -16 -36t-36 -16q-17 0 -29.5 12.5zM263 569.5q-12 12.5 -12 29.5
q0 20 15.5 35.5t36.5 15.5q17 0 29 -12t12 -29q0 -20 -15.5 -36t-36.5 -16q-17 0 -29 12.5z" />
    <glyph glyph-name="upsilondieresis" unicode="&#x3cb;" horiz-adv-x="562" 
d="M131 483h75l-62 -270q-6 -30 -6 -54q0 -50 26 -77t80 -27q59 0 106.5 37t75 98.5t27.5 133.5q0 39 -9 77.5t-26 66.5l70 27q19 -32 29.5 -78t10.5 -92q0 -92 -37 -169t-102 -122.5t-145 -45.5q-89 0 -135 44.5t-46 120.5q0 36 8 68zM234.5 569.5q-12.5 12.5 -12.5 29.5
q0 20 16 35.5t36 15.5q18 0 30 -12t12 -29q0 -20 -16 -36t-36 -16q-17 0 -29.5 12.5zM441 569.5q-12 12.5 -12 29.5q0 20 15.5 35.5t36.5 15.5q17 0 29 -12t12 -29q0 -20 -15.5 -36t-36.5 -16q-17 0 -29 12.5z" />
    <glyph glyph-name="omicrontonos" unicode="&#x3cc;" 
d="M75 345.5q35 67.5 96.5 108.5t137.5 41q67 0 117 -27t77 -75.5t27 -112.5q0 -76 -35 -143t-97 -108t-137 -41q-102 0 -161.5 58.5t-59.5 155.5q0 76 35 143.5zM413 387.5q-38 40.5 -106 40.5q-53 0 -96 -31.5t-67.5 -83t-24.5 -108.5q0 -69 38 -109.5t106 -40.5
q53 0 96 31.5t67.5 83t24.5 108.5q0 69 -38 109.5zM400 765h76l-103 -200h-38z" />
    <glyph glyph-name="upsilontonos" unicode="&#x3cd;" horiz-adv-x="562" 
d="M131 483h75l-62 -270q-6 -30 -6 -54q0 -50 26 -77t80 -27q59 0 106.5 37t75 98.5t27.5 133.5q0 39 -9 77.5t-26 66.5l70 27q19 -32 29.5 -78t10.5 -92q0 -92 -37 -169t-102 -122.5t-145 -45.5q-89 0 -135 44.5t-46 120.5q0 36 8 68zM405 765h76l-103 -200h-38z" />
    <glyph glyph-name="omegatonos" unicode="&#x3ce;" horiz-adv-x="808" 
d="M424 29.5q-34 41.5 -38 105.5q-71 -147 -187 -147q-78 0 -119.5 53.5t-41.5 142.5q0 49 19 107.5t56.5 113t89.5 90.5l48 -50q-65 -46 -100.5 -116t-35.5 -144q0 -58 23 -94t74 -36q56 0 96 52.5t59 134.5l28 123h75l-28 -123q-8 -38 -8 -68q0 -54 23.5 -86.5t72.5 -32.5
q48 0 87 38t61 100.5t22 131.5q0 37 -10 72.5t-30 59.5l61 38q26 -27 39.5 -72t13.5 -97q0 -90 -32.5 -168t-87.5 -124t-118 -46q-78 0 -112 41.5zM518 765h76l-103 -200h-38z" />
    <glyph glyph-name="uni0401" unicode="&#x401;" horiz-adv-x="569" 
d="M171 667h437l-16 -74h-354l-48 -215h347l-16 -74h-348l-51 -230h355l-16 -74h-437zM274.5 736.5q-12.5 12.5 -12.5 29.5q0 20 16 35.5t36 15.5q18 0 30 -12t12 -29q0 -20 -16 -36t-36 -16q-17 0 -29.5 12.5zM481 736.5q-12 12.5 -12 29.5q0 20 15.5 35.5t36.5 15.5
q17 0 29 -12t12 -29q0 -20 -15.5 -36t-36.5 -16q-17 0 -29 12.5z" />
    <glyph glyph-name="uni0402" unicode="&#x402;" horiz-adv-x="769" 
d="M566.5 99q44.5 37 58.5 101l2 8q5 27 5 44q0 50 -32.5 76.5t-96.5 26.5q-82 0 -159 -23l-72 -332h-83l131 593h-212l16 74h506l-16 -74h-211l-42 -187q88 23 165 23q95 0 143 -44t48 -118q0 -22 -7 -59l-2 -8q-23 -104 -96 -158t-168 -54l16 74q62 0 106.5 37z" />
    <glyph glyph-name="uni0403" unicode="&#x403;" horiz-adv-x="550" 
d="M171 667h437l-16 -74h-354l-131 -593h-83zM350 723l180 144h80l-201 -144h-59z" />
    <glyph glyph-name="uni0404" unicode="&#x404;" horiz-adv-x="676" 
d="M315.5 576q-55.5 -28 -96.5 -79t-59 -119h377l-16 -74h-373v-20q0 -65 27.5 -115.5t78.5 -78.5t119 -28q47 0 93.5 19.5t85.5 56.5l61 -46q-50 -53 -114.5 -78.5t-130.5 -25.5q-88 0 -158 36t-110 102.5t-40 153.5q0 116 52.5 207t139 141t183.5 50t167 -42t105 -115
l-79 -31q-29 57 -80.5 85.5t-117.5 28.5q-59 0 -114.5 -28z" />
    <glyph glyph-name="uni0405" unicode="&#x405;" horiz-adv-x="586" 
d="M73 167q35 -49 93 -77t127 -28q49 0 82 18.5t49 47t16 58.5q0 40 -35 64.5t-106 52.5q-62 25 -99.5 45t-64 53t-26.5 82q0 51 30.5 96t84.5 71.5t121 26.5q77 0 141.5 -28t99.5 -77l-57 -58q-32 44 -84 67t-109 23q-38 0 -69.5 -15.5t-50 -41t-18.5 -53.5q0 -25 18 -44
t45 -32.5t74 -32.5q62 -25 100.5 -46t66 -55.5t27.5 -84.5q0 -54 -28.5 -102.5t-84 -78.5t-130.5 -30q-88 0 -161.5 33.5t-108.5 85.5z" />
    <glyph glyph-name="uni0406" unicode="&#x406;" horiz-adv-x="239" 
d="M171 667h83l-147 -667h-83z" />
    <glyph glyph-name="uni0407" unicode="&#x407;" horiz-adv-x="239" 
d="M171 667h83l-147 -667h-83zM97.5 736.5q-12.5 12.5 -12.5 29.5q0 20 16 35.5t36 15.5q18 0 30 -12t12 -29q0 -20 -16 -36t-36 -16q-17 0 -29.5 12.5zM304 736.5q-12 12.5 -12 29.5q0 20 15.5 35.5t36.5 15.5q17 0 29 -12t12 -29q0 -20 -15.5 -36t-36.5 -16
q-17 0 -29 12.5z" />
    <glyph glyph-name="uni0408" unicode="&#x408;" horiz-adv-x="475" 
d="M28 132q18 -33 50.5 -51.5t75.5 -18.5q60 0 98 37.5t52 102.5l103 465h83l-103 -466q-47 -213 -229 -213q-58 0 -106 21.5t-74 62.5z" />
    <glyph glyph-name="uni0409" unicode="&#x409;" horiz-adv-x="1060" 
d="M66.5 83.5q32.5 21.5 65.5 79.5t71 169l115 335h408l-58 -265h171q85 0 133 -47.5t48 -119.5q0 -55 -28 -109.5t-85.5 -90t-142.5 -35.5h-267l130 593h-251l-92 -267q-48 -141 -96 -214.5t-97.5 -98.5t-115.5 -25l17 74q42 0 74.5 21.5zM596 74h173q48 0 85 20.5
t57.5 55.5t20.5 78q0 44 -29.5 72t-78.5 28h-172z" />
    <glyph glyph-name="uni040A" unicode="&#x40a;" horiz-adv-x="1060" 
d="M564 306h-391l-66 -306h-83l146 667h83l-63 -287h390l63 287h83l-63 -287h182q81 0 126.5 -44.5t45.5 -112.5q0 -53 -26.5 -104.5t-81 -85t-134.5 -33.5h-278zM596 74h186q44 0 78 18.5t52.5 50.5t18.5 71q0 41 -27 66.5t-72 25.5h-185z" />
    <glyph glyph-name="uni040B" unicode="&#x40b;" horiz-adv-x="785" 
d="M631 250q0 105 -128 105q-82 0 -159 -23l-72 -332h-83l131 593h-212l16 74h506l-16 -74h-211l-42 -187q88 23 165 23q95 0 142.5 -43t47.5 -119q0 -29 -8 -67l-44 -200h-83l44 201q6 27 6 49z" />
    <glyph glyph-name="uni040C" unicode="&#x40c;" horiz-adv-x="601" 
d="M243 304l-87 -80l-49 -224h-83l147 667h83l-75 -337l365 337h109l-348 -317l225 -350h-97zM355 723l180 144h80l-201 -144h-59z" />
    <glyph glyph-name="uni040E" unicode="&#x40e;" horiz-adv-x="626" 
d="M709 667l-411 -549q-50 -66 -97 -98t-113 -32q-41 0 -72.5 15t-45.5 38l50 66q31 -45 80 -45q35 0 60 19.5t66 73.5l23 30l-148 482h89l119 -413l300 413h100zM310 728.5q-41 23.5 -63 64.5l42 32q17 -34 48.5 -53t74.5 -19t83 19t71 53l32 -32q-40 -41 -90.5 -64.5
t-103.5 -23.5t-94 23.5z" />
    <glyph glyph-name="uni040F" unicode="&#x40f;" horiz-adv-x="712" 
d="M580 0h-237l-28 -127h-83l28 127h-236l146 667h83l-131 -593h391l130 593h83z" />
    <glyph glyph-name="uni0410" unicode="&#x410;" horiz-adv-x="658" 
d="M478 148h-333l-91 -148h-99l415 667h103l122 -667h-91zM187 222h283l-63 359z" />
    <glyph glyph-name="uni0411" unicode="&#x411;" horiz-adv-x="587" 
d="M588 593h-351l-42 -191h166q55 0 97 -23.5t65 -63t23 -86.5q0 -55 -26.5 -107.5t-83.5 -87t-144 -34.5h-268l146 667h433zM122 74h176q50 0 86.5 20t55.5 54t19 75q0 43 -32 74t-79 31h-169z" />
    <glyph glyph-name="uni0412" unicode="&#x412;" horiz-adv-x="629" 
d="M171 667h277q48 0 87 -19.5t61 -54.5t22 -79q0 -46 -21 -85.5t-57 -64.5t-77 -29q43 -11 70.5 -50.5t27.5 -86.5q0 -51 -25 -96.5t-76.5 -73.5t-126.5 -28h-309zM498.5 567q-29.5 26 -71.5 26h-189l-48 -215h207q68 0 99.5 36.5t31.5 87.5q0 39 -29.5 65zM447 276
q-29 28 -78 28h-196l-51 -230h209q68 0 106.5 38t38.5 92q0 44 -29 72z" />
    <glyph glyph-name="uni0413" unicode="&#x413;" horiz-adv-x="550" 
d="M171 667h437l-16 -74h-354l-131 -593h-83z" />
    <glyph glyph-name="uni0414" unicode="&#x414;" horiz-adv-x="723" 
d="M68.5 91q31.5 20 64 76t70.5 165l115 335h408l-130 -593h60l-43 -197h-83l27 123h-497l-27 -123h-82l41 190q45 4 76.5 24zM209.5 163q-38.5 -60 -83.5 -89h387l114 519h-251l-92 -267q-36 -103 -74.5 -163z" />
    <glyph glyph-name="uni0415" unicode="&#x415;" horiz-adv-x="569" 
d="M171 667h437l-16 -74h-354l-48 -215h347l-16 -74h-348l-51 -230h355l-16 -74h-437z" />
    <glyph glyph-name="uni0416" unicode="&#x416;" horiz-adv-x="909" 
d="M613 350l226 -350h-97l-190 304l-54 -49l-56 -255h-83l56 254l-27 41l-315 -295h-110l379 350l-209 317h97l204 -322l71 322h83l-66 -304l327 304h112z" />
    <glyph glyph-name="uni0417" unicode="&#x417;" horiz-adv-x="584" 
d="M66 174q25 -52 80 -82t122 -30q77 0 122 39.5t45 100.5q0 46 -41.5 74.5t-115.5 28.5h-124l16 74h152q69 0 119 30.5t50 87.5q0 46 -44.5 76t-116.5 30q-103 0 -176 -66l-35 57q39 38 97 60.5t120 22.5q107 0 173 -44.5t66 -123.5q0 -48 -27.5 -85.5t-70.5 -59.5t-88 -26
q55 -10 91.5 -48t36.5 -95t-32 -104t-89 -75t-127 -28q-91 0 -163.5 38t-99.5 101z" />
    <glyph glyph-name="uni0418" unicode="&#x418;" horiz-adv-x="708" 
d="M171 667h83l-118 -534l502 534h85l-147 -667h-84l121 544l-509 -544h-80z" />
    <glyph glyph-name="uni0419" unicode="&#x419;" horiz-adv-x="708" 
d="M171 667h83l-118 -534l502 534h85l-147 -667h-84l121 544l-509 -544h-80zM356 728.5q-41 23.5 -63 64.5l42 32q17 -34 48.5 -53t74.5 -19t83 19t71 53l32 -32q-40 -41 -90.5 -64.5t-103.5 -23.5t-94 23.5z" />
    <glyph glyph-name="uni041A" unicode="&#x41a;" horiz-adv-x="601" 
d="M243 304l-87 -80l-49 -224h-83l147 667h83l-75 -337l365 337h109l-348 -317l225 -350h-97z" />
    <glyph glyph-name="uni041B" unicode="&#x41b;" horiz-adv-x="712" 
d="M66.5 83.5q32.5 21.5 65.5 79.5t71 169l115 335h408l-146 -667h-83l130 593h-251l-92 -267q-48 -141 -96 -214.5t-97.5 -98.5t-115.5 -25l16 74q43 0 75.5 21.5z" />
    <glyph glyph-name="uni041C" unicode="&#x41c;" horiz-adv-x="809" 
d="M718 561l-351 -561h-34l-103 561l-123 -561h-83l147 667h115l94 -514l321 514h123l-147 -667h-83z" />
    <glyph glyph-name="uni041D" unicode="&#x41d;" horiz-adv-x="712" 
d="M564 306h-390l-67 -306h-83l147 667h83l-63 -287h390l63 287h83l-147 -667h-83z" />
    <glyph glyph-name="uni041E" unicode="&#x41e;" horiz-adv-x="765" 
d="M110 481q50 91 136 144t189 53q86 0 156.5 -35t111 -101t40.5 -155q0 -110 -50 -201.5t-136 -144.5t-189 -53q-86 0 -156.5 35t-111 101t-40.5 156q0 110 50 201zM625 501q-30 50 -81 76.5t-114 26.5q-76 0 -140.5 -41.5t-103 -115t-38.5 -163.5q0 -69 29.5 -119.5
t81 -76.5t114.5 -26q75 0 140 41.5t103.5 115t38.5 163.5q0 69 -30 119z" />
    <glyph glyph-name="uni041F" unicode="&#x41f;" horiz-adv-x="712" 
d="M627 593h-390l-130 -593h-83l147 667h556l-147 -667h-83z" />
    <glyph glyph-name="uni0420" unicode="&#x420;" horiz-adv-x="587" 
d="M171 667h248q56 0 98 -23.5t64.5 -63t22.5 -86.5q0 -55 -26.5 -107.5t-83.5 -87t-145 -34.5h-184l-58 -265h-83zM474.5 382q42.5 43 42.5 106q0 44 -31.5 74.5t-79.5 30.5h-168l-57 -254h175q76 0 118.5 43z" />
    <glyph glyph-name="uni0421" unicode="&#x421;" horiz-adv-x="676" 
d="M112.5 487q52.5 91 139 141t183.5 50t167 -42t105 -115l-79 -31q-29 57 -80.5 85.5t-117.5 28.5q-72 0 -137 -40.5t-105 -113.5t-40 -166q0 -65 27.5 -115.5t78.5 -78.5t119 -28q47 0 93.5 19.5t85.5 56.5l61 -46q-50 -53 -114.5 -78.5t-130.5 -25.5q-88 0 -158 36
t-110 102.5t-40 153.5q0 116 52.5 207z" />
    <glyph glyph-name="uni0422" unicode="&#x422;" horiz-adv-x="570" 
d="M320 593h-211l16 74h506l-16 -74h-212l-131 -593h-83z" />
    <glyph glyph-name="uni0423" unicode="&#x423;" horiz-adv-x="626" 
d="M709 667l-411 -549q-50 -66 -97 -98t-113 -32q-41 0 -72.5 15t-45.5 38l50 66q31 -45 80 -45q35 0 60 19.5t66 73.5l23 30l-148 482h89l119 -413l300 413h100z" />
    <glyph glyph-name="uni0424" unicode="&#x424;" horiz-adv-x="806" 
d="M734 218.5q-49 -67.5 -135.5 -108.5t-193.5 -45l-15 -65h-83l16 67q-126 10 -191.5 70.5t-65.5 160.5q0 82 49 149.5t135 108.5t194 45l15 66h83l-15 -68q124 -10 190 -71t66 -161q0 -81 -49 -148.5zM201.5 189.5q48.5 -42.5 137.5 -49.5l88 386q-82 -6 -144 -36.5
t-96 -80.5t-34 -111q0 -66 48.5 -108.5zM565.5 176.5q62.5 30.5 96.5 80t34 110.5q0 67 -49 109.5t-137 49.5l-88 -386q81 6 143.5 36.5z" />
    <glyph glyph-name="uni0425" unicode="&#x425;" horiz-adv-x="652" 
d="M337 282l-272 -282h-107l336 347l-174 320h95l142 -265l252 265h108l-317 -330l185 -337h-94z" />
    <glyph glyph-name="uni0426" unicode="&#x426;" horiz-adv-x="723" 
d="M24 0l146 667h83l-131 -593h391l130 593h83l-130 -593h60l-43 -197h-83l27 123h-533z" />
    <glyph glyph-name="uni0427" unicode="&#x427;" horiz-adv-x="611" 
d="M188 445q0 -52 32.5 -79t96.5 -27q81 0 158 23l67 305h83l-146 -667h-83l63 288q-90 -23 -166 -23q-95 0 -142.5 43t-47.5 119q0 29 8 67l39 173h83l-39 -174q-6 -25 -6 -48z" />
    <glyph glyph-name="uni0428" unicode="&#x428;" horiz-adv-x="958" 
d="M826 0h-802l146 667h83l-131 -593h277l131 593h83l-131 -593h277l130 593h83z" />
    <glyph glyph-name="uni0429" unicode="&#x429;" horiz-adv-x="970" 
d="M842 74h61l-43 -197h-83l27 123h-780l146 667h83l-131 -593h277l131 593h83l-131 -593h277l130 593h83z" />
    <glyph glyph-name="uni042A" unicode="&#x42a;" horiz-adv-x="752" 
d="M320 593h-212l16 74h294l-58 -265h166q56 0 98 -23.5t64.5 -63t22.5 -86.5q0 -55 -26.5 -107.5t-83.5 -87t-145 -34.5h-267zM288 74h173q77 0 120 43t43 106q0 43 -32 74t-80 31h-168z" />
    <glyph glyph-name="uni042B" unicode="&#x42b;" horiz-adv-x="788" 
d="M195 402h166q56 0 98 -23.5t64.5 -63t22.5 -86.5q0 -55 -26.5 -107.5t-84 -87t-144.5 -34.5h-267l146 667h83zM719 667h83l-146 -667h-83zM122 74h174q76 0 119.5 43t43.5 106q0 43 -32 74t-80 31h-168z" />
    <glyph glyph-name="uni042C" unicode="&#x42c;" horiz-adv-x="587" 
d="M195 402h166q56 0 98 -23.5t64.5 -63t22.5 -86.5q0 -55 -26.5 -107.5t-84 -87t-144.5 -34.5h-267l146 667h83zM122 74h174q76 0 119.5 43t43.5 106q0 43 -32 74t-80 31h-168z" />
    <glyph glyph-name="uni042D" unicode="&#x42d;" horiz-adv-x="676" 
d="M505 642q70 -36 109.5 -102.5t39.5 -153.5t-30 -160.5t-84 -127.5q-52 -52 -120 -81t-141 -29q-96 0 -166 42t-106 115l79 31q29 -57 81 -85.5t117 -28.5q52 0 101.5 21.5t88.5 61.5q63 65 84 159h-373l16 74h365q-2 29 -5 43q-11 83 -69.5 133t-150.5 50
q-47 0 -93 -19.5t-85 -56.5l-62 46q50 53 114.5 78.5t130.5 25.5q89 0 159 -36z" />
    <glyph glyph-name="uni042E" unicode="&#x42e;" horiz-adv-x="992" 
d="M818 643q70 -35 110.5 -100.5t40.5 -155.5q0 -110 -50 -201.5t-136 -144.5t-189 -53q-86 0 -156.5 35t-111 101t-40.5 156l1 26h-114l-66 -306h-83l146 667h83l-63 -287h108q20 86 72.5 154t128 106t162.5 38t157 -35zM739 103.5q65 41.5 103.5 115t38.5 163.5
q0 69 -30 119t-81 76.5t-114 26.5q-76 0 -140.5 -41.5t-103 -115t-38.5 -163.5q0 -69 30 -119.5t81 -76.5t114 -26q75 0 140 41.5z" />
    <glyph glyph-name="uni042F" unicode="&#x42f;" horiz-adv-x="608" 
d="M234 271q-53 13 -93 56.5t-40 109.5q0 58 28 110.5t85.5 86t142.5 33.5h267l-148 -667h-83l59 265h-124l-229 -265h-107zM524 593h-175q-50 0 -86.5 -20t-55.5 -54t-19 -75q0 -45 33.5 -75.5t82.5 -30.5h164z" />
    <glyph glyph-name="uni0430" unicode="&#x430;" horiz-adv-x="575" 
d="M478 483h75l-107 -483h-75l15 69q-31 -39 -71 -60t-88 -21q-85 0 -136 53t-51 146q0 80 31.5 150.5t89 114t132.5 43.5q55 0 99.5 -23.5t68.5 -64.5zM156 94.5q37 -39.5 98 -39.5q43 0 83 23.5t64 58.5l48 213q-19 34 -57.5 56t-88.5 22q-53 0 -95 -32t-65.5 -84.5
t-23.5 -110.5q0 -67 37 -106.5z" />
    <glyph glyph-name="uni0431" unicode="&#x431;" horiz-adv-x="577" 
d="M54 300.5q14 51.5 30 84.5q48 110 122 165t190 69q70 11 99.5 22t32.5 26h73q-12 -53 -70.5 -76.5t-143.5 -34.5q-104 -14 -158.5 -55t-84.5 -109q36 48 84.5 75.5t104.5 27.5q92 0 144.5 -58.5t52.5 -156.5q0 -76 -35 -143t-97 -108t-137 -41q-102 0 -161.5 58.5
t-59.5 155.5q0 47 14 98.5zM413 387.5q-38 40.5 -106 40.5q-53 0 -96 -31.5t-67.5 -83t-24.5 -108.5q0 -69 38 -109.5t106 -40.5q53 0 96 31.5t67.5 83t24.5 108.5q0 69 -38 109.5z" />
    <glyph glyph-name="uni0432" unicode="&#x432;" horiz-adv-x="554" 
d="M127 483h246q58 0 93 -28t35 -78q0 -49 -29.5 -85t-79.5 -47q31 -12 49.5 -38t18.5 -62q0 -40 -19 -73t-55 -52.5t-85 -19.5h-280zM399.5 304q22.5 23 22.5 55q0 28 -20.5 43t-55.5 15h-159l-30 -136h183q37 0 59.5 23zM359.5 90q25.5 24 25.5 60q0 29 -20 47t-56 18
h-166l-33 -149h183q41 0 66.5 24z" />
    <glyph glyph-name="uni0433" unicode="&#x433;" horiz-adv-x="436" 
d="M187 417l-91 -417h-75l106 483h338l-15 -66h-263z" />
    <glyph glyph-name="uni0434" unicode="&#x434;" horiz-adv-x="561" 
d="M44 107q30 38 65 138l84 238h336l-92 -417h56l-42 -189h-75l28 123h-365l-27 -123h-74l39 185q37 7 67 45zM132 128q-26 -41 -57 -62h287l77 351h-195l-62 -181q-24 -67 -50 -108z" />
    <glyph glyph-name="uni0435" unicode="&#x435;" horiz-adv-x="563" 
d="M76 348.5q36 67.5 98.5 107t137.5 39.5q62 0 109.5 -27t73 -75t25.5 -109q0 -30 -8 -67h-394l-1 -23q0 -39 19 -71.5t56 -52.5t89 -20q36 0 73 12t66 35l25 -52q-33 -26 -78 -41.5t-91 -15.5q-109 0 -172.5 58t-63.5 156q0 79 36 146.5zM452 291q0 62 -38.5 102
t-108.5 40q-43 0 -81.5 -22t-64.5 -59t-33 -80h324q2 8 2 19z" />
    <glyph glyph-name="uni0436" unicode="&#x436;" horiz-adv-x="711" 
d="M485 264l158 -264h-91l-128 220l-44 -36l-41 -184h-75l40 184l-25 30l-218 -214h-101l273 264l-166 219h90l165 -217l48 217h75l-45 -205l247 205h101z" />
    <glyph glyph-name="uni0437" unicode="&#x437;" horiz-adv-x="514" 
d="M468 302.5q-26 -29.5 -64 -45t-72 -17.5q44 -6 78 -33t34 -70q0 -44 -31.5 -78t-83.5 -52.5t-112 -18.5q-74 0 -129 22t-85 60l46 45q59 -65 168 -65q62 0 106 26t44 65q0 35 -34.5 54t-90.5 19h-116l14 61h108q75 0 120 22t45 67q0 33 -30.5 51t-88.5 18
q-102 0 -188 -61l-32 49q97 74 226 74q98 0 146 -32.5t48 -89.5q0 -41 -26 -70.5z" />
    <glyph glyph-name="uni0438" unicode="&#x438;" horiz-adv-x="552" 
d="M127 483h75l-81 -369l334 369h74l-106 -483h-75l82 376l-337 -376h-72z" />
    <glyph glyph-name="uni0439" unicode="&#x439;" horiz-adv-x="552" 
d="M127 483h75l-81 -369l334 369h74l-106 -483h-75l82 376l-337 -376h-72zM241 561.5q-41 23.5 -63 64.5l42 32q17 -34 48.5 -53t74.5 -19t83 19t71 53l32 -32q-40 -41 -90.5 -64.5t-103.5 -23.5t-94 23.5z" />
    <glyph glyph-name="uni043A" unicode="&#x43a;" horiz-adv-x="514" 
d="M227 220l-101 -82l-30 -138h-75l107 483h75l-56 -253l306 253h99l-263 -219l157 -264h-91z" />
    <glyph glyph-name="uni043B" unicode="&#x43b;" horiz-adv-x="552" 
d="M40.5 95q31.5 45 68.5 150l84 238h336l-106 -483h-75l91 417h-195l-62 -181q-45 -133 -97.5 -190.5t-123.5 -57.5l14 62q34 0 65.5 45z" />
    <glyph glyph-name="uni043C" unicode="&#x43c;" horiz-adv-x="643" 
d="M521 379l-239 -379h-28l-75 379l-83 -379h-75l106 483h96l68 -358l225 358h104l-106 -483h-75z" />
    <glyph glyph-name="uni043D" unicode="&#x43d;" horiz-adv-x="551" 
d="M131 483h75l-45 -198h252l45 198h75l-110 -483h-75l50 219h-252l-50 -219h-75z" />
    <glyph glyph-name="uni043E" unicode="&#x43e;" 
d="M75 345.5q35 67.5 96.5 108.5t137.5 41q67 0 117 -27t77 -75.5t27 -112.5q0 -76 -35 -143t-97 -108t-137 -41q-102 0 -161.5 58.5t-59.5 155.5q0 76 35 143.5zM413 387.5q-38 40.5 -106 40.5q-53 0 -96 -31.5t-67.5 -83t-24.5 -108.5q0 -69 38 -109.5t106 -40.5
q53 0 96 31.5t67.5 83t24.5 108.5q0 69 -38 109.5z" />
    <glyph glyph-name="uni043F" unicode="&#x43f;" horiz-adv-x="551" 
d="M443 417h-252l-95 -417h-75l110 483h402l-110 -483h-75z" />
    <glyph glyph-name="uni0440" unicode="&#x440;" 
d="M55 -184h-75l148 667h75l-16 -69q66 81 160 81q84 0 135.5 -53t51.5 -146q0 -79 -31.5 -150t-89 -114.5t-132.5 -43.5q-56 0 -99.5 23.5t-68.5 64.5zM418 388.5q-37 39.5 -98 39.5q-44 0 -83 -23.5t-65 -59.5l-47 -212q19 -35 57.5 -56.5t88.5 -21.5q53 0 95 32
t65.5 84.5t23.5 110.5q0 67 -37 106.5z" />
    <glyph glyph-name="uni0441" unicode="&#x441;" horiz-adv-x="495" 
d="M76 349.5q36 66.5 98.5 106t137.5 39.5q65 0 110 -23.5t71 -66.5l-57 -43q-18 32 -50.5 49t-71.5 17q-58 0 -103 -31t-69 -82t-24 -110q0 -72 42.5 -111t108.5 -39q36 0 67.5 15.5t54.5 41.5l43 -50q-72 -74 -172 -74q-65 0 -115.5 26t-78.5 75t-28 115q0 79 36 145.5z
" />
    <glyph glyph-name="uni0442" unicode="&#x442;" horiz-adv-x="402" 
d="M200 417h-140l15 66h356l-15 -66h-141l-91 -417h-75z" />
    <glyph glyph-name="uni0443" unicode="&#x443;" horiz-adv-x="490" 
d="M27 -126q21 0 37.5 10.5t34.5 37.5l49 75l-92 486h79l72 -396l249 396h84l-372 -581q-33 -51 -68.5 -74.5t-82.5 -23.5q-36 0 -63 11l26 67q18 -8 47 -8z" />
    <glyph glyph-name="uni0444" unicode="&#x444;" horiz-adv-x="798" 
d="M454 667h75l-56 -254q58 82 138 82q69 0 104.5 -52.5t35.5 -132.5q0 -78 -28 -152.5t-78 -122t-113 -47.5q-44 0 -80 23t-54 62l-56 -257h-75l55 254q-56 -82 -138 -82q-69 0 -104.5 52.5t-35.5 132.5q0 78 28 152.5t78 122t113 47.5q45 0 80.5 -23t53.5 -62zM146 90
q25 -35 71 -35q34 0 64 21t55 56l48 218q-10 32 -39.5 55t-67.5 23q-44 0 -80 -36.5t-56 -93t-20 -114.5q0 -59 25 -94zM649 393q-25 35 -71 35q-34 0 -64 -21t-55 -56l-48 -218q10 -32 39.5 -55t67.5 -23q44 0 80 36.5t56 93t20 114.5q0 59 -25 94z" />
    <glyph glyph-name="uni0445" unicode="&#x445;" horiz-adv-x="486" 
d="M236 198l-189 -198h-89l239 248l-122 235h83l93 -184l176 184h90l-228 -235l132 -248h-83z" />
    <glyph glyph-name="uni0446" unicode="&#x446;" horiz-adv-x="561" 
d="M21 0l106 483h75l-92 -417h252l92 417h75l-92 -417h56l-42 -189h-75l28 123h-383z" />
    <glyph glyph-name="uni0447" unicode="&#x447;" horiz-adv-x="541" 
d="M162 347q-5 -20 -5 -42q0 -40 25.5 -56.5t77.5 -16.5q37 0 72.5 7t60.5 19l50 225h75l-106 -483h-75l43 197q-31 -14 -73 -23t-82 -9q-77 0 -113.5 25.5t-36.5 80.5q0 18 7 53l35 159h75z" />
    <glyph glyph-name="uni0448" unicode="&#x448;" horiz-adv-x="783" 
d="M654 0h-633l106 483h75l-92 -417h204l92 417h75l-92 -417h204l92 417h75z" />
    <glyph glyph-name="uni0449" unicode="&#x449;" horiz-adv-x="798" 
d="M668 66h56l-42 -189h-75l28 123h-614l106 483h75l-92 -417h204l92 417h75l-92 -417h204l92 417h75z" />
    <glyph glyph-name="uni044A" unicode="&#x44a;" horiz-adv-x="610" 
d="M200 417h-140l15 66h215l-42 -187h164q66 0 102 -34.5t36 -89.5q0 -45 -22 -84.5t-62.5 -63.5t-94.5 -24h-262zM198 66h175q45 0 73 28t28 71q0 30 -19.5 47.5t-56.5 17.5h-164z" />
    <glyph glyph-name="uni044B" unicode="&#x44b;" horiz-adv-x="712" 
d="M160 296h157q67 0 106 -35t39 -93q0 -45 -21.5 -83.5t-61.5 -61.5t-93 -23h-265l106 483h75zM614 483h75l-106 -483h-75zM110 66h179q43 0 69.5 27.5t26.5 68.5q0 32 -21 50t-60 18h-158z" />
    <glyph glyph-name="uni044C" unicode="&#x44c;" horiz-adv-x="522" 
d="M160 296h157q67 0 106 -35t39 -93q0 -45 -21.5 -83.5t-61.5 -61.5t-93 -23h-265l106 483h75zM110 66h179q43 0 69.5 27.5t26.5 68.5q0 32 -21 50t-60 18h-158z" />
    <glyph glyph-name="uni044D" unicode="&#x44d;" horiz-adv-x="495" 
d="M363.5 469q50.5 -26 79 -75t28.5 -115q0 -79 -36 -145.5t-98.5 -106t-137.5 -39.5q-65 0 -110 23.5t-71 66.5l53 40q19 -32 52.5 -50t72.5 -18q71 0 121.5 45.5t67.5 116.5h-246l15 65h239q-1 74 -43 114.5t-108 40.5q-37 0 -70 -16t-55 -42l-40 47q72 74 171 74
q65 0 115.5 -26z" />
    <glyph glyph-name="uni044E" unicode="&#x44e;" horiz-adv-x="767" 
d="M621 468q50 -27 77 -75.5t27 -112.5q0 -76 -35 -143t-97 -108t-137 -41q-103 0 -162.5 58.5t-59.5 155.5l1 14h-92l-47 -216h-75l106 483h75l-44 -201h87q16 60 53 108.5t90.5 76.5t115.5 28q67 0 117 -27zM553.5 86.5q43.5 31.5 68 83t24.5 108.5q0 69 -38 109.5
t-106 40.5q-53 0 -96.5 -31.5t-68 -83t-24.5 -108.5q0 -69 38.5 -109.5t105.5 -40.5q53 0 96.5 31.5z" />
    <glyph glyph-name="uni044F" unicode="&#x44f;" horiz-adv-x="547" 
d="M178 194q-44 11 -70 42t-26 79q0 45 21.5 83.5t61.5 61.5t93 23h266l-106 -483h-75l41 187h-128l-160 -187h-91zM434 417h-179q-43 0 -69.5 -27.5t-26.5 -68.5q0 -31 20 -49.5t55 -18.5h164z" />
    <glyph glyph-name="uni0451" unicode="&#x451;" horiz-adv-x="563" 
d="M76 348.5q36 67.5 98.5 107t137.5 39.5q62 0 109.5 -27t73 -75t25.5 -109q0 -30 -8 -67h-394l-1 -23q0 -39 19 -71.5t56 -52.5t89 -20q36 0 73 12t66 35l25 -52q-33 -26 -78 -41.5t-91 -15.5q-109 0 -172.5 58t-63.5 156q0 79 36 146.5zM452 291q0 62 -38.5 102
t-108.5 40q-43 0 -81.5 -22t-64.5 -59t-33 -80h324q2 8 2 19zM226.5 569.5q-12.5 12.5 -12.5 29.5q0 20 16 35.5t36 15.5q18 0 30 -12t12 -29q0 -20 -16 -36t-36 -16q-17 0 -29.5 12.5zM433 569.5q-12 12.5 -12 29.5q0 20 15.5 35.5t36.5 15.5q17 0 29 -12t12 -29
q0 -20 -15.5 -36t-36.5 -16q-17 0 -29 12.5z" />
    <glyph glyph-name="uni0452" unicode="&#x452;" horiz-adv-x="554" 
d="M214 -123q18 -9 40 -9q65 0 85 85l80 364q5 17 5 34q0 39 -27 58t-68 19q-42 0 -82 -21.5t-71 -54.5l-78 -352h-75l118 535h-68l10 48h69l18 84h75l-18 -84h155l-10 -48h-156l-27 -122q86 82 170 82q64 0 104 -30.5t40 -89.5q0 -17 -5 -40l-84 -382q-16 -74 -53.5 -111.5
t-100.5 -37.5q-37 0 -65 12z" />
    <glyph glyph-name="uni0453" unicode="&#x453;" horiz-adv-x="436" 
d="M187 417l-91 -417h-75l106 483h338l-15 -66h-263zM260 556l180 144h80l-201 -144h-59z" />
    <glyph glyph-name="uni0454" unicode="&#x454;" horiz-adv-x="495" 
d="M196 389q-50 -44 -69 -112h246l-15 -65h-240v-4q0 -74 42 -115.5t109 -41.5q36 0 69.5 16t55.5 42l40 -47q-72 -74 -172 -74q-65 0 -115.5 26t-78.5 75t-28 115q0 79 36 145.5t98.5 106t137.5 39.5q65 0 110 -23.5t71 -66.5l-54 -40q-18 32 -51.5 50t-72.5 18
q-69 0 -119 -44z" />
    <glyph glyph-name="uni0455" unicode="&#x455;" horiz-adv-x="465" 
d="M50 124q21 -31 65.5 -53t95.5 -22q50 0 80.5 25t30.5 60q0 27 -26 44t-81 39q-48 19 -77 33.5t-49.5 38.5t-20.5 59q0 40 21.5 73.5t63 53.5t98.5 20q60 0 109.5 -22.5t74.5 -56.5l-43 -49q-17 28 -58.5 47.5t-86.5 19.5q-47 0 -75.5 -21t-28.5 -53q0 -25 25 -41t78 -37
q48 -18 78 -33t51.5 -40.5t21.5 -62.5q0 -42 -22.5 -78.5t-66 -58t-101.5 -21.5q-65 0 -118 22t-86 63z" />
    <glyph glyph-name="uni0456" unicode="&#x456;" horiz-adv-x="225" 
d="M158 637q18 16 39 16q19 0 32.5 -13t13.5 -31q0 -25 -18 -41t-39 -16q-20 0 -33 12.5t-13 31.5q0 25 18 41zM128 483h75l-107 -483h-75z" />
    <glyph glyph-name="uni0457" unicode="&#x457;" horiz-adv-x="225" 
d="M128 483h75l-107 -483h-75zM54.5 569.5q-12.5 12.5 -12.5 29.5q0 20 16 35.5t36 15.5q18 0 30 -12t12 -29q0 -20 -16 -36t-36 -16q-17 0 -29.5 12.5zM261 569.5q-12 12.5 -12 29.5q0 20 15.5 35.5t36.5 15.5q17 0 29 -12t12 -29q0 -20 -15.5 -36t-36.5 -16
q-17 0 -29 12.5z" />
    <glyph glyph-name="uni0458" unicode="&#x458;" horiz-adv-x="225" 
d="M158 637q18 16 39 16q19 0 32.5 -13t13.5 -31q0 -25 -18 -41t-39 -16q-20 0 -33 12.5t-13 31.5q0 25 18 41zM-114 -123q18 -9 39 -9q65 0 85 85l118 530h75l-118 -530q-16 -74 -53 -111.5t-100 -37.5q-37 0 -65 12z" />
    <glyph glyph-name="uni0459" unicode="&#x459;" horiz-adv-x="849" 
d="M40.5 95q31.5 45 68.5 150l84 238h336l-42 -187h157q67 0 106 -35t39 -93q0 -45 -21.5 -83.5t-61.5 -61.5t-93 -23h-265l91 417h-195l-62 -181q-45 -133 -97.5 -190.5t-123.5 -57.5l14 62q34 0 65.5 45zM437 66h179q43 0 69.5 27.5t26.5 68.5q0 32 -21.5 50t-60.5 18
h-157z" />
    <glyph glyph-name="uni045A" unicode="&#x45a;" horiz-adv-x="849" 
d="M127 483h75l-44 -201h251l45 201h75l-45 -201h166q64 0 101 -33t37 -88q0 -43 -20.5 -80t-58.5 -59t-88 -22h-273l47 216h-252l-47 -216h-75zM437 66h186q40 0 63.5 25t23.5 63q0 29 -19 45.5t-55 16.5h-166z" />
    <glyph glyph-name="uni045B" unicode="&#x45b;" horiz-adv-x="554" 
d="M464 463.5q39 -31.5 39 -88.5q0 -15 -5 -40l-73 -335h-75l69 317q6 27 6 33q0 40 -27 59t-73 19q-39 0 -78.5 -22t-70.5 -55l-78 -351h-75l118 535h-72l9 48h73l19 84h75l-19 -84h151l-9 -48h-152l-27 -122q86 82 170 82q66 0 105 -31.5z" />
    <glyph glyph-name="uni045C" unicode="&#x45c;" horiz-adv-x="514" 
d="M227 220l-101 -82l-30 -138h-75l107 483h75l-56 -253l306 253h99l-263 -219l157 -264h-91zM276 556l180 144h80l-201 -144h-59z" />
    <glyph glyph-name="uni045E" unicode="&#x45e;" horiz-adv-x="490" 
d="M27 -126q21 0 37.5 10.5t34.5 37.5l49 75l-92 486h79l72 -396l249 396h84l-372 -581q-33 -51 -68.5 -74.5t-82.5 -23.5q-36 0 -63 11l26 67q18 -8 47 -8zM208 561.5q-41 23.5 -63 64.5l42 32q17 -34 48.5 -53t74.5 -19t83 19t71 53l32 -32q-40 -41 -90.5 -64.5
t-103.5 -23.5t-94 23.5z" />
    <glyph glyph-name="uni045F" unicode="&#x45f;" horiz-adv-x="552" 
d="M423 0h-164l-27 -126h-75l27 126h-163l106 483h75l-92 -417h252l92 417h75z" />
    <glyph glyph-name="uni0490" unicode="&#x490;" horiz-adv-x="550" 
d="M170 667h354l27 123h83l-42 -197h-355l-130 -593h-83z" />
    <glyph glyph-name="uni0491" unicode="&#x491;" horiz-adv-x="436" 
d="M21 0l106 483h263l28 126h75l-43 -192h-263l-91 -417h-75z" />
    <glyph glyph-name="uni0492" unicode="&#x492;" horiz-adv-x="550" 
d="M238 593l-50 -225h197l-15 -69h-197l-66 -299h-83l66 299h-68l15 69h68l66 299h437l-16 -74h-354z" />
    <glyph glyph-name="uni0493" unicode="&#x493;" horiz-adv-x="436" 
d="M187 417l-31 -144h136l-12 -56h-136l-48 -217h-75l48 217h-63l12 56h63l46 210h338l-15 -66h-263z" />
    <glyph glyph-name="uni049A" unicode="&#x49a;" horiz-adv-x="617" 
d="M485 74h75l-43 -197h-83l27 123h-28l-190 304l-87 -80l-49 -224h-83l147 667h83l-75 -337l365 337h109l-348 -317z" />
    <glyph glyph-name="uni049B" unicode="&#x49b;" horiz-adv-x="537" 
d="M409 66h74l-42 -189h-75l28 123h-39l-128 220l-101 -82l-30 -138h-75l107 483h75l-56 -253l306 253h99l-263 -219z" />
    <glyph glyph-name="uni04B2" unicode="&#x4b2;" horiz-adv-x="678" 
d="M546 74h75l-44 -197h-83l27 123h-30l-154 282l-272 -282h-107l336 347l-174 320h95l142 -265l252 265h108l-317 -330z" />
    <glyph glyph-name="uni04B3" unicode="&#x4b3;" horiz-adv-x="515" 
d="M387 66h74l-41 -189h-75l27 123h-34l-102 198l-189 -198h-89l239 248l-122 235h83l93 -184l176 184h90l-228 -235z" />
    <glyph glyph-name="uni04E8" unicode="&#x4e8;" horiz-adv-x="765" 
d="M591.5 643q70.5 -35 111 -101t40.5 -155q0 -110 -50 -201.5t-136 -144.5t-189 -53q-86 0 -156.5 35t-111 101t-40.5 156q0 110 50 201t136 144t189 53q86 0 156.5 -35zM312.5 575.5q-55.5 -28.5 -95.5 -79.5t-57 -118h495v4q0 69 -30 119t-81 76.5t-114 26.5
q-62 0 -117.5 -28.5zM494 92.5q57 30.5 97.5 85.5t55.5 126h-499v-20q0 -69 29.5 -119.5t81 -76.5t114.5 -26q64 0 121 30.5z" />
    <glyph glyph-name="uni04E9" unicode="&#x4e9;" 
d="M426 468q50 -27 77 -75.5t27 -112.5q0 -76 -35 -143t-97 -108t-137 -41q-102 0 -161.5 58.5t-59.5 155.5q0 76 35 143.5t96.5 108.5t137.5 41q67 0 117 -27zM194.5 383.5q-48.5 -44.5 -66.5 -111.5h323v6q0 69 -38 109.5t-106 40.5q-64 0 -112.5 -44.5zM377.5 101.5
q49.5 46.5 66.5 115.5h-325v-12q0 -69 38 -109.5t106 -40.5q65 0 114.5 46.5z" />
    <glyph glyph-name="uni1E02" unicode="&#x1e02;" horiz-adv-x="629" 
d="M171 667h277q48 0 87 -19.5t61 -54.5t22 -79q0 -46 -21 -85.5t-57 -64.5t-77 -29q43 -11 70.5 -50.5t27.5 -86.5q0 -51 -25 -96.5t-76.5 -73.5t-126.5 -28h-309zM498.5 567q-29.5 26 -71.5 26h-189l-48 -215h207q68 0 99.5 36.5t31.5 87.5q0 39 -29.5 65zM447 276
q-29 28 -78 28h-196l-51 -230h209q68 0 106.5 38t38.5 92q0 44 -29 72zM394 734q-12 12 -12 30q0 21 15.5 36.5t37.5 15.5q18 0 30 -12t12 -30q0 -21 -16 -36.5t-37 -15.5q-18 0 -30 12z" />
    <glyph glyph-name="uni1E03" unicode="&#x1e03;" horiz-adv-x="575" 
d="M96 0h-75l147 667h75l-56 -253q66 81 160 81q84 0 135.5 -53t51.5 -146q0 -79 -31.5 -150t-89 -114.5t-132.5 -43.5q-56 0 -99.5 23.5t-68.5 64.5zM418 388.5q-37 39.5 -98 39.5q-44 0 -83 -23.5t-65 -59.5l-47 -212q19 -35 57.5 -56.5t88.5 -21.5q53 0 95 32t65.5 84.5
t23.5 110.5q0 67 -37 106.5zM378 734q-12 12 -12 30q0 21 15.5 36.5t37.5 15.5q18 0 30 -12t12 -30q0 -21 -16 -36.5t-37 -15.5q-18 0 -30 12z" />
    <glyph glyph-name="uni1E0A" unicode="&#x1e0a;" horiz-adv-x="700" 
d="M531.5 630.5q63.5 -36.5 101.5 -102t38 -146.5q0 -96 -46.5 -183.5t-141.5 -143t-232 -55.5h-227l147 667h223q74 0 137.5 -36.5zM432.5 115q72.5 41 112 110.5t39.5 152.5q0 61 -27 110t-74 77t-105 28h-140l-116 -519h143q95 0 167.5 41zM435 734q-12 12 -12 30
q0 21 15.5 36.5t37.5 15.5q18 0 30 -12t12 -30q0 -21 -16 -36.5t-37 -15.5q-18 0 -30 12z" />
    <glyph glyph-name="uni1E0B" unicode="&#x1e0b;" horiz-adv-x="575" 
d="M519 667h75l-148 -667h-75l15 69q-31 -39 -71 -60t-88 -21q-85 0 -136 53t-51 146q0 80 31.5 150.5t89 114t132.5 43.5q55 0 99.5 -23.5t68.5 -64.5zM156 94.5q37 -39.5 98 -39.5q43 0 83 23.5t64 58.5l48 213q-19 34 -57.5 56t-88.5 22q-53 0 -95 -32t-65.5 -84.5
t-23.5 -110.5q0 -67 37 -106.5zM361 734q-12 12 -12 30q0 21 15.5 36.5t37.5 15.5q18 0 30 -12t12 -30q0 -21 -16 -36.5t-37 -15.5q-18 0 -30 12z" />
    <glyph glyph-name="uni1E1E" unicode="&#x1e1e;" horiz-adv-x="550" 
d="M171 667h437l-16 -74h-354l-48 -215h347l-16 -74h-348l-66 -304h-83zM376 734q-12 12 -12 30q0 21 15.5 36.5t37.5 15.5q18 0 30 -12t12 -30q0 -21 -16 -36.5t-37 -15.5q-18 0 -30 12z" />
    <glyph glyph-name="uni1E1F" unicode="&#x1e1f;" horiz-adv-x="283" 
d="M134 417h-80l15 66h80l8 37q17 76 56.5 116.5t101.5 40.5q50 0 87 -23l-29 -54q-19 15 -52 15q-36 0 -57.5 -23.5t-31.5 -71.5l-8 -37h98l-15 -66h-98l-92 -417h-75zM302 734q-12 12 -12 30q0 21 15.5 36.5t37.5 15.5q18 0 30 -12t12 -30q0 -21 -16 -36.5t-37 -15.5
q-18 0 -30 12z" />
    <glyph glyph-name="uni1E22" unicode="&#x1e22;" horiz-adv-x="712" 
d="M564 306h-390l-67 -306h-83l147 667h83l-63 -287h390l63 287h83l-147 -667h-83zM435 734q-12 12 -12 30q0 21 15.5 36.5t37.5 15.5q18 0 30 -12t12 -30q0 -21 -16 -36.5t-37 -15.5q-18 0 -30 12z" />
    <glyph glyph-name="uni1E23" unicode="&#x1e23;" horiz-adv-x="552" 
d="M417 317q6 27 6 33q0 40 -27 59t-73 19q-39 0 -78.5 -22t-70.5 -55l-78 -351h-75l147 667h75l-56 -254q86 82 171 82q65 0 104.5 -31.5t39.5 -88.5q0 -8 -1.5 -19.5t-4.5 -20.5l-73 -335h-75zM359 734q-12 12 -12 30q0 21 15.5 36.5t37.5 15.5q18 0 30 -12t12 -30
q0 -21 -16 -36.5t-37 -15.5q-18 0 -30 12z" />
    <glyph glyph-name="uni1E56" unicode="&#x1e56;" horiz-adv-x="587" 
d="M171 667h248q56 0 98 -23.5t64.5 -63t22.5 -86.5q0 -55 -26.5 -107.5t-83.5 -87t-145 -34.5h-184l-58 -265h-83zM474.5 382q42.5 43 42.5 106q0 44 -31.5 74.5t-79.5 30.5h-168l-57 -254h175q76 0 118.5 43zM387 734q-12 12 -12 30q0 21 15.5 36.5t37.5 15.5q18 0 30 -12
t12 -30q0 -21 -16 -36.5t-37 -15.5q-18 0 -30 12z" />
    <glyph glyph-name="uni1E57" unicode="&#x1e57;" 
d="M55 -184h-75l148 667h75l-16 -69q66 81 160 81q84 0 135.5 -53t51.5 -146q0 -79 -31.5 -150t-89 -114.5t-132.5 -43.5q-56 0 -99.5 23.5t-68.5 64.5zM418 388.5q-37 39.5 -98 39.5q-44 0 -83 -23.5t-65 -59.5l-47 -212q19 -35 57.5 -56.5t88.5 -21.5q53 0 95 32
t65.5 84.5t23.5 110.5q0 67 -37 106.5zM341 567q-12 12 -12 30q0 21 15.5 36.5t37.5 15.5q18 0 30 -12t12 -30q0 -21 -16 -36.5t-37 -15.5q-18 0 -30 12z" />
    <glyph glyph-name="uni1E60" unicode="&#x1e60;" horiz-adv-x="586" 
d="M73 167q35 -49 93 -77t127 -28q49 0 82 18.5t49 47t16 58.5q0 40 -35 64.5t-106 52.5q-62 25 -99.5 45t-64 53t-26.5 82q0 51 30.5 96t84.5 71.5t121 26.5q77 0 141.5 -28t99.5 -77l-57 -58q-32 44 -84 67t-109 23q-38 0 -69.5 -15.5t-50 -41t-18.5 -53.5q0 -25 18 -44
t45 -32.5t74 -32.5q62 -25 100.5 -46t66 -55.5t27.5 -84.5q0 -54 -28.5 -102.5t-84 -78.5t-130.5 -30q-88 0 -161.5 33.5t-108.5 85.5zM377 734q-12 12 -12 30q0 21 15.5 36.5t37.5 15.5q18 0 30 -12t12 -30q0 -21 -16 -36.5t-37 -15.5q-18 0 -30 12z" />
    <glyph glyph-name="uni1E61" unicode="&#x1e61;" horiz-adv-x="465" 
d="M50 124q21 -31 65.5 -53t95.5 -22q50 0 80.5 25t30.5 60q0 27 -26 44t-81 39q-48 19 -77 33.5t-49.5 38.5t-20.5 59q0 40 21.5 73.5t63 53.5t98.5 20q60 0 109.5 -22.5t74.5 -56.5l-43 -49q-17 28 -58.5 47.5t-86.5 19.5q-47 0 -75.5 -21t-28.5 -53q0 -25 25 -41t78 -37
q48 -18 78 -33t51.5 -40.5t21.5 -62.5q0 -42 -22.5 -78.5t-66 -58t-101.5 -21.5q-65 0 -118 22t-86 63zM275 567q-12 12 -12 30q0 21 15.5 36.5t37.5 15.5q18 0 30 -12t12 -30q0 -21 -16 -36.5t-37 -15.5q-18 0 -30 12z" />
    <glyph glyph-name="uni1E6A" unicode="&#x1e6a;" horiz-adv-x="570" 
d="M320 593h-211l16 74h506l-16 -74h-212l-131 -593h-83zM366 734q-12 12 -12 30q0 21 15.5 36.5t37.5 15.5q18 0 30 -12t12 -30q0 -21 -16 -36.5t-37 -15.5q-18 0 -30 12z" />
    <glyph glyph-name="uni1E6B" unicode="&#x1e6b;" horiz-adv-x="294" 
d="M59 104l70 314h-80l15 65h80l29 132h75l-29 -132h98l-15 -65h-98l-66 -298q-2 -12 -2 -20q0 -45 48 -45q13 0 25.5 4.5t20.5 11.5l9 -60q-30 -23 -73 -23q-52 0 -81 22t-29 66q0 13 3 28zM210 734q-12 12 -12 30q0 21 15.5 36.5t37.5 15.5q18 0 30 -12t12 -30
q0 -21 -16 -36.5t-37 -15.5q-18 0 -30 12z" />
    <glyph glyph-name="Wgrave" unicode="&#x1e80;" horiz-adv-x="883" 
d="M506 538l-266 -538h-90l-43 667h90l24 -556l276 556h70l29 -556l271 556h94l-337 -667h-90zM407 867h78l116 -144h-57z" />
    <glyph glyph-name="wgrave" unicode="&#x1e81;" horiz-adv-x="734" 
d="M399 388l-212 -388h-75l-47 483h75l32 -385l212 385h66l41 -385l202 385h82l-261 -483h-75zM296 700h78l116 -144h-57z" />
    <glyph glyph-name="Wacute" unicode="&#x1e82;" horiz-adv-x="883" 
d="M506 538l-266 -538h-90l-43 667h90l24 -556l276 556h70l29 -556l271 556h94l-337 -667h-90zM483 723l180 144h80l-201 -144h-59z" />
    <glyph glyph-name="wacute" unicode="&#x1e83;" horiz-adv-x="734" 
d="M399 388l-212 -388h-75l-47 483h75l32 -385l212 385h66l41 -385l202 385h82l-261 -483h-75zM375 556l180 144h80l-201 -144h-59z" />
    <glyph glyph-name="Wdieresis" unicode="&#x1e84;" horiz-adv-x="883" 
d="M506 538l-266 -538h-90l-43 667h90l24 -556l276 556h70l29 -556l271 556h94l-337 -667h-90zM416.5 736.5q-12.5 12.5 -12.5 29.5q0 20 16 35.5t36 15.5q18 0 30 -12t12 -29q0 -20 -16 -36t-36 -16q-17 0 -29.5 12.5zM623 736.5q-12 12.5 -12 29.5q0 20 15.5 35.5
t36.5 15.5q17 0 29 -12t12 -29q0 -20 -15.5 -36t-36.5 -16q-17 0 -29 12.5z" />
    <glyph glyph-name="wdieresis" unicode="&#x1e85;" horiz-adv-x="734" 
d="M399 388l-212 -388h-75l-47 483h75l32 -385l212 385h66l41 -385l202 385h82l-261 -483h-75zM306.5 569.5q-12.5 12.5 -12.5 29.5q0 20 16 35.5t36 15.5q18 0 30 -12t12 -29q0 -20 -16 -36t-36 -16q-17 0 -29.5 12.5zM513 569.5q-12 12.5 -12 29.5q0 20 15.5 35.5
t36.5 15.5q17 0 29 -12t12 -29q0 -20 -15.5 -36t-36.5 -16q-17 0 -29 12.5z" />
    <glyph glyph-name="uni1E9E" unicode="&#x1e9e;" horiz-adv-x="672" 
d="M573.5 334q52.5 -45 52.5 -124q0 -29 -7 -58q-10 -45 -42.5 -82.5t-80.5 -59.5t-103 -22q-73 0 -124.5 24t-79.5 65l66 50q22 -32 55.5 -48.5t82.5 -16.5q53 0 94 31t49 73q4 17 4 36q0 60 -47 91t-134 31h-37l16 71l192 168q-46 42 -126 42q-89 0 -137 -51t-70 -148
l-90 -406h-83l90 408q29 132 96 201.5t194 69.5q77 0 138.5 -27.5t93.5 -82.5l-203 -180q88 -10 140.5 -55z" />
    <glyph glyph-name="uni1EA0" unicode="&#x1ea0;" horiz-adv-x="658" 
d="M478 148h-333l-91 -148h-99l415 667h103l122 -667h-91zM187 222h283l-63 359zM208 -172q-12 12 -12 30q0 21 15.5 36.5t37.5 15.5q18 0 30 -12t12 -30q0 -21 -16 -36.5t-37 -15.5q-18 0 -30 12z" />
    <glyph glyph-name="uni1EA1" unicode="&#x1ea1;" horiz-adv-x="575" 
d="M478 483h75l-107 -483h-75l15 69q-31 -39 -71 -60t-88 -21q-85 0 -136 53t-51 146q0 80 31.5 150.5t89 114t132.5 43.5q55 0 99.5 -23.5t68.5 -64.5zM156 94.5q37 -39.5 98 -39.5q43 0 83 23.5t64 58.5l48 213q-19 34 -57.5 56t-88.5 22q-53 0 -95 -32t-65.5 -84.5
t-23.5 -110.5q0 -67 37 -106.5zM162 -172q-12 12 -12 30q0 21 15.5 36.5t37.5 15.5q18 0 30 -12t12 -30q0 -21 -16 -36.5t-37 -15.5q-18 0 -30 12z" />
    <glyph glyph-name="uni1EA2" unicode="&#x1ea2;" horiz-adv-x="658" 
d="M478 148h-333l-91 -148h-99l415 667h103l122 -667h-91zM187 222h283l-63 359zM402.5 807.5q19.5 12.5 42.5 12.5q28 0 47.5 -16t19.5 -43q0 -36 -28 -64h-43q18 16 26.5 30t8.5 31q0 14 -10 22t-23 8q-26 0 -43 -29l-29 15q12 21 31.5 33.5z" />
    <glyph glyph-name="uni1EA3" unicode="&#x1ea3;" horiz-adv-x="575" 
d="M478 483h75l-107 -483h-75l15 69q-31 -39 -71 -60t-88 -21q-85 0 -136 53t-51 146q0 80 31.5 150.5t89 114t132.5 43.5q55 0 99.5 -23.5t68.5 -64.5zM156 94.5q37 -39.5 98 -39.5q43 0 83 23.5t64 58.5l48 213q-19 34 -57.5 56t-88.5 22q-53 0 -95 -32t-65.5 -84.5
t-23.5 -110.5q0 -67 37 -106.5zM319.5 637.5q19.5 12.5 42.5 12.5q28 0 47.5 -16t19.5 -43q0 -36 -28 -64h-43q18 16 26.5 30t8.5 31q0 14 -10 22t-23 8q-26 0 -43 -29l-29 15q12 21 31.5 33.5z" />
    <glyph glyph-name="uni1EA4" unicode="&#x1ea4;" horiz-adv-x="658" 
d="M525 736l180 108h80l-201 -108h-59zM442 761l-103 -79h-53l127 108h72l66 -108h-50zM478 148h-333l-91 -148h-99l415 667h103l122 -667h-91zM187 222h283l-63 359z" />
    <glyph glyph-name="uni1EA5" unicode="&#x1ea5;" horiz-adv-x="575" 
d="M478 483h75l-107 -483h-75l15 69q-31 -39 -71 -60t-88 -21q-85 0 -136 53t-51 146q0 80 31.5 150.5t89 114t132.5 43.5q55 0 99.5 -23.5t68.5 -64.5zM156 94.5q37 -39.5 98 -39.5q43 0 83 23.5t64 58.5l48 213q-19 34 -57.5 56t-88.5 22q-53 0 -95 -32t-65.5 -84.5
t-23.5 -110.5q0 -67 37 -106.5zM374 662l-103 -106h-53l127 144h72l66 -144h-49zM458 626l180 144h80l-201 -144h-59z" />
    <glyph glyph-name="uni1EA6" unicode="&#x1ea6;" horiz-adv-x="658" 
d="M146 844h78l116 -108h-57zM442 761l-103 -79h-53l127 108h72l66 -108h-49zM478 148h-333l-91 -148h-99l415 667h103l122 -667h-91zM187 222h283l-63 359z" />
    <glyph glyph-name="uni1EA7" unicode="&#x1ea7;" horiz-adv-x="575" 
d="M478 483h75l-107 -483h-75l15 69q-31 -39 -71 -60t-88 -21q-85 0 -136 53t-51 146q0 80 31.5 150.5t89 114t132.5 43.5q55 0 99.5 -23.5t68.5 -64.5zM156 94.5q37 -39.5 98 -39.5q43 0 83 23.5t64 58.5l48 213q-19 34 -57.5 56t-88.5 22q-53 0 -95 -32t-65.5 -84.5
t-23.5 -110.5q0 -67 37 -106.5zM374 662l-103 -106h-53l127 144h72l66 -144h-49zM78 770h78l116 -144h-57z" />
    <glyph glyph-name="uni1EA8" unicode="&#x1ea8;" horiz-adv-x="658" 
d="M490.5 839.5q19.5 9.5 42.5 9.5q28 0 47.5 -12t19.5 -33q0 -26 -28 -48h-43q18 12 26.5 22.5t8.5 23.5q0 10 -10 16.5t-23 6.5q-27 0 -43 -23l-29 12q12 16 31.5 25.5zM443 761l-103 -79h-53l127 108h72l66 -108h-50zM478 148h-333l-91 -148h-99l415 667h103l122 -667
h-91zM187 222h283l-63 359z" />
    <glyph glyph-name="uni1EA9" unicode="&#x1ea9;" horiz-adv-x="575" 
d="M478 483h75l-107 -483h-75l15 69q-31 -39 -71 -60t-88 -21q-85 0 -136 53t-51 146q0 80 31.5 150.5t89 114t132.5 43.5q55 0 99.5 -23.5t68.5 -64.5zM156 94.5q37 -39.5 98 -39.5q43 0 83 23.5t64 58.5l48 213q-19 34 -57.5 56t-88.5 22q-53 0 -95 -32t-65.5 -84.5
t-23.5 -110.5q0 -67 37 -106.5zM374 662l-103 -106h-53l127 144h72l66 -144h-49zM413.5 777.5q19.5 12.5 42.5 12.5q28 0 47.5 -16t19.5 -43q0 -36 -28 -64h-43q18 16 26.5 30t8.5 31q0 14 -10 22t-23 8q-26 0 -43 -29l-29 15q12 21 31.5 33.5z" />
    <glyph glyph-name="uni1EAA" unicode="&#x1eaa;" horiz-adv-x="658" 
d="M413.5 797.5q-10.5 5.5 -27.5 5.5q-42 0 -62 -43h-45q26 67 112 67q27 0 42 -6.5t29 -18.5q11 -10 21.5 -15.5t27.5 -5.5q42 0 62 43h47q-29 -67 -114 -67q-27 0 -42 6.5t-29 18.5q-11 10 -21.5 15.5zM440 730l-103 -52h-53l127 72h72l66 -72h-49zM478 148h-333l-91 -148
h-99l415 667h103l122 -667h-91zM187 222h283l-63 359z" />
    <glyph glyph-name="uni1EAB" unicode="&#x1eab;" horiz-adv-x="575" 
d="M478 483h75l-107 -483h-75l15 69q-31 -39 -71 -60t-88 -21q-85 0 -136 53t-51 146q0 80 31.5 150.5t89 114t132.5 43.5q55 0 99.5 -23.5t68.5 -64.5zM156 94.5q37 -39.5 98 -39.5q43 0 83 23.5t64 58.5l48 213q-19 34 -57.5 56t-88.5 22q-53 0 -95 -32t-65.5 -84.5
t-23.5 -110.5q0 -67 37 -106.5zM366 629l-103 -106h-53l127 144h72l66 -144h-49zM358 764q-10 10 -27 10q-42 0 -61 -86h-46q27 134 112 134q27 0 42 -13t30 -38q12 -21 22 -31t27 -10q20 0 35.5 21t26.5 65h46q-29 -134 -113 -134q-27 0 -42 13t-30 38q-12 21 -22 31z" />
    <glyph glyph-name="uni1EAC" unicode="&#x1eac;" horiz-adv-x="658" 
d="M478 148h-333l-91 -148h-99l415 667h103l122 -667h-91zM187 222h283l-63 359zM208 -172q-12 12 -12 30q0 21 15.5 36.5t37.5 15.5q18 0 30 -12t12 -30q0 -21 -16 -36.5t-37 -15.5q-18 0 -30 12zM457 829l-103 -106h-53l127 144h72l66 -144h-49z" />
    <glyph glyph-name="uni1EAD" unicode="&#x1ead;" horiz-adv-x="575" 
d="M478 483h75l-107 -483h-75l15 69q-31 -39 -71 -60t-88 -21q-85 0 -136 53t-51 146q0 80 31.5 150.5t89 114t132.5 43.5q55 0 99.5 -23.5t68.5 -64.5zM156 94.5q37 -39.5 98 -39.5q43 0 83 23.5t64 58.5l48 213q-19 34 -57.5 56t-88.5 22q-53 0 -95 -32t-65.5 -84.5
t-23.5 -110.5q0 -67 37 -106.5zM162 -172q-12 12 -12 30q0 21 15.5 36.5t37.5 15.5q18 0 30 -12t12 -30q0 -21 -16 -36.5t-37 -15.5q-18 0 -30 12zM374 662l-103 -106h-53l127 144h72l66 -144h-49z" />
    <glyph glyph-name="uni1EAE" unicode="&#x1eae;" horiz-adv-x="658" 
d="M365 743l180 97h80l-201 -97h-59zM323 701q-41 20 -63 55l43 27q17 -29 48.5 -45t74.5 -16q42 0 82 16t72 45l31 -27q-40 -35 -90.5 -55t-103.5 -20t-94 20zM478 148h-333l-91 -148h-99l415 667h103l122 -667h-91zM187 222h283l-63 359z" />
    <glyph glyph-name="uni1EAF" unicode="&#x1eaf;" horiz-adv-x="575" 
d="M478 483h75l-107 -483h-75l15 69q-31 -39 -71 -60t-88 -21q-85 0 -136 53t-51 146q0 80 31.5 150.5t89 114t132.5 43.5q55 0 99.5 -23.5t68.5 -64.5zM156 94.5q37 -39.5 98 -39.5q43 0 83 23.5t64 58.5l48 213q-19 34 -57.5 56t-88.5 22q-53 0 -95 -32t-65.5 -84.5
t-23.5 -110.5q0 -67 37 -106.5zM243 541.5q-41 23.5 -63 64.5l42 32q17 -34 48.5 -53t74.5 -19t83 19t71 53l32 -32q-40 -41 -90.5 -64.5t-103.5 -23.5t-94 23.5zM282 622l180 144h80l-201 -144h-59z" />
    <glyph glyph-name="uni1EB0" unicode="&#x1eb0;" horiz-adv-x="658" 
d="M313 846h78l116 -97h-57zM324 701q-41 20 -63 55l42 27q17 -29 48.5 -45t74.5 -16t83 16t71 45l32 -27q-40 -35 -90.5 -55t-103.5 -20t-94 20zM478 148h-333l-91 -148h-99l415 667h103l122 -667h-91zM187 222h283l-63 359z" />
    <glyph glyph-name="uni1EB1" unicode="&#x1eb1;" horiz-adv-x="575" 
d="M478 483h75l-107 -483h-75l15 69q-31 -39 -71 -60t-88 -21q-85 0 -136 53t-51 146q0 80 31.5 150.5t89 114t132.5 43.5q55 0 99.5 -23.5t68.5 -64.5zM156 94.5q37 -39.5 98 -39.5q43 0 83 23.5t64 58.5l48 213q-19 34 -57.5 56t-88.5 22q-53 0 -95 -32t-65.5 -84.5
t-23.5 -110.5q0 -67 37 -106.5zM244 546.5q-41 23.5 -63 64.5l42 32q17 -34 48.5 -53t74.5 -19t83 19t71 53l32 -32q-40 -41 -90.5 -64.5t-103.5 -23.5t-94 23.5zM245 766h78l116 -144h-57z" />
    <glyph glyph-name="uni1EB2" unicode="&#x1eb2;" horiz-adv-x="658" 
d="M407.5 818.5q19.5 8.5 43.5 8.5q27 0 47 -10.5t20 -29.5q0 -25 -29 -43h-42q18 10 26 19.5t8 21.5q0 9 -9.5 15t-22.5 6q-26 0 -43 -20l-29 10q11 14 30.5 22.5zM324 701q-41 20 -63 55l42 27q17 -29 48.5 -45t74.5 -16t83 16t71 45l32 -27q-40 -35 -90.5 -55t-103.5 -20
t-94 20zM478 148h-333l-91 -148h-99l415 667h103l122 -667h-91zM187 222h283l-63 359z" />
    <glyph glyph-name="uni1EB3" unicode="&#x1eb3;" horiz-adv-x="575" 
d="M478 483h75l-107 -483h-75l15 69q-31 -39 -71 -60t-88 -21q-85 0 -136 53t-51 146q0 80 31.5 150.5t89 114t132.5 43.5q55 0 99.5 -23.5t68.5 -64.5zM156 94.5q37 -39.5 98 -39.5q43 0 83 23.5t64 58.5l48 213q-19 34 -57.5 56t-88.5 22q-53 0 -95 -32t-65.5 -84.5
t-23.5 -110.5q0 -67 37 -106.5zM245 546.5q-41 23.5 -63 64.5l42 32q17 -34 48.5 -53t74.5 -19t83 19t71 53l32 -32q-40 -41 -90.5 -64.5t-103.5 -23.5t-94 23.5zM336.5 735.5q19.5 12.5 42.5 12.5q28 0 47.5 -16t19.5 -43q0 -36 -28 -64h-43q18 16 26.5 30t8.5 31
q0 14 -10 22t-23 8q-26 0 -43 -29l-29 15q12 21 31.5 33.5z" />
    <glyph glyph-name="uni1EB4" unicode="&#x1eb4;" horiz-adv-x="658" 
d="M413 802q-10 5 -27 5q-42 0 -61 -43h-46q27 67 112 67q27 0 42.5 -6.5t29.5 -19.5q11 -10 21 -15t28 -5q41 0 62 43h46q-29 -67 -113 -67q-27 0 -42 6.5t-30 18.5q-12 11 -22 16zM320 695.5q-41 14.5 -63 39.5l42 19q17 -20 48.5 -31.5t74.5 -11.5t83 11.5t71 31.5
l32 -19q-40 -25 -90.5 -39.5t-103.5 -14.5t-94 14.5zM478 148h-333l-91 -148h-99l415 667h103l122 -667h-91zM187 222h283l-63 359z" />
    <glyph glyph-name="uni1EB5" unicode="&#x1eb5;" horiz-adv-x="575" 
d="M478 483h75l-107 -483h-75l15 69q-31 -39 -71 -60t-88 -21q-85 0 -136 53t-51 146q0 80 31.5 150.5t89 114t132.5 43.5q55 0 99.5 -23.5t68.5 -64.5zM156 94.5q37 -39.5 98 -39.5q43 0 83 23.5t64 58.5l48 213q-19 34 -57.5 56t-88.5 22q-53 0 -95 -32t-65.5 -84.5
t-23.5 -110.5q0 -67 37 -106.5zM246 550.5q-41 23.5 -63 64.5l42 32q17 -34 48.5 -53t74.5 -19t83 19t71 53l32 -32q-40 -41 -90.5 -64.5t-103.5 -23.5t-94 23.5zM358 761q-10 10 -27 10q-42 0 -61 -86h-46q27 134 112 134q27 0 42 -13t30 -38q12 -21 22 -31t27 -10
q20 0 35.5 21t26.5 65h46q-29 -134 -113 -134q-27 0 -42 13t-30 38q-12 21 -22 31z" />
    <glyph glyph-name="uni1EB6" unicode="&#x1eb6;" horiz-adv-x="658" 
d="M478 148h-333l-91 -148h-99l415 667h103l122 -667h-91zM187 222h283l-63 359zM330 728.5q-41 23.5 -63 64.5l42 32q17 -34 48.5 -53t74.5 -19t83 19t71 53l32 -32q-40 -41 -90.5 -64.5t-103.5 -23.5t-94 23.5zM208 -172q-12 12 -12 30q0 21 15.5 36.5t37.5 15.5
q18 0 30 -12t12 -30q0 -21 -16 -36.5t-37 -15.5q-18 0 -30 12z" />
    <glyph glyph-name="uni1EB7" unicode="&#x1eb7;" horiz-adv-x="575" 
d="M478 483h75l-107 -483h-75l15 69q-31 -39 -71 -60t-88 -21q-85 0 -136 53t-51 146q0 80 31.5 150.5t89 114t132.5 43.5q55 0 99.5 -23.5t68.5 -64.5zM156 94.5q37 -39.5 98 -39.5q43 0 83 23.5t64 58.5l48 213q-19 34 -57.5 56t-88.5 22q-53 0 -95 -32t-65.5 -84.5
t-23.5 -110.5q0 -67 37 -106.5zM248 561.5q-41 23.5 -63 64.5l42 32q17 -34 48.5 -53t74.5 -19t83 19t71 53l32 -32q-40 -41 -90.5 -64.5t-103.5 -23.5t-94 23.5zM162 -172q-12 12 -12 30q0 21 15.5 36.5t37.5 15.5q18 0 30 -12t12 -30q0 -21 -16 -36.5t-37 -15.5
q-18 0 -30 12z" />
    <glyph glyph-name="uni1EB8" unicode="&#x1eb8;" horiz-adv-x="569" 
d="M171 667h437l-16 -74h-354l-48 -215h347l-16 -74h-348l-51 -230h355l-16 -74h-437zM176 -172q-12 12 -12 30q0 21 15.5 36.5t37.5 15.5q18 0 30 -12t12 -30q0 -21 -16 -36.5t-37 -15.5q-18 0 -30 12z" />
    <glyph glyph-name="uni1EB9" unicode="&#x1eb9;" horiz-adv-x="563" 
d="M76 348.5q36 67.5 98.5 107t137.5 39.5q62 0 109.5 -27t73 -75t25.5 -109q0 -30 -8 -67h-394l-1 -23q0 -39 19 -71.5t56 -52.5t89 -20q36 0 73 12t66 35l25 -52q-33 -26 -78 -41.5t-91 -15.5q-109 0 -172.5 58t-63.5 156q0 79 36 146.5zM452 291q0 62 -38.5 102
t-108.5 40q-43 0 -81.5 -22t-64.5 -59t-33 -80h324q2 8 2 19zM165 -172q-12 12 -12 30q0 21 15.5 36.5t37.5 15.5q18 0 30 -12t12 -30q0 -21 -16 -36.5t-37 -15.5q-18 0 -30 12z" />
    <glyph glyph-name="uni1EBA" unicode="&#x1eba;" horiz-adv-x="569" 
d="M171 667h437l-16 -74h-354l-48 -215h347l-16 -74h-348l-51 -230h355l-16 -74h-437zM370.5 807.5q19.5 12.5 42.5 12.5q28 0 47.5 -16t19.5 -43q0 -36 -28 -64h-43q18 16 26.5 30t8.5 31q0 14 -10 22t-23 8q-26 0 -43 -29l-29 15q12 21 31.5 33.5z" />
    <glyph glyph-name="uni1EBB" unicode="&#x1ebb;" horiz-adv-x="563" 
d="M76 348.5q36 67.5 98.5 107t137.5 39.5q62 0 109.5 -27t73 -75t25.5 -109q0 -30 -8 -67h-394l-1 -23q0 -39 19 -71.5t56 -52.5t89 -20q36 0 73 12t66 35l25 -52q-33 -26 -78 -41.5t-91 -15.5q-109 0 -172.5 58t-63.5 156q0 79 36 146.5zM452 291q0 62 -38.5 102
t-108.5 40q-43 0 -81.5 -22t-64.5 -59t-33 -80h324q2 8 2 19zM321.5 637.5q19.5 12.5 42.5 12.5q28 0 47.5 -16t19.5 -43q0 -36 -28 -64h-43q18 16 26.5 30t8.5 31q0 14 -10 22t-23 8q-26 0 -43 -29l-29 15q12 21 31.5 33.5z" />
    <glyph glyph-name="uni1EBC" unicode="&#x1ebc;" horiz-adv-x="569" 
d="M171 667h437l-16 -74h-354l-48 -215h347l-16 -74h-348l-51 -230h355l-16 -74h-437zM381 803q-10 10 -27 10q-42 0 -61 -86h-46q27 134 112 134q27 0 42 -13t30 -38q12 -21 22 -31t27 -10q20 0 35.5 21t26.5 65h46q-29 -134 -113 -134q-27 0 -42 13t-30 38q-12 21 -22 31z
" />
    <glyph glyph-name="uni1EBD" unicode="&#x1ebd;" horiz-adv-x="563" 
d="M76 348.5q36 67.5 98.5 107t137.5 39.5q62 0 109.5 -27t73 -75t25.5 -109q0 -30 -8 -67h-394l-1 -23q0 -39 19 -71.5t56 -52.5t89 -20q36 0 73 12t66 35l25 -52q-33 -26 -78 -41.5t-91 -15.5q-109 0 -172.5 58t-63.5 156q0 79 36 146.5zM452 291q0 62 -38.5 102
t-108.5 40q-43 0 -81.5 -22t-64.5 -59t-33 -80h324q2 8 2 19zM332 636q-10 10 -27 10q-42 0 -61 -86h-46q27 134 112 134q27 0 42 -13t30 -38q12 -21 22 -31t27 -10q20 0 35.5 21t26.5 65h46q-29 -134 -113 -134q-27 0 -42 13t-30 38q-12 21 -22 31z" />
    <glyph glyph-name="uni1EBE" unicode="&#x1ebe;" horiz-adv-x="569" 
d="M493 736l180 108h80l-201 -108h-59zM410 761l-103 -79h-53l127 108h72l66 -108h-49zM171 667h437l-16 -74h-354l-48 -215h347l-16 -74h-348l-51 -230h355l-16 -74h-437z" />
    <glyph glyph-name="uni1EBF" unicode="&#x1ebf;" horiz-adv-x="563" 
d="M76 348.5q36 67.5 98.5 107t137.5 39.5q62 0 109.5 -27t73 -75t25.5 -109q0 -30 -8 -67h-394l-1 -23q0 -39 19 -71.5t56 -52.5t89 -20q36 0 73 12t66 35l25 -52q-33 -26 -78 -41.5t-91 -15.5q-109 0 -172.5 58t-63.5 156q0 79 36 146.5zM452 291q0 62 -38.5 102
t-108.5 40q-43 0 -81.5 -22t-64.5 -59t-33 -80h324q2 8 2 19zM376 662l-103 -106h-53l127 144h72l66 -144h-49zM460 626l180 144h80l-201 -144h-59z" />
    <glyph glyph-name="uni1EC0" unicode="&#x1ec0;" horiz-adv-x="569" 
d="M113 844h78l116 -108h-57zM410 761l-103 -79h-53l127 108h72l66 -108h-49zM171 667h437l-16 -74h-354l-48 -215h347l-16 -74h-348l-51 -230h355l-16 -74h-437z" />
    <glyph glyph-name="uni1EC1" unicode="&#x1ec1;" horiz-adv-x="563" 
d="M76 348.5q36 67.5 98.5 107t137.5 39.5q62 0 109.5 -27t73 -75t25.5 -109q0 -30 -8 -67h-394l-1 -23q0 -39 19 -71.5t56 -52.5t89 -20q36 0 73 12t66 35l25 -52q-33 -26 -78 -41.5t-91 -15.5q-109 0 -172.5 58t-63.5 156q0 79 36 146.5zM452 291q0 62 -38.5 102
t-108.5 40q-43 0 -81.5 -22t-64.5 -59t-33 -80h324q2 8 2 19zM82 770h78l116 -144h-57zM378 662l-103 -106h-53l127 144h72l66 -144h-49z" />
    <glyph glyph-name="uni1EC2" unicode="&#x1ec2;" horiz-adv-x="569" 
d="M457 839.5q20 9.5 43 9.5q27 0 47 -12t20 -33q0 -27 -29 -48h-42q18 12 26.5 22.5t8.5 23.5q0 10 -10 16.5t-23 6.5q-27 0 -43 -23l-29 12q11 16 31 25.5zM410 761l-103 -79h-53l127 108h72l66 -108h-49zM171 667h437l-16 -74h-354l-48 -215h347l-16 -74h-348l-51 -230
h355l-16 -74h-437z" />
    <glyph glyph-name="uni1EC3" unicode="&#x1ec3;" horiz-adv-x="563" 
d="M76 348.5q36 67.5 98.5 107t137.5 39.5q62 0 109.5 -27t73 -75t25.5 -109q0 -30 -8 -67h-394l-1 -23q0 -39 19 -71.5t56 -52.5t89 -20q36 0 73 12t66 35l25 -52q-33 -26 -78 -41.5t-91 -15.5q-109 0 -172.5 58t-63.5 156q0 79 36 146.5zM452 291q0 62 -38.5 102
t-108.5 40q-43 0 -81.5 -22t-64.5 -59t-33 -80h324q2 8 2 19zM416.5 777.5q19.5 12.5 42.5 12.5q28 0 47.5 -16t19.5 -43q0 -36 -28 -64h-43q18 16 26.5 30t8.5 31q0 14 -10 22t-23 8q-26 0 -43 -29l-29 15q12 21 31.5 33.5zM377 662l-103 -106h-53l127 144h72l66 -144h-49z
" />
    <glyph glyph-name="uni1EC4" unicode="&#x1ec4;" horiz-adv-x="569" 
d="M382.5 797.5q-10.5 5.5 -27.5 5.5q-43 0 -62 -43h-46q27 67 113 67q27 0 42 -6.5t29 -18.5q11 -10 21.5 -15.5t27.5 -5.5q42 0 62 43h46q-27 -67 -113 -67q-27 0 -42 6.5t-29 18.5q-11 10 -21.5 15.5zM414 731l-103 -53h-53l127 72h72l66 -72h-50zM171 667h437l-16 -74
h-354l-48 -215h347l-16 -74h-348l-51 -230h355l-16 -74h-437z" />
    <glyph glyph-name="uni1EC5" unicode="&#x1ec5;" horiz-adv-x="563" 
d="M76 348.5q36 67.5 98.5 107t137.5 39.5q62 0 109.5 -27t73 -75t25.5 -109q0 -30 -8 -67h-394l-1 -23q0 -39 19 -71.5t56 -52.5t89 -20q36 0 73 12t66 35l25 -52q-33 -26 -78 -41.5t-91 -15.5q-109 0 -172.5 58t-63.5 156q0 79 36 146.5zM452 291q0 62 -38.5 102
t-108.5 40q-43 0 -81.5 -22t-64.5 -59t-33 -80h324q2 8 2 19zM371 629l-103 -106h-53l127 144h72l66 -144h-49zM361 764q-10 10 -27 10q-42 0 -61 -86h-46q27 134 112 134q27 0 42 -13t30 -38q12 -21 22 -31t27 -10q20 0 35.5 21t26.5 65h46q-29 -134 -113 -134
q-27 0 -42 13t-30 38q-12 21 -22 31z" />
    <glyph glyph-name="uni1EC6" unicode="&#x1ec6;" horiz-adv-x="569" 
d="M171 667h437l-16 -74h-354l-48 -215h347l-16 -74h-348l-51 -230h355l-16 -74h-437zM176 -172q-12 12 -12 30q0 21 15.5 36.5t37.5 15.5q18 0 30 -12t12 -30q0 -21 -16 -36.5t-37 -15.5q-18 0 -30 12zM425 829l-103 -106h-53l127 144h72l66 -144h-49z" />
    <glyph glyph-name="uni1EC7" unicode="&#x1ec7;" horiz-adv-x="563" 
d="M76 348.5q36 67.5 98.5 107t137.5 39.5q62 0 109.5 -27t73 -75t25.5 -109q0 -30 -8 -67h-394l-1 -23q0 -39 19 -71.5t56 -52.5t89 -20q36 0 73 12t66 35l25 -52q-33 -26 -78 -41.5t-91 -15.5q-109 0 -172.5 58t-63.5 156q0 79 36 146.5zM452 291q0 62 -38.5 102
t-108.5 40q-43 0 -81.5 -22t-64.5 -59t-33 -80h324q2 8 2 19zM165 -172q-12 12 -12 30q0 21 15.5 36.5t37.5 15.5q18 0 30 -12t12 -30q0 -21 -16 -36.5t-37 -15.5q-18 0 -30 12zM378 662l-103 -106h-53l127 144h72l66 -144h-49z" />
    <glyph glyph-name="uni1EC8" unicode="&#x1ec8;" horiz-adv-x="239" 
d="M171 667h83l-147 -667h-83zM193.5 807.5q19.5 12.5 42.5 12.5q28 0 47.5 -16t19.5 -43q0 -36 -28 -64h-43q18 16 26.5 30t8.5 31q0 14 -10 22t-23 8q-26 0 -43 -29l-29 15q12 21 31.5 33.5z" />
    <glyph glyph-name="uni1EC9" unicode="&#x1ec9;" horiz-adv-x="225" 
d="M128 483h75l-107 -483h-75zM149.5 637.5q19.5 12.5 42.5 12.5q28 0 47.5 -16t19.5 -43q0 -36 -28 -64h-43q18 16 26.5 30t8.5 31q0 14 -10 22t-23 8q-26 0 -43 -29l-29 15q12 21 31.5 33.5z" />
    <glyph glyph-name="uni1ECA" unicode="&#x1eca;" horiz-adv-x="239" 
d="M171 667h83l-147 -667h-83zM-1 -172q-12 12 -12 30q0 21 15.5 36.5t37.5 15.5q18 0 30 -12t12 -30q0 -21 -16 -36.5t-37 -15.5q-18 0 -30 12z" />
    <glyph glyph-name="uni1ECB" unicode="&#x1ecb;" horiz-adv-x="225" 
d="M158 637q18 16 39 16q19 0 32.5 -13t13.5 -31q0 -25 -18 -41t-39 -16q-20 0 -33 12.5t-13 31.5q0 25 18 41zM128 483h75l-107 -483h-75zM-6 -172q-12 12 -12 30q0 21 15.5 36.5t37.5 15.5q18 0 30 -12t12 -30q0 -21 -16 -36.5t-37 -15.5q-18 0 -30 12z" />
    <glyph glyph-name="uni1ECC" unicode="&#x1ecc;" horiz-adv-x="765" 
d="M110 481q50 91 136 144t189 53q86 0 156.5 -35t111 -101t40.5 -155q0 -110 -50 -201.5t-136 -144.5t-189 -53q-86 0 -156.5 35t-111 101t-40.5 156q0 110 50 201zM625 501q-30 50 -81 76.5t-114 26.5q-76 0 -140.5 -41.5t-103 -115t-38.5 -163.5q0 -69 29.5 -119.5
t81 -76.5t114.5 -26q75 0 140 41.5t103.5 115t38.5 163.5q0 69 -30 119zM263 -172q-12 12 -12 30q0 21 15.5 36.5t37.5 15.5q18 0 30 -12t12 -30q0 -21 -16 -36.5t-37 -15.5q-18 0 -30 12z" />
    <glyph glyph-name="uni1ECD" unicode="&#x1ecd;" 
d="M75 345.5q35 67.5 96.5 108.5t137.5 41q67 0 117 -27t77 -75.5t27 -112.5q0 -76 -35 -143t-97 -108t-137 -41q-102 0 -161.5 58.5t-59.5 155.5q0 76 35 143.5zM413 387.5q-38 40.5 -106 40.5q-53 0 -96 -31.5t-67.5 -83t-24.5 -108.5q0 -69 38 -109.5t106 -40.5
q53 0 96 31.5t67.5 83t24.5 108.5q0 69 -38 109.5zM166 -172q-12 12 -12 30q0 21 15.5 36.5t37.5 15.5q18 0 30 -12t12 -30q0 -21 -16 -36.5t-37 -15.5q-18 0 -30 12z" />
    <glyph glyph-name="uni1ECE" unicode="&#x1ece;" horiz-adv-x="765" 
d="M110 481q50 91 136 144t189 53q86 0 156.5 -35t111 -101t40.5 -155q0 -110 -50 -201.5t-136 -144.5t-189 -53q-86 0 -156.5 35t-111 101t-40.5 156q0 110 50 201zM625 501q-30 50 -81 76.5t-114 26.5q-76 0 -140.5 -41.5t-103 -115t-38.5 -163.5q0 -69 29.5 -119.5
t81 -76.5t114.5 -26q75 0 140 41.5t103.5 115t38.5 163.5q0 69 -30 119zM457.5 807.5q19.5 12.5 42.5 12.5q28 0 47.5 -16t19.5 -43q0 -36 -28 -64h-43q18 16 26.5 30t8.5 31q0 14 -10 22t-23 8q-26 0 -43 -29l-29 15q12 21 31.5 33.5z" />
    <glyph glyph-name="uni1ECF" unicode="&#x1ecf;" 
d="M75 345.5q35 67.5 96.5 108.5t137.5 41q67 0 117 -27t77 -75.5t27 -112.5q0 -76 -35 -143t-97 -108t-137 -41q-102 0 -161.5 58.5t-59.5 155.5q0 76 35 143.5zM413 387.5q-38 40.5 -106 40.5q-53 0 -96 -31.5t-67.5 -83t-24.5 -108.5q0 -69 38 -109.5t106 -40.5
q53 0 96 31.5t67.5 83t24.5 108.5q0 69 -38 109.5zM322.5 637.5q19.5 12.5 42.5 12.5q28 0 47.5 -16t19.5 -43q0 -36 -28 -64h-43q18 16 26.5 30t8.5 31q0 14 -10 22t-23 8q-26 0 -43 -29l-29 15q12 21 31.5 33.5z" />
    <glyph glyph-name="uni1ED0" unicode="&#x1ed0;" horiz-adv-x="765" 
d="M579 736l180 108h80l-201 -108h-59zM497 761l-104 -79h-52l127 108h72l66 -108h-50zM110 481q50 91 136 144t189 53q86 0 156.5 -35t111 -101t40.5 -155q0 -110 -50 -201.5t-136 -144.5t-189 -53q-86 0 -156.5 35t-111 101t-40.5 156q0 110 50 201zM625 501
q-30 50 -81 76.5t-114 26.5q-76 0 -140.5 -41.5t-103 -115t-38.5 -163.5q0 -69 29.5 -119.5t81 -76.5t114.5 -26q75 0 140 41.5t103.5 115t38.5 163.5q0 69 -30 119z" />
    <glyph glyph-name="uni1ED1" unicode="&#x1ed1;" 
d="M75 345.5q35 67.5 96.5 108.5t137.5 41q67 0 117 -27t77 -75.5t27 -112.5q0 -76 -35 -143t-97 -108t-137 -41q-102 0 -161.5 58.5t-59.5 155.5q0 76 35 143.5zM413 387.5q-38 40.5 -106 40.5q-53 0 -96 -31.5t-67.5 -83t-24.5 -108.5q0 -69 38 -109.5t106 -40.5
q53 0 96 31.5t67.5 83t24.5 108.5q0 69 -38 109.5zM378 662l-103 -106h-53l127 144h72l66 -144h-49zM462 626l180 144h80l-201 -144h-59z" />
    <glyph glyph-name="uni1ED2" unicode="&#x1ed2;" horiz-adv-x="765" 
d="M199 844h78l116 -108h-57zM496 761l-103 -79h-53l127 108h72l66 -108h-49zM110 481q50 91 136 144t189 53q86 0 156.5 -35t111 -101t40.5 -155q0 -110 -50 -201.5t-136 -144.5t-189 -53q-86 0 -156.5 35t-111 101t-40.5 156q0 110 50 201zM625 501q-30 50 -81 76.5
t-114 26.5q-76 0 -140.5 -41.5t-103 -115t-38.5 -163.5q0 -69 29.5 -119.5t81 -76.5t114.5 -26q75 0 140 41.5t103.5 115t38.5 163.5q0 69 -30 119z" />
    <glyph glyph-name="uni1ED3" unicode="&#x1ed3;" 
d="M75 345.5q35 67.5 96.5 108.5t137.5 41q67 0 117 -27t77 -75.5t27 -112.5q0 -76 -35 -143t-97 -108t-137 -41q-102 0 -161.5 58.5t-59.5 155.5q0 76 35 143.5zM413 387.5q-38 40.5 -106 40.5q-53 0 -96 -31.5t-67.5 -83t-24.5 -108.5q0 -69 38 -109.5t106 -40.5
q53 0 96 31.5t67.5 83t24.5 108.5q0 69 -38 109.5zM83 770h78l116 -144h-57zM379 662l-103 -106h-53l127 144h72l66 -144h-49z" />
    <glyph glyph-name="uni1ED4" unicode="&#x1ed4;" horiz-adv-x="765" 
d="M543.5 839.5q19.5 9.5 43.5 9.5q27 0 47 -12t20 -33q0 -25 -29 -48h-43q18 12 26.5 22.5t8.5 23.5q0 10 -10 16.5t-23 6.5q-26 0 -42 -23l-29 12q11 16 30.5 25.5zM497 761l-103 -79h-53l127 108h72l66 -108h-50zM110 481q50 91 136 144t189 53q86 0 156.5 -35t111 -101
t40.5 -155q0 -110 -50 -201.5t-136 -144.5t-189 -53q-86 0 -156.5 35t-111 101t-40.5 156q0 110 50 201zM625 501q-30 50 -81 76.5t-114 26.5q-76 0 -140.5 -41.5t-103 -115t-38.5 -163.5q0 -69 29.5 -119.5t81 -76.5t114.5 -26q75 0 140 41.5t103.5 115t38.5 163.5
q0 69 -30 119z" />
    <glyph glyph-name="uni1ED5" unicode="&#x1ed5;" 
d="M75 345.5q35 67.5 96.5 108.5t137.5 41q67 0 117 -27t77 -75.5t27 -112.5q0 -76 -35 -143t-97 -108t-137 -41q-102 0 -161.5 58.5t-59.5 155.5q0 76 35 143.5zM413 387.5q-38 40.5 -106 40.5q-53 0 -96 -31.5t-67.5 -83t-24.5 -108.5q0 -69 38 -109.5t106 -40.5
q53 0 96 31.5t67.5 83t24.5 108.5q0 69 -38 109.5zM378 662l-103 -106h-53l127 144h72l66 -144h-49zM417.5 777.5q19.5 12.5 42.5 12.5q28 0 47.5 -16t19.5 -43q0 -36 -28 -64h-43q18 16 26.5 30t8.5 31q0 14 -10 22t-23 8q-26 0 -43 -29l-29 15q12 21 31.5 33.5z" />
    <glyph glyph-name="uni1ED6" unicode="&#x1ed6;" horiz-adv-x="765" 
d="M468.5 797.5q-10.5 5.5 -27.5 5.5q-43 0 -62 -43h-46q27 67 113 67q27 0 42 -6.5t29 -18.5q11 -10 21.5 -15.5t27.5 -5.5q42 0 62 43h46q-27 -67 -113 -67q-27 0 -42 6.5t-29 18.5q-11 10 -21.5 15.5zM492 731l-103 -53h-53l127 72h72l66 -72h-50zM110 481q50 91 136 144
t189 53q86 0 156.5 -35t111 -101t40.5 -155q0 -110 -50 -201.5t-136 -144.5t-189 -53q-86 0 -156.5 35t-111 101t-40.5 156q0 110 50 201zM625 501q-30 50 -81 76.5t-114 26.5q-76 0 -140.5 -41.5t-103 -115t-38.5 -163.5q0 -69 29.5 -119.5t81 -76.5t114.5 -26
q75 0 140 41.5t103.5 115t38.5 163.5q0 69 -30 119z" />
    <glyph glyph-name="uni1ED7" unicode="&#x1ed7;" 
d="M75 345.5q35 67.5 96.5 108.5t137.5 41q67 0 117 -27t77 -75.5t27 -112.5q0 -76 -35 -143t-97 -108t-137 -41q-102 0 -161.5 58.5t-59.5 155.5q0 76 35 143.5zM413 387.5q-38 40.5 -106 40.5q-53 0 -96 -31.5t-67.5 -83t-24.5 -108.5q0 -69 38 -109.5t106 -40.5
q53 0 96 31.5t67.5 83t24.5 108.5q0 69 -38 109.5zM371 629l-103 -106h-53l127 144h72l66 -144h-49zM363 764q-10 10 -27 10q-42 0 -61 -86h-46q27 134 112 134q27 0 42 -13t30 -38q12 -21 22 -31t27 -10q20 0 35.5 21t26.5 65h46q-29 -134 -113 -134q-27 0 -42 13t-30 38
q-12 21 -22 31z" />
    <glyph glyph-name="uni1ED8" unicode="&#x1ed8;" horiz-adv-x="765" 
d="M110 481q50 91 136 144t189 53q86 0 156.5 -35t111 -101t40.5 -155q0 -110 -50 -201.5t-136 -144.5t-189 -53q-86 0 -156.5 35t-111 101t-40.5 156q0 110 50 201zM625 501q-30 50 -81 76.5t-114 26.5q-76 0 -140.5 -41.5t-103 -115t-38.5 -163.5q0 -69 29.5 -119.5
t81 -76.5t114.5 -26q75 0 140 41.5t103.5 115t38.5 163.5q0 69 -30 119zM263 -172q-12 12 -12 30q0 21 15.5 36.5t37.5 15.5q18 0 30 -12t12 -30q0 -21 -16 -36.5t-37 -15.5q-18 0 -30 12zM511 829l-103 -106h-53l127 144h72l66 -144h-49z" />
    <glyph glyph-name="uni1ED9" unicode="&#x1ed9;" 
d="M75 345.5q35 67.5 96.5 108.5t137.5 41q67 0 117 -27t77 -75.5t27 -112.5q0 -76 -35 -143t-97 -108t-137 -41q-102 0 -161.5 58.5t-59.5 155.5q0 76 35 143.5zM413 387.5q-38 40.5 -106 40.5q-53 0 -96 -31.5t-67.5 -83t-24.5 -108.5q0 -69 38 -109.5t106 -40.5
q53 0 96 31.5t67.5 83t24.5 108.5q0 69 -38 109.5zM166 -172q-12 12 -12 30q0 21 15.5 36.5t37.5 15.5q18 0 30 -12t12 -30q0 -21 -16 -36.5t-37 -15.5q-18 0 -30 12zM377 662l-103 -106h-53l127 144h72l66 -144h-49z" />
    <glyph glyph-name="uni1EDA" unicode="&#x1eda;" horiz-adv-x="765" 
d="M768.5 602.5q-27.5 -38.5 -66.5 -59.5q41 -68 41 -156q0 -110 -50 -201.5t-136 -144.5t-189 -53q-86 0 -156.5 35t-111 101t-40.5 156q0 110 50 201t136 144t189 53q76 0 140.5 -27.5t106.5 -78.5q23 13 40.5 32.5t24.5 38.5h-7q-14 0 -24 10.5t-10 25.5q0 19 14.5 33.5
t33.5 14.5q18 0 30 -13t12 -35q0 -38 -27.5 -76.5zM513 103.5q65 41.5 103.5 115t38.5 163.5q0 69 -30 119t-81 76.5t-114 26.5q-76 0 -140.5 -41.5t-103 -115t-38.5 -163.5q0 -69 29.5 -119.5t81 -76.5t114.5 -26q75 0 140 41.5zM429 723l180 144h80l-201 -144h-59z" />
    <glyph glyph-name="uni1EDB" unicode="&#x1edb;" 
d="M550 473.5q-25 -36.5 -61 -58.5q41 -55 41 -135q0 -76 -35 -143t-97 -108t-137 -41q-102 0 -161.5 58.5t-59.5 155.5q0 76 35 143.5t96.5 108.5t137.5 41q48 0 88 -14t68 -40q22 13 38.5 31.5t21.5 37.5q0 -1 -6 -1q-14 0 -24 10t-10 26q0 20 14 34t33 14t31 -12.5
t12 -34.5q0 -36 -25 -72.5zM359 86.5q43 31.5 67.5 83t24.5 108.5q0 69 -38 109.5t-106 40.5q-53 0 -96 -31.5t-67.5 -83t-24.5 -108.5q0 -69 38 -109.5t106 -40.5q53 0 96 31.5zM295 556l180 144h80l-201 -144h-59z" />
    <glyph glyph-name="uni1EDC" unicode="&#x1edc;" horiz-adv-x="765" 
d="M768.5 602.5q-27.5 -38.5 -66.5 -59.5q41 -68 41 -156q0 -110 -50 -201.5t-136 -144.5t-189 -53q-86 0 -156.5 35t-111 101t-40.5 156q0 110 50 201t136 144t189 53q76 0 140.5 -27.5t106.5 -78.5q23 13 40.5 32.5t24.5 38.5h-7q-14 0 -24 10.5t-10 25.5q0 19 14.5 33.5
t33.5 14.5q18 0 30 -13t12 -35q0 -38 -27.5 -76.5zM513 103.5q65 41.5 103.5 115t38.5 163.5q0 69 -30 119t-81 76.5t-114 26.5q-76 0 -140.5 -41.5t-103 -115t-38.5 -163.5q0 -69 29.5 -119.5t81 -76.5t114.5 -26q75 0 140 41.5zM352 867h78l116 -144h-57z" />
    <glyph glyph-name="uni1EDD" unicode="&#x1edd;" 
d="M550 473.5q-25 -36.5 -61 -58.5q41 -55 41 -135q0 -76 -35 -143t-97 -108t-137 -41q-102 0 -161.5 58.5t-59.5 155.5q0 76 35 143.5t96.5 108.5t137.5 41q48 0 88 -14t68 -40q22 13 38.5 31.5t21.5 37.5q0 -1 -6 -1q-14 0 -24 10t-10 26q0 20 14 34t33 14t31 -12.5
t12 -34.5q0 -36 -25 -72.5zM359 86.5q43 31.5 67.5 83t24.5 108.5q0 69 -38 109.5t-106 40.5q-53 0 -96 -31.5t-67.5 -83t-24.5 -108.5q0 -69 38 -109.5t106 -40.5q53 0 96 31.5zM219 700h78l116 -144h-57z" />
    <glyph glyph-name="uni1EDE" unicode="&#x1ede;" horiz-adv-x="765" 
d="M768.5 602.5q-27.5 -38.5 -66.5 -59.5q41 -68 41 -156q0 -110 -50 -201.5t-136 -144.5t-189 -53q-86 0 -156.5 35t-111 101t-40.5 156q0 110 50 201t136 144t189 53q76 0 140.5 -27.5t106.5 -78.5q23 13 40.5 32.5t24.5 38.5h-7q-14 0 -24 10.5t-10 25.5q0 19 14.5 33.5
t33.5 14.5q18 0 30 -13t12 -35q0 -38 -27.5 -76.5zM513 103.5q65 41.5 103.5 115t38.5 163.5q0 69 -30 119t-81 76.5t-114 26.5q-76 0 -140.5 -41.5t-103 -115t-38.5 -163.5q0 -69 29.5 -119.5t81 -76.5t114.5 -26q75 0 140 41.5zM457.5 807.5q19.5 12.5 42.5 12.5
q28 0 47.5 -16t19.5 -43q0 -36 -28 -64h-43q18 16 26.5 30t8.5 31q0 14 -10 22t-23 8q-26 0 -43 -29l-29 15q12 21 31.5 33.5z" />
    <glyph glyph-name="uni1EDF" unicode="&#x1edf;" 
d="M550 473.5q-25 -36.5 -61 -58.5q41 -55 41 -135q0 -76 -35 -143t-97 -108t-137 -41q-102 0 -161.5 58.5t-59.5 155.5q0 76 35 143.5t96.5 108.5t137.5 41q48 0 88 -14t68 -40q22 13 38.5 31.5t21.5 37.5q0 -1 -6 -1q-14 0 -24 10t-10 26q0 20 14 34t33 14t31 -12.5
t12 -34.5q0 -36 -25 -72.5zM359 86.5q43 31.5 67.5 83t24.5 108.5q0 69 -38 109.5t-106 40.5q-53 0 -96 -31.5t-67.5 -83t-24.5 -108.5q0 -69 38 -109.5t106 -40.5q53 0 96 31.5zM323.5 637.5q19.5 12.5 42.5 12.5q28 0 47.5 -16t19.5 -43q0 -36 -28 -64h-43q18 16 26.5 30
t8.5 31q0 14 -10 22t-23 8q-26 0 -43 -29l-29 15q12 21 31.5 33.5z" />
    <glyph glyph-name="uni1EE0" unicode="&#x1ee0;" horiz-adv-x="765" 
d="M768.5 602.5q-27.5 -38.5 -66.5 -59.5q41 -68 41 -156q0 -110 -50 -201.5t-136 -144.5t-189 -53q-86 0 -156.5 35t-111 101t-40.5 156q0 110 50 201t136 144t189 53q76 0 140.5 -27.5t106.5 -78.5q23 13 40.5 32.5t24.5 38.5h-7q-14 0 -24 10.5t-10 25.5q0 19 14.5 33.5
t33.5 14.5q18 0 30 -13t12 -35q0 -38 -27.5 -76.5zM513 103.5q65 41.5 103.5 115t38.5 163.5q0 69 -30 119t-81 76.5t-114 26.5q-76 0 -140.5 -41.5t-103 -115t-38.5 -163.5q0 -69 29.5 -119.5t81 -76.5t114.5 -26q75 0 140 41.5zM468 803q-10 10 -27 10q-42 0 -61 -86h-46
q27 134 112 134q27 0 42 -13t30 -38q12 -21 22 -31t27 -10q20 0 35.5 21t26.5 65h46q-29 -134 -113 -134q-27 0 -42 13t-30 38q-12 21 -22 31z" />
    <glyph glyph-name="uni1EE1" unicode="&#x1ee1;" 
d="M550 473.5q-25 -36.5 -61 -58.5q41 -55 41 -135q0 -76 -35 -143t-97 -108t-137 -41q-102 0 -161.5 58.5t-59.5 155.5q0 76 35 143.5t96.5 108.5t137.5 41q48 0 88 -14t68 -40q22 13 38.5 31.5t21.5 37.5q0 -1 -6 -1q-14 0 -24 10t-10 26q0 20 14 34t33 14t31 -12.5
t12 -34.5q0 -36 -25 -72.5zM359 86.5q43 31.5 67.5 83t24.5 108.5q0 69 -38 109.5t-106 40.5q-53 0 -96 -31.5t-67.5 -83t-24.5 -108.5q0 -69 38 -109.5t106 -40.5q53 0 96 31.5zM318 636q-10 10 -27 10q-42 0 -61 -86h-46q27 134 112 134q27 0 42 -13t30 -38q12 -21 22 -31
t27 -10q20 0 35.5 21t26.5 65h46q-29 -134 -113 -134q-27 0 -42 13t-30 38q-12 21 -22 31z" />
    <glyph glyph-name="uni1EE2" unicode="&#x1ee2;" horiz-adv-x="765" 
d="M768.5 602.5q-27.5 -38.5 -66.5 -59.5q41 -68 41 -156q0 -110 -50 -201.5t-136 -144.5t-189 -53q-86 0 -156.5 35t-111 101t-40.5 156q0 110 50 201t136 144t189 53q76 0 140.5 -27.5t106.5 -78.5q23 13 40.5 32.5t24.5 38.5h-7q-14 0 -24 10.5t-10 25.5q0 19 14.5 33.5
t33.5 14.5q18 0 30 -13t12 -35q0 -38 -27.5 -76.5zM513 103.5q65 41.5 103.5 115t38.5 163.5q0 69 -30 119t-81 76.5t-114 26.5q-76 0 -140.5 -41.5t-103 -115t-38.5 -163.5q0 -69 29.5 -119.5t81 -76.5t114.5 -26q75 0 140 41.5zM263 -172q-12 12 -12 30q0 21 15.5 36.5
t37.5 15.5q18 0 30 -12t12 -30q0 -21 -16 -36.5t-37 -15.5q-18 0 -30 12z" />
    <glyph glyph-name="uni1EE3" unicode="&#x1ee3;" 
d="M550 473.5q-25 -36.5 -61 -58.5q41 -55 41 -135q0 -76 -35 -143t-97 -108t-137 -41q-102 0 -161.5 58.5t-59.5 155.5q0 76 35 143.5t96.5 108.5t137.5 41q48 0 88 -14t68 -40q22 13 38.5 31.5t21.5 37.5q0 -1 -6 -1q-14 0 -24 10t-10 26q0 20 14 34t33 14t31 -12.5
t12 -34.5q0 -36 -25 -72.5zM359 86.5q43 31.5 67.5 83t24.5 108.5q0 69 -38 109.5t-106 40.5q-53 0 -96 -31.5t-67.5 -83t-24.5 -108.5q0 -69 38 -109.5t106 -40.5q53 0 96 31.5zM166 -172q-12 12 -12 30q0 21 15.5 36.5t37.5 15.5q18 0 30 -12t12 -30q0 -21 -16 -36.5
t-37 -15.5q-18 0 -30 12z" />
    <glyph glyph-name="uni1EE4" unicode="&#x1ee4;" horiz-adv-x="700" 
d="M81 259l90 408h83l-89 -406q-5 -20 -5 -42q0 -70 46.5 -113.5t129.5 -43.5q88 0 136.5 50.5t69.5 148.5l90 406h83l-89 -407q-30 -133 -97 -202.5t-193 -69.5q-123 0 -191.5 60t-68.5 162q0 19 5 49zM230 -172q-12 12 -12 30q0 21 15.5 36.5t37.5 15.5q18 0 30 -12
t12 -30q0 -21 -16 -36.5t-37 -15.5q-18 0 -30 12z" />
    <glyph glyph-name="uni1EE5" unicode="&#x1ee5;" horiz-adv-x="551" 
d="M133 167q-5 -25 -5 -34q0 -40 27 -59t73 -19q38 0 77.5 22t71.5 54l77 352h75l-107 -483h-75l16 70q-86 -82 -170 -82q-66 0 -105 31.5t-39 88.5q0 15 5 40l74 335h75zM155 -172q-12 12 -12 30q0 21 15.5 36.5t37.5 15.5q18 0 30 -12t12 -30q0 -21 -16 -36.5t-37 -15.5
q-18 0 -30 12z" />
    </font>
</defs>
</svg>
