<?xml version="1.0" standalone="no"?>
<!DOCTYPE svg PUBLIC "-//W3C//DTD SVG 1.1//EN" "http://www.w3.org/Graphics/SVG/1.1/DTD/svg11.dtd" >
<svg xmlns="http://www.w3.org/2000/svg" xmlns:xlink="http://www.w3.org/1999/xlink" version="1.1">
<metadata>
Created by FontForge 20170731 at Thu Jul 16 20:23:50 2015
 By Aleksey,,,
Copyright (c) Mark Simonson, 2005. All rights reserved.
</metadata>
<defs>
<font id="ProximaNova-BoldIt" horiz-adv-x="579" >
  <font-face 
    font-family="Proxima Nova"
    font-weight="700"
    font-style="italic"
    font-stretch="normal"
    units-per-em="1000"
    panose-1="2 0 5 6 3 0 0 2 0 4"
    ascent="790"
    descent="-210"
    x-height="483"
    cap-height="667"
    bbox="-296 -346 1157 899"
    underline-thickness="20"
    underline-position="-153"
    slope="-12.5"
    unicode-range="U+0020-FB04"
  />
<missing-glyph horiz-adv-x="483" 
d="M86 752h351v-842h-351v842zM117 722v-782h288v782h-288z" />
    <glyph glyph-name="f_f_j" unicode="ffj" horiz-adv-x="907" 
d="M120 372h-80l24 111h80l6 26q18 79 64 123.5t117 44.5q64 0 106 -27l-44 -86q-17 13 -46 13t-45.5 -17t-24.5 -51l-6 -26h99l-25 -111h-98l-82 -372h-128zM447 372h-80l24 111h80l6 26q18 79 64 123.5t117 44.5q64 0 106 -27l-44 -86q-17 13 -46 13t-45.5 -17t-24.5 -51
l-6 -26h99l-25 -111h-98l-82 -372h-128zM811.5 662.5q26.5 23.5 58.5 23.5q30 0 49.5 -19t19.5 -46q0 -39 -27 -62.5t-59 -23.5q-29 0 -48.5 19t-19.5 46q0 39 26.5 62.5zM553 -83q16 -6 33 -6q57 0 74 76l111 496h127l-111 -496q-19 -88 -63 -135.5t-123 -47.5
q-45 0 -75 11z" />
    <glyph glyph-name="f_j" unicode="fj" horiz-adv-x="580" 
d="M120 372h-80l24 111h80l6 26q18 79 64 123.5t117 44.5q64 0 106 -27l-44 -86q-17 13 -46 13t-45.5 -17t-24.5 -51l-6 -26h99l-25 -111h-98l-82 -372h-128zM483.5 662.5q26.5 23.5 58.5 23.5q30 0 49.5 -19t19.5 -46q0 -39 -27 -62.5t-59 -23.5q-29 0 -48.5 19t-19.5 46
q0 39 26.5 62.5zM225 -83q16 -6 33 -6q57 0 74 76l111 496h127l-111 -496q-19 -88 -63 -135.5t-123 -47.5q-45 0 -75 11z" />
    <glyph glyph-name="f_f" unicode="ff" horiz-adv-x="655" 
d="M120 372h-80l24 111h80l6 26q18 79 64 123.5t117 44.5q64 0 106 -27l-44 -86q-17 13 -46 13t-45.5 -17t-24.5 -51l-6 -26h99l-25 -111h-98l-82 -372h-128zM447 372h-80l24 111h80l6 26q18 79 64 123.5t117 44.5q64 0 106 -27l-44 -86q-17 13 -46 13t-45.5 -17t-24.5 -51
l-6 -26h99l-25 -111h-98l-82 -372h-128z" />
    <glyph glyph-name="fi" unicode="fi" horiz-adv-x="580" 
d="M120 372h-80l24 111h80l6 26q18 79 64 123.5t117 44.5q64 0 106 -27l-44 -86q-17 13 -46 13t-45.5 -17t-24.5 -51l-6 -26h99l-25 -111h-98l-82 -372h-128zM483.5 662.5q26.5 23.5 58.5 23.5q30 0 49.5 -19t19.5 -46q0 -39 -27 -62.5t-59 -23.5q-29 0 -48.5 19t-19.5 46
q0 39 26.5 62.5zM443 483h127l-107 -483h-127z" />
    <glyph glyph-name="fl" unicode="fl" horiz-adv-x="580" 
d="M120 372h-80l24 111h80l6 26q18 79 64 123.5t117 44.5q64 0 106 -27l-44 -86q-17 13 -46 13t-45.5 -17t-24.5 -51l-6 -26h99l-25 -111h-98l-82 -372h-128zM483 667h127l-147 -667h-127z" />
    <glyph glyph-name="f_f_i" unicode="ffi" horiz-adv-x="907" 
d="M120 372h-80l24 111h80l6 26q18 79 64 123.5t117 44.5q64 0 106 -27l-44 -86q-17 13 -46 13t-45.5 -17t-24.5 -51l-6 -26h99l-25 -111h-98l-82 -372h-128zM447 372h-80l24 111h80l6 26q18 79 64 123.5t117 44.5q64 0 106 -27l-44 -86q-17 13 -46 13t-45.5 -17t-24.5 -51
l-6 -26h99l-25 -111h-98l-82 -372h-128zM811.5 662.5q26.5 23.5 58.5 23.5q30 0 49.5 -19t19.5 -46q0 -39 -27 -62.5t-59 -23.5q-29 0 -48.5 19t-19.5 46q0 39 26.5 62.5zM771 483h127l-107 -483h-127z" />
    <glyph glyph-name="f_f_l" unicode="ffl" horiz-adv-x="907" 
d="M120 372h-80l24 111h80l6 26q18 79 64 123.5t117 44.5q64 0 106 -27l-44 -86q-17 13 -46 13t-45.5 -17t-24.5 -51l-6 -26h99l-25 -111h-98l-82 -372h-128zM447 372h-80l24 111h80l6 26q18 79 64 123.5t117 44.5q64 0 106 -27l-44 -86q-17 13 -46 13t-45.5 -17t-24.5 -51
l-6 -26h99l-25 -111h-98l-82 -372h-128zM811 667h127l-147 -667h-127z" />
    <glyph glyph-name="f_b" unicode="fb" horiz-adv-x="912" 
d="M120 372h-80l24 111h80l6 26q18 79 64 123.5t117 44.5q64 0 106 -27l-44 -86q-17 13 -46 13t-45.5 -17t-24.5 -51l-6 -26h99l-25 -111h-98l-82 -372h-128zM463 0h-127l147 667h127l-54 -244q62 72 146 72q83 0 133 -53t50 -147q0 -75 -30 -146t-88 -116t-136 -45
q-49 0 -89.5 20t-64.5 56zM722 351q-30 31 -77 31q-32 0 -60.5 -16t-50.5 -42l-37 -168q16 -25 46 -40t67 -15q41 0 73.5 23t50.5 61.5t18 83.5q0 51 -30 82z" />
    <glyph glyph-name="f_h" unicode="fh" horiz-adv-x="907" 
d="M120 372h-80l24 111h80l6 26q18 79 64 123.5t117 44.5q64 0 106 -27l-44 -86q-17 13 -46 13t-45.5 -17t-24.5 -51l-6 -26h99l-25 -111h-98l-82 -372h-128zM726 290q5 20 5 30q0 32 -22.5 47t-60.5 15q-30 0 -59.5 -16.5t-53.5 -40.5l-72 -325h-127l147 667h127l-54 -247
q34 33 73.5 54t87.5 21q69 0 110 -33.5t41 -89.5q0 -15 -5 -40l-73 -332h-127z" />
    <glyph glyph-name="f_k" unicode="fk" horiz-adv-x="863" 
d="M120 372h-80l24 111h80l6 26q18 79 64 123.5t117 44.5q64 0 106 -27l-44 -86q-17 13 -46 13t-45.5 -17t-24.5 -51l-6 -26h99l-25 -111h-98l-82 -372h-128zM565 189l-75 -65l-27 -124h-127l147 667h127l-87 -391l224 207h162l-240 -219l139 -264h-154z" />
    <glyph glyph-name=".notdef" horiz-adv-x="483" 
d="M86 752h351v-842h-351v842zM117 722v-782h288v782h-288z" />
    <glyph glyph-name=".null" horiz-adv-x="0" 
 />
    <glyph glyph-name="nonmarkingreturn" horiz-adv-x="0" 
 />
    <glyph glyph-name="NULL" horiz-adv-x="0" 
 />
    <glyph glyph-name="NULL" horiz-adv-x="0" 
 />
    <glyph glyph-name="space" unicode=" " horiz-adv-x="256" 
 />
    <glyph glyph-name="exclam" unicode="!" horiz-adv-x="256" 
d="M144 667h153l-120 -450h-112zM34.5 125q26.5 26 62.5 26q31 0 52 -22t21 -53q0 -36 -26 -62t-62 -26q-31 0 -52.5 22t-21.5 53q0 36 26.5 62z" />
    <glyph glyph-name="quotedbl" unicode="&#x22;" horiz-adv-x="406" 
d="M122 596q0 34 23 57.5t56 23.5q25 0 43 -18t18 -45q0 -9 -7 -30l-86 -209h-56zM304 596q1 35 23.5 58t55.5 23q25 0 43 -18t18 -45q0 -16 -7 -30l-86 -209h-56z" />
    <glyph glyph-name="numbersign" unicode="#" horiz-adv-x="618" 
d="M285 169h-95l-94 -169h-94l95 169h-97l44 81h97l92 166h-97l42 80h100l94 171h94l-94 -171h94l94 171h95l-96 -171h98l-42 -80h-100l-92 -166h101l-43 -81h-103l-93 -169h-95zM327 416l-91 -166h93l92 166h-94z" />
    <glyph glyph-name="dollar" unicode="$" horiz-adv-x="614" 
d="M524.5 325.5q48.5 -40.5 48.5 -109.5q0 -66 -34.5 -118.5t-96 -82t-138.5 -27.5l-20 -88h-95l22 98q-66 13 -119 43t-84 71l89 104q24 -32 61 -56t81 -36l35 157q-82 32 -129.5 71t-47.5 108q0 61 35.5 111.5t96.5 78.5t133 27l20 91h95l-23 -102q109 -25 170 -97
l-89 -100q-42 49 -109 70l-32 -142q82 -31 130.5 -71.5zM341 554q-38 2 -65.5 -18t-27.5 -50q0 -17 16.5 -31t48.5 -27zM396.5 135.5q25.5 22.5 25.5 52.5q0 20 -17.5 35t-51.5 29l-31 -140q49 1 74.5 23.5z" />
    <glyph glyph-name="percent" unicode="%" horiz-adv-x="757" 
d="M107.5 583.5q25.5 44.5 67.5 69t92 24.5q66 0 112.5 -38t46.5 -100q0 -56 -25 -100.5t-67.5 -69t-92.5 -24.5q-66 0 -112.5 38t-46.5 100q0 56 25.5 100.5zM649 667h76l-574 -667h-75zM315.5 578.5q-20.5 19.5 -52.5 19.5q-38 0 -64.5 -30t-26.5 -77q0 -29 20.5 -48.5
t52.5 -19.5q38 0 64.5 30t26.5 77q0 29 -20.5 48.5zM394.5 227.5q25.5 44.5 68 69t91.5 24.5q43 0 80 -17t59 -48.5t22 -73.5q0 -56 -25.5 -100.5t-68 -69t-91.5 -24.5q-43 0 -80 17t-59 48.5t-22 73.5q0 56 25.5 100.5zM603.5 222.5q-20.5 19.5 -51.5 19.5q-38 0 -64.5 -30
t-26.5 -77q0 -30 20 -49.5t51 -19.5q38 0 65 30t27 78q0 29 -20.5 48.5z" />
    <glyph glyph-name="ampersand" unicode="&#x26;" horiz-adv-x="646" 
d="M486 114q35 -53 80 -114h-151q-23 32 -28 38q-82 -50 -166 -50q-97 0 -156.5 44t-59.5 132t51 138t140 83q-17 56 -17 105q0 52 27 95t73.5 67.5t102.5 24.5q73 0 123.5 -36t50.5 -100q0 -54 -28.5 -90t-70.5 -57.5t-108 -44.5q14 -28 37 -68q20 -39 46 -81q55 60 90 122
l91 -57q-68 -94 -127 -151zM318 426q61 21 92.5 44t31.5 59q0 27 -15.5 41.5t-39.5 14.5q-31 0 -55.5 -25t-24.5 -69q0 -30 11 -65zM332 117q-41 62 -56 90q-30 57 -47 94q-41 -21 -63 -50.5t-22 -71.5q0 -44 28 -67.5t70 -23.5t90 29z" />
    <glyph glyph-name="quotesingle" unicode="'" horiz-adv-x="225" 
d="M122 596q0 34 23 57.5t56 23.5q25 0 43 -18t18 -45q0 -9 -7 -30l-86 -209h-56z" />
    <glyph glyph-name="parenleft" unicode="(" horiz-adv-x="297" 
d="M43.5 -60.5q-20.5 80.5 -20.5 167.5q0 156 73 309.5t200 268.5l67 -68q-98 -118 -152 -257.5t-54 -287.5q0 -53 10.5 -110t27.5 -108l-92 -53q-39 58 -59.5 138.5z" />
    <glyph glyph-name="parenright" unicode=")" horiz-adv-x="297" 
d="M252 546q21 -81 21 -167q0 -156 -73.5 -309.5t-200.5 -268.5l-66 68q98 118 152 257.5t54 286.5q0 53 -10.5 110.5t-27.5 108.5l92 53q38 -58 59 -139z" />
    <glyph glyph-name="asterisk" unicode="*" horiz-adv-x="351" 
d="M200 480l-106 -48l-18 57l107 38l-85 60l43 50l79 -68l19 108h64l-31 -113l106 48l18 -58l-106 -39l85 -59l-45 -50l-78 68l-18 -108h-65z" />
    <glyph glyph-name="plus" unicode="+" horiz-adv-x="504" 
d="M262 95h-86l45 203h-180l17 79h180l43 195h87l-43 -195h180l-18 -79h-180z" />
    <glyph glyph-name="comma" unicode="," horiz-adv-x="256" 
d="M-18 -84q30 13 58.5 36t39.5 48h-11q-26 0 -43.5 17t-17.5 48q0 35 27 60.5t61 25.5q33 0 55.5 -21.5t22.5 -60.5q0 -56 -42 -113t-105 -87z" />
    <glyph glyph-name="hyphen" unicode="-" horiz-adv-x="300" 
d="M41 296h240l-24 -108h-240z" />
    <glyph glyph-name="period" unicode="." horiz-adv-x="256" 
d="M34.5 125q26.5 26 62.5 26q31 0 52 -22t21 -53q0 -36 -26 -62t-62 -26q-31 0 -52.5 22t-21.5 53q0 36 26.5 62z" />
    <glyph glyph-name="slash" unicode="/" horiz-adv-x="329" 
d="M333 687h96l-394 -707h-95z" />
    <glyph glyph-name="zero" unicode="0" horiz-adv-x="620" 
d="M85.5 462q42.5 97 118.5 156t171 59q110 0 174.5 -70.5t64.5 -197.5q0 -109 -42 -206t-117.5 -156t-170.5 -59q-110 0 -175.5 71t-65.5 198q0 108 42.5 205zM444 514.5q-27 36.5 -83 36.5q-52 0 -92 -46.5t-61 -116.5t-21 -138q0 -63 27 -99.5t83 -36.5q52 0 92 46.5
t61 117t21 138.5q0 62 -27 98.5z" />
    <glyph glyph-name="one" unicode="1" horiz-adv-x="411" 
d="M255 484l-135 -113l-63 85l257 211h124l-147 -667h-142z" />
    <glyph glyph-name="two" unicode="2" horiz-adv-x="600" 
d="M22 132q164 93 250 147.5t132 102t46 92.5q0 36 -33.5 57t-86.5 21q-95 0 -166 -60l-60 102q44 38 107 60.5t129 22.5q70 0 129 -22.5t94.5 -66.5t35.5 -105q0 -94 -89.5 -180.5t-259.5 -177.5h272l-27 -125h-502z" />
    <glyph glyph-name="three" unicode="3" horiz-adv-x="587" 
d="M82 213q30 -47 85 -73t110 -26q57 0 88 25.5t31 66.5q0 70 -122 70q-59 0 -81 -2l29 128q11 -1 93 -1q60 0 95 18.5t35 58.5q0 33 -34.5 53t-96.5 20q-44 0 -86 -13.5t-76 -40.5l-51 97q42 38 101.5 60.5t125.5 22.5q121 0 192.5 -46t71.5 -128q0 -43 -26 -78.5
t-67.5 -58t-86.5 -28.5q56 -14 90 -50t34 -96q0 -58 -34 -104.5t-93 -73t-130 -26.5q-94 0 -174.5 37t-117.5 102z" />
    <glyph glyph-name="four" unicode="4" horiz-adv-x="597" 
d="M320 138h-319l28 124l346 405h204l-89 -404h85l-27 -125h-86l-30 -138h-142zM167 263h180l62 278z" />
    <glyph glyph-name="five" unicode="5" horiz-adv-x="608" 
d="M119 206q27 -44 73 -68t106 -24q57 0 91.5 31t34.5 77q0 43 -34.5 66.5t-91.5 23.5q-38 0 -66 -9.5t-56 -30.5l-92 37l79 358h458l-27 -125h-317l-34 -157q27 22 59 32.5t74 10.5q55 0 99.5 -22.5t71 -65t26.5 -101.5q0 -68 -35 -125.5t-98.5 -91.5t-143.5 -34
q-96 0 -166 33t-112 95z" />
    <glyph glyph-name="six" unicode="6" horiz-adv-x="608" 
d="M81.5 456q42.5 99 124 160t191.5 61q71 0 127.5 -24t96.5 -67l-88 -100q-24 31 -62 48t-82 17q-68 0 -117 -48t-70 -116q-3 -6 -9 -26q28 29 75.5 49.5t97.5 20.5q60 0 108 -22.5t75.5 -64t27.5 -97.5q0 -70 -37 -129.5t-100.5 -94.5t-138.5 -35q-123 0 -192.5 68
t-69.5 190q0 111 42.5 210zM392 293q-37 24 -92 24q-67 0 -121 -51q-1 -7 -1 -34q0 -54 34.5 -86t88.5 -32t91 33.5t37 81.5q0 40 -37 64z" />
    <glyph glyph-name="seven" unicode="7" horiz-adv-x="545" 
d="M418 542h-328l27 125h501l-22 -99l-371 -568h-163z" />
    <glyph glyph-name="eight" unicode="8" horiz-adv-x="606" 
d="M63 284.5q49 51.5 136 73.5q-43 19 -71.5 54.5t-28.5 79.5q0 62 38 103.5t98 61.5t126 20q67 0 126.5 -19t96.5 -57.5t37 -94.5q0 -65 -47.5 -112.5t-125.5 -62.5q50 -26 80.5 -65.5t30.5 -85.5q0 -59 -38 -102.5t-101 -66.5t-135 -23q-114 0 -192.5 45.5t-78.5 133.5
q0 66 49 117.5zM434.5 533q-33.5 21 -82.5 21q-46 0 -78.5 -21t-32.5 -56q0 -26 29.5 -48t66.5 -30q59 4 95 25.5t36 56.5q0 31 -33.5 52zM383.5 247.5q-31.5 23.5 -73.5 33.5q-62 -3 -103.5 -28t-41.5 -64q0 -38 34.5 -58.5t91.5 -20.5q50 0 87 23.5t37 59.5
q0 31 -31.5 54.5z" />
    <glyph glyph-name="nine" unicode="9" horiz-adv-x="608" 
d="M564.5 210q-42.5 -99 -124 -160t-192.5 -61q-71 0 -127 23.5t-95 66.5l87 101q23 -32 61 -48.5t84 -16.5q68 0 116 47.5t71 115.5q7 22 8 27q-29 -30 -76 -50.5t-97 -20.5q-60 0 -108 22.5t-76 64.5t-28 98q0 69 37.5 128.5t101.5 95t138 35.5q123 0 192.5 -68t69.5 -190
q0 -111 -42.5 -210zM253.5 373q36.5 -24 91.5 -24q69 0 122 50q1 7 1 34q0 54 -34.5 86.5t-88.5 32.5t-91 -33.5t-37 -81.5q0 -40 36.5 -64z" />
    <glyph glyph-name="colon" unicode=":" horiz-adv-x="256" 
d="M109 464.5q26 25.5 62 25.5q31 0 52.5 -21.5t21.5 -52.5q0 -36 -26.5 -62t-62.5 -26q-31 0 -52 22t-21 53q0 36 26 61.5zM34.5 125q26.5 26 62.5 26q31 0 52 -22t21 -53q0 -36 -26 -62t-62 -26q-31 0 -52.5 22t-21.5 53q0 36 26.5 62z" />
    <glyph glyph-name="semicolon" unicode=";" horiz-adv-x="256" 
d="M109 464.5q26 25.5 62 25.5q31 0 52.5 -21.5t21.5 -52.5q0 -36 -26.5 -62t-62.5 -26q-31 0 -52 22t-21 53q0 36 26 61.5zM-18 -84q30 13 58.5 36t39.5 48h-11q-26 0 -43.5 17t-17.5 48q0 35 27 60.5t61 25.5q33 0 55.5 -21.5t22.5 -60.5q0 -56 -42 -113t-105 -87z" />
    <glyph glyph-name="less" unicode="&#x3c;" horiz-adv-x="504" 
d="M59 380l490 200l-22 -98l-388 -152l321 -150l-20 -90l-402 199z" />
    <glyph glyph-name="equal" unicode="=" horiz-adv-x="504" 
d="M78 468h446l-17 -80h-446zM37 279h446l-17 -78h-447z" />
    <glyph glyph-name="greater" unicode="&#x3e;" horiz-adv-x="504" 
d="M16 188l389 150l-322 152l20 90l402 -200l-20 -91l-491 -199z" />
    <glyph glyph-name="question" unicode="?" horiz-adv-x="456" 
d="M152 274q0 40 17 67.5t40.5 44.5t60.5 36q39 21 57.5 37t18.5 40q0 25 -20.5 39t-60.5 14q-33 0 -64.5 -12t-57.5 -36l-60 98q89 75 203 75q90 0 150.5 -40t60.5 -108q0 -47 -19 -79t-45.5 -51t-69.5 -43q-47 -26 -68 -44.5t-21 -47.5q0 -17 11 -28l-116 -32
q-17 31 -17 70zM132.5 125q26.5 26 62.5 26q31 0 52 -22t21 -53q0 -36 -26 -62t-63 -26q-30 0 -51.5 22t-21.5 53q0 36 26.5 62z" />
    <glyph glyph-name="at" unicode="@" horiz-adv-x="783" 
d="M110.5 439q55.5 91 147.5 145t194 54q93 0 164.5 -41.5t111 -111.5t39.5 -153q0 -79 -30 -135t-76 -84t-92 -28q-42 0 -67 21.5t-30 52.5l-1 6q-26 -37 -65 -58.5t-79 -21.5q-71 0 -113 47t-42 121q0 65 32 121.5t84.5 90t109.5 33.5q43 0 75.5 -18.5t49.5 -48.5l11 53
h113l-51 -244q-3 -18 -3 -24q0 -22 10 -33.5t27 -11.5q21 0 43 17.5t36.5 54t14.5 89.5q0 79 -34 139.5t-96.5 94t-145.5 33.5q-93 0 -174.5 -49t-130.5 -130.5t-49 -173.5q0 -78 36.5 -141.5t101 -100t144.5 -36.5q96 0 183 55l21 -30q-98 -63 -208 -63q-89 0 -161.5 41.5
t-114 113.5t-41.5 159q0 104 55.5 195zM507 357q-10 20 -30.5 35.5t-50.5 15.5q-39 0 -70.5 -20.5t-49.5 -54t-18 -70.5q0 -39 22.5 -63.5t60.5 -24.5q63 0 111 65z" />
    <glyph glyph-name="A" unicode="A" horiz-adv-x="684" 
d="M463 113h-286l-67 -113h-169l405 667h178l110 -667h-154zM244 238h207l-40 287z" />
    <glyph glyph-name="B" unicode="B" horiz-adv-x="663" 
d="M159 667h324q56 0 97 -22t62.5 -58.5t21.5 -79.5q0 -44 -21 -82.5t-56 -63t-75 -28.5q45 -12 70.5 -50t25.5 -85q0 -50 -24.5 -95t-76.5 -74t-131 -29h-364zM492.5 527q-19.5 18 -48.5 18h-169l-32 -145h179q47 0 68.5 24.5t21.5 58.5q0 26 -19.5 44zM446 259
q-20 19 -53 19h-178l-34 -155h184q46 0 73.5 25t27.5 62q0 30 -20 49z" />
    <glyph glyph-name="C" unicode="C" horiz-adv-x="687" 
d="M97 491q53 89 142 138t193 49q115 0 189.5 -53t106.5 -136l-137 -46q-19 52 -63.5 80.5t-102.5 28.5q-62 0 -116 -33.5t-85.5 -92.5t-31.5 -130q0 -52 23 -93.5t66 -65t99 -23.5q43 0 86 21t71 56l109 -74q-53 -68 -126.5 -98.5t-147.5 -30.5q-92 0 -167 37t-118 105
t-43 157q0 115 53 204z" />
    <glyph glyph-name="D" unicode="D" horiz-adv-x="718" 
d="M558.5 631q66.5 -36 107 -101.5t40.5 -149.5q0 -95 -45 -181.5t-142 -142.5t-245 -56h-262l147 667h258q75 0 141.5 -36zM436.5 158q58.5 33 90 89.5t31.5 123.5q0 48 -21.5 87t-59.5 61.5t-87 22.5h-116l-92 -417h118q78 0 136.5 33z" />
    <glyph glyph-name="E" unicode="E" horiz-adv-x="583" 
d="M159 667h472l-28 -125h-329l-31 -141h322l-28 -125h-322l-33 -151h329l-27 -125h-472z" />
    <glyph glyph-name="F" unicode="F" horiz-adv-x="571" 
d="M159 667h472l-28 -125h-329l-31 -141h322l-28 -125h-322l-61 -276h-142z" />
    <glyph glyph-name="G" unicode="G" horiz-adv-x="720" 
d="M96 487.5q52 89.5 143.5 140t205.5 50.5q100 0 171 -47t104 -118l-131 -56q-17 42 -62.5 68.5t-101.5 26.5q-62 0 -115.5 -33.5t-85.5 -92.5t-32 -130q0 -51 23 -92.5t65.5 -65.5t99.5 -24q73 0 133 51l18 80h-177l28 125h319l-58 -260q-49 -58 -119 -90t-152 -32
q-91 0 -166 36.5t-118.5 104.5t-43.5 158q0 111 52 200.5z" />
    <glyph glyph-name="H" unicode="H" horiz-adv-x="731" 
d="M531 280h-315l-62 -280h-142l147 667h142l-57 -262h314l58 262h143l-147 -667h-143z" />
    <glyph glyph-name="I" unicode="I" horiz-adv-x="274" 
d="M159 667h142l-147 -667h-142z" />
    <glyph glyph-name="J" unicode="J" horiz-adv-x="486" 
d="M48 169q16 -25 44.5 -40t62.5 -15q47 0 76.5 28t41.5 79l98 446h142l-98 -448q-26 -119 -86.5 -175t-163.5 -56q-59 0 -111 19t-83 56z" />
    <glyph glyph-name="K" unicode="K" horiz-adv-x="636" 
d="M269 273l-69 -68l-46 -205h-142l147 667h142l-63 -286l291 286h183l-334 -313l205 -354h-167z" />
    <glyph glyph-name="L" unicode="L" horiz-adv-x="523" 
d="M159 667h142l-119 -542h281l-27 -125h-424z" />
    <glyph glyph-name="M" unicode="M" horiz-adv-x="855" 
d="M698 481l-294 -481h-62l-82 481l-106 -481h-142l147 667h194l69 -417l255 417h205l-147 -667h-143z" />
    <glyph glyph-name="N" unicode="N" horiz-adv-x="729" 
d="M254 450l-100 -450h-142l147 667h146l212 -434l97 434h142l-147 -667h-137z" />
    <glyph glyph-name="O" unicode="O" horiz-adv-x="765" 
d="M95 484.5q51 89.5 140 141.5t197 52q92 0 166.5 -37t117.5 -104.5t43 -156.5q0 -108 -51 -197.5t-139.5 -142t-196.5 -52.5q-93 0 -167.5 37t-117.5 105t-43 157q0 108 51 197.5zM586.5 466q-24.5 41 -67 63.5t-96.5 22.5q-64 0 -116.5 -34t-83.5 -93t-31 -129
q0 -55 24.5 -96.5t67 -63.5t96.5 -22q63 0 116 34t84 93t31 129q0 55 -24.5 96z" />
    <glyph glyph-name="P" unicode="P" horiz-adv-x="624" 
d="M159 667h293q60 0 105 -25t69 -67t24 -93q0 -56 -27.5 -112t-89.5 -94.5t-159 -38.5h-167l-53 -237h-142zM468 392q33 30 33 75q0 33 -23 54t-60 21h-144l-40 -180h149q52 0 85 30z" />
    <glyph glyph-name="Q" unicode="Q" horiz-adv-x="765" 
d="M719.5 203.5q-39.5 -81.5 -109.5 -135.5l34 -54l-114 -55l-31 50q-60 -21 -127 -21q-93 0 -167.5 37t-117.5 105t-43 157q0 108 51 197.5t140 141.5t197 52q92 0 166.5 -37t117.5 -104.5t43 -156.5q0 -95 -39.5 -176.5zM591.5 266q19.5 49 19.5 104t-24.5 96t-67 63.5
t-96.5 22.5q-64 0 -116.5 -34t-83.5 -93t-31 -129q0 -55 24.5 -96.5t67 -63.5t96.5 -22q25 0 49 6l-58 91l113 55l54 -84q34 35 53.5 84z" />
    <glyph glyph-name="R" unicode="R" horiz-adv-x="643" 
d="M316 237h-110l-52 -237h-142l147 667h285q55 0 102 -23t75.5 -66t28.5 -99q0 -59 -24.5 -108.5t-68 -81.5t-97.5 -42l92 -247h-157zM469.5 390.5q31.5 28.5 31.5 74.5q0 33 -25 55t-59 22h-143l-40 -180h149q55 0 86.5 28.5z" />
    <glyph glyph-name="S" unicode="S" horiz-adv-x="600" 
d="M87 216q35 -47 96 -75.5t129 -28.5q49 0 74.5 23.5t25.5 52.5q0 26 -28 43t-88 39q-64 23 -105.5 43.5t-72 56.5t-30.5 90q0 56 31.5 106t91 80.5t138.5 30.5q80 0 150.5 -28.5t114.5 -79.5l-88 -100q-36 41 -90.5 63t-108.5 22q-38 0 -63.5 -20t-25.5 -48
q0 -24 27.5 -39.5t87.5 -37.5q64 -23 107 -44.5t73.5 -58.5t30.5 -90q0 -62 -32 -114t-91.5 -83t-139.5 -31q-97 0 -178 34t-124 90z" />
    <glyph glyph-name="T" unicode="T" horiz-adv-x="582" 
d="M285 542h-195l28 125h532l-27 -125h-195l-119 -542h-143z" />
    <glyph glyph-name="U" unicode="U" horiz-adv-x="733" 
d="M71 266l88 401h144l-87 -397q-4 -12 -4 -33q1 -53 38.5 -88.5t105.5 -35.5q138 0 172 157l88 397h145l-89 -400q-29 -133 -103 -206t-213 -73q-141 0 -215.5 63t-74.5 170q0 20 5 45z" />
    <glyph glyph-name="V" unicode="V" horiz-adv-x="684" 
d="M88 667h155l72 -513l297 513h169l-404 -667h-178z" />
    <glyph glyph-name="W" unicode="W" horiz-adv-x="918" 
d="M506 458l-217 -458h-151l-44 667h156l10 -482l233 482h111l20 -482l223 482h163l-337 -667h-151z" />
    <glyph glyph-name="X" unicode="X" horiz-adv-x="668" 
d="M335 237l-214 -237h-178l321 351l-159 316h161l109 -221l195 221h179l-303 -333l171 -334h-161z" />
    <glyph glyph-name="Y" unicode="Y" horiz-adv-x="645" 
d="M258 273l-170 394h154l107 -268l223 268h170l-342 -394l-60 -273h-142z" />
    <glyph glyph-name="Z" unicode="Z" horiz-adv-x="592" 
d="M13 115l401 427h-306l27 125h501l-24 -114l-403 -428h315l-28 -125h-508z" />
    <glyph glyph-name="bracketleft" unicode="[" horiz-adv-x="280" 
d="M143 678h216l-19 -85h-124l-155 -698h124l-19 -85h-216z" />
    <glyph glyph-name="backslash" unicode="\" horiz-adv-x="329" 
d="M190 687l80 -707h-92l-80 707h92z" />
    <glyph glyph-name="bracketright" unicode="]" horiz-adv-x="280" 
d="M-60 -105h124l155 698h-124l18 85h216l-193 -868h-215z" />
    <glyph glyph-name="asciicircum" unicode="^" horiz-adv-x="441" 
d="M299 580l-162 -247h-99l230 334h93l80 -334h-89z" />
    <glyph glyph-name="underscore" unicode="_" horiz-adv-x="564" 
d="M-65 -40h569l-20 -85h-569z" />
    <glyph glyph-name="grave" unicode="`" horiz-adv-x="251" 
d="M101 700h117l102 -144h-89z" />
    <glyph glyph-name="a" unicode="a" horiz-adv-x="586" 
d="M448 483h128l-107 -483h-128l14 60q-31 -36 -66.5 -54t-78.5 -18q-84 0 -134 53t-50 147q0 76 30.5 146.5t88 115.5t136.5 45q48 0 89 -20t65 -56zM189 132q30 -31 77 -31q33 0 62 15.5t49 41.5l37 168q-16 25 -46 40.5t-67 15.5q-40 0 -72.5 -23t-51 -62t-18.5 -83
q0 -51 30 -82z" />
    <glyph glyph-name="b" unicode="b" horiz-adv-x="586" 
d="M136 0h-127l147 667h127l-54 -244q62 72 146 72q83 0 133 -53t50 -147q0 -75 -30 -146t-88 -116t-136 -45q-49 0 -89.5 20t-64.5 56zM395 351q-30 31 -77 31q-32 0 -60.5 -16t-50.5 -42l-37 -168q16 -25 46 -40t67 -15q41 0 73.5 23t50.5 61.5t18 83.5q0 51 -30 82z" />
    <glyph glyph-name="c" unicode="c" horiz-adv-x="499" 
d="M65 352.5q37 65.5 101.5 104t142.5 38.5q71 0 120.5 -25.5t75.5 -69.5l-95 -73q-15 26 -41.5 40.5t-59.5 14.5q-44 0 -79 -22.5t-54 -61t-19 -84.5q0 -53 34.5 -83t86.5 -30q30 0 56 13t45 35l69 -85q-31 -33 -77.5 -54.5t-105.5 -21.5q-71 0 -125 27.5t-83 77.5t-29 115
q0 79 37 144.5z" />
    <glyph glyph-name="d" unicode="d" horiz-adv-x="586" 
d="M489 667h128l-148 -667h-128l14 60q-31 -36 -66.5 -54t-78.5 -18q-84 0 -134 53t-50 147q0 76 30.5 146.5t88 115.5t136.5 45q48 0 89 -20t65 -56zM189 132q30 -31 77 -31q33 0 62 15.5t49 41.5l37 168q-16 25 -46 40.5t-67 15.5q-40 0 -72.5 -23t-51 -62t-18.5 -83
q0 -51 30 -82z" />
    <glyph glyph-name="e" unicode="e" horiz-adv-x="553" 
d="M64.5 349.5q36.5 66.5 100 106t142.5 39.5q62 0 111 -26t77.5 -75t28.5 -115q0 -20 -3 -42.5t-7 -35.5h-359v-12q0 -22 15 -45.5t45 -39t72 -15.5q33 0 66.5 9.5t55.5 26.5l40 -87q-35 -24 -80.5 -37t-90.5 -13q-115 0 -182.5 58t-67.5 159q0 78 36.5 144.5zM410 297
q0 40 -28.5 68.5t-82.5 28.5q-49 0 -85.5 -32.5t-45.5 -74.5h242v10z" />
    <glyph glyph-name="f" unicode="f" horiz-adv-x="327" 
d="M120 372h-80l24 111h80l6 26q18 79 64 123.5t117 44.5q64 0 106 -27l-44 -86q-17 13 -46 13t-45.5 -17t-24.5 -51l-6 -26h99l-25 -111h-98l-82 -372h-128z" />
    <glyph glyph-name="g" unicode="g" horiz-adv-x="585" 
d="M53 -27q23 -31 65.5 -48t91.5 -17q109 0 137 125l10 44q-28 -34 -66.5 -53.5t-81.5 -19.5q-79 0 -130.5 48.5t-51.5 147.5q0 75 30.5 143t87.5 110t132 42q44 0 87 -20.5t69 -55.5l14 64h128l-100 -450q-27 -125 -99 -177t-164 -52q-75 0 -133.5 19.5t-100.5 64.5z
M412 322q-17 28 -48.5 44t-69.5 16q-39 0 -69.5 -21t-48 -57t-17.5 -79q0 -49 30 -78.5t80 -29.5q30 0 59.5 15.5t49.5 39.5z" />
    <glyph glyph-name="h" unicode="h" horiz-adv-x="580" 
d="M399 290q5 20 5 30q0 32 -22.5 47t-60.5 15q-30 0 -59.5 -16.5t-53.5 -40.5l-72 -325h-127l147 667h127l-54 -247q34 33 73.5 54t87.5 21q69 0 110 -33.5t41 -89.5q0 -15 -5 -40l-73 -332h-127z" />
    <glyph glyph-name="i" unicode="i" horiz-adv-x="253" 
d="M156.5 662.5q26.5 23.5 58.5 23.5q30 0 49.5 -19t19.5 -46q0 -39 -27 -62.5t-59 -23.5q-29 0 -48.5 19t-19.5 46q0 39 26.5 62.5zM116 483h127l-107 -483h-127z" />
    <glyph glyph-name="j" unicode="j" horiz-adv-x="253" 
d="M156.5 662.5q26.5 23.5 58.5 23.5q30 0 49.5 -19t19.5 -46q0 -39 -27 -62.5t-59 -23.5q-29 0 -48.5 19t-19.5 46q0 39 26.5 62.5zM-102 -83q16 -6 33 -6q57 0 74 76l111 496h127l-111 -496q-19 -88 -63 -135.5t-123 -47.5q-45 0 -75 11z" />
    <glyph glyph-name="k" unicode="k" horiz-adv-x="535" 
d="M238 189l-75 -65l-27 -124h-127l147 667h127l-87 -391l224 207h162l-240 -219l139 -264h-154z" />
    <glyph glyph-name="l" unicode="l" horiz-adv-x="253" 
d="M156 667h127l-147 -667h-127z" />
    <glyph glyph-name="m" unicode="m" horiz-adv-x="852" 
d="M673 292q4 24 4 32q0 27 -20 42.5t-49 15.5q-27 0 -53.5 -16t-47.5 -40l-71 -326h-128l65 292q5 25 5 35q-1 24 -19.5 39.5t-51.5 15.5q-26 0 -52 -16t-47 -40l-72 -326h-127l107 483h127l-14 -63q70 75 147 75q43 0 73 -16.5t45 -37.5t15 -33v-2q72 89 167 89
q58 0 98 -33t40 -90q0 -20 -5 -40l-73 -332h-128z" />
    <glyph glyph-name="n" unicode="n" 
d="M399 288q5 23 5 32q0 32 -21 47t-53 15q-64 0 -122 -56l-72 -326h-127l107 483h127l-14 -63q34 33 73.5 54t87.5 21q69 0 110 -33.5t41 -89.5q0 -15 -5 -40l-74 -332h-127z" />
    <glyph glyph-name="o" unicode="o" horiz-adv-x="574" 
d="M63 348.5q36 66.5 100 106.5t143 40q75 0 129.5 -28.5t82.5 -78t28 -113.5q0 -75 -36 -141t-100 -106t-144 -40q-75 0 -129 28t-82 77.5t-28 113.5q0 75 36 141.5zM384 352q-30 30 -82 30q-42 0 -74.5 -23.5t-51 -62.5t-18.5 -82q0 -53 30 -83t83 -30q41 0 74 23.5t51 62
t18 82.5q0 53 -30 83z" />
    <glyph glyph-name="p" unicode="p" horiz-adv-x="583" 
d="M95 -184h-127l148 667h127l-14 -60q62 72 146 72q83 0 133 -53t50 -147q0 -75 -30 -146t-88 -116t-136 -45q-49 0 -89.5 20t-64.5 56zM395 351q-30 31 -77 31q-32 0 -60.5 -16t-50.5 -42l-37 -168q16 -25 46 -40t67 -15q41 0 73.5 23t50.5 61.5t18 83.5q0 51 -30 82z" />
    <glyph glyph-name="q" unicode="q" horiz-adv-x="583" 
d="M448 483h128l-148 -667h-128l55 244q-31 -36 -66.5 -54t-78.5 -18q-84 0 -134 53t-50 147q0 76 30.5 146.5t88 115.5t136.5 45q48 0 89 -20t65 -56zM189 132q30 -31 77 -31q33 0 62 15.5t49 41.5l37 168q-16 25 -46 40.5t-67 15.5q-40 0 -72.5 -23t-51 -62t-18.5 -83
q0 -51 30 -82z" />
    <glyph glyph-name="r" unicode="r" horiz-adv-x="360" 
d="M116 483h127l-15 -64q34 37 75.5 56t95.5 19l-27 -126q-24 6 -47 6q-33 0 -65 -16.5t-55 -41.5l-69 -316h-127z" />
    <glyph glyph-name="s" unicode="s" horiz-adv-x="477" 
d="M62 160q23 -28 71.5 -51.5t97.5 -23.5q31 0 50.5 15t19.5 35t-20.5 31.5t-68.5 28.5q-49 16 -80 30.5t-53.5 40.5t-22.5 66q0 43 23.5 80.5t68.5 60t107 22.5q61 0 115.5 -21.5t89.5 -57.5l-65 -81q-19 24 -59.5 43.5t-82.5 19.5q-32 0 -51 -13.5t-19 -33.5
q0 -16 20.5 -27t63.5 -25q49 -16 81.5 -31t56 -42.5t23.5 -68.5q0 -47 -25 -85.5t-72.5 -61t-111.5 -22.5q-67 0 -127.5 22.5t-100.5 64.5z" />
    <glyph glyph-name="t" unicode="t" horiz-adv-x="338" 
d="M63 126l54 247h-80l25 110h80l29 132h128l-29 -132h98l-26 -110h-98l-46 -210q-2 -12 -2 -20q0 -20 12 -31t35 -11q10 0 20 3t15 7l5 -102q-14 -10 -35.5 -15.5t-44.5 -5.5q-67 0 -105.5 26.5t-38.5 78.5q0 17 4 33z" />
    <glyph glyph-name="u" unicode="u" 
d="M178 192q-4 -18 -4 -29q0 -31 22.5 -46.5t58.5 -15.5q56 0 115 57l72 325h127l-107 -483h-127l14 63q-35 -33 -74 -54t-87 -21q-69 0 -110 34t-41 90q0 8 1.5 19t3.5 20l73 332h128z" />
    <glyph glyph-name="v" unicode="v" horiz-adv-x="513" 
d="M47 483h132l51 -336l202 336h140l-301 -483h-137z" />
    <glyph glyph-name="w" unicode="w" horiz-adv-x="769" 
d="M403 329l-174 -329h-136l-40 483h127l19 -325l178 325h113l33 -325l163 325h136l-254 -483h-135z" />
    <glyph glyph-name="x" unicode="x" horiz-adv-x="504" 
d="M238 163l-147 -163h-145l225 248l-108 235h137l67 -149l133 149h146l-215 -235l119 -248h-138z" />
    <glyph glyph-name="y" unicode="y" horiz-adv-x="513" 
d="M43 -82q20 0 33.5 7.5t26.5 26.5l30 45l-86 486h132l51 -336l202 336h140l-352 -562q-39 -64 -82.5 -90.5t-104.5 -26.5q-46 0 -81 12l42 110q18 -8 49 -8z" />
    <glyph glyph-name="z" unicode="z" horiz-adv-x="479" 
d="M9 95l275 277h-213l24 111h390l-20 -92l-279 -280h220l-24 -111h-394z" />
    <glyph glyph-name="braceleft" unicode="{" horiz-adv-x="288" 
d="M60 -173.5q-32 16.5 -51 45.5t-19 66q0 18 4 31l39 172q2 12 2 18q0 21 -11 35t-29 14l16 72q28 0 44 18.5t23 48.5l38 171q18 80 67.5 120t122.5 40h61l-19 -85h-60q-31 0 -51.5 -19t-28.5 -55l-43 -195q-18 -74 -66 -89q29 -17 29 -56q0 -18 -4 -34l-38 -175
q-2 -12 -2 -19q0 -25 15.5 -40.5t39.5 -15.5h55l-20 -85h-45q-37 0 -69 16.5z" />
    <glyph glyph-name="bar" unicode="|" horiz-adv-x="216" 
d="M86 687h85v-707h-85v707z" />
    <glyph glyph-name="braceright" unicode="}" horiz-adv-x="288" 
d="M227 661.5q32 -16.5 51 -45.5t19 -66q0 -19 -4 -31l-38 -172q-2 -12 -2 -18q0 -22 10.5 -35.5t28.5 -13.5l-16 -72q-28 0 -44 -18.5t-23 -48.5l-38 -171q-18 -80 -67.5 -120t-122.5 -40h-61l19 85h60q63 0 80 74l44 195q16 74 65 90q-29 15 -29 55q0 18 4 34l38 175
q2 12 2 19q0 25 -15.5 40.5t-39.5 15.5h-55l20 85h45q37 0 69 -16.5z" />
    <glyph glyph-name="asciitilde" unicode="~" horiz-adv-x="510" 
d="M507.5 480.5q-44.5 -68.5 -121.5 -68.5q-40 0 -61.5 17t-29 40t-12.5 58q-5 32 -11 46.5t-23 14.5q-29 0 -57 -52.5t-42 -123.5l-85 10q22 107 67.5 175.5t121.5 68.5q40 0 61.5 -17t29 -40t12.5 -58q4 -31 10.5 -46.5t24.5 -15.5q29 0 57 53.5t42 124.5l84 -10
q-23 -108 -67.5 -176.5z" />
    <glyph glyph-name="uni00A0" unicode="&#xa0;" horiz-adv-x="256" 
 />
    <glyph glyph-name="exclamdown" unicode="&#xa1;" horiz-adv-x="256" 
d="M218.5 358q-26.5 -26 -62.5 -26q-31 0 -52 22t-21 53q0 36 26.5 62t61.5 26q31 0 52.5 -22t21.5 -54q0 -35 -26.5 -61zM110 -184h-154l120 449h112z" />
    <glyph glyph-name="cent" unicode="&#xa2;" horiz-adv-x="499" 
d="M379 149l69 -85q-29 -31 -73 -52t-99 -23l-20 -89h-93l23 98q-74 20 -116 76t-42 134q0 76 35 140.5t96.5 104t135.5 42.5l16 70h93l-19 -79q83 -23 120 -86l-95 -73q-17 30 -52 45l-60 -268q47 6 81 45zM171.5 155.5q14.5 -24.5 40.5 -36.5l57 256q-51 -13 -81.5 -57.5
t-30.5 -103.5q0 -34 14.5 -58.5z" />
    <glyph glyph-name="sterling" unicode="&#xa3;" horiz-adv-x="550" 
d="M461 150l31 -113q-48 -50 -123 -50q-32 0 -59 6.5t-70 19.5q-34 10 -53 14t-38 4q-47 0 -111 -38l-27 97q61 27 100.5 72.5t39.5 94.5v12h-123l18 81h78q0 3 -2 5q-16 34 -23.5 56t-7.5 49q0 59 35.5 109t96 79t130.5 29q87 0 151.5 -35.5t84.5 -98.5l-129 -53
q-7 33 -34.5 52t-65.5 19q-48 0 -81 -32.5t-33 -83.5q0 -17 4 -31t8.5 -26t6.5 -16q5 -9 10 -22h142l-19 -81h-113q-7 -41 -35 -77.5t-58 -52.5q21 7 44 7q20 0 37.5 -4.5t38.5 -12.5q24 -8 37.5 -11.5t30.5 -3.5q47 0 81 36z" />
    <glyph glyph-name="currency" unicode="&#xa4;" horiz-adv-x="623" 
d="M591 360q0 -52 -19 -99t-53 -84l56 -69l-85 -68l-59 74q-55 -26 -118 -26q-85 0 -147 39l-98 -79l-66 83l92 74q-23 44 -23 98q0 52 18.5 99.5t52.5 84.5l-56 73l85 68l59 -77q55 26 120 26q84 0 149 -41l95 77l66 -79l-91 -75q22 -46 22 -99zM231.5 232
q30.5 -31 87.5 -31q40 0 73 21t51.5 55.5t18.5 73.5q0 49 -31 80.5t-90 31.5q-41 0 -73 -21t-49.5 -56t-17.5 -75q0 -48 30.5 -79z" />
    <glyph glyph-name="yen" unicode="&#xa5;" horiz-adv-x="645" 
d="M469 352h178l-18 -79h-227l-18 -80h227l-18 -78h-226l-25 -115h-143l25 115h-230l17 78h231l17 80h-229l17 79h179l-136 315h154l107 -268l223 268h170z" />
    <glyph glyph-name="brokenbar" unicode="&#xa6;" horiz-adv-x="216" 
d="M86 687h85v-316h-85v316zM86 296h85v-316h-85v316z" />
    <glyph glyph-name="section" unicode="&#xa7;" horiz-adv-x="484" 
d="M411 86q0 -47 -25.5 -85t-72 -60t-106.5 -22q-74 0 -136 21.5t-103 61.5l71 76q28 -32 73.5 -51.5t93.5 -19.5q35 0 56.5 17.5t21.5 42.5q0 23 -22 36.5t-70 30.5q-49 18 -77.5 32t-50 40.5t-21.5 66.5q0 50 32.5 87t95.5 54q-34 15 -53.5 42.5t-19.5 63.5q0 45 25 80.5
t70 56t103 20.5q138 0 213 -73l-66 -70q-23 25 -62 39.5t-80 14.5q-37 0 -57.5 -15.5t-20.5 -38.5q0 -22 22 -34.5t70 -28.5q48 -17 78 -31.5t51.5 -40.5t21.5 -66q0 -50 -31.5 -90t-83.5 -58q60 -33 60 -99zM195 345q-24 -21 -24 -49q0 -25 22.5 -41t64.5 -30
q39 11 58 32.5t19 46.5q0 44 -69 68q-47 -6 -71 -27z" />
    <glyph glyph-name="dieresis" unicode="&#xa8;" horiz-adv-x="295" 
d="M72.5 560.5q-17.5 17.5 -17.5 42.5q0 30 23 52.5t53 22.5q26 0 43 -17t17 -43q0 -29 -23 -52t-53 -23q-25 0 -42.5 17.5zM283.5 560.5q-17.5 17.5 -17.5 42.5q0 30 23 52.5t53 22.5q26 0 43 -17t17 -43q0 -29 -23 -52t-53 -23q-25 0 -42.5 17.5z" />
    <glyph glyph-name="copyright" unicode="&#xa9;" horiz-adv-x="778" 
d="M236 35.5q-79 46.5 -125.5 126t-46.5 172.5q0 94 46.5 173t125.5 125.5t172 46.5q94 0 173.5 -46.5t126 -125.5t46.5 -173q0 -93 -46.5 -172.5t-126 -126t-173.5 -46.5q-93 0 -172 46.5zM254 601.5q-71 -41.5 -112.5 -112.5t-41.5 -155q0 -83 41.5 -154t112.5 -113
t154 -42q84 0 155 42t113 113t42 154q0 84 -42 155t-113 112.5t-155 41.5q-83 0 -154 -41.5zM466 138q-36 -15 -74 -15q-57 0 -100.5 24t-67 66t-23.5 94q0 66 33 121t86.5 86t113.5 31q52 0 94 -20t66 -60l-38 -27q-18 33 -50 50t-74 17q-45 0 -88 -25.5t-70 -71
t-27 -100.5q0 -39 18 -72t51 -53t77 -20q32 0 62 13.5t52 34.5l24 -34q-29 -24 -65 -39z" />
    <glyph glyph-name="ordfeminine" unicode="&#xaa;" horiz-adv-x="414" 
d="M381 326h-93l8 39q-21 -25 -43.5 -36t-50.5 -11q-53 0 -89 34.5t-36 97.5q0 55 22.5 100t61.5 71.5t85 26.5q70 0 104 -47l8 39h93zM191.5 409q18.5 -18 49.5 -18q38 0 70 34l27 122q-10 13 -29 20.5t-40 7.5q-41 0 -68.5 -33.5t-27.5 -79.5q0 -35 18.5 -53z" />
    <glyph glyph-name="guillemotleft" unicode="&#xab;" horiz-adv-x="527" 
d="M29 243l200 177h121l-204 -182l116 -175h-113zM219 243l200 177h121l-204 -182l116 -175h-113z" />
    <glyph glyph-name="logicalnot" unicode="&#xac;" horiz-adv-x="515" 
d="M384 201l42 187h-365l17 80h446l-58 -267h-82z" />
    <glyph glyph-name="uni00AD" unicode="&#xad;" horiz-adv-x="300" 
d="M41 296h240l-24 -108h-240z" />
    <glyph glyph-name="registered" unicode="&#xae;" horiz-adv-x="494" 
d="M189 281.5q-48 28.5 -76.5 77t-28.5 106.5t28.5 106.5t77 77t106.5 28.5t106.5 -28.5t77 -77t28.5 -106.5t-28.5 -106.5t-77.5 -77t-107 -28.5t-106 28.5zM205 621q-41 -24 -65 -65.5t-24 -90.5t24 -90t65 -65.5t90 -24.5t90.5 24.5t66 65.5t24.5 90t-24.5 90.5t-66 65.5
t-90.5 24t-90 -24zM287 439h-44l-21 -96h-34l53 243h92q31 0 51.5 -18t20.5 -46q0 -34 -25 -58t-55 -24l44 -97h-40zM269 556l-20 -86h65q24 0 39.5 14t15.5 35q0 17 -11 27t-32 10h-57z" />
    <glyph glyph-name="macron" unicode="&#xaf;" horiz-adv-x="363" 
d="M86 634h362l-16 -72h-362z" />
    <glyph glyph-name="degree" unicode="&#xb0;" horiz-adv-x="311" 
d="M153 425q-31 18 -49 48.5t-18 67.5t18 68t49 49.5t67 18.5q37 0 68 -18.5t49.5 -49.5t18.5 -68t-18.5 -67.5t-49.5 -48.5t-68 -18q-36 0 -67 18zM174.5 588.5q-18.5 -19.5 -18.5 -47.5q0 -27 18 -46t45 -19q28 0 48 19t20 46q0 28 -19.5 47.5t-47.5 19.5
q-27 0 -45.5 -19.5z" />
    <glyph glyph-name="plusminus" unicode="&#xb1;" horiz-adv-x="504" 
d="M268 122h-87l45 204h-180l18 78h180l44 197h86l-44 -197h180l-17 -78h-180zM-8 78h446l-17 -78h-446z" />
    <glyph glyph-name="uni00B2" unicode="&#xb2;" horiz-adv-x="397" 
d="M102 495q107 62 160 96.5t76 60t23 50.5q0 23 -19 35.5t-48 12.5q-33 0 -63 -12t-49 -31l-40 64q29 26 71 41t84 15q71 0 117 -31t46 -85q0 -53 -53 -102t-164 -111h173l-17 -77h-314z" />
    <glyph glyph-name="uni00B3" unicode="&#xb3;" horiz-adv-x="397" 
d="M161.5 433.5q-47.5 19.5 -70.5 53.5l60 59q19 -27 50 -41t64 -14t50 15t17 38q0 20 -24 31.5t-65 11.5q-27 0 -33 -1l16 76q22 -2 65 -2q35 0 53.5 12.5t18.5 34.5q0 21 -23 32t-57 11q-60 0 -103 -36l-33 60q28 24 67 38.5t78 14.5q76 0 122 -28.5t46 -78.5
q0 -39 -29.5 -68t-80.5 -33q34 -7 56 -29.5t22 -56.5q0 -30 -19 -57.5t-55 -44.5t-84 -17q-61 0 -108.5 19.5z" />
    <glyph glyph-name="acute" unicode="&#xb4;" horiz-adv-x="251" 
d="M67 556l166 144h119l-194 -144h-91z" />
    <glyph glyph-name="uni03BC.1" unicode="&#xb5;" horiz-adv-x="591" 
d="M-35 -184l152 667h127l-66 -292q-3 -15 -3 -27q0 -32 19.5 -48t52.5 -16t65 16t56 40l72 327h128l-75 -338q-2 -10 -2 -13q0 -15 8.5 -23t24.5 -8q8 0 20 2l-16 -108q-30 -7 -61 -7q-105 0 -110 86q-32 -39 -72.5 -62.5t-82.5 -23.5q-22 0 -39.5 7.5t-24.5 19.5l-45 -199
h-128z" />
    <glyph glyph-name="paragraph" unicode="&#xb6;" horiz-adv-x="449" 
d="M420 605h-79l-156 -705h-63l94 423q-37 0 -68.5 20t-50 56t-18.5 80q0 47 25.5 90.5t70 70.5t98.5 27h223l-170 -767h-63z" />
    <glyph glyph-name="periodcentered" unicode="&#xb7;" horiz-adv-x="256" 
d="M73 300.5q26 25.5 63 25.5q30 0 51.5 -22t21.5 -53q0 -35 -26.5 -61t-61.5 -26q-31 0 -52.5 22t-21.5 52q0 37 26 62.5z" />
    <glyph glyph-name="cedilla" unicode="&#xb8;" horiz-adv-x="221" 
d="M-54 -107q17 -17 39.5 -26t44.5 -9q23 0 36.5 9.5t13.5 25.5q0 11 -7.5 17.5t-22.5 6.5q-17 0 -29 -14l-40 26l48 82h63l-39 -62q14 10 31 10q26 0 42.5 -17t16.5 -45q0 -42 -32 -67.5t-81 -25.5q-38 0 -69.5 11.5t-49.5 29.5z" />
    <glyph glyph-name="uni00B9" unicode="&#xb9;" horiz-adv-x="286" 
d="M228 694l-81 -66l-43 59l166 134h83l-88 -400h-97z" />
    <glyph glyph-name="ordmasculine" unicode="&#xba;" horiz-adv-x="405" 
d="M102.5 557.5q26.5 42.5 70 66.5t93.5 24q74 0 118 -40.5t44 -105.5q0 -51 -26 -93.5t-70 -66.5t-94 -24q-73 0 -117.5 40.5t-44.5 105.5q0 51 26.5 93.5zM314.5 553.5q-18.5 18.5 -50.5 18.5q-43 0 -68 -34t-25 -77q0 -32 19 -50.5t51 -18.5q43 0 67.5 33.5t24.5 77.5
q0 32 -18.5 50.5z" />
    <glyph glyph-name="guillemotright" unicode="&#xbb;" horiz-adv-x="527" 
d="M310 240l-200 -177h-121l204 182l-116 175h113zM500 240l-200 -177h-121l204 182l-116 175h113z" />
    <glyph glyph-name="onequarter" unicode="&#xbc;" horiz-adv-x="833" 
d="M84 0l573 667h77l-574 -667h-76zM701 0h-95l19 86h-197l15 65l213 249h133l-52 -239h52l-16 -75h-53zM541 161h100l34 154zM194 540l-81 -66l-43 59l166 134h83l-88 -400h-97z" />
    <glyph glyph-name="onehalf" unicode="&#xbd;" horiz-adv-x="867" 
d="M84 0l573 667h77l-574 -667h-76zM478 74q107 62 160 96.5t76 60t23 50.5q0 23 -19 35.5t-48 12.5q-33 0 -63 -12t-49 -31l-40 64q29 26 71 41t84 15q71 0 117 -31t46 -85q0 -53 -53 -102t-164 -111h173l-17 -77h-314zM194 540l-81 -66l-43 59l166 134h83l-88 -400h-97z
" />
    <glyph glyph-name="threequarters" unicode="&#xbe;" horiz-adv-x="921" 
d="M171 0l573 667h77l-574 -667h-76zM789 0h-95l19 86h-197l15 65l213 249h133l-52 -239h52l-16 -75h-53zM629 161h100l34 154zM127.5 279.5q-47.5 19.5 -70.5 53.5l60 59q19 -27 50 -41t64 -14t50 15t17 38q0 20 -24 31.5t-65 11.5q-27 0 -33 -1l16 76q22 -2 65 -2
q35 0 53.5 12.5t18.5 34.5q0 21 -23 32t-57 11q-60 0 -103 -36l-33 60q28 24 67 38.5t78 14.5q76 0 122 -28.5t46 -78.5q0 -39 -29.5 -68t-80.5 -33q34 -7 56 -29.5t22 -56.5q0 -30 -19 -57.5t-55 -44.5t-84 -17q-61 0 -108.5 19.5z" />
    <glyph glyph-name="questiondown" unicode="&#xbf;" horiz-adv-x="398" 
d="M322 357q-26 -26 -63 -26q-30 0 -51.5 22t-21.5 53q0 36 26.5 62t62.5 26q31 0 52 -22t21 -53q0 -36 -26 -62zM302 208q0 -40 -17 -67.5t-40.5 -44.5t-60.5 -36q-40 -22 -58 -37.5t-18 -39.5q0 -25 21 -39t61 -14q32 0 64 12.5t57 35.5l60 -98q-89 -75 -203 -75
q-90 0 -150.5 40t-60.5 108q0 46 19 78.5t45.5 52t69.5 42.5q47 26 68 44.5t21 47.5q0 17 -11 29l117 31q16 -29 16 -70z" />
    <glyph glyph-name="Agrave" unicode="&#xc0;" horiz-adv-x="684" 
d="M292 867h117l102 -144h-89zM463 113h-286l-67 -113h-169l405 667h178l110 -667h-154zM244 238h207l-40 287z" />
    <glyph glyph-name="Aacute" unicode="&#xc1;" horiz-adv-x="684" 
d="M382 723l166 144h119l-194 -144h-91zM463 113h-286l-67 -113h-169l405 667h178l110 -667h-154zM244 238h207l-40 287z" />
    <glyph glyph-name="Acircumflex" unicode="&#xc2;" horiz-adv-x="684" 
d="M467 812l-90 -89h-80l124 144h114l62 -144h-76zM463 113h-286l-67 -113h-169l405 667h178l110 -667h-154zM244 238h207l-40 287z" />
    <glyph glyph-name="Atilde" unicode="&#xc3;" horiz-adv-x="684" 
d="M419.5 782q-9.5 7 -23.5 7q-31 0 -44 -62h-68q13 67 41.5 100.5t79.5 33.5q26 0 42 -10t32 -29q14 -15 23.5 -21.5t23.5 -6.5q30 0 45 61h68q-15 -67 -43.5 -100.5t-78.5 -33.5q-26 0 -41.5 10t-32.5 29q-14 15 -23.5 22zM463 113h-286l-67 -113h-169l405 667h178
l110 -667h-154zM244 238h207l-40 287z" />
    <glyph glyph-name="Adieresis" unicode="&#xc4;" horiz-adv-x="684" 
d="M303.5 727.5q-17.5 17.5 -17.5 42.5q0 30 23 52.5t53 22.5q26 0 43 -17t17 -43q0 -29 -23 -52t-53 -23q-25 0 -42.5 17.5zM514.5 727.5q-17.5 17.5 -17.5 42.5q0 30 23 52.5t53 22.5q26 0 43 -17t17 -43q0 -29 -23 -52t-53 -23q-25 0 -42.5 17.5zM463 113h-286l-67 -113
h-169l405 667h178l110 -667h-154zM244 238h207l-40 287z" />
    <glyph glyph-name="Aring" unicode="&#xc5;" horiz-adv-x="684" 
d="M373 840.5q16 26.5 42.5 42.5t56.5 16q43 0 69 -26.5t26 -69.5q0 -47 -34 -81t-81 -34q-42 0 -68.5 26.5t-26.5 69.5q0 30 16 56.5zM497 828q-11 12 -30 12q-20 0 -35.5 -15t-15.5 -35q0 -19 11.5 -31t30.5 -12q20 0 35 15t15 35q0 19 -11 31zM463 113h-286l-67 -113
h-169l405 667h178l110 -667h-154zM244 238h207l-40 287z" />
    <glyph glyph-name="AE" unicode="&#xc6;" horiz-adv-x="968" 
d="M425 113h-231l-90 -113h-167l553 667h529l-28 -125h-329l-31 -141h323l-28 -125h-322l-34 -151h329l-27 -125h-472zM290 238h163l61 280z" />
    <glyph glyph-name="Ccedilla" unicode="&#xc7;" horiz-adv-x="687" 
d="M466 135q43 21 71 56l109 -74q-53 -68 -126.5 -98.5t-147.5 -30.5q-14 0 -21 1l-25 -40q14 10 31 10q26 0 42.5 -16.5t16.5 -45.5q0 -42 -32 -67.5t-81 -25.5q-37 0 -69 11.5t-50 29.5l35 49q17 -17 39 -26.5t45 -9.5t36.5 9.5t13.5 25.5q0 11 -7.5 17.5t-21.5 6.5
q-18 0 -30 -14l-40 26l40 66q-73 15 -129.5 54.5t-88.5 100.5t-32 137q0 115 53 204t142 138t193 49q115 0 189.5 -53t106.5 -136l-137 -46q-19 52 -63.5 80.5t-102.5 28.5q-62 0 -116 -33.5t-85.5 -92.5t-31.5 -130q0 -52 23 -93.5t66 -65t99 -23.5q43 0 86 21z" />
    <glyph glyph-name="Egrave" unicode="&#xc8;" horiz-adv-x="583" 
d="M253 867h117l102 -144h-89zM159 667h472l-28 -125h-329l-31 -141h322l-28 -125h-322l-33 -151h329l-27 -125h-472z" />
    <glyph glyph-name="Eacute" unicode="&#xc9;" horiz-adv-x="583" 
d="M342 723l166 144h119l-194 -144h-91zM159 667h472l-28 -125h-329l-31 -141h322l-28 -125h-322l-33 -151h329l-27 -125h-472z" />
    <glyph glyph-name="Ecircumflex" unicode="&#xca;" horiz-adv-x="583" 
d="M427 812l-90 -89h-80l124 144h114l62 -144h-76zM159 667h472l-28 -125h-329l-31 -141h322l-28 -125h-322l-33 -151h329l-27 -125h-472z" />
    <glyph glyph-name="Edieresis" unicode="&#xcb;" horiz-adv-x="583" 
d="M263.5 727.5q-17.5 17.5 -17.5 42.5q0 30 23 52.5t53 22.5q26 0 43 -17t17 -43q0 -29 -23 -52t-53 -23q-25 0 -42.5 17.5zM474.5 727.5q-17.5 17.5 -17.5 42.5q0 30 23 52.5t53 22.5q26 0 43 -17t17 -43q0 -29 -23 -52t-53 -23q-25 0 -42.5 17.5zM159 667h472l-28 -125
h-329l-31 -141h322l-28 -125h-322l-33 -151h329l-27 -125h-472z" />
    <glyph glyph-name="Igrave" unicode="&#xcc;" horiz-adv-x="274" 
d="M88 867h117l102 -144h-89zM159 667h142l-147 -667h-142z" />
    <glyph glyph-name="Iacute" unicode="&#xcd;" horiz-adv-x="274" 
d="M177 723l166 144h119l-194 -144h-91zM159 667h142l-147 -667h-142z" />
    <glyph glyph-name="Icircumflex" unicode="&#xce;" horiz-adv-x="274" 
d="M262 812l-90 -89h-80l124 144h114l62 -144h-76zM159 667h142l-147 -667h-142z" />
    <glyph glyph-name="Idieresis" unicode="&#xcf;" horiz-adv-x="274" 
d="M98.5 727.5q-17.5 17.5 -17.5 42.5q0 30 23 52.5t53 22.5q26 0 43 -17t17 -43q0 -29 -23 -52t-53 -23q-25 0 -42.5 17.5zM309.5 727.5q-17.5 17.5 -17.5 42.5q0 30 23 52.5t53 22.5q26 0 43 -17t17 -43q0 -29 -23 -52t-53 -23q-25 0 -42.5 17.5zM159 667h142l-147 -667
h-142z" />
    <glyph glyph-name="Eth" unicode="&#xd0;" horiz-adv-x="742" 
d="M582.5 631q66.5 -36 107.5 -102t41 -149q0 -95 -45 -181.5t-142.5 -142.5t-245.5 -56h-262l61 276h-82l26 115h82l60 276h258q75 0 141.5 -36zM461 158q59 33 90.5 89.5t31.5 123.5q0 48 -21.5 87t-60 61.5t-86.5 22.5h-117l-33 -151h148l-25 -115h-149l-33 -151h118
q78 0 137 33z" />
    <glyph glyph-name="Ntilde" unicode="&#xd1;" horiz-adv-x="729" 
d="M442.5 782q-9.5 7 -23.5 7q-31 0 -44 -62h-68q13 67 41.5 100.5t79.5 33.5q26 0 42 -10t32 -29q14 -15 23.5 -21.5t23.5 -6.5q30 0 45 61h68q-15 -67 -43.5 -100.5t-78.5 -33.5q-26 0 -41.5 10t-32.5 29q-14 15 -23.5 22zM254 450l-100 -450h-142l147 667h146l212 -434
l97 434h142l-147 -667h-137z" />
    <glyph glyph-name="Ograve" unicode="&#xd2;" horiz-adv-x="765" 
d="M335 867h117l102 -144h-89zM95 484.5q51 89.5 140 141.5t197 52q92 0 166.5 -37t117.5 -104.5t43 -156.5q0 -108 -51 -197.5t-139.5 -142t-196.5 -52.5q-93 0 -167.5 37t-117.5 105t-43 157q0 108 51 197.5zM586.5 466q-24.5 41 -67 63.5t-96.5 22.5q-64 0 -116.5 -34
t-83.5 -93t-31 -129q0 -55 24.5 -96.5t67 -63.5t96.5 -22q63 0 116 34t84 93t31 129q0 55 -24.5 96z" />
    <glyph glyph-name="Oacute" unicode="&#xd3;" horiz-adv-x="765" 
d="M423 723l166 144h119l-194 -144h-91zM95 484.5q51 89.5 140 141.5t197 52q92 0 166.5 -37t117.5 -104.5t43 -156.5q0 -108 -51 -197.5t-139.5 -142t-196.5 -52.5q-93 0 -167.5 37t-117.5 105t-43 157q0 108 51 197.5zM586.5 466q-24.5 41 -67 63.5t-96.5 22.5
q-64 0 -116.5 -34t-83.5 -93t-31 -129q0 -55 24.5 -96.5t67 -63.5t96.5 -22q63 0 116 34t84 93t31 129q0 55 -24.5 96z" />
    <glyph glyph-name="Ocircumflex" unicode="&#xd4;" horiz-adv-x="765" 
d="M509 812l-90 -89h-80l124 144h114l62 -144h-76zM95 484.5q51 89.5 140 141.5t197 52q92 0 166.5 -37t117.5 -104.5t43 -156.5q0 -108 -51 -197.5t-139.5 -142t-196.5 -52.5q-93 0 -167.5 37t-117.5 105t-43 157q0 108 51 197.5zM586.5 466q-24.5 41 -67 63.5t-96.5 22.5
q-64 0 -116.5 -34t-83.5 -93t-31 -129q0 -55 24.5 -96.5t67 -63.5t96.5 -22q63 0 116 34t84 93t31 129q0 55 -24.5 96z" />
    <glyph glyph-name="Otilde" unicode="&#xd5;" horiz-adv-x="765" 
d="M461.5 782q-9.5 7 -23.5 7q-31 0 -44 -62h-68q13 67 41.5 100.5t79.5 33.5q26 0 42 -10t32 -29q14 -15 23.5 -21.5t23.5 -6.5q30 0 45 61h68q-15 -67 -43.5 -100.5t-78.5 -33.5q-26 0 -41.5 10t-32.5 29q-14 15 -23.5 22zM95 484.5q51 89.5 140 141.5t197 52
q92 0 166.5 -37t117.5 -104.5t43 -156.5q0 -108 -51 -197.5t-139.5 -142t-196.5 -52.5q-93 0 -167.5 37t-117.5 105t-43 157q0 108 51 197.5zM586.5 466q-24.5 41 -67 63.5t-96.5 22.5q-64 0 -116.5 -34t-83.5 -93t-31 -129q0 -55 24.5 -96.5t67 -63.5t96.5 -22q63 0 116 34
t84 93t31 129q0 55 -24.5 96z" />
    <glyph glyph-name="Odieresis" unicode="&#xd6;" horiz-adv-x="765" 
d="M344.5 727.5q-17.5 17.5 -17.5 42.5q0 30 23 52.5t53 22.5q26 0 43 -17t17 -43q0 -29 -23 -52t-53 -23q-25 0 -42.5 17.5zM555.5 727.5q-17.5 17.5 -17.5 42.5q0 30 23 52.5t53 22.5q26 0 43 -17t17 -43q0 -29 -23 -52t-53 -23q-25 0 -42.5 17.5zM95 484.5
q51 89.5 140 141.5t197 52q92 0 166.5 -37t117.5 -104.5t43 -156.5q0 -108 -51 -197.5t-139.5 -142t-196.5 -52.5q-93 0 -167.5 37t-117.5 105t-43 157q0 108 51 197.5zM586.5 466q-24.5 41 -67 63.5t-96.5 22.5q-64 0 -116.5 -34t-83.5 -93t-31 -129q0 -55 24.5 -96.5
t67 -63.5t96.5 -22q63 0 116 34t84 93t31 129q0 55 -24.5 96z" />
    <glyph glyph-name="multiply" unicode="&#xd7;" horiz-adv-x="504" 
d="M90 135l-49 60l176 144l-108 138l63 52l106 -139l176 143l49 -60l-176 -145l107 -138l-62 -50l-108 138z" />
    <glyph glyph-name="Oslash" unicode="&#xd8;" horiz-adv-x="765" 
d="M685 578q74 -80 74 -198q0 -108 -51 -197.5t-139.5 -142t-196.5 -52.5q-121 0 -207 60l-48 -48h-102l96 97q-67 80 -67 190q0 108 51 197.5t140 141.5t197 52q112 0 197 -54l42 43h102zM215 203l315 321q-47 28 -107 28q-64 0 -116.5 -34t-83.5 -93t-31 -129
q0 -53 23 -93zM582 473l-319 -324q49 -35 117 -35q63 0 116 34t84 93t31 129q0 60 -29 103z" />
    <glyph glyph-name="Ugrave" unicode="&#xd9;" horiz-adv-x="733" 
d="M317 867h117l102 -144h-89zM71 266l88 401h144l-87 -397q-4 -12 -4 -33q1 -53 38.5 -88.5t105.5 -35.5q138 0 172 157l88 397h145l-89 -400q-29 -133 -103 -206t-213 -73q-141 0 -215.5 63t-74.5 170q0 20 5 45z" />
    <glyph glyph-name="Uacute" unicode="&#xda;" horiz-adv-x="733" 
d="M406 723l166 144h119l-194 -144h-91zM71 266l88 401h144l-87 -397q-4 -12 -4 -33q1 -53 38.5 -88.5t105.5 -35.5q138 0 172 157l88 397h145l-89 -400q-29 -133 -103 -206t-213 -73q-141 0 -215.5 63t-74.5 170q0 20 5 45z" />
    <glyph glyph-name="Ucircumflex" unicode="&#xdb;" horiz-adv-x="733" 
d="M491 812l-90 -89h-80l124 144h114l62 -144h-76zM71 266l88 401h144l-87 -397q-4 -12 -4 -33q1 -53 38.5 -88.5t105.5 -35.5q138 0 172 157l88 397h145l-89 -400q-29 -133 -103 -206t-213 -73q-141 0 -215.5 63t-74.5 170q0 20 5 45z" />
    <glyph glyph-name="Udieresis" unicode="&#xdc;" horiz-adv-x="733" 
d="M327.5 727.5q-17.5 17.5 -17.5 42.5q0 30 23 52.5t53 22.5q26 0 43 -17t17 -43q0 -29 -23 -52t-53 -23q-25 0 -42.5 17.5zM538.5 727.5q-17.5 17.5 -17.5 42.5q0 30 23 52.5t53 22.5q26 0 43 -17t17 -43q0 -29 -23 -52t-53 -23q-25 0 -42.5 17.5zM71 266l88 401h144
l-87 -397q-4 -12 -4 -33q1 -53 38.5 -88.5t105.5 -35.5q138 0 172 157l88 397h145l-89 -400q-29 -133 -103 -206t-213 -73q-141 0 -215.5 63t-74.5 170q0 20 5 45z" />
    <glyph glyph-name="Yacute" unicode="&#xdd;" horiz-adv-x="645" 
d="M363 723l166 144h119l-194 -144h-91zM258 273l-170 394h154l107 -268l223 268h170l-342 -394l-60 -273h-142z" />
    <glyph glyph-name="Thorn" unicode="&#xde;" horiz-adv-x="624" 
d="M159 667h142l-23 -108h162q53 0 95.5 -25t66.5 -67.5t24 -91.5q0 -60 -28.5 -116t-90.5 -92.5t-156 -36.5h-168l-29 -130h-142zM454.5 413q-23.5 21 -59.5 21h-145l-39 -179h148q55 0 87 30.5t32 73.5q0 33 -23.5 54z" />
    <glyph glyph-name="germandbls" unicode="&#xdf;" horiz-adv-x="643" 
d="M285 9q-51 21 -93 67l70 80q57 -69 147 -69q33 0 53 16t20 37q0 18 -19.5 29t-59.5 24q-44 14 -71.5 26.5t-47.5 37t-20 61.5q0 38 15.5 65t37.5 43.5t54 34.5q31 17 44.5 28.5t13.5 27.5q0 23 -23 37.5t-57 14.5q-42 0 -70 -25.5t-38 -68.5l-105 -475h-127l105 475
q20 89 81 145.5t163 56.5q53 0 100.5 -17.5t77 -49.5t29.5 -73q0 -37 -16 -62.5t-38.5 -41.5t-56.5 -34q-34 -19 -48.5 -31t-14.5 -30q0 -16 17.5 -25.5t54.5 -21.5q46 -15 74.5 -28.5t50.5 -39.5t22 -67q0 -45 -26 -83.5t-72.5 -61.5t-105.5 -23q-70 0 -121 21z" />
    <glyph glyph-name="agrave" unicode="&#xe0;" horiz-adv-x="586" 
d="M448 483h128l-107 -483h-128l14 60q-31 -36 -66.5 -54t-78.5 -18q-84 0 -134 53t-50 147q0 76 30.5 146.5t88 115.5t136.5 45q48 0 89 -20t65 -56zM189 132q30 -31 77 -31q33 0 62 15.5t49 41.5l37 168q-16 25 -46 40.5t-67 15.5q-40 0 -72.5 -23t-51 -62t-18.5 -83
q0 -51 30 -82zM202 700h117l102 -144h-89z" />
    <glyph glyph-name="aacute" unicode="&#xe1;" horiz-adv-x="586" 
d="M448 483h128l-107 -483h-128l14 60q-31 -36 -66.5 -54t-78.5 -18q-84 0 -134 53t-50 147q0 76 30.5 146.5t88 115.5t136.5 45q48 0 89 -20t65 -56zM189 132q30 -31 77 -31q33 0 62 15.5t49 41.5l37 168q-16 25 -46 40.5t-67 15.5q-40 0 -72.5 -23t-51 -62t-18.5 -83
q0 -51 30 -82zM291 556l166 144h119l-194 -144h-91z" />
    <glyph glyph-name="acircumflex" unicode="&#xe2;" horiz-adv-x="586" 
d="M448 483h128l-107 -483h-128l14 60q-31 -36 -66.5 -54t-78.5 -18q-84 0 -134 53t-50 147q0 76 30.5 146.5t88 115.5t136.5 45q48 0 89 -20t65 -56zM189 132q30 -31 77 -31q33 0 62 15.5t49 41.5l37 168q-16 25 -46 40.5t-67 15.5q-40 0 -72.5 -23t-51 -62t-18.5 -83
q0 -51 30 -82zM377 645l-90 -89h-80l124 144h114l62 -144h-76z" />
    <glyph glyph-name="atilde" unicode="&#xe3;" horiz-adv-x="586" 
d="M448 483h128l-107 -483h-128l14 60q-31 -36 -66.5 -54t-78.5 -18q-84 0 -134 53t-50 147q0 76 30.5 146.5t88 115.5t136.5 45q48 0 89 -20t65 -56zM189 132q30 -31 77 -31q33 0 62 15.5t49 41.5l37 168q-16 25 -46 40.5t-67 15.5q-40 0 -72.5 -23t-51 -62t-18.5 -83
q0 -51 30 -82zM330.5 615q-9.5 7 -23.5 7q-31 0 -44 -62h-68q13 67 41.5 100.5t79.5 33.5q26 0 42 -10t32 -29q14 -15 23.5 -21.5t23.5 -6.5q30 0 45 61h68q-15 -67 -43.5 -100.5t-78.5 -33.5q-26 0 -41.5 10t-32.5 29q-14 15 -23.5 22z" />
    <glyph glyph-name="adieresis" unicode="&#xe4;" horiz-adv-x="586" 
d="M448 483h128l-107 -483h-128l14 60q-31 -36 -66.5 -54t-78.5 -18q-84 0 -134 53t-50 147q0 76 30.5 146.5t88 115.5t136.5 45q48 0 89 -20t65 -56zM189 132q30 -31 77 -31q33 0 62 15.5t49 41.5l37 168q-16 25 -46 40.5t-67 15.5q-40 0 -72.5 -23t-51 -62t-18.5 -83
q0 -51 30 -82zM212.5 560.5q-17.5 17.5 -17.5 42.5q0 30 23 52.5t53 22.5q26 0 43 -17t17 -43q0 -29 -23 -52t-53 -23q-25 0 -42.5 17.5zM423.5 560.5q-17.5 17.5 -17.5 42.5q0 30 23 52.5t53 22.5q26 0 43 -17t17 -43q0 -29 -23 -52t-53 -23q-25 0 -42.5 17.5z" />
    <glyph glyph-name="aring" unicode="&#xe5;" horiz-adv-x="586" 
d="M448 483h128l-107 -483h-128l14 60q-31 -36 -66.5 -54t-78.5 -18q-84 0 -134 53t-50 147q0 76 30.5 146.5t88 115.5t136.5 45q48 0 89 -20t65 -56zM189 132q30 -31 77 -31q33 0 62 15.5t49 41.5l37 168q-16 25 -46 40.5t-67 15.5q-40 0 -72.5 -23t-51 -62t-18.5 -83
q0 -51 30 -82zM286 681.5q16 26.5 42.5 42.5t56.5 16q43 0 69 -26.5t26 -69.5q0 -47 -34 -81t-81 -34q-42 0 -68.5 26.5t-26.5 69.5q0 30 16 56.5zM410 669q-11 12 -30 12q-20 0 -35.5 -15t-15.5 -35q0 -19 11.5 -31t30.5 -12q20 0 35 15t15 35q0 19 -11 31z" />
    <glyph glyph-name="ae" unicode="&#xe6;" horiz-adv-x="914" 
d="M341 0l14 60q-31 -36 -66.5 -54t-78.5 -18q-84 0 -134 53t-50 147q0 76 30.5 146.5t88 115.5t136.5 45q48 0 89 -20t65 -56l13 64h128l-13 -59q28 31 66 51t81 20q85 0 131 -53t46 -154q0 -21 -3.5 -47.5t-7.5 -39.5h-357q-1 -2 -1 -12q0 -22 15.5 -44.5t46.5 -37.5
t74 -15q33 0 64 9.5t52 26.5l40 -90q-35 -23 -76.5 -36.5t-76.5 -13.5q-66 0 -108.5 25.5t-61.5 68.5l-18 -82h-128zM772 297q0 40 -28 68.5t-81 28.5q-49 0 -85.5 -32.5t-45.5 -74.5h239q1 2 1 10zM189 132q30 -31 77 -31q33 0 62 15.5t49 41.5l37 168q-16 25 -46 40.5
t-67 15.5q-40 0 -72.5 -23t-51 -62t-18.5 -83q0 -51 30 -82z" />
    <glyph glyph-name="ccedilla" unicode="&#xe7;" horiz-adv-x="499" 
d="M334 114q26 13 45 35l69 -85q-31 -33 -77.5 -54.5t-105.5 -21.5h-7l-25 -39q16 10 32 10q26 0 42.5 -17t16.5 -45q0 -42 -32 -67.5t-81 -25.5q-38 0 -69.5 11.5t-49.5 29.5l35 49q17 -17 39 -26.5t45 -9.5t36.5 9.5t13.5 25.5q0 11 -7.5 17.5t-22.5 6.5q-17 0 -29 -14
l-40 26l38 66q-80 17 -126 73.5t-46 139.5q0 79 37 144.5t101.5 104t142.5 38.5q71 0 120.5 -25.5t75.5 -69.5l-95 -73q-15 26 -41.5 40.5t-59.5 14.5q-44 0 -79 -22.5t-54 -61t-19 -84.5q0 -53 34.5 -83t86.5 -30q30 0 56 13z" />
    <glyph glyph-name="egrave" unicode="&#xe8;" horiz-adv-x="553" 
d="M64.5 349.5q36.5 66.5 100 106t142.5 39.5q62 0 111 -26t77.5 -75t28.5 -115q0 -20 -3 -42.5t-7 -35.5h-359v-12q0 -22 15 -45.5t45 -39t72 -15.5q33 0 66.5 9.5t55.5 26.5l40 -87q-35 -24 -80.5 -37t-90.5 -13q-115 0 -182.5 58t-67.5 159q0 78 36.5 144.5zM410 297
q0 40 -28.5 68.5t-82.5 28.5q-49 0 -85.5 -32.5t-45.5 -74.5h242v10zM200 700h117l102 -144h-89z" />
    <glyph glyph-name="eacute" unicode="&#xe9;" horiz-adv-x="553" 
d="M64.5 349.5q36.5 66.5 100 106t142.5 39.5q62 0 111 -26t77.5 -75t28.5 -115q0 -20 -3 -42.5t-7 -35.5h-359v-12q0 -22 15 -45.5t45 -39t72 -15.5q33 0 66.5 9.5t55.5 26.5l40 -87q-35 -24 -80.5 -37t-90.5 -13q-115 0 -182.5 58t-67.5 159q0 78 36.5 144.5zM410 297
q0 40 -28.5 68.5t-82.5 28.5q-49 0 -85.5 -32.5t-45.5 -74.5h242v10zM290 556l166 144h119l-194 -144h-91z" />
    <glyph glyph-name="ecircumflex" unicode="&#xea;" horiz-adv-x="553" 
d="M64.5 349.5q36.5 66.5 100 106t142.5 39.5q62 0 111 -26t77.5 -75t28.5 -115q0 -20 -3 -42.5t-7 -35.5h-359v-12q0 -22 15 -45.5t45 -39t72 -15.5q33 0 66.5 9.5t55.5 26.5l40 -87q-35 -24 -80.5 -37t-90.5 -13q-115 0 -182.5 58t-67.5 159q0 78 36.5 144.5zM410 297
q0 40 -28.5 68.5t-82.5 28.5q-49 0 -85.5 -32.5t-45.5 -74.5h242v10zM374 645l-90 -89h-80l124 144h114l62 -144h-76z" />
    <glyph glyph-name="edieresis" unicode="&#xeb;" horiz-adv-x="553" 
d="M64.5 349.5q36.5 66.5 100 106t142.5 39.5q62 0 111 -26t77.5 -75t28.5 -115q0 -20 -3 -42.5t-7 -35.5h-359v-12q0 -22 15 -45.5t45 -39t72 -15.5q33 0 66.5 9.5t55.5 26.5l40 -87q-35 -24 -80.5 -37t-90.5 -13q-115 0 -182.5 58t-67.5 159q0 78 36.5 144.5zM410 297
q0 40 -28.5 68.5t-82.5 28.5q-49 0 -85.5 -32.5t-45.5 -74.5h242v10zM211.5 560.5q-17.5 17.5 -17.5 42.5q0 30 23 52.5t53 22.5q26 0 43 -17t17 -43q0 -29 -23 -52t-53 -23q-25 0 -42.5 17.5zM422.5 560.5q-17.5 17.5 -17.5 42.5q0 30 23 52.5t53 22.5q26 0 43 -17t17 -43
q0 -29 -23 -52t-53 -23q-25 0 -42.5 17.5z" />
    <glyph glyph-name="igrave" unicode="&#xec;" horiz-adv-x="253" 
d="M40 700h117l102 -144h-89zM116 483h127l-107 -483h-127z" />
    <glyph glyph-name="iacute" unicode="&#xed;" horiz-adv-x="253" 
d="M129 556l166 144h119l-194 -144h-91zM116 483h127l-107 -483h-127z" />
    <glyph glyph-name="icircumflex" unicode="&#xee;" horiz-adv-x="253" 
d="M215 645l-90 -89h-80l124 144h114l62 -144h-76zM116 483h127l-107 -483h-127z" />
    <glyph glyph-name="idieresis" unicode="&#xef;" horiz-adv-x="253" 
d="M52.5 560.5q-17.5 17.5 -17.5 42.5q0 30 23 52.5t53 22.5q26 0 43 -17t17 -43q0 -29 -23 -52t-53 -23q-25 0 -42.5 17.5zM263.5 560.5q-17.5 17.5 -17.5 42.5q0 30 23 52.5t53 22.5q26 0 43 -17t17 -43q0 -29 -23 -52t-53 -23q-25 0 -42.5 17.5zM116 483h127l-107 -483
h-127z" />
    <glyph glyph-name="eth" unicode="&#xf0;" horiz-adv-x="574" 
d="M551 306q0 -87 -34.5 -159.5t-98.5 -115.5t-149 -43q-73 0 -128 26t-85.5 74t-30.5 110q0 72 32 132t88 95t123 35q57 0 99.5 -28t64.5 -81q-17 80 -118 181l-161 -47l-15 58l124 37q-18 15 -54 43l90 93q65 -51 106 -94l109 32l15 -58l-80 -24q103 -127 103 -266z
M369 142.5q39 41.5 39 103.5q0 42 -30.5 71.5t-87.5 29.5t-95.5 -41t-38.5 -101q0 -49 30 -76.5t85 -27.5q59 0 98 41.5z" />
    <glyph glyph-name="ntilde" unicode="&#xf1;" 
d="M399 288q5 23 5 32q0 32 -21 47t-53 15q-64 0 -122 -56l-72 -326h-127l107 483h127l-14 -63q34 33 73.5 54t87.5 21q69 0 110 -33.5t41 -89.5q0 -15 -5 -40l-74 -332h-127zM330.5 615q-9.5 7 -23.5 7q-31 0 -44 -62h-68q13 67 41.5 100.5t79.5 33.5q26 0 42 -10t32 -29
q14 -15 23.5 -21.5t23.5 -6.5q30 0 45 61h68q-15 -67 -43.5 -100.5t-78.5 -33.5q-26 0 -41.5 10t-32.5 29q-14 15 -23.5 22z" />
    <glyph glyph-name="ograve" unicode="&#xf2;" horiz-adv-x="574" 
d="M63 348.5q36 66.5 100 106.5t143 40q75 0 129.5 -28.5t82.5 -78t28 -113.5q0 -75 -36 -141t-100 -106t-144 -40q-75 0 -129 28t-82 77.5t-28 113.5q0 75 36 141.5zM384 352q-30 30 -82 30q-42 0 -74.5 -23.5t-51 -62.5t-18.5 -82q0 -53 30 -83t83 -30q41 0 74 23.5t51 62
t18 82.5q0 53 -30 83zM202 700h117l102 -144h-89z" />
    <glyph glyph-name="oacute" unicode="&#xf3;" horiz-adv-x="574" 
d="M63 348.5q36 66.5 100 106.5t143 40q75 0 129.5 -28.5t82.5 -78t28 -113.5q0 -75 -36 -141t-100 -106t-144 -40q-75 0 -129 28t-82 77.5t-28 113.5q0 75 36 141.5zM384 352q-30 30 -82 30q-42 0 -74.5 -23.5t-51 -62.5t-18.5 -82q0 -53 30 -83t83 -30q41 0 74 23.5t51 62
t18 82.5q0 53 -30 83zM289 556l166 144h119l-194 -144h-91z" />
    <glyph glyph-name="ocircumflex" unicode="&#xf4;" horiz-adv-x="574" 
d="M63 348.5q36 66.5 100 106.5t143 40q75 0 129.5 -28.5t82.5 -78t28 -113.5q0 -75 -36 -141t-100 -106t-144 -40q-75 0 -129 28t-82 77.5t-28 113.5q0 75 36 141.5zM384 352q-30 30 -82 30q-42 0 -74.5 -23.5t-51 -62.5t-18.5 -82q0 -53 30 -83t83 -30q41 0 74 23.5t51 62
t18 82.5q0 53 -30 83zM376 645l-90 -89h-80l124 144h114l62 -144h-76z" />
    <glyph glyph-name="otilde" unicode="&#xf5;" horiz-adv-x="574" 
d="M63 348.5q36 66.5 100 106.5t143 40q75 0 129.5 -28.5t82.5 -78t28 -113.5q0 -75 -36 -141t-100 -106t-144 -40q-75 0 -129 28t-82 77.5t-28 113.5q0 75 36 141.5zM384 352q-30 30 -82 30q-42 0 -74.5 -23.5t-51 -62.5t-18.5 -82q0 -53 30 -83t83 -30q41 0 74 23.5t51 62
t18 82.5q0 53 -30 83zM330.5 615q-9.5 7 -23.5 7q-31 0 -44 -62h-68q13 67 41.5 100.5t79.5 33.5q26 0 42 -10t32 -29q14 -15 23.5 -21.5t23.5 -6.5q30 0 45 61h68q-15 -67 -43.5 -100.5t-78.5 -33.5q-26 0 -41.5 10t-32.5 29q-14 15 -23.5 22z" />
    <glyph glyph-name="odieresis" unicode="&#xf6;" horiz-adv-x="574" 
d="M63 348.5q36 66.5 100 106.5t143 40q75 0 129.5 -28.5t82.5 -78t28 -113.5q0 -75 -36 -141t-100 -106t-144 -40q-75 0 -129 28t-82 77.5t-28 113.5q0 75 36 141.5zM384 352q-30 30 -82 30q-42 0 -74.5 -23.5t-51 -62.5t-18.5 -82q0 -53 30 -83t83 -30q41 0 74 23.5t51 62
t18 82.5q0 53 -30 83zM212.5 560.5q-17.5 17.5 -17.5 42.5q0 30 23 52.5t53 22.5q26 0 43 -17t17 -43q0 -29 -23 -52t-53 -23q-25 0 -42.5 17.5zM423.5 560.5q-17.5 17.5 -17.5 42.5q0 30 23 52.5t53 22.5q26 0 43 -17t17 -43q0 -29 -23 -52t-53 -23q-25 0 -42.5 17.5z" />
    <glyph glyph-name="divide" unicode="&#xf7;" horiz-adv-x="511" 
d="M273.5 556.5q19.5 19.5 46.5 19.5q23 0 39 -16.5t16 -39.5q0 -28 -19.5 -47t-46.5 -19q-23 0 -39 16.5t-16 39.5q0 27 19.5 46.5zM58 377h453l-17 -79h-453zM194.5 198.5q19.5 19.5 46.5 19.5q23 0 39.5 -16.5t16.5 -39.5q0 -27 -20 -46.5t-47 -19.5q-23 0 -39 16.5
t-16 39.5q0 27 19.5 46.5z" />
    <glyph glyph-name="oslash" unicode="&#xf8;" horiz-adv-x="574" 
d="M505 408q41 -56 41 -133q0 -75 -36 -141t-100 -106t-144 -40q-98 0 -161 49l-38 -37h-83l82 77q-39 53 -39 130q0 75 36 141.5t100 106.5t143 40q95 0 158 -46l37 34h84zM166 169l205 193q-28 20 -69 20q-42 0 -74.5 -23.5t-51 -62.5t-18.5 -82q0 -24 8 -45zM405 317
l-206 -194q26 -22 72 -22q41 0 74 23.5t51 62t18 82.5q0 27 -9 48z" />
    <glyph glyph-name="ugrave" unicode="&#xf9;" 
d="M178 192q-4 -18 -4 -29q0 -31 22.5 -46.5t58.5 -15.5q56 0 115 57l72 325h127l-107 -483h-127l14 63q-35 -33 -74 -54t-87 -21q-69 0 -110 34t-41 90q0 8 1.5 19t3.5 20l73 332h128zM204 700h117l102 -144h-89z" />
    <glyph glyph-name="uacute" unicode="&#xfa;" 
d="M178 192q-4 -18 -4 -29q0 -31 22.5 -46.5t58.5 -15.5q56 0 115 57l72 325h127l-107 -483h-127l14 63q-35 -33 -74 -54t-87 -21q-69 0 -110 34t-41 90q0 8 1.5 19t3.5 20l73 332h128zM292 556l166 144h119l-194 -144h-91z" />
    <glyph glyph-name="ucircumflex" unicode="&#xfb;" 
d="M178 192q-4 -18 -4 -29q0 -31 22.5 -46.5t58.5 -15.5q56 0 115 57l72 325h127l-107 -483h-127l14 63q-35 -33 -74 -54t-87 -21q-69 0 -110 34t-41 90q0 8 1.5 19t3.5 20l73 332h128zM378 645l-90 -89h-80l124 144h114l62 -144h-76z" />
    <glyph glyph-name="udieresis" unicode="&#xfc;" 
d="M178 192q-4 -18 -4 -29q0 -31 22.5 -46.5t58.5 -15.5q56 0 115 57l72 325h127l-107 -483h-127l14 63q-35 -33 -74 -54t-87 -21q-69 0 -110 34t-41 90q0 8 1.5 19t3.5 20l73 332h128zM215.5 560.5q-17.5 17.5 -17.5 42.5q0 30 23 52.5t53 22.5q26 0 43 -17t17 -43
q0 -29 -23 -52t-53 -23q-25 0 -42.5 17.5zM426.5 560.5q-17.5 17.5 -17.5 42.5q0 30 23 52.5t53 22.5q26 0 43 -17t17 -43q0 -29 -23 -52t-53 -23q-25 0 -42.5 17.5z" />
    <glyph glyph-name="yacute" unicode="&#xfd;" horiz-adv-x="513" 
d="M43 -82q20 0 33.5 7.5t26.5 26.5l30 45l-86 486h132l51 -336l202 336h140l-352 -562q-39 -64 -82.5 -90.5t-104.5 -26.5q-46 0 -81 12l42 110q18 -8 49 -8zM256 556l166 144h119l-194 -144h-91z" />
    <glyph glyph-name="thorn" unicode="&#xfe;" horiz-adv-x="583" 
d="M95 -184h-127l188 851h127l-54 -244q62 72 146 72q83 0 133 -53t50 -147q0 -75 -30 -146t-88 -116t-136 -45q-49 0 -89.5 20t-64.5 56zM395 351q-30 31 -77 31q-32 0 -60.5 -16t-50.5 -42l-37 -168q16 -25 46 -40t67 -15q41 0 73.5 23t50.5 61.5t18 83.5q0 51 -30 82z
" />
    <glyph glyph-name="ydieresis" unicode="&#xff;" horiz-adv-x="513" 
d="M43 -82q20 0 33.5 7.5t26.5 26.5l30 45l-86 486h132l51 -336l202 336h140l-352 -562q-39 -64 -82.5 -90.5t-104.5 -26.5q-46 0 -81 12l42 110q18 -8 49 -8zM178.5 560.5q-17.5 17.5 -17.5 42.5q0 30 23 52.5t53 22.5q26 0 43 -17t17 -43q0 -29 -23 -52t-53 -23
q-25 0 -42.5 17.5zM389.5 560.5q-17.5 17.5 -17.5 42.5q0 30 23 52.5t53 22.5q26 0 43 -17t17 -43q0 -29 -23 -52t-53 -23q-25 0 -42.5 17.5z" />
    <glyph glyph-name="Amacron" unicode="&#x100;" horiz-adv-x="684" 
d="M463 113h-286l-67 -113h-169l405 667h178l110 -667h-154zM244 238h207l-40 287zM284 801h362l-16 -72h-362z" />
    <glyph glyph-name="amacron" unicode="&#x101;" horiz-adv-x="586" 
d="M448 483h128l-107 -483h-128l14 60q-31 -36 -66.5 -54t-78.5 -18q-84 0 -134 53t-50 147q0 76 30.5 146.5t88 115.5t136.5 45q48 0 89 -20t65 -56zM189 132q30 -31 77 -31q33 0 62 15.5t49 41.5l37 168q-16 25 -46 40.5t-67 15.5q-40 0 -72.5 -23t-51 -62t-18.5 -83
q0 -51 30 -82zM194 634h362l-16 -72h-362z" />
    <glyph glyph-name="Abreve" unicode="&#x102;" horiz-adv-x="684" 
d="M463 113h-286l-67 -113h-169l405 667h178l110 -667h-154zM244 238h207l-40 287zM344 721.5q-41 23.5 -63 64.5l65 47q14 -29 41 -45.5t64 -16.5q74 0 133 62l48 -47q-40 -41 -90.5 -64.5t-103.5 -23.5t-94 23.5z" />
    <glyph glyph-name="abreve" unicode="&#x103;" horiz-adv-x="586" 
d="M448 483h128l-107 -483h-128l14 60q-31 -36 -66.5 -54t-78.5 -18q-84 0 -134 53t-50 147q0 76 30.5 146.5t88 115.5t136.5 45q48 0 89 -20t65 -56zM189 132q30 -31 77 -31q33 0 62 15.5t49 41.5l37 168q-16 25 -46 40.5t-67 15.5q-40 0 -72.5 -23t-51 -62t-18.5 -83
q0 -51 30 -82zM254 554.5q-41 23.5 -63 64.5l65 47q14 -29 41 -45.5t64 -16.5q74 0 133 62l48 -47q-40 -41 -90.5 -64.5t-103.5 -23.5t-94 23.5z" />
    <glyph glyph-name="Aogonek" unicode="&#x104;" horiz-adv-x="684" 
d="M537 -35.5q-29 -22.5 -29 -48.5q0 -10 7.5 -16.5t20.5 -6.5q16 0 30 7l10 -68q-37 -18 -92 -18q-44 0 -71 16.5t-27 47.5q0 41 40 72.5t100 49.5h-46l-17 113h-286l-67 -113h-169l405 667h178l110 -667h-19q-49 -13 -78 -35.5zM451 238l-40 287l-167 -287h207z" />
    <glyph glyph-name="aogonek" unicode="&#x105;" horiz-adv-x="586" 
d="M391 -35.5q-29 -22.5 -29 -48.5q0 -9 8 -16t21 -7q16 0 30 7l9 -68q-37 -18 -92 -18q-43 0 -70.5 17t-27.5 47q0 41 40 72.5t101 49.5h-40l14 60q-31 -36 -66.5 -54t-78.5 -18q-84 0 -134 53t-50 147q0 76 30.5 146.5t88 115.5t136.5 45q48 0 89 -20t65 -56l13 64h128
l-107 -483q-49 -13 -78 -35.5zM328 116.5q29 15.5 49 41.5l37 168q-16 25 -46 40.5t-67 15.5q-40 0 -72.5 -23t-51 -62t-18.5 -83q0 -51 30 -82t77 -31q33 0 62 15.5z" />
    <glyph glyph-name="Cacute" unicode="&#x106;" horiz-adv-x="687" 
d="M97 491q53 89 142 138t193 49q115 0 189.5 -53t106.5 -136l-137 -46q-19 52 -63.5 80.5t-102.5 28.5q-62 0 -116 -33.5t-85.5 -92.5t-31.5 -130q0 -52 23 -93.5t66 -65t99 -23.5q43 0 86 21t71 56l109 -74q-53 -68 -126.5 -98.5t-147.5 -30.5q-92 0 -167 37t-118 105
t-43 157q0 115 53 204zM425 728l166 144h119l-194 -144h-91z" />
    <glyph glyph-name="cacute" unicode="&#x107;" horiz-adv-x="499" 
d="M65 352.5q37 65.5 101.5 104t142.5 38.5q71 0 120.5 -25.5t75.5 -69.5l-95 -73q-15 26 -41.5 40.5t-59.5 14.5q-44 0 -79 -22.5t-54 -61t-19 -84.5q0 -53 34.5 -83t86.5 -30q30 0 56 13t45 35l69 -85q-31 -33 -77.5 -54.5t-105.5 -21.5q-71 0 -125 27.5t-83 77.5t-29 115
q0 79 37 144.5zM295 556l166 144h119l-194 -144h-91z" />
    <glyph glyph-name="Ccircumflex" unicode="&#x108;" horiz-adv-x="687" 
d="M97 491q53 89 142 138t193 49q115 0 189.5 -53t106.5 -136l-137 -46q-19 52 -63.5 80.5t-102.5 28.5q-62 0 -116 -33.5t-85.5 -92.5t-31.5 -130q0 -52 23 -93.5t66 -65t99 -23.5q43 0 86 21t71 56l109 -74q-53 -68 -126.5 -98.5t-147.5 -30.5q-92 0 -167 37t-118 105
t-43 157q0 115 53 204zM509 812l-90 -89h-80l124 144h114l62 -144h-76z" />
    <glyph glyph-name="ccircumflex" unicode="&#x109;" horiz-adv-x="499" 
d="M65 352.5q37 65.5 101.5 104t142.5 38.5q71 0 120.5 -25.5t75.5 -69.5l-95 -73q-15 26 -41.5 40.5t-59.5 14.5q-44 0 -79 -22.5t-54 -61t-19 -84.5q0 -53 34.5 -83t86.5 -30q30 0 56 13t45 35l69 -85q-31 -33 -77.5 -54.5t-105.5 -21.5q-71 0 -125 27.5t-83 77.5t-29 115
q0 79 37 144.5zM380 645l-90 -89h-80l124 144h114l62 -144h-76z" />
    <glyph glyph-name="Cdotaccent" unicode="&#x10a;" horiz-adv-x="687" 
d="M97 491q53 89 142 138t193 49q115 0 189.5 -53t106.5 -136l-137 -46q-19 52 -63.5 80.5t-102.5 28.5q-62 0 -116 -33.5t-85.5 -92.5t-31.5 -130q0 -52 23 -93.5t66 -65t99 -23.5q43 0 86 21t71 56l109 -74q-53 -68 -126.5 -98.5t-147.5 -30.5q-92 0 -167 37t-118 105
t-43 157q0 115 53 204zM449 727q-17 17 -17 43q0 30 23.5 53t53.5 23q25 0 42.5 -17.5t17.5 -43.5q0 -30 -23.5 -52.5t-53.5 -22.5q-26 0 -43 17z" />
    <glyph glyph-name="cdotaccent" unicode="&#x10b;" horiz-adv-x="499" 
d="M65 352.5q37 65.5 101.5 104t142.5 38.5q71 0 120.5 -25.5t75.5 -69.5l-95 -73q-15 26 -41.5 40.5t-59.5 14.5q-44 0 -79 -22.5t-54 -61t-19 -84.5q0 -53 34.5 -83t86.5 -30q30 0 56 13t45 35l69 -85q-31 -33 -77.5 -54.5t-105.5 -21.5q-71 0 -125 27.5t-83 77.5t-29 115
q0 79 37 144.5zM321 560q-17 17 -17 43q0 30 23.5 53t53.5 23q25 0 42.5 -17.5t17.5 -43.5q0 -30 -23.5 -52.5t-53.5 -22.5q-26 0 -43 17z" />
    <glyph glyph-name="Ccaron" unicode="&#x10c;" horiz-adv-x="687" 
d="M97 491q53 89 142 138t193 49q115 0 189.5 -53t106.5 -136l-137 -46q-19 52 -63.5 80.5t-102.5 28.5q-62 0 -116 -33.5t-85.5 -92.5t-31.5 -130q0 -52 23 -93.5t66 -65t99 -23.5q43 0 86 21t71 56l109 -74q-53 -68 -126.5 -98.5t-147.5 -30.5q-92 0 -167 37t-118 105
t-43 157q0 115 53 204zM372 867h76l53 -90l91 90h80l-123 -144h-114z" />
    <glyph glyph-name="ccaron" unicode="&#x10d;" horiz-adv-x="499" 
d="M65 352.5q37 65.5 101.5 104t142.5 38.5q71 0 120.5 -25.5t75.5 -69.5l-95 -73q-15 26 -41.5 40.5t-59.5 14.5q-44 0 -79 -22.5t-54 -61t-19 -84.5q0 -53 34.5 -83t86.5 -30q30 0 56 13t45 35l69 -85q-31 -33 -77.5 -54.5t-105.5 -21.5q-71 0 -125 27.5t-83 77.5t-29 115
q0 79 37 144.5zM243 700h76l53 -90l91 90h80l-123 -144h-114z" />
    <glyph glyph-name="Dcaron" unicode="&#x10e;" horiz-adv-x="718" 
d="M558.5 631q66.5 -36 107 -101.5t40.5 -149.5q0 -95 -45 -181.5t-142 -142.5t-245 -56h-262l147 667h258q75 0 141.5 -36zM436.5 158q58.5 33 90 89.5t31.5 123.5q0 48 -21.5 87t-59.5 61.5t-87 22.5h-116l-92 -417h118q78 0 136.5 33zM350 867h76l53 -90l91 90h80
l-123 -144h-114z" />
    <glyph glyph-name="dcaron" unicode="&#x10f;" horiz-adv-x="690" 
d="M489 667h128l-148 -667h-128l14 60q-31 -36 -66.5 -54t-78.5 -18q-84 0 -134 53t-50 147q0 76 30.5 146.5t88 115.5t136.5 45q48 0 89 -20t65 -56zM189 132q30 -31 77 -31q33 0 62 15.5t49 41.5l37 168q-16 25 -46 40.5t-67 15.5q-40 0 -72.5 -23t-51 -62t-18.5 -83
q0 -51 30 -82zM619 491q26 12 49 31t31 39h-8q-21 0 -35 13.5t-14 37.5q0 27 21.5 47.5t48.5 20.5q25 0 43 -17.5t18 -47.5q0 -45 -34 -91t-84 -70z" />
    <glyph glyph-name="Dcroat" unicode="&#x110;" horiz-adv-x="742" 
d="M582.5 631q66.5 -36 107.5 -102t41 -149q0 -95 -45 -181.5t-142.5 -142.5t-245.5 -56h-262l61 276h-82l26 115h82l60 276h258q75 0 141.5 -36zM461 158q59 33 90.5 89.5t31.5 123.5q0 48 -21.5 87t-60 61.5t-86.5 22.5h-117l-33 -151h148l-25 -115h-149l-33 -151h118
q78 0 137 33z" />
    <glyph glyph-name="dcroat" unicode="&#x111;" horiz-adv-x="590" 
d="M638 528h-52l-117 -528h-128l14 60q-31 -36 -66.5 -54t-78.5 -18q-84 0 -134 53t-50 147q0 76 30.5 146.5t88 115.5t136.5 45q48 0 89 -20t65 -56l24 109h-152l15 73h153l14 66h128l-15 -66h50zM414 326q-16 25 -46 40.5t-67 15.5q-40 0 -72.5 -23t-51 -62t-18.5 -83
q0 -51 30 -82t77 -31q33 0 62 15.5t49 41.5z" />
    <glyph glyph-name="Emacron" unicode="&#x112;" horiz-adv-x="583" 
d="M159 667h472l-28 -125h-329l-31 -141h322l-28 -125h-322l-33 -151h329l-27 -125h-472zM243 801h362l-16 -72h-362z" />
    <glyph glyph-name="emacron" unicode="&#x113;" horiz-adv-x="553" 
d="M64.5 349.5q36.5 66.5 100 106t142.5 39.5q62 0 111 -26t77.5 -75t28.5 -115q0 -20 -3 -42.5t-7 -35.5h-359v-12q0 -22 15 -45.5t45 -39t72 -15.5q33 0 66.5 9.5t55.5 26.5l40 -87q-35 -24 -80.5 -37t-90.5 -13q-115 0 -182.5 58t-67.5 159q0 78 36.5 144.5zM410 297
q0 40 -28.5 68.5t-82.5 28.5q-49 0 -85.5 -32.5t-45.5 -74.5h242v10zM192 634h362l-16 -72h-362z" />
    <glyph glyph-name="Ebreve" unicode="&#x114;" horiz-adv-x="583" 
d="M159 667h472l-28 -125h-329l-31 -141h322l-28 -125h-322l-33 -151h329l-27 -125h-472zM304 721.5q-41 23.5 -63 64.5l65 47q14 -29 41 -45.5t64 -16.5q74 0 133 62l48 -47q-40 -41 -90.5 -64.5t-103.5 -23.5t-94 23.5z" />
    <glyph glyph-name="ebreve" unicode="&#x115;" horiz-adv-x="553" 
d="M64.5 349.5q36.5 66.5 100 106t142.5 39.5q62 0 111 -26t77.5 -75t28.5 -115q0 -20 -3 -42.5t-7 -35.5h-359v-12q0 -22 15 -45.5t45 -39t72 -15.5q33 0 66.5 9.5t55.5 26.5l40 -87q-35 -24 -80.5 -37t-90.5 -13q-115 0 -182.5 58t-67.5 159q0 78 36.5 144.5zM410 297
q0 40 -28.5 68.5t-82.5 28.5q-49 0 -85.5 -32.5t-45.5 -74.5h242v10zM252 554.5q-41 23.5 -63 64.5l65 47q14 -29 41 -45.5t64 -16.5q74 0 133 62l48 -47q-40 -41 -90.5 -64.5t-103.5 -23.5t-94 23.5z" />
    <glyph glyph-name="Edotaccent" unicode="&#x116;" horiz-adv-x="583" 
d="M159 667h472l-28 -125h-329l-31 -141h322l-28 -125h-322l-33 -151h329l-27 -125h-472zM370 733q-17 17 -17 43q0 30 23.5 53t53.5 23q25 0 42.5 -17.5t17.5 -43.5q0 -30 -23.5 -52.5t-53.5 -22.5q-26 0 -43 17z" />
    <glyph glyph-name="edotaccent" unicode="&#x117;" horiz-adv-x="553" 
d="M64.5 349.5q36.5 66.5 100 106t142.5 39.5q62 0 111 -26t77.5 -75t28.5 -115q0 -20 -3 -42.5t-7 -35.5h-359v-12q0 -22 15 -45.5t45 -39t72 -15.5q33 0 66.5 9.5t55.5 26.5l40 -87q-35 -24 -80.5 -37t-90.5 -13q-115 0 -182.5 58t-67.5 159q0 78 36.5 144.5zM410 297
q0 40 -28.5 68.5t-82.5 28.5q-49 0 -85.5 -32.5t-45.5 -74.5h242v10zM316 560q-17 17 -17 43q0 30 23.5 53t53.5 23q25 0 42.5 -17.5t17.5 -43.5q0 -30 -23.5 -52.5t-53.5 -22.5q-26 0 -43 17z" />
    <glyph glyph-name="Eogonek" unicode="&#x118;" horiz-adv-x="583" 
d="M274 542l-31 -141h322l-28 -125h-322l-33 -151h329l-27 -125h-1q-49 -13 -78 -35.5t-29 -48.5q0 -9 8 -16t21 -7q16 0 30 7l9 -68q-37 -18 -92 -18q-43 0 -70.5 17t-27.5 47q0 41 40 72.5t101 49.5h-383l147 667h472l-28 -125h-329z" />
    <glyph glyph-name="eogonek" unicode="&#x119;" horiz-adv-x="553" 
d="M230 -57q30 29 78 47q-20 -2 -30 -2q-115 0 -182.5 58t-67.5 159q0 78 36.5 144.5t100 106t142.5 39.5q62 0 111 -26t77.5 -75t28.5 -115q0 -20 -3 -42.5t-7 -35.5h-359v-12q0 -22 15 -45.5t45 -39t72 -15.5q33 0 66.5 9.5t55.5 26.5l40 -87q-64 -40 -93.5 -66.5
t-32.5 -49.5q-2 -13 5.5 -21t21.5 -8q17 0 30 7l10 -68q-37 -18 -93 -18q-41 0 -69 16.5t-28 47.5q0 36 30 65zM410 297q0 40 -28.5 68.5t-82.5 28.5q-49 0 -85.5 -32.5t-45.5 -74.5h242v10z" />
    <glyph glyph-name="Ecaron" unicode="&#x11a;" horiz-adv-x="583" 
d="M159 667h472l-28 -125h-329l-31 -141h322l-28 -125h-322l-33 -151h329l-27 -125h-472zM289 867h76l53 -90l91 90h80l-123 -144h-114z" />
    <glyph glyph-name="ecaron" unicode="&#x11b;" horiz-adv-x="553" 
d="M64.5 349.5q36.5 66.5 100 106t142.5 39.5q62 0 111 -26t77.5 -75t28.5 -115q0 -20 -3 -42.5t-7 -35.5h-359v-12q0 -22 15 -45.5t45 -39t72 -15.5q33 0 66.5 9.5t55.5 26.5l40 -87q-35 -24 -80.5 -37t-90.5 -13q-115 0 -182.5 58t-67.5 159q0 78 36.5 144.5zM410 297
q0 40 -28.5 68.5t-82.5 28.5q-49 0 -85.5 -32.5t-45.5 -74.5h242v10zM238 700h76l53 -90l91 90h80l-123 -144h-114z" />
    <glyph glyph-name="Gcircumflex" unicode="&#x11c;" horiz-adv-x="720" 
d="M96 487.5q52 89.5 143.5 140t205.5 50.5q100 0 171 -47t104 -118l-131 -56q-17 42 -62.5 68.5t-101.5 26.5q-62 0 -115.5 -33.5t-85.5 -92.5t-32 -130q0 -51 23 -92.5t65.5 -65.5t99.5 -24q73 0 133 51l18 80h-177l28 125h319l-58 -260q-49 -58 -119 -90t-152 -32
q-91 0 -166 36.5t-118.5 104.5t-43.5 158q0 111 52 200.5zM516 812l-90 -89h-80l124 144h114l62 -144h-76z" />
    <glyph glyph-name="gcircumflex" unicode="&#x11d;" horiz-adv-x="585" 
d="M53 -27q23 -31 65.5 -48t91.5 -17q109 0 137 125l10 44q-28 -34 -66.5 -53.5t-81.5 -19.5q-79 0 -130.5 48.5t-51.5 147.5q0 75 30.5 143t87.5 110t132 42q44 0 87 -20.5t69 -55.5l14 64h128l-100 -450q-27 -125 -99 -177t-164 -52q-75 0 -133.5 19.5t-100.5 64.5z
M412 322q-17 28 -48.5 44t-69.5 16q-39 0 -69.5 -21t-48 -57t-17.5 -79q0 -49 30 -78.5t80 -29.5q30 0 59.5 15.5t49.5 39.5zM370 636l-90 -89h-80l124 144h114l62 -144h-76z" />
    <glyph glyph-name="Gbreve" unicode="&#x11e;" horiz-adv-x="720" 
d="M96 487.5q52 89.5 143.5 140t205.5 50.5q100 0 171 -47t104 -118l-131 -56q-17 42 -62.5 68.5t-101.5 26.5q-62 0 -115.5 -33.5t-85.5 -92.5t-32 -130q0 -51 23 -92.5t65.5 -65.5t99.5 -24q73 0 133 51l18 80h-177l28 125h319l-58 -260q-49 -58 -119 -90t-152 -32
q-91 0 -166 36.5t-118.5 104.5t-43.5 158q0 111 52 200.5zM394 721.5q-41 23.5 -63 64.5l65 47q14 -29 41 -45.5t64 -16.5q74 0 133 62l48 -47q-40 -41 -90.5 -64.5t-103.5 -23.5t-94 23.5z" />
    <glyph glyph-name="gbreve" unicode="&#x11f;" horiz-adv-x="585" 
d="M53 -27q23 -31 65.5 -48t91.5 -17q109 0 137 125l10 44q-28 -34 -66.5 -53.5t-81.5 -19.5q-79 0 -130.5 48.5t-51.5 147.5q0 75 30.5 143t87.5 110t132 42q44 0 87 -20.5t69 -55.5l14 64h128l-100 -450q-27 -125 -99 -177t-164 -52q-75 0 -133.5 19.5t-100.5 64.5z
M412 322q-17 28 -48.5 44t-69.5 16q-39 0 -69.5 -21t-48 -57t-17.5 -79q0 -49 30 -78.5t80 -29.5q30 0 59.5 15.5t49.5 39.5zM249 554.5q-41 23.5 -63 64.5l65 47q14 -29 41 -45.5t64 -16.5q74 0 133 62l48 -47q-40 -41 -90.5 -64.5t-103.5 -23.5t-94 23.5z" />
    <glyph glyph-name="Gdotaccent" unicode="&#x120;" horiz-adv-x="720" 
d="M96 487.5q52 89.5 143.5 140t205.5 50.5q100 0 171 -47t104 -118l-131 -56q-17 42 -62.5 68.5t-101.5 26.5q-62 0 -115.5 -33.5t-85.5 -92.5t-32 -130q0 -51 23 -92.5t65.5 -65.5t99.5 -24q73 0 133 51l18 80h-177l28 125h319l-58 -260q-49 -58 -119 -90t-152 -32
q-91 0 -166 36.5t-118.5 104.5t-43.5 158q0 111 52 200.5zM457 727q-17 17 -17 43q0 30 23.5 53t53.5 23q25 0 42.5 -17.5t17.5 -43.5q0 -30 -23.5 -52.5t-53.5 -22.5q-26 0 -43 17z" />
    <glyph glyph-name="gdotaccent" unicode="&#x121;" horiz-adv-x="585" 
d="M53 -27q23 -31 65.5 -48t91.5 -17q109 0 137 125l10 44q-28 -34 -66.5 -53.5t-81.5 -19.5q-79 0 -130.5 48.5t-51.5 147.5q0 75 30.5 143t87.5 110t132 42q44 0 87 -20.5t69 -55.5l14 64h128l-100 -450q-27 -125 -99 -177t-164 -52q-75 0 -133.5 19.5t-100.5 64.5z
M412 322q-17 28 -48.5 44t-69.5 16q-39 0 -69.5 -21t-48 -57t-17.5 -79q0 -49 30 -78.5t80 -29.5q30 0 59.5 15.5t49.5 39.5zM313 560q-17 17 -17 43q0 30 23.5 53t53.5 23q25 0 42.5 -17.5t17.5 -43.5q0 -30 -23.5 -52.5t-53.5 -22.5q-26 0 -43 17z" />
    <glyph glyph-name="uni0122" unicode="&#x122;" horiz-adv-x="720" 
d="M96 487.5q52 89.5 143.5 140t205.5 50.5q100 0 171 -47t104 -118l-131 -56q-17 42 -62.5 68.5t-101.5 26.5q-62 0 -115.5 -33.5t-85.5 -92.5t-32 -130q0 -51 23 -92.5t65.5 -65.5t99.5 -24q73 0 133 51l18 80h-177l28 125h319l-58 -260q-49 -58 -119 -90t-152 -32
q-91 0 -166 36.5t-118.5 104.5t-43.5 158q0 111 52 200.5zM219 -245q26 12 49 31t31 39h-8q-21 0 -35 13.5t-14 37.5q0 27 21.5 47.5t48.5 20.5q25 0 43 -17.5t18 -47.5q0 -45 -34 -91t-84 -70z" />
    <glyph glyph-name="uni0123" unicode="&#x123;" horiz-adv-x="585" 
d="M456 734q-26 -12 -49 -31t-32 -40h9q21 0 35 -13.5t14 -38.5q0 -28 -21 -48t-49 -20q-26 0 -44 17t-18 48q0 46 34 92.5t85 71.5zM53 -27q23 -31 65.5 -48t91.5 -17q109 0 137 125l10 44q-28 -34 -66.5 -53.5t-81.5 -19.5q-79 0 -130.5 48.5t-51.5 147.5q0 75 30.5 143
t87.5 110t132 42q44 0 87 -20.5t69 -55.5l14 64h128l-100 -450q-27 -125 -99 -177t-164 -52q-75 0 -133.5 19.5t-100.5 64.5zM412 322q-17 28 -48.5 44t-69.5 16q-39 0 -69.5 -21t-48 -57t-17.5 -79q0 -49 30 -78.5t80 -29.5q30 0 59.5 15.5t49.5 39.5z" />
    <glyph glyph-name="Hcircumflex" unicode="&#x124;" horiz-adv-x="731" 
d="M531 280h-315l-62 -280h-142l147 667h142l-57 -262h314l58 262h143l-147 -667h-143zM491 812l-90 -89h-80l124 144h114l62 -144h-76z" />
    <glyph glyph-name="hcircumflex" unicode="&#x125;" horiz-adv-x="580" 
d="M399 290q5 20 5 30q0 32 -22.5 47t-60.5 15q-30 0 -59.5 -16.5t-53.5 -40.5l-72 -325h-127l147 667h127l-54 -247q34 33 73.5 54t87.5 21q69 0 110 -33.5t41 -89.5q0 -15 -5 -40l-73 -332h-127zM417 812l-90 -89h-80l124 144h114l62 -144h-76z" />
    <glyph glyph-name="Hbar" unicode="&#x126;" horiz-adv-x="744" 
d="M792 501h-64l-110 -501h-143l62 280h-315l-61 -280h-143l110 501h-65l16 73h66l20 93h143l-21 -93h315l20 93h143l-21 -93h64zM586 501h-315l-21 -96h315z" />
    <glyph glyph-name="hbar" unicode="&#x127;" horiz-adv-x="582" 
d="M502 461.5q41 -33.5 41 -90.5q0 -14 -5 -39l-73 -332h-128l63 290q5 20 5 30q0 32 -22.5 47t-59.5 15q-30 0 -60 -16.5t-54 -40.5l-71 -325h-128l116 528h-57l17 73h56l15 66h128l-15 -66h146l-16 -73h-146l-24 -108q36 34 74.5 54.5t86.5 20.5q70 0 111 -33.5z" />
    <glyph glyph-name="Itilde" unicode="&#x128;" horiz-adv-x="274" 
d="M159 667h142l-147 -667h-142zM216.5 782q-9.5 7 -23.5 7q-31 0 -44 -62h-68q13 67 41.5 100.5t79.5 33.5q26 0 42 -10t32 -29q14 -15 23.5 -21.5t23.5 -6.5q30 0 45 61h68q-15 -67 -43.5 -100.5t-78.5 -33.5q-26 0 -41.5 10t-32.5 29q-14 15 -23.5 22z" />
    <glyph glyph-name="itilde" unicode="&#x129;" horiz-adv-x="253" 
d="M116 483h127l-107 -483h-127zM169.5 615q-9.5 7 -23.5 7q-31 0 -44 -62h-68q13 67 41.5 100.5t79.5 33.5q26 0 42 -10t32 -29q14 -15 23.5 -21.5t23.5 -6.5q30 0 45 61h68q-15 -67 -43.5 -100.5t-78.5 -33.5q-26 0 -41.5 10t-32.5 29q-14 15 -23.5 22z" />
    <glyph glyph-name="Imacron" unicode="&#x12a;" horiz-adv-x="274" 
d="M159 667h142l-147 -667h-142zM80 801h362l-16 -72h-362z" />
    <glyph glyph-name="imacron" unicode="&#x12b;" horiz-adv-x="253" 
d="M116 483h127l-107 -483h-127zM32 634h362l-16 -72h-362z" />
    <glyph glyph-name="Ibreve" unicode="&#x12c;" horiz-adv-x="274" 
d="M159 667h142l-147 -667h-142zM139 721.5q-41 23.5 -63 64.5l65 47q14 -29 41 -45.5t64 -16.5q74 0 133 62l48 -47q-40 -41 -90.5 -64.5t-103.5 -23.5t-94 23.5z" />
    <glyph glyph-name="ibreve" unicode="&#x12d;" horiz-adv-x="253" 
d="M116 483h127l-107 -483h-127zM94 554.5q-41 23.5 -63 64.5l65 47q14 -29 41 -45.5t64 -16.5q74 0 133 62l48 -47q-40 -41 -90.5 -64.5t-103.5 -23.5t-94 23.5z" />
    <glyph glyph-name="Iogonek" unicode="&#x12e;" horiz-adv-x="274" 
d="M301 667l-147 -667q-48 -13 -77 -35.5t-29 -48.5q0 -10 7.5 -16.5t20.5 -6.5q16 0 30 7l10 -68q-37 -18 -93 -18q-43 0 -70.5 17t-27.5 47q0 41 40.5 72.5t100.5 49.5h-54l147 667h142z" />
    <glyph glyph-name="iogonek" unicode="&#x12f;" horiz-adv-x="253" 
d="M264.5 667q19.5 -19 19.5 -46q0 -39 -27 -62.5t-59 -23.5q-29 0 -48.5 19t-19.5 46q0 39 26.5 62.5t58.5 23.5q30 0 49.5 -19zM116 483h127l-107 -483q-49 -13 -78 -35.5t-29 -48.5q0 -9 8 -16t21 -7q16 0 30 7l10 -68q-39 -18 -93 -18q-43 0 -70.5 17t-27.5 47
q0 41 40.5 72.5t100.5 49.5h-39z" />
    <glyph glyph-name="Idotaccent" unicode="&#x130;" horiz-adv-x="274" 
d="M159 667h142l-147 -667h-142zM204 727q-17 17 -17 43q0 30 23.5 53t53.5 23q25 0 42.5 -17.5t17.5 -43.5q0 -30 -23.5 -52.5t-53.5 -22.5q-26 0 -43 17z" />
    <glyph glyph-name="dotlessi" unicode="&#x131;" horiz-adv-x="253" 
d="M116 483h127l-107 -483h-127z" />
    <glyph glyph-name="IJ" unicode="&#x132;" horiz-adv-x="760" 
d="M159 667h142l-147 -667h-142zM322 169q16 -25 44.5 -40t62.5 -15q47 0 76.5 28t41.5 79l98 446h142l-98 -448q-26 -119 -86.5 -175t-163.5 -56q-59 0 -111 19t-83 56z" />
    <glyph glyph-name="ij" unicode="&#x133;" horiz-adv-x="505" 
d="M156.5 662.5q26.5 23.5 58.5 23.5q30 0 49.5 -19t19.5 -46q0 -39 -27 -62.5t-59 -23.5q-29 0 -48.5 19t-19.5 46q0 39 26.5 62.5zM116 483h127l-107 -483h-127zM409.5 662.5q26.5 23.5 58.5 23.5q30 0 49.5 -19t19.5 -46q0 -39 -27 -62.5t-59 -23.5q-29 0 -48.5 19
t-19.5 46q0 39 26.5 62.5zM151 -83q16 -6 33 -6q57 0 74 76l111 496h127l-111 -496q-19 -88 -63 -135.5t-123 -47.5q-45 0 -75 11z" />
    <glyph glyph-name="Jcircumflex" unicode="&#x134;" horiz-adv-x="486" 
d="M48 169q16 -25 44.5 -40t62.5 -15q47 0 76.5 28t41.5 79l98 446h142l-98 -448q-26 -119 -86.5 -175t-163.5 -56q-59 0 -111 19t-83 56zM476 812l-90 -89h-80l124 144h114l62 -144h-76z" />
    <glyph glyph-name="jcircumflex" unicode="&#x135;" horiz-adv-x="253" 
d="M217 645l-90 -89h-80l124 144h114l62 -144h-76zM-102 -83q16 -6 33 -6q57 0 74 76l111 496h127l-111 -496q-19 -88 -63 -135.5t-123 -47.5q-45 0 -75 11z" />
    <glyph glyph-name="uni0136" unicode="&#x136;" horiz-adv-x="636" 
d="M269 273l-69 -68l-46 -205h-142l147 667h142l-63 -286l291 286h183l-334 -313l205 -354h-167zM159 -245q26 12 49 31t31 39h-8q-21 0 -35 13.5t-14 37.5q0 27 21.5 47.5t48.5 20.5q25 0 43 -17.5t18 -47.5q0 -45 -34 -91t-84 -70z" />
    <glyph glyph-name="uni0137" unicode="&#x137;" horiz-adv-x="535" 
d="M238 189l-75 -65l-27 -124h-127l147 667h127l-87 -391l224 207h162l-240 -219l139 -264h-154zM105 -245q26 12 49 31t31 39h-8q-21 0 -35 13.5t-14 37.5q0 27 21.5 47.5t48.5 20.5q25 0 43 -17.5t18 -47.5q0 -45 -34 -91t-84 -70z" />
    <glyph glyph-name="kgreenlandic" unicode="&#x138;" horiz-adv-x="535" 
d="M238 189l-75 -65l-27 -124h-127l107 483h127l-47 -207l224 207h162l-240 -219l139 -264h-154z" />
    <glyph glyph-name="Lacute" unicode="&#x139;" horiz-adv-x="523" 
d="M159 667h142l-119 -542h281l-27 -125h-424zM316 723l166 144h119l-194 -144h-91z" />
    <glyph glyph-name="lacute" unicode="&#x13a;" horiz-adv-x="253" 
d="M156 667h127l-147 -667h-127zM167 723l166 144h119l-194 -144h-91z" />
    <glyph glyph-name="uni013B" unicode="&#x13b;" horiz-adv-x="523" 
d="M159 667h142l-119 -542h281l-27 -125h-424zM103 -245q26 12 49 31t31 39h-8q-21 0 -35 13.5t-14 37.5q0 27 21.5 47.5t48.5 20.5q25 0 43 -17.5t18 -47.5q0 -45 -34 -91t-84 -70z" />
    <glyph glyph-name="uni013C" unicode="&#x13c;" horiz-adv-x="253" 
d="M156 667h127l-147 -667h-127zM-45 -245q26 12 49 31t31 39h-8q-21 0 -35 13.5t-14 37.5q0 27 21.5 47.5t48.5 20.5q25 0 43 -17.5t18 -47.5q0 -45 -34 -91t-84 -70z" />
    <glyph glyph-name="Lcaron" unicode="&#x13d;" horiz-adv-x="523" 
d="M159 667h142l-119 -542h281l-27 -125h-424zM345 492q26 12 49 31t31 39h-8q-21 0 -35 13.5t-14 37.5q0 27 21.5 47.5t48.5 20.5q25 0 43 -17.5t18 -47.5q0 -45 -34 -91t-84 -70z" />
    <glyph glyph-name="lcaron" unicode="&#x13e;" horiz-adv-x="354" 
d="M156 667h127l-147 -667h-127zM297 492q26 12 49 31t31 39h-8q-21 0 -35 13.5t-14 37.5q0 27 21.5 47.5t48.5 20.5q25 0 43 -17.5t18 -47.5q0 -45 -34 -91t-84 -70z" />
    <glyph glyph-name="Ldot" unicode="&#x13f;" horiz-adv-x="542" 
d="M159 667h142l-119 -542h281l-27 -125h-424zM374 397.5q26 25.5 63 25.5q30 0 51.5 -22t21.5 -53q0 -35 -26.5 -61t-61.5 -26q-31 0 -52.5 22t-21.5 52q0 37 26 62.5z" />
    <glyph glyph-name="ldot" unicode="&#x140;" horiz-adv-x="384" 
d="M156 667h127l-147 -667h-127zM263 300.5q26 25.5 63 25.5q30 0 51.5 -22t21.5 -53q0 -35 -26.5 -61t-61.5 -26q-31 0 -52.5 22t-21.5 52q0 37 26 62.5z" />
    <glyph glyph-name="Lslash" unicode="&#x141;" horiz-adv-x="542" 
d="M483 125l-27 -125h-425l51 233l-80 -41l26 116l80 40l70 319h143l-52 -236l86 44l-25 -116l-87 -44l-42 -190h282z" />
    <glyph glyph-name="lslash" unicode="&#x142;" horiz-adv-x="308" 
d="M327 371l-91 -46l-72 -325h-128l55 251l-92 -47l21 93l92 47l71 323h128l-55 -250l92 47z" />
    <glyph glyph-name="Nacute" unicode="&#x143;" horiz-adv-x="729" 
d="M254 450l-100 -450h-142l147 667h146l212 -434l97 434h142l-147 -667h-137zM405 723l166 144h119l-194 -144h-91z" />
    <glyph glyph-name="nacute" unicode="&#x144;" 
d="M399 288q5 23 5 32q0 32 -21 47t-53 15q-64 0 -122 -56l-72 -326h-127l107 483h127l-14 -63q34 33 73.5 54t87.5 21q69 0 110 -33.5t41 -89.5q0 -15 -5 -40l-74 -332h-127zM290 556l166 144h119l-194 -144h-91z" />
    <glyph glyph-name="uni0145" unicode="&#x145;" horiz-adv-x="729" 
d="M254 450l-100 -450h-142l147 667h146l212 -434l97 434h142l-147 -667h-137zM194 -245q26 12 49 31t31 39h-8q-21 0 -35 13.5t-14 37.5q0 27 21.5 47.5t48.5 20.5q25 0 43 -17.5t18 -47.5q0 -45 -34 -91t-84 -70z" />
    <glyph glyph-name="uni0146" unicode="&#x146;" 
d="M399 288q5 23 5 32q0 32 -21 47t-53 15q-64 0 -122 -56l-72 -326h-127l107 483h127l-14 -63q34 33 73.5 54t87.5 21q69 0 110 -33.5t41 -89.5q0 -15 -5 -40l-74 -332h-127zM116 -245q26 12 49 31t31 39h-8q-21 0 -35 13.5t-14 37.5q0 27 21.5 47.5t48.5 20.5
q25 0 43 -17.5t18 -47.5q0 -45 -34 -91t-84 -70z" />
    <glyph glyph-name="Ncaron" unicode="&#x147;" horiz-adv-x="729" 
d="M254 450l-100 -450h-142l147 667h146l212 -434l97 434h142l-147 -667h-137zM353 867h76l53 -90l91 90h80l-123 -144h-114z" />
    <glyph glyph-name="ncaron" unicode="&#x148;" 
d="M399 288q5 23 5 32q0 32 -21 47t-53 15q-64 0 -122 -56l-72 -326h-127l107 483h127l-14 -63q34 33 73.5 54t87.5 21q69 0 110 -33.5t41 -89.5q0 -15 -5 -40l-74 -332h-127zM239 700h76l53 -90l91 90h80l-123 -144h-114z" />
    <glyph glyph-name="napostrophe" unicode="&#x149;" 
d="M399 288q5 23 5 32q0 32 -21 47t-53 15q-64 0 -122 -56l-72 -326h-127l107 483h127l-14 -63q34 33 73.5 54t87.5 21q69 0 110 -33.5t41 -89.5q0 -15 -5 -40l-74 -332h-127zM118 576q26 12 49 31t31 39h-8q-21 0 -35 13.5t-14 37.5q0 27 21.5 47.5t48.5 20.5
q25 0 43 -17.5t18 -47.5q0 -45 -34 -91t-84 -70z" />
    <glyph glyph-name="Eng" unicode="&#x14a;" horiz-adv-x="729" 
d="M756 667l-140 -633q-27 -119 -88.5 -174.5t-161.5 -55.5q-60 0 -111.5 19.5t-82.5 55.5l75 94q16 -25 44.5 -40.5t62.5 -15.5q42 0 71 24t42 69l-213 440l-100 -450h-142l147 667h146l212 -434l97 434h142z" />
    <glyph glyph-name="eng" unicode="&#x14b;" 
d="M396 -148.5q-44 -47.5 -123 -47.5q-45 0 -75 11l28 102q15 -6 32 -6q57 0 74 76l68 306q4 20 4 27q0 31 -20.5 46.5t-50.5 15.5q-67 0 -125 -56l-72 -326h-127l107 483h127l-14 -63q34 33 73.5 54t87.5 21q67 0 109 -32.5t42 -90.5q0 -17 -5 -40l-77 -345
q-19 -88 -63 -135.5z" />
    <glyph glyph-name="Omacron" unicode="&#x14c;" horiz-adv-x="765" 
d="M95 484.5q51 89.5 140 141.5t197 52q92 0 166.5 -37t117.5 -104.5t43 -156.5q0 -108 -51 -197.5t-139.5 -142t-196.5 -52.5q-93 0 -167.5 37t-117.5 105t-43 157q0 108 51 197.5zM586.5 466q-24.5 41 -67 63.5t-96.5 22.5q-64 0 -116.5 -34t-83.5 -93t-31 -129
q0 -55 24.5 -96.5t67 -63.5t96.5 -22q63 0 116 34t84 93t31 129q0 55 -24.5 96zM325 801h362l-16 -72h-362z" />
    <glyph glyph-name="omacron" unicode="&#x14d;" horiz-adv-x="574" 
d="M63 348.5q36 66.5 100 106.5t143 40q75 0 129.5 -28.5t82.5 -78t28 -113.5q0 -75 -36 -141t-100 -106t-144 -40q-75 0 -129 28t-82 77.5t-28 113.5q0 75 36 141.5zM384 352q-30 30 -82 30q-42 0 -74.5 -23.5t-51 -62.5t-18.5 -82q0 -53 30 -83t83 -30q41 0 74 23.5t51 62
t18 82.5q0 53 -30 83zM192 634h362l-16 -72h-362z" />
    <glyph glyph-name="Obreve" unicode="&#x14e;" horiz-adv-x="765" 
d="M95 484.5q51 89.5 140 141.5t197 52q92 0 166.5 -37t117.5 -104.5t43 -156.5q0 -108 -51 -197.5t-139.5 -142t-196.5 -52.5q-93 0 -167.5 37t-117.5 105t-43 157q0 108 51 197.5zM586.5 466q-24.5 41 -67 63.5t-96.5 22.5q-64 0 -116.5 -34t-83.5 -93t-31 -129
q0 -55 24.5 -96.5t67 -63.5t96.5 -22q63 0 116 34t84 93t31 129q0 55 -24.5 96zM386 721.5q-41 23.5 -63 64.5l65 47q14 -29 41 -45.5t64 -16.5q74 0 133 62l48 -47q-40 -41 -90.5 -64.5t-103.5 -23.5t-94 23.5z" />
    <glyph glyph-name="obreve" unicode="&#x14f;" horiz-adv-x="574" 
d="M63 348.5q36 66.5 100 106.5t143 40q75 0 129.5 -28.5t82.5 -78t28 -113.5q0 -75 -36 -141t-100 -106t-144 -40q-75 0 -129 28t-82 77.5t-28 113.5q0 75 36 141.5zM384 352q-30 30 -82 30q-42 0 -74.5 -23.5t-51 -62.5t-18.5 -82q0 -53 30 -83t83 -30q41 0 74 23.5t51 62
t18 82.5q0 53 -30 83zM253 554.5q-41 23.5 -63 64.5l65 47q14 -29 41 -45.5t64 -16.5q74 0 133 62l48 -47q-40 -41 -90.5 -64.5t-103.5 -23.5t-94 23.5z" />
    <glyph glyph-name="Ohungarumlaut" unicode="&#x150;" horiz-adv-x="765" 
d="M95 484.5q51 89.5 140 141.5t197 52q92 0 166.5 -37t117.5 -104.5t43 -156.5q0 -108 -51 -197.5t-139.5 -142t-196.5 -52.5q-93 0 -167.5 37t-117.5 105t-43 157q0 108 51 197.5zM586.5 466q-24.5 41 -67 63.5t-96.5 22.5q-64 0 -116.5 -34t-83.5 -93t-31 -129
q0 -55 24.5 -96.5t67 -63.5t96.5 -22q63 0 116 34t84 93t31 129q0 55 -24.5 96zM358 723l119 144h104l-147 -144h-76zM507 723l119 144h104l-147 -144h-76z" />
    <glyph glyph-name="ohungarumlaut" unicode="&#x151;" horiz-adv-x="574" 
d="M63 348.5q36 66.5 100 106.5t143 40q75 0 129.5 -28.5t82.5 -78t28 -113.5q0 -75 -36 -141t-100 -106t-144 -40q-75 0 -129 28t-82 77.5t-28 113.5q0 75 36 141.5zM384 352q-30 30 -82 30q-42 0 -74.5 -23.5t-51 -62.5t-18.5 -82q0 -53 30 -83t83 -30q41 0 74 23.5t51 62
t18 82.5q0 53 -30 83zM226 556l119 144h104l-147 -144h-76zM375 556l119 144h104l-147 -144h-76z" />
    <glyph glyph-name="OE" unicode="&#x152;" horiz-adv-x="1084" 
d="M532 76q-78 -88 -208 -88q-78 0 -142 38t-101 106.5t-37 154.5q0 113 51.5 202t138.5 138.5t188 49.5q74 0 130 -28t88 -87l22 105h472l-27 -125h-329l-31 -141h322l-28 -125h-322l-33 -151h329l-28 -125h-472zM544.5 516.5q-47.5 34.5 -113.5 34.5q-68 0 -122.5 -34.5
t-85.5 -93t-31 -127.5q0 -55 23 -96t64.5 -63.5t93.5 -22.5q57 0 108 28t83 77l44 201q-16 62 -63.5 96.5z" />
    <glyph glyph-name="oe" unicode="&#x153;" horiz-adv-x="931" 
d="M539 189q0 -24 15.5 -47t45 -38t70.5 -15q32 0 65.5 10t54.5 26l39 -87q-32 -23 -76 -36.5t-93 -13.5q-73 0 -126 33t-72 74q-30 -33 -54.5 -54t-60.5 -37t-83 -16q-107 0 -172 58.5t-65 160.5q0 73 35 139.5t98 107.5t144 41q69 0 118 -33.5t69 -74.5q42 49 87 78.5
t111 29.5q59 0 108 -25t78 -73.5t29 -117.5q0 -35 -9 -78h-355zM791 297q0 40 -28 68.5t-81 28.5q-34 0 -62 -16.5t-46 -41.5t-22 -49h238q1 3 1 10zM228.5 359.5q-32.5 -22.5 -51.5 -61t-19 -84.5q0 -53 29.5 -83t81.5 -30q40 0 72 23t50.5 61.5t18.5 83.5q0 56 -31 84.5
t-79 28.5q-39 0 -71.5 -22.5z" />
    <glyph glyph-name="Racute" unicode="&#x154;" horiz-adv-x="643" 
d="M316 237h-110l-52 -237h-142l147 667h285q55 0 102 -23t75.5 -66t28.5 -99q0 -59 -24.5 -108.5t-68 -81.5t-97.5 -42l92 -247h-157zM469.5 390.5q31.5 28.5 31.5 74.5q0 33 -25 55t-59 22h-143l-40 -180h149q55 0 86.5 28.5zM365 723l166 144h119l-194 -144h-91z" />
    <glyph glyph-name="racute" unicode="&#x155;" horiz-adv-x="360" 
d="M116 483h127l-15 -64q34 37 75.5 56t95.5 19l-27 -126q-24 6 -47 6q-33 0 -65 -16.5t-55 -41.5l-69 -316h-127zM214 556l166 144h119l-194 -144h-91z" />
    <glyph glyph-name="uni0156" unicode="&#x156;" horiz-adv-x="643" 
d="M316 237h-110l-52 -237h-142l147 667h285q55 0 102 -23t75.5 -66t28.5 -99q0 -59 -24.5 -108.5t-68 -81.5t-97.5 -42l92 -247h-157zM469.5 390.5q31.5 28.5 31.5 74.5q0 33 -25 55t-59 22h-143l-40 -180h149q55 0 86.5 28.5zM153 -245q26 12 49 31t31 39h-8
q-21 0 -35 13.5t-14 37.5q0 27 21.5 47.5t48.5 20.5q25 0 43 -17.5t18 -47.5q0 -45 -34 -91t-84 -70z" />
    <glyph glyph-name="uni0157" unicode="&#x157;" horiz-adv-x="360" 
d="M116 483h127l-15 -64q34 37 75.5 56t95.5 19l-27 -126q-24 6 -47 6q-33 0 -65 -16.5t-55 -41.5l-69 -316h-127zM41 -245q26 12 49 31t31 39h-8q-21 0 -35 13.5t-14 37.5q0 27 21.5 47.5t48.5 20.5q25 0 43 -17.5t18 -47.5q0 -45 -34 -91t-84 -70z" />
    <glyph glyph-name="Rcaron" unicode="&#x158;" horiz-adv-x="643" 
d="M316 237h-110l-52 -237h-142l147 667h285q55 0 102 -23t75.5 -66t28.5 -99q0 -59 -24.5 -108.5t-68 -81.5t-97.5 -42l92 -247h-157zM469.5 390.5q31.5 28.5 31.5 74.5q0 33 -25 55t-59 22h-143l-40 -180h149q55 0 86.5 28.5zM313 867h76l53 -90l91 90h80l-123 -144h-114z
" />
    <glyph glyph-name="rcaron" unicode="&#x159;" horiz-adv-x="360" 
d="M116 483h127l-15 -64q34 37 75.5 56t95.5 19l-27 -126q-24 6 -47 6q-33 0 -65 -16.5t-55 -41.5l-69 -316h-127zM162 700h76l53 -90l91 90h80l-123 -144h-114z" />
    <glyph glyph-name="Sacute" unicode="&#x15a;" horiz-adv-x="600" 
d="M87 216q35 -47 96 -75.5t129 -28.5q49 0 74.5 23.5t25.5 52.5q0 26 -28 43t-88 39q-64 23 -105.5 43.5t-72 56.5t-30.5 90q0 56 31.5 106t91 80.5t138.5 30.5q80 0 150.5 -28.5t114.5 -79.5l-88 -100q-36 41 -90.5 63t-108.5 22q-38 0 -63.5 -20t-25.5 -48
q0 -24 27.5 -39.5t87.5 -37.5q64 -23 107 -44.5t73.5 -58.5t30.5 -90q0 -62 -32 -114t-91.5 -83t-139.5 -31q-97 0 -178 34t-124 90zM344 723l166 144h119l-194 -144h-91z" />
    <glyph glyph-name="sacute" unicode="&#x15b;" horiz-adv-x="477" 
d="M62 160q23 -28 71.5 -51.5t97.5 -23.5q31 0 50.5 15t19.5 35t-20.5 31.5t-68.5 28.5q-49 16 -80 30.5t-53.5 40.5t-22.5 66q0 43 23.5 80.5t68.5 60t107 22.5q61 0 115.5 -21.5t89.5 -57.5l-65 -81q-19 24 -59.5 43.5t-82.5 19.5q-32 0 -51 -13.5t-19 -33.5
q0 -16 20.5 -27t63.5 -25q49 -16 81.5 -31t56 -42.5t23.5 -68.5q0 -47 -25 -85.5t-72.5 -61t-111.5 -22.5q-67 0 -127.5 22.5t-100.5 64.5zM246 556l166 144h119l-194 -144h-91z" />
    <glyph glyph-name="Scircumflex" unicode="&#x15c;" horiz-adv-x="600" 
d="M430 812l-90 -89h-80l124 144h114l62 -144h-76zM87 216q35 -47 96 -75.5t129 -28.5q49 0 74.5 23.5t25.5 52.5q0 26 -28 43t-88 39q-64 23 -105.5 43.5t-72 56.5t-30.5 90q0 56 31.5 106t91 80.5t138.5 30.5q80 0 150.5 -28.5t114.5 -79.5l-88 -100q-36 41 -90.5 63
t-108.5 22q-38 0 -63.5 -20t-25.5 -48q0 -24 27.5 -39.5t87.5 -37.5q64 -23 107 -44.5t73.5 -58.5t30.5 -90q0 -62 -32 -114t-91.5 -83t-139.5 -31q-97 0 -178 34t-124 90z" />
    <glyph glyph-name="scircumflex" unicode="&#x15d;" horiz-adv-x="477" 
d="M62 160q23 -28 71.5 -51.5t97.5 -23.5q31 0 50.5 15t19.5 35t-20.5 31.5t-68.5 28.5q-49 16 -80 30.5t-53.5 40.5t-22.5 66q0 43 23.5 80.5t68.5 60t107 22.5q61 0 115.5 -21.5t89.5 -57.5l-65 -81q-19 24 -59.5 43.5t-82.5 19.5q-32 0 -51 -13.5t-19 -33.5
q0 -16 20.5 -27t63.5 -25q49 -16 81.5 -31t56 -42.5t23.5 -68.5q0 -47 -25 -85.5t-72.5 -61t-111.5 -22.5q-67 0 -127.5 22.5t-100.5 64.5zM331 645l-90 -89h-80l124 144h114l62 -144h-76z" />
    <glyph glyph-name="uni015E" unicode="&#x15e;" horiz-adv-x="600" 
d="M460 364.5q43 -21.5 73.5 -58.5t30.5 -90q0 -62 -32 -114t-91.5 -83t-139.5 -31q-22 0 -33 1l-25 -40q16 10 31 10q26 0 42.5 -16.5t16.5 -45.5q0 -42 -32 -67.5t-81 -25.5q-37 0 -68.5 11.5t-49.5 29.5l34 49q38 -36 85 -36q23 0 36.5 9.5t13.5 25.5q0 11 -8 17.5
t-22 6.5q-18 0 -30 -14l-40 26l40 67q-69 13 -124.5 43.5t-87.5 72.5l88 104q35 -47 96 -75.5t129 -28.5q49 0 74.5 23.5t25.5 52.5q0 26 -28 43t-88 39q-64 23 -105.5 43.5t-72 56.5t-30.5 90q0 56 31.5 106t91 80.5t138.5 30.5q80 0 150.5 -28.5t114.5 -79.5l-88 -100
q-36 41 -90.5 63t-108.5 22q-38 0 -63.5 -20t-25.5 -48q0 -24 27.5 -39.5t87.5 -37.5q64 -23 107 -44.5z" />
    <glyph glyph-name="uni015F" unicode="&#x15f;" horiz-adv-x="477" 
d="M348.5 268q32.5 -15 56 -42.5t23.5 -68.5q0 -47 -25 -85.5t-72.5 -61t-111.5 -22.5h-12l-25 -39q16 10 31 10q26 0 43 -16.5t17 -45.5q0 -42 -32.5 -67.5t-81.5 -25.5q-37 0 -68.5 11.5t-49.5 29.5l34 49q18 -17 40 -26.5t45 -9.5t36.5 9.5t13.5 25.5q0 11 -8 17.5
t-22 6.5q-16 0 -30 -14l-40 26l39 65q-47 9 -87.5 30t-70.5 51l71 85q23 -28 71.5 -51.5t97.5 -23.5q31 0 50.5 15t19.5 35t-20.5 31.5t-68.5 28.5q-49 16 -80 30.5t-53.5 40.5t-22.5 66q0 43 23.5 80.5t68.5 60t107 22.5q61 0 115.5 -21.5t89.5 -57.5l-65 -81
q-19 24 -59.5 43.5t-82.5 19.5q-32 0 -51 -13.5t-19 -33.5q0 -16 20.5 -27t63.5 -25q49 -16 81.5 -31z" />
    <glyph glyph-name="Scaron" unicode="&#x160;" horiz-adv-x="600" 
d="M293 867h76l53 -90l91 90h80l-123 -144h-114zM87 216q35 -47 96 -75.5t129 -28.5q49 0 74.5 23.5t25.5 52.5q0 26 -28 43t-88 39q-64 23 -105.5 43.5t-72 56.5t-30.5 90q0 56 31.5 106t91 80.5t138.5 30.5q80 0 150.5 -28.5t114.5 -79.5l-88 -100q-36 41 -90.5 63
t-108.5 22q-38 0 -63.5 -20t-25.5 -48q0 -24 27.5 -39.5t87.5 -37.5q64 -23 107 -44.5t73.5 -58.5t30.5 -90q0 -62 -32 -114t-91.5 -83t-139.5 -31q-97 0 -178 34t-124 90z" />
    <glyph glyph-name="scaron" unicode="&#x161;" horiz-adv-x="477" 
d="M62 160q23 -28 71.5 -51.5t97.5 -23.5q31 0 50.5 15t19.5 35t-20.5 31.5t-68.5 28.5q-49 16 -80 30.5t-53.5 40.5t-22.5 66q0 43 23.5 80.5t68.5 60t107 22.5q61 0 115.5 -21.5t89.5 -57.5l-65 -81q-19 24 -59.5 43.5t-82.5 19.5q-32 0 -51 -13.5t-19 -33.5
q0 -16 20.5 -27t63.5 -25q49 -16 81.5 -31t56 -42.5t23.5 -68.5q0 -47 -25 -85.5t-72.5 -61t-111.5 -22.5q-67 0 -127.5 22.5t-100.5 64.5zM194 700h76l53 -90l91 90h80l-123 -144h-114z" />
    <glyph glyph-name="uni0162" unicode="&#x162;" horiz-adv-x="582" 
d="M285 542h-195l28 125h532l-27 -125h-195l-119 -542h-143zM122 -245q26 12 49 31t31 39h-8q-21 0 -35 13.5t-14 37.5q0 27 21.5 47.5t48.5 20.5q25 0 43 -17.5t18 -47.5q0 -45 -34 -91t-84 -70z" />
    <glyph glyph-name="uni0163" unicode="&#x163;" horiz-adv-x="338" 
d="M63 126l54 247h-80l25 110h80l29 132h128l-29 -132h98l-26 -110h-98l-46 -210q-2 -12 -2 -20q0 -20 12 -31t35 -11q10 0 20 3t15 7l5 -102q-14 -10 -35.5 -15.5t-44.5 -5.5q-67 0 -105.5 26.5t-38.5 78.5q0 17 4 33zM-9 -245q26 12 49 31t31 39h-8q-21 0 -35 13.5
t-14 37.5q0 27 21.5 47.5t48.5 20.5q25 0 43 -17.5t18 -47.5q0 -45 -34 -91t-84 -70z" />
    <glyph glyph-name="Tcaron" unicode="&#x164;" horiz-adv-x="582" 
d="M285 542h-195l28 125h532l-27 -125h-195l-119 -542h-143zM273 867h76l53 -90l91 90h80l-123 -144h-114z" />
    <glyph glyph-name="tcaron" unicode="&#x165;" horiz-adv-x="369" 
d="M63 126l54 247h-80l25 110h80l29 132h128l-29 -132h98l-26 -110h-98l-46 -210q-2 -12 -2 -20q0 -20 12 -31t35 -11q10 0 20 3t15 7l5 -102q-14 -10 -35.5 -15.5t-44.5 -5.5q-67 0 -105.5 26.5t-38.5 78.5q0 17 4 33zM336 576q26 12 49 31t31 39h-8q-21 0 -35 13.5
t-14 37.5q0 27 21.5 47.5t48.5 20.5q25 0 43 -17.5t18 -47.5q0 -45 -34 -91t-84 -70z" />
    <glyph glyph-name="Tbar" unicode="&#x166;" horiz-adv-x="582" 
d="M428 542l-46 -207h134l-17 -72h-133l-57 -263h-143l58 263h-133l16 72h133l45 207h-195l28 125h532l-27 -125h-195z" />
    <glyph glyph-name="tbar" unicode="&#x167;" horiz-adv-x="338" 
d="M244 373l-20 -91h68l-16 -73h-68l-10 -46q-2 -12 -2 -20q0 -20 12 -31t35 -11q10 0 20 3t15 7l5 -102q-14 -10 -35.5 -15.5t-44.5 -5.5q-67 0 -105.5 26.5t-38.5 78.5q0 17 4 33l18 83h-80l16 73h80l20 91h-80l25 110h80l29 132h128l-29 -132h98l-26 -110h-98z" />
    <glyph glyph-name="Utilde" unicode="&#x168;" horiz-adv-x="733" 
d="M71 266l88 401h144l-87 -397q-4 -12 -4 -33q1 -53 38.5 -88.5t105.5 -35.5q138 0 172 157l88 397h145l-89 -400q-29 -133 -103 -206t-213 -73q-141 0 -215.5 63t-74.5 170q0 20 5 45zM445.5 782q-9.5 7 -23.5 7q-31 0 -44 -62h-68q13 67 41.5 100.5t79.5 33.5
q26 0 42 -10t32 -29q14 -15 23.5 -21.5t23.5 -6.5q30 0 45 61h68q-15 -67 -43.5 -100.5t-78.5 -33.5q-26 0 -41.5 10t-32.5 29q-14 15 -23.5 22z" />
    <glyph glyph-name="utilde" unicode="&#x169;" 
d="M178 192q-4 -18 -4 -29q0 -31 22.5 -46.5t58.5 -15.5q56 0 115 57l72 325h127l-107 -483h-127l14 63q-35 -33 -74 -54t-87 -21q-69 0 -110 34t-41 90q0 8 1.5 19t3.5 20l73 332h128zM331.5 615q-9.5 7 -23.5 7q-31 0 -44 -62h-68q13 67 41.5 100.5t79.5 33.5q26 0 42 -10
t32 -29q14 -15 23.5 -21.5t23.5 -6.5q30 0 45 61h68q-15 -67 -43.5 -100.5t-78.5 -33.5q-26 0 -41.5 10t-32.5 29q-14 15 -23.5 22z" />
    <glyph glyph-name="Umacron" unicode="&#x16a;" horiz-adv-x="733" 
d="M71 266l88 401h144l-87 -397q-4 -12 -4 -33q1 -53 38.5 -88.5t105.5 -35.5q138 0 172 157l88 397h145l-89 -400q-29 -133 -103 -206t-213 -73q-141 0 -215.5 63t-74.5 170q0 20 5 45zM308 801h362l-16 -72h-362z" />
    <glyph glyph-name="umacron" unicode="&#x16b;" 
d="M178 192q-4 -18 -4 -29q0 -31 22.5 -46.5t58.5 -15.5q56 0 115 57l72 325h127l-107 -483h-127l14 63q-35 -33 -74 -54t-87 -21q-69 0 -110 34t-41 90q0 8 1.5 19t3.5 20l73 332h128zM194 634h362l-16 -72h-362z" />
    <glyph glyph-name="Ubreve" unicode="&#x16c;" horiz-adv-x="733" 
d="M71 266l88 401h144l-87 -397q-4 -12 -4 -33q1 -53 38.5 -88.5t105.5 -35.5q138 0 172 157l88 397h145l-89 -400q-29 -133 -103 -206t-213 -73q-141 0 -215.5 63t-74.5 170q0 20 5 45zM369 721.5q-41 23.5 -63 64.5l65 47q14 -29 41 -45.5t64 -16.5q74 0 133 62l48 -47
q-40 -41 -90.5 -64.5t-103.5 -23.5t-94 23.5z" />
    <glyph glyph-name="ubreve" unicode="&#x16d;" 
d="M178 192q-4 -18 -4 -29q0 -31 22.5 -46.5t58.5 -15.5q56 0 115 57l72 325h127l-107 -483h-127l14 63q-35 -33 -74 -54t-87 -21q-69 0 -110 34t-41 90q0 8 1.5 19t3.5 20l73 332h128zM255 554.5q-41 23.5 -63 64.5l65 47q14 -29 41 -45.5t64 -16.5q74 0 133 62l48 -47
q-40 -41 -90.5 -64.5t-103.5 -23.5t-94 23.5z" />
    <glyph glyph-name="Uring" unicode="&#x16e;" horiz-adv-x="733" 
d="M71 266l88 401h144l-87 -397q-4 -12 -4 -33q1 -53 38.5 -88.5t105.5 -35.5q138 0 172 157l88 397h145l-89 -400q-29 -133 -103 -206t-213 -73q-141 0 -215.5 63t-74.5 170q0 20 5 45zM398 840.5q16 26.5 42.5 42.5t56.5 16q43 0 69 -26.5t26 -69.5q0 -47 -34 -81t-81 -34
q-42 0 -68.5 26.5t-26.5 69.5q0 30 16 56.5zM522 828q-11 12 -30 12q-20 0 -35.5 -15t-15.5 -35q0 -19 11.5 -31t30.5 -12q20 0 35 15t15 35q0 19 -11 31z" />
    <glyph glyph-name="uring" unicode="&#x16f;" 
d="M178 192q-4 -18 -4 -29q0 -31 22.5 -46.5t58.5 -15.5q56 0 115 57l72 325h127l-107 -483h-127l14 63q-35 -33 -74 -54t-87 -21q-69 0 -110 34t-41 90q0 8 1.5 19t3.5 20l73 332h128zM287 683.5q16 26.5 42.5 42.5t56.5 16q43 0 69 -26.5t26 -69.5q0 -47 -34 -81t-81 -34
q-42 0 -68.5 26.5t-26.5 69.5q0 30 16 56.5zM411 671q-11 12 -30 12q-20 0 -35.5 -15t-15.5 -35q0 -19 11.5 -31t30.5 -12q20 0 35 15t15 35q0 19 -11 31z" />
    <glyph glyph-name="Uhungarumlaut" unicode="&#x170;" horiz-adv-x="733" 
d="M71 266l88 401h144l-87 -397q-4 -12 -4 -33q1 -53 38.5 -88.5t105.5 -35.5q138 0 172 157l88 397h145l-89 -400q-29 -133 -103 -206t-213 -73q-141 0 -215.5 63t-74.5 170q0 20 5 45zM343 723l119 144h104l-147 -144h-76zM492 723l119 144h104l-147 -144h-76z" />
    <glyph glyph-name="uhungarumlaut" unicode="&#x171;" 
d="M178 192q-4 -18 -4 -29q0 -31 22.5 -46.5t58.5 -15.5q56 0 115 57l72 325h127l-107 -483h-127l14 63q-35 -33 -74 -54t-87 -21q-69 0 -110 34t-41 90q0 8 1.5 19t3.5 20l73 332h128zM228 556l119 144h104l-147 -144h-76zM377 556l119 144h104l-147 -144h-76z" />
    <glyph glyph-name="Uogonek" unicode="&#x172;" horiz-adv-x="733" 
d="M361.5 -100.5q7.5 -6.5 19.5 -6.5q16 0 30 7l10 -68q-37 -18 -92 -18q-42 0 -70 16.5t-28 47.5q0 37 32 66t83 44h-11q-122 4 -195.5 65t-73.5 168q0 20 5 45l88 401h144l-87 -397q-4 -12 -4 -33q1 -53 38.5 -88.5t105.5 -35.5q138 0 172 157l88 397h145l-89 -400
q-46 -215 -204 -263q-55 -17 -84.5 -39.5t-29.5 -47.5q0 -11 7.5 -17.5z" />
    <glyph glyph-name="uogonek" unicode="&#x173;" 
d="M569 483l-107 -483q-48 -13 -77 -35.5t-29 -48.5q0 -10 7.5 -16.5t20.5 -6.5q16 0 30 7l10 -68q-39 -18 -93 -18q-43 0 -70.5 17t-27.5 47q0 41 40.5 72.5t100.5 49.5h-39l14 63q-35 -33 -74 -54t-87 -21q-69 0 -110 34t-41 90q0 8 1.5 19t3.5 20l73 332h128l-65 -291
q-4 -18 -4 -29q0 -31 22.5 -46.5t58.5 -15.5q56 0 115 57l72 325h127z" />
    <glyph glyph-name="Wcircumflex" unicode="&#x174;" horiz-adv-x="918" 
d="M506 458l-217 -458h-151l-44 667h156l10 -482l233 482h111l20 -482l223 482h163l-337 -667h-151zM582 812l-90 -89h-80l124 144h114l62 -144h-76z" />
    <glyph glyph-name="wcircumflex" unicode="&#x175;" horiz-adv-x="769" 
d="M403 329l-174 -329h-136l-40 483h127l19 -325l178 325h113l33 -325l163 325h136l-254 -483h-135zM471 645l-90 -89h-80l124 144h114l62 -144h-76z" />
    <glyph glyph-name="Ycircumflex" unicode="&#x176;" horiz-adv-x="645" 
d="M450 812l-90 -89h-80l124 144h114l62 -144h-76zM258 273l-170 394h154l107 -268l223 268h170l-342 -394l-60 -273h-142z" />
    <glyph glyph-name="ycircumflex" unicode="&#x177;" horiz-adv-x="513" 
d="M43 -82q20 0 33.5 7.5t26.5 26.5l30 45l-86 486h132l51 -336l202 336h140l-352 -562q-39 -64 -82.5 -90.5t-104.5 -26.5q-46 0 -81 12l42 110q18 -8 49 -8zM342 645l-90 -89h-80l124 144h114l62 -144h-76z" />
    <glyph glyph-name="Ydieresis" unicode="&#x178;" horiz-adv-x="645" 
d="M285.5 727.5q-17.5 17.5 -17.5 42.5q0 30 23 52.5t53 22.5q26 0 43 -17t17 -43q0 -29 -23 -52t-53 -23q-25 0 -42.5 17.5zM496.5 727.5q-17.5 17.5 -17.5 42.5q0 30 23 52.5t53 22.5q26 0 43 -17t17 -43q0 -29 -23 -52t-53 -23q-25 0 -42.5 17.5zM258 273l-170 394h154
l107 -268l223 268h170l-342 -394l-60 -273h-142z" />
    <glyph glyph-name="Zacute" unicode="&#x179;" horiz-adv-x="592" 
d="M13 115l401 427h-306l27 125h501l-24 -114l-403 -428h315l-28 -125h-508zM331 723l166 144h119l-194 -144h-91z" />
    <glyph glyph-name="zacute" unicode="&#x17a;" horiz-adv-x="479" 
d="M9 95l275 277h-213l24 111h390l-20 -92l-279 -280h220l-24 -111h-394zM238 556l166 144h119l-194 -144h-91z" />
    <glyph glyph-name="Zdotaccent" unicode="&#x17b;" horiz-adv-x="592" 
d="M13 115l401 427h-306l27 125h501l-24 -114l-403 -428h315l-28 -125h-508zM358 727q-17 17 -17 43q0 30 23.5 53t53.5 23q25 0 42.5 -17.5t17.5 -43.5q0 -30 -23.5 -52.5t-53.5 -22.5q-26 0 -43 17z" />
    <glyph glyph-name="zdotaccent" unicode="&#x17c;" horiz-adv-x="479" 
d="M9 95l275 277h-213l24 111h390l-20 -92l-279 -280h220l-24 -111h-394zM266 560q-17 17 -17 43q0 30 23.5 53t53.5 23q25 0 42.5 -17.5t17.5 -43.5q0 -30 -23.5 -52.5t-53.5 -22.5q-26 0 -43 17z" />
    <glyph glyph-name="Zcaron" unicode="&#x17d;" horiz-adv-x="592" 
d="M281 867h76l53 -90l91 90h80l-123 -144h-114zM13 115l401 427h-306l27 125h501l-24 -114l-403 -428h315l-28 -125h-508z" />
    <glyph glyph-name="zcaron" unicode="&#x17e;" horiz-adv-x="479" 
d="M9 95l275 277h-213l24 111h390l-20 -92l-279 -280h220l-24 -111h-394zM187 700h76l53 -90l91 90h80l-123 -144h-114z" />
    <glyph glyph-name="longs" unicode="&#x17f;" horiz-adv-x="327" 
d="M120 372h-80l24 111h80l6 26q18 79 64 123.5t117 44.5q64 0 106 -27l-44 -86q-17 13 -46 13t-45.5 -17t-24.5 -51l-112 -509h-128z" />
    <glyph glyph-name="uni018F" unicode="&#x18f;" horiz-adv-x="738" 
d="M571 641q75 -37 118 -105t43 -157q0 -115 -53 -204t-142 -138t-193 -49q-85 0 -155.5 36t-112 104.5t-41.5 160.5q0 42 9 88h540q-2 50 -25 90t-65.5 62.5t-97.5 22.5q-43 0 -85.5 -21t-70.5 -55l-110 74q53 67 127 97.5t147 30.5q92 0 167 -37zM475.5 153
q56.5 39 85.5 105h-383q8 -61 56 -102.5t117 -41.5q68 0 124.5 39z" />
    <glyph glyph-name="uni0192" unicode="&#x192;" horiz-adv-x="454" 
d="M42 238h-54v112h78l37 166q16 75 61 118t117 43q86 0 137 -48l-53 -100q-19 23 -52 23q-26 0 -45 -17.5t-26 -49.5l-30 -135h113v-112h-138l-88 -399h-146z" />
    <glyph glyph-name="Ohorn" unicode="&#x1a0;" horiz-adv-x="765" 
d="M788.5 600.5q-28.5 -40.5 -72.5 -63.5q43 -68 43 -157q0 -108 -51 -197.5t-139.5 -142t-196.5 -52.5q-93 0 -167.5 37t-117.5 105t-43 157q0 108 51 197.5t140 141.5t197 52q79 0 146 -27.5t111 -77.5q21 12 38.5 28t23.5 32h-7q-18 0 -30.5 12t-12.5 34q0 24 19 42
t43 18q22 0 38 -15.5t16 -42.5q0 -40 -28.5 -80.5zM496 148q53 34 84 93t31 129q0 55 -24.5 96t-67 63.5t-96.5 22.5q-64 0 -116.5 -34t-83.5 -93t-31 -129q0 -55 24.5 -96.5t67 -63.5t96.5 -22q63 0 116 34z" />
    <glyph glyph-name="ohorn" unicode="&#x1a1;" horiz-adv-x="574" 
d="M573.5 470q-26.5 -39 -68.5 -63q41 -55 41 -132q0 -75 -36 -141t-100 -106t-144 -40q-75 0 -129 28t-82 77.5t-28 113.5q0 75 36 141.5t100 106.5t143 40q104 0 168 -54q20 11 37 27t23 32q-1 -1 -7 -1q-18 0 -31 12.5t-13 33.5q0 25 19 43t44 18q22 0 38 -15.5t16 -42.5
q0 -39 -26.5 -78zM345 124.5q33 23.5 51 62t18 82.5q0 53 -30 83t-82 30q-42 0 -74.5 -23.5t-51 -62.5t-18.5 -82q0 -53 30 -83t83 -30q41 0 74 23.5z" />
    <glyph glyph-name="Uhorn" unicode="&#x1af;" horiz-adv-x="733" 
d="M842 647q-40 -44 -101 -68l-69 -312q-29 -133 -103 -206t-213 -73q-141 0 -215.5 63t-74.5 170q0 20 5 45l88 401h144l-87 -397q-4 -12 -4 -33q1 -53 38.5 -88.5t105.5 -35.5q138 0 172 157l88 397h145l-8 -34q50 28 63 61q-1 -1 -7 -1q-18 0 -31 12.5t-13 34.5
q0 25 19 42.5t44 17.5q22 0 38 -15.5t16 -42.5q0 -51 -40 -95z" />
    <glyph glyph-name="uhorn" unicode="&#x1b0;" 
d="M635.5 475.5q-31.5 -39.5 -82.5 -66.5l-91 -409h-127l14 62q-35 -33 -74 -53.5t-87 -20.5q-70 0 -111 33.5t-41 89.5q0 9 1.5 20t4.5 20l73 332h127l-64 -292q-4 -18 -4 -28q0 -31 22.5 -46.5t59.5 -15.5q30 0 59.5 16.5t53.5 40.5l73 325h127l-3 -14q26 20 35 43h-7
q-18 0 -31 12.5t-13 33.5q0 24 19 42.5t43 18.5q23 0 39 -16t16 -43q0 -45 -31.5 -84.5z" />
    <glyph glyph-name="AEacute" unicode="&#x1fc;" horiz-adv-x="968" 
d="M425 113h-231l-90 -113h-167l553 667h529l-28 -125h-329l-31 -141h323l-28 -125h-322l-34 -151h329l-27 -125h-472zM290 238h163l61 280zM567 723l166 144h119l-194 -144h-91z" />
    <glyph glyph-name="aeacute" unicode="&#x1fd;" horiz-adv-x="914" 
d="M341 0l14 60q-31 -36 -66.5 -54t-78.5 -18q-84 0 -134 53t-50 147q0 76 30.5 146.5t88 115.5t136.5 45q48 0 89 -20t65 -56l13 64h128l-13 -59q28 31 66 51t81 20q85 0 131 -53t46 -154q0 -21 -3.5 -47.5t-7.5 -39.5h-357q-1 -2 -1 -12q0 -22 15.5 -44.5t46.5 -37.5
t74 -15q33 0 64 9.5t52 26.5l40 -90q-35 -23 -76.5 -36.5t-76.5 -13.5q-66 0 -108.5 25.5t-61.5 68.5l-18 -82h-128zM772 297q0 40 -28 68.5t-81 28.5q-49 0 -85.5 -32.5t-45.5 -74.5h239q1 2 1 10zM189 132q30 -31 77 -31q33 0 62 15.5t49 41.5l37 168q-16 25 -46 40.5
t-67 15.5q-40 0 -72.5 -23t-51 -62t-18.5 -83q0 -51 30 -82zM464 556l166 144h119l-194 -144h-91z" />
    <glyph glyph-name="Oslashacute" unicode="&#x1fe;" horiz-adv-x="765" 
d="M514 723h-91l166 144h119zM685 578q74 -80 74 -198q0 -108 -51 -197.5t-139.5 -142t-196.5 -52.5q-121 0 -207 60l-48 -48h-102l96 97q-67 80 -67 190q0 108 51 197.5t140 141.5t197 52q112 0 197 -54l42 43h102zM215 203l315 321q-47 28 -107 28q-64 0 -116.5 -34
t-83.5 -93t-31 -129q0 -53 23 -93zM582 473l-319 -324q49 -35 117 -35q63 0 116 34t84 93t31 129q0 60 -29 103z" />
    <glyph glyph-name="oslashacute" unicode="&#x1ff;" horiz-adv-x="574" 
d="M381 556h-91l166 144h119zM505 408q41 -55 41 -133q0 -75 -36 -141t-100 -106t-144 -40q-97 0 -161 48l-38 -36h-83l82 77q-39 54 -39 130q0 75 36 141.5t100 106.5t143 40q96 0 158 -46l37 34h84zM165 169l207 193q-28 20 -70 20t-74.5 -23.5t-51 -62.5t-18.5 -82
q0 -27 7 -45zM406 316l-208 -194q29 -21 73 -21q41 0 74 23.5t51 62t18 82.5q0 26 -8 47z" />
    <glyph glyph-name="uni0218" unicode="&#x218;" horiz-adv-x="600" 
d="M87 216q35 -47 96 -75.5t129 -28.5q49 0 74.5 23.5t25.5 52.5q0 26 -28 43t-88 39q-64 23 -105.5 43.5t-72 56.5t-30.5 90q0 56 31.5 106t91 80.5t138.5 30.5q80 0 150.5 -28.5t114.5 -79.5l-88 -100q-36 41 -90.5 63t-108.5 22q-38 0 -63.5 -20t-25.5 -48
q0 -24 27.5 -39.5t87.5 -37.5q64 -23 107 -44.5t73.5 -58.5t30.5 -90q0 -62 -32 -114t-91.5 -83t-139.5 -31q-97 0 -178 34t-124 90zM128 -245q26 12 49 31t31 39h-8q-21 0 -35 13.5t-14 37.5q0 27 21.5 47.5t48.5 20.5q25 0 43 -17.5t18 -47.5q0 -45 -34 -91t-84 -70z" />
    <glyph glyph-name="uni0219" unicode="&#x219;" horiz-adv-x="477" 
d="M62 160q23 -28 71.5 -51.5t97.5 -23.5q31 0 50.5 15t19.5 35t-20.5 31.5t-68.5 28.5q-49 16 -80 30.5t-53.5 40.5t-22.5 66q0 43 23.5 80.5t68.5 60t107 22.5q61 0 115.5 -21.5t89.5 -57.5l-65 -81q-19 24 -59.5 43.5t-82.5 19.5q-32 0 -51 -13.5t-19 -33.5
q0 -16 20.5 -27t63.5 -25q49 -16 81.5 -31t56 -42.5t23.5 -68.5q0 -47 -25 -85.5t-72.5 -61t-111.5 -22.5q-67 0 -127.5 22.5t-100.5 64.5zM72 -245q26 12 49 31t31 39h-8q-21 0 -35 13.5t-14 37.5q0 27 21.5 47.5t48.5 20.5q25 0 43 -17.5t18 -47.5q0 -45 -34 -91t-84 -70z
" />
    <glyph glyph-name="uni021A" unicode="&#x21a;" horiz-adv-x="582" 
d="M285 542h-195l28 125h532l-27 -125h-195l-119 -542h-143zM122 -245q26 12 49 31t31 39h-8q-21 0 -35 13.5t-14 37.5q0 27 21.5 47.5t48.5 20.5q25 0 43 -17.5t18 -47.5q0 -45 -34 -91t-84 -70z" />
    <glyph glyph-name="uni021B" unicode="&#x21b;" horiz-adv-x="338" 
d="M63 126l54 247h-80l25 110h80l29 132h128l-29 -132h98l-26 -110h-98l-46 -210q-2 -12 -2 -20q0 -20 12 -31t35 -11q10 0 20 3t15 7l5 -102q-14 -10 -35.5 -15.5t-44.5 -5.5q-67 0 -105.5 26.5t-38.5 78.5q0 17 4 33zM-13 -245q26 12 49 31t31 39h-8q-21 0 -35 13.5
t-14 37.5q0 27 21.5 47.5t48.5 20.5q25 0 43 -17.5t18 -47.5q0 -45 -34 -91t-84 -70z" />
    <glyph glyph-name="uni0237" unicode="&#x237;" horiz-adv-x="253" 
d="M-102 -83q16 -6 33 -6q57 0 74 76l111 496h127l-111 -496q-19 -88 -63 -135.5t-123 -47.5q-45 0 -75 11z" />
    <glyph glyph-name="uni0259" unicode="&#x259;" horiz-adv-x="553" 
d="M488.5 133.5q-36.5 -66.5 -100.5 -106t-143 -39.5q-62 0 -111 26t-77.5 75t-28.5 115q0 38 10 78h359l1 13q0 22 -15.5 45t-45.5 38.5t-72 15.5q-32 0 -65.5 -9.5t-56.5 -25.5l-39 86q34 24 79.5 37t91.5 13q114 0 182 -58t68 -159q0 -78 -36.5 -144.5zM142 186
q0 -40 28.5 -68.5t82.5 -28.5q49 0 85.5 32.5t45.5 74.5h-241q-1 -2 -1 -10z" />
    <glyph glyph-name="uni02B0" unicode="&#x2b0;" horiz-adv-x="411" 
d="M324 512q2 12 2 18q0 20 -13.5 30t-37.5 10q-36 0 -73 -37l-46 -207h-92l96 434h92l-35 -160q48 48 105 48q49 0 76.5 -22t27.5 -61q0 -6 -4 -30l-47 -209h-92z" />
    <glyph glyph-name="uni02BC" unicode="&#x2bc;" horiz-adv-x="255" 
d="M98 442q30 13 58.5 36t39.5 48h-10q-26 0 -44 17t-18 48q0 35 27.5 60.5t61.5 25.5q32 0 55 -22t23 -60q0 -56 -42 -112.5t-105 -87.5z" />
    <glyph glyph-name="circumflex" unicode="&#x2c6;" horiz-adv-x="300" 
d="M239 645l-90 -89h-80l124 144h114l62 -144h-76z" />
    <glyph glyph-name="caron" unicode="&#x2c7;" horiz-adv-x="300" 
d="M101 700h76l53 -90l91 90h80l-123 -144h-114z" />
    <glyph glyph-name="uni02C9" unicode="&#x2c9;" horiz-adv-x="363" 
d="M92 664h362l-15 -73h-362z" />
    <glyph glyph-name="uni02CB" unicode="&#x2cb;" horiz-adv-x="251" 
d="M101 700h117l102 -144h-89z" />
    <glyph glyph-name="breve" unicode="&#x2d8;" horiz-adv-x="351" 
d="M144 554.5q-41 23.5 -63 64.5l65 47q14 -29 41 -45.5t64 -16.5q74 0 133 62l48 -47q-40 -41 -90.5 -64.5t-103.5 -23.5t-94 23.5z" />
    <glyph glyph-name="dotaccent" unicode="&#x2d9;" horiz-adv-x="174" 
d="M117 560q-17 17 -17 43q0 30 23.5 53t53.5 23q25 0 42.5 -17.5t17.5 -43.5q0 -30 -23.5 -52.5t-53.5 -22.5q-26 0 -43 17z" />
    <glyph glyph-name="ring" unicode="&#x2da;" horiz-adv-x="209" 
d="M101 683.5q16 26.5 42.5 42.5t56.5 16q43 0 69 -26.5t26 -69.5q0 -47 -34 -81t-81 -34q-42 0 -68.5 26.5t-26.5 69.5q0 30 16 56.5zM225 671q-11 12 -30 12q-20 0 -35.5 -15t-15.5 -35q0 -19 11.5 -31t30.5 -12q20 0 35 15t15 35q0 19 -11 31z" />
    <glyph glyph-name="ogonek" unicode="&#x2db;" horiz-adv-x="194" 
d="M-52 -186q-43 0 -70.5 17t-27.5 47q0 42 44 74.5t107 50.5l78 -3q-48 -13 -77 -35.5t-29 -48.5q0 -10 7.5 -16.5t20.5 -6.5q16 0 30 7l10 -68q-37 -18 -93 -18z" />
    <glyph glyph-name="tilde" unicode="&#x2dc;" horiz-adv-x="327" 
d="M205.5 615q-9.5 7 -23.5 7q-31 0 -44 -62h-68q13 67 41.5 100.5t79.5 33.5q26 0 42 -10t32 -29q14 -15 23.5 -21.5t23.5 -6.5q30 0 45 61h68q-15 -67 -43.5 -100.5t-78.5 -33.5q-26 0 -41.5 10t-32.5 29q-14 15 -23.5 22z" />
    <glyph glyph-name="hungarumlaut" unicode="&#x2dd;" horiz-adv-x="338" 
d="M67 556l119 144h104l-147 -144h-76zM216 556l119 144h104l-147 -144h-76z" />
    <glyph glyph-name="uni02E1" unicode="&#x2e1;" horiz-adv-x="188" 
d="M160 760h92l-96 -434h-92z" />
    <glyph glyph-name="uni02E2" unicode="&#x2e2;" horiz-adv-x="336" 
d="M98 432q15 -20 45.5 -35.5t62.5 -15.5q21 0 33.5 8.5t12.5 21.5q0 14 -15.5 23.5t-45.5 19.5q-46 15 -73 34t-27 56q0 43 36 73.5t99 30.5q43 0 80.5 -14.5t57.5 -37.5l-46 -50q-16 17 -41.5 28t-51.5 11q-20 0 -32 -8.5t-12 -22.5q0 -13 14 -20t43 -16q49 -14 77.5 -33
t28.5 -60q0 -44 -38 -75.5t-103 -31.5q-53 0 -89.5 16t-65.5 46z" />
    <glyph glyph-name="uni0309" unicode="&#x309;" horiz-adv-x="0" 
d="M22 778q21 12 48 12q29 0 51.5 -16.5t22.5 -45.5q0 -15 -6.5 -32t-17.5 -29h-57q29 26 29 54q0 12 -7.5 19t-19.5 7q-22 0 -36 -24l-40 20q12 23 33 35z" />
    <glyph glyph-name="uni0326" unicode="&#x326;" horiz-adv-x="0" 
d="M-296 -245q26 12 49 31t31 39h-8q-21 0 -35 13.5t-14 37.5q0 27 21.5 47.5t48.5 20.5q25 0 43 -17.5t18 -47.5q0 -45 -34 -91t-84 -70z" />
    <glyph glyph-name="uni037E" unicode="&#x37e;" horiz-adv-x="256" 
d="M109 464.5q26 25.5 62 25.5q31 0 52.5 -21.5t21.5 -52.5q0 -36 -26.5 -62t-62.5 -26q-31 0 -52 22t-21 53q0 36 26 61.5zM-18 -84q30 13 58.5 36t39.5 48h-11q-26 0 -43.5 17t-17.5 48q0 35 27 60.5t61 25.5q33 0 55.5 -21.5t22.5 -60.5q0 -56 -42 -113t-105 -87z" />
    <glyph glyph-name="tonos" unicode="&#x384;" 
d="M249 765h105l-118 -212h-56z" />
    <glyph glyph-name="dieresistonos" unicode="&#x385;" 
d="M383 765h106l-118 -212h-57zM172.5 560q-17.5 17 -17.5 43q0 30 23.5 52.5t53.5 22.5q26 0 43 -17t17 -43q0 -29 -23.5 -52t-52.5 -23q-26 0 -43.5 17zM472.5 560.5q-17.5 17.5 -17.5 42.5q0 30 23 52.5t53 22.5q26 0 43.5 -17t17.5 -43q0 -29 -24 -52t-53 -23
q-25 0 -42.5 17.5z" />
    <glyph glyph-name="Alphatonos" unicode="&#x386;" horiz-adv-x="684" 
d="M202 765h105l-118 -212h-56zM463 113h-286l-67 -113h-169l405 667h178l110 -667h-154zM244 238h207l-40 287z" />
    <glyph glyph-name="Epsilontonos" unicode="&#x388;" horiz-adv-x="619" 
d="M122 765h105l-118 -212h-56zM195 667h472l-28 -125h-329l-31 -141h322l-28 -125h-322l-33 -151h329l-27 -125h-472z" />
    <glyph glyph-name="Etatonos" unicode="&#x389;" horiz-adv-x="768" 
d="M122 765h105l-118 -212h-56zM567 280h-315l-62 -280h-142l147 667h142l-57 -262h314l58 262h143l-147 -667h-143z" />
    <glyph glyph-name="Iotatonos" unicode="&#x38a;" horiz-adv-x="311" 
d="M122 765h105l-118 -212h-56zM195 667h142l-147 -667h-142z" />
    <glyph glyph-name="Omicrontonos" unicode="&#x38c;" horiz-adv-x="765" 
d="M138 765h105l-118 -212h-56zM95 484.5q51 89.5 140 141.5t197 52q92 0 166.5 -37t117.5 -104.5t43 -156.5q0 -108 -51 -197.5t-139.5 -142t-196.5 -52.5q-93 0 -167.5 37t-117.5 105t-43 157q0 108 51 197.5zM586.5 466q-24.5 41 -67 63.5t-96.5 22.5q-64 0 -116.5 -34
t-83.5 -93t-31 -129q0 -55 24.5 -96.5t67 -63.5t96.5 -22q63 0 116 34t84 93t31 129q0 55 -24.5 96z" />
    <glyph glyph-name="Upsilontonos" unicode="&#x38e;" horiz-adv-x="730" 
d="M122 765h105l-118 -212h-56zM342 273l-170 394h154l107 -268l223 268h170l-342 -394l-60 -273h-142z" />
    <glyph glyph-name="Omegatonos" unicode="&#x38f;" horiz-adv-x="774" 
d="M138 765h105l-118 -212h-56zM95 216.5q-30 55.5 -30 125.5q0 83 44 160.5t129 126.5t202 49q94 0 169.5 -33.5t119 -96.5t43.5 -148q0 -97 -54 -167.5t-127 -107.5h105l-27 -125h-270l28 125q86 19 138.5 87.5t52.5 159.5q0 81 -49 130t-135 49q-68 0 -121 -35.5
t-81.5 -94t-28.5 -123.5q0 -60 26 -104t74 -69l-27 -125h-269l28 125h136q-46 36 -76 91.5z" />
    <glyph glyph-name="iotadieresistonos" unicode="&#x390;" horiz-adv-x="265" 
d="M117 483h128l-78 -338q-2 -10 -2 -13q0 -15 8.5 -23t24.5 -8q8 0 20 2l-16 -108q-30 -7 -61 -7q-112 0 -112 91q0 16 5 41zM230 765h106l-118 -212h-57zM19.5 560q-17.5 17 -17.5 43q0 30 23.5 52.5t53.5 22.5q26 0 43 -17t17 -43q0 -29 -23.5 -52t-52.5 -23
q-26 0 -43.5 17zM319.5 560.5q-17.5 17.5 -17.5 42.5q0 30 23 52.5t53 22.5q26 0 43.5 -17t17.5 -43q0 -29 -24 -52t-53 -23q-25 0 -42.5 17.5z" />
    <glyph glyph-name="Alpha" unicode="&#x391;" horiz-adv-x="684" 
d="M463 113h-286l-67 -113h-169l405 667h178l110 -667h-154zM244 238h207l-40 287z" />
    <glyph glyph-name="Beta" unicode="&#x392;" horiz-adv-x="663" 
d="M159 667h324q56 0 97 -22t62.5 -58.5t21.5 -79.5q0 -44 -21 -82.5t-56 -63t-75 -28.5q45 -12 70.5 -50t25.5 -85q0 -50 -24.5 -95t-76.5 -74t-131 -29h-364zM492.5 527q-19.5 18 -48.5 18h-169l-32 -145h179q47 0 68.5 24.5t21.5 58.5q0 26 -19.5 44zM446 259
q-20 19 -53 19h-178l-34 -155h184q46 0 73.5 25t27.5 62q0 30 -20 49z" />
    <glyph glyph-name="Gamma" unicode="&#x393;" horiz-adv-x="571" 
d="M159 667h472l-28 -125h-329l-120 -542h-142z" />
    <glyph glyph-name="uni0394" unicode="&#x394;" horiz-adv-x="684" 
d="M346 667h178l110 -667h-693zM177 125h291l-57 400z" />
    <glyph glyph-name="Epsilon" unicode="&#x395;" horiz-adv-x="583" 
d="M159 667h472l-28 -125h-329l-31 -141h322l-28 -125h-322l-33 -151h329l-27 -125h-472z" />
    <glyph glyph-name="Zeta" unicode="&#x396;" horiz-adv-x="592" 
d="M13 115l401 427h-306l27 125h501l-24 -114l-403 -428h315l-28 -125h-508z" />
    <glyph glyph-name="Eta" unicode="&#x397;" horiz-adv-x="731" 
d="M531 280h-315l-62 -280h-142l147 667h142l-57 -262h314l58 262h143l-147 -667h-143z" />
    <glyph glyph-name="Theta" unicode="&#x398;" horiz-adv-x="765" 
d="M95 484.5q51 89.5 140 141.5t197 52q92 0 166.5 -37t117.5 -104.5t43 -156.5q0 -108 -51 -197.5t-139.5 -142t-196.5 -52.5q-93 0 -167.5 37t-117.5 105t-43 157q0 108 51 197.5zM586.5 466q-24.5 41 -67 63.5t-96.5 22.5q-64 0 -116.5 -34t-83.5 -93t-31 -129
q0 -55 24.5 -96.5t67 -63.5t96.5 -22q63 0 116 34t84 93t31 129q0 55 -24.5 96zM262 401h303l-28 -125h-302z" />
    <glyph glyph-name="Iota" unicode="&#x399;" horiz-adv-x="274" 
d="M159 667h142l-147 -667h-142z" />
    <glyph glyph-name="Kappa" unicode="&#x39a;" horiz-adv-x="636" 
d="M269 273l-69 -68l-46 -205h-142l147 667h142l-63 -286l291 286h183l-334 -313l205 -354h-167z" />
    <glyph glyph-name="Lambda" unicode="&#x39b;" horiz-adv-x="684" 
d="M411 525l-301 -525h-169l405 667h178l110 -667h-154z" />
    <glyph glyph-name="Mu" unicode="&#x39c;" horiz-adv-x="855" 
d="M698 481l-294 -481h-62l-82 481l-106 -481h-142l147 667h194l69 -417l255 417h205l-147 -667h-143z" />
    <glyph glyph-name="Nu" unicode="&#x39d;" horiz-adv-x="729" 
d="M254 450l-100 -450h-142l147 667h146l212 -434l97 434h142l-147 -667h-137z" />
    <glyph glyph-name="Xi" unicode="&#x39e;" horiz-adv-x="626" 
d="M141 667h532l-27 -125h-532zM89 401h520l-28 -125h-520zM22 125h533l-28 -125h-532z" />
    <glyph glyph-name="Omicron" unicode="&#x39f;" horiz-adv-x="765" 
d="M95 484.5q51 89.5 140 141.5t197 52q92 0 166.5 -37t117.5 -104.5t43 -156.5q0 -108 -51 -197.5t-139.5 -142t-196.5 -52.5q-93 0 -167.5 37t-117.5 105t-43 157q0 108 51 197.5zM586.5 466q-24.5 41 -67 63.5t-96.5 22.5q-64 0 -116.5 -34t-83.5 -93t-31 -129
q0 -55 24.5 -96.5t67 -63.5t96.5 -22q63 0 116 34t84 93t31 129q0 55 -24.5 96z" />
    <glyph glyph-name="Pi" unicode="&#x3a0;" horiz-adv-x="731" 
d="M588 542h-314l-120 -542h-142l147 667h600l-147 -667h-143z" />
    <glyph glyph-name="Rho" unicode="&#x3a1;" horiz-adv-x="624" 
d="M159 667h293q60 0 105 -25t69 -67t24 -93q0 -56 -27.5 -112t-89.5 -94.5t-159 -38.5h-167l-53 -237h-142zM468 392q33 30 33 75q0 33 -23 54t-60 21h-144l-40 -180h149q52 0 85 30z" />
    <glyph glyph-name="Sigma" unicode="&#x3a3;" horiz-adv-x="571" 
d="M503 125l-27 -125h-473l30 138l250 215l-156 202l24 112h472l-28 -125h-298l159 -207l-249 -210h296z" />
    <glyph glyph-name="Tau" unicode="&#x3a4;" horiz-adv-x="582" 
d="M285 542h-195l28 125h532l-27 -125h-195l-119 -542h-143z" />
    <glyph glyph-name="Upsilon" unicode="&#x3a5;" horiz-adv-x="645" 
d="M258 273l-170 394h154l107 -268l223 268h170l-342 -394l-60 -273h-142z" />
    <glyph glyph-name="Phi" unicode="&#x3a6;" horiz-adv-x="855" 
d="M799.5 212q-49.5 -64 -138 -102.5t-202.5 -44.5l-15 -65h-142l16 69q-269 30 -269 240q0 80 49.5 144.5t138 103t202.5 44.5l15 66h142l-16 -70q269 -30 269 -241q0 -80 -49.5 -144zM236 232.5q38 -29.5 110 -38.5l64 278q-101 -10 -156.5 -53.5t-55.5 -109.5
q0 -47 38 -76.5zM644.5 247q55.5 43 55.5 110q0 47 -38 76.5t-110 38.5l-63 -278q100 10 155.5 53z" />
    <glyph glyph-name="Chi" unicode="&#x3a7;" horiz-adv-x="668" 
d="M335 237l-214 -237h-178l321 351l-159 316h161l109 -221l195 221h179l-303 -333l171 -334h-161z" />
    <glyph glyph-name="Psi" unicode="&#x3a8;" horiz-adv-x="866" 
d="M898 667l-65 -288q-15 -67 -62 -122t-121.5 -90t-169.5 -41l-29 -126h-143l30 130q-239 29 -239 216q0 41 10 80l55 241h144l-59 -260q-5 -18 -5 -40q0 -44 31 -73t92 -38l93 411h143l-94 -411q76 11 123.5 50t61.5 101l59 260h145z" />
    <glyph glyph-name="uni03A9" unicode="&#x3a9;" horiz-adv-x="765" 
d="M86 216.5q-30 55.5 -30 125.5q0 83 44 160.5t129 126.5t202 49q94 0 169.5 -33.5t119 -96.5t43.5 -148q0 -97 -54 -167.5t-127 -107.5h105l-27 -125h-270l28 125q86 19 138.5 87.5t52.5 159.5q0 81 -49 130t-135 49q-68 0 -121 -35.5t-81.5 -94t-28.5 -123.5
q0 -60 26 -104t74 -69l-27 -125h-269l28 125h136q-46 36 -76 91.5z" />
    <glyph glyph-name="Iotadieresis" unicode="&#x3aa;" horiz-adv-x="274" 
d="M159 667h142l-147 -667h-142zM102.5 744.5q-17.5 17.5 -17.5 42.5q0 30 23 52.5t53 22.5q26 0 43 -17t17 -43q0 -29 -23 -52t-53 -23q-25 0 -42.5 17.5zM313.5 744.5q-17.5 17.5 -17.5 42.5q0 30 23 52.5t53 22.5q26 0 43 -17t17 -43q0 -29 -23 -52t-53 -23
q-25 0 -42.5 17.5z" />
    <glyph glyph-name="Upsilondieresis" unicode="&#x3ab;" horiz-adv-x="645" 
d="M258 273l-170 394h154l107 -268l223 268h170l-342 -394l-60 -273h-142zM288.5 744.5q-17.5 17.5 -17.5 42.5q0 30 23 52.5t53 22.5q26 0 43 -17t17 -43q0 -29 -23 -52t-53 -23q-25 0 -42.5 17.5zM499.5 744.5q-17.5 17.5 -17.5 42.5q0 30 23 52.5t53 22.5q26 0 43 -17
t17 -43q0 -29 -23 -52t-53 -23q-25 0 -42.5 17.5z" />
    <glyph glyph-name="alphatonos" unicode="&#x3ac;" horiz-adv-x="600" 
d="M475 -12q-52 0 -79.5 22t-29.5 64q-39 -46 -75.5 -66t-80.5 -20q-84 0 -134 53t-50 147q0 76 30.5 146.5t88 115.5t136.5 45q48 0 89 -20t65 -56l14 64h127l-75 -338q-2 -10 -2 -13q0 -15 8.5 -23t24.5 -8q8 0 20 2l-16 -108q-30 -7 -61 -7zM414 326q-16 25 -46 40.5
t-67 15.5q-40 0 -72.5 -23t-51 -62t-18.5 -83q0 -51 30 -82t77 -31q32 0 61 16t50 41zM400 765h105l-118 -212h-56z" />
    <glyph glyph-name="epsilontonos" unicode="&#x3ad;" horiz-adv-x="504" 
d="M32 184q27 29 65.5 45.5t72.5 18.5q-46 8 -74.5 34t-28.5 63q0 43 32.5 77.5t90 53.5t128.5 19q69 0 120.5 -22t84.5 -59l-77 -72q-46 52 -130 52q-53 0 -86 -16t-33 -41q0 -21 22.5 -32.5t65.5 -11.5h100l-23 -98h-99q-57 0 -89 -15t-32 -45q0 -21 22.5 -33.5
t66.5 -12.5q45 0 93 14t86 41l43 -81q-47 -35 -107 -55t-126 -20q-109 0 -162 34.5t-53 93.5q0 39 27 68zM359 765h105l-118 -212h-56z" />
    <glyph glyph-name="etatonos" unicode="&#x3ae;" 
d="M400 293q4 18 4 27q0 32 -22.5 47t-60.5 15q-30 0 -59 -16t-54 -40l-72 -326h-127l107 483h127l-14 -63q34 33 73.5 54t87.5 21q69 0 110 -33.5t41 -89.5q0 -15 -5 -40l-116 -516h-127zM396 765h105l-118 -212h-56z" />
    <glyph glyph-name="iotatonos" unicode="&#x3af;" horiz-adv-x="265" 
d="M117 483h128l-78 -338q-2 -10 -2 -13q0 -15 8.5 -23t24.5 -8q8 0 20 2l-16 -108q-30 -7 -61 -7q-112 0 -112 91q0 16 5 41zM237 765h105l-118 -212h-56z" />
    <glyph glyph-name="upsilondieresistonos" unicode="&#x3b0;" horiz-adv-x="577" 
d="M119 483h127l-60 -263q-5 -23 -5 -38q0 -38 21.5 -59.5t62.5 -21.5q48 0 86 30.5t59 82.5t21 113q0 32 -6.5 66t-18.5 58l123 44q16 -30 23.5 -72.5t7.5 -85.5q0 -97 -38 -177t-106.5 -126t-155.5 -46q-102 0 -155 48t-53 129q0 29 8 64zM399 765h106l-118 -212h-57z
M188.5 560q-17.5 17 -17.5 43q0 30 23.5 52.5t53.5 22.5q26 0 43 -17t17 -43q0 -29 -23.5 -52t-52.5 -23q-26 0 -43.5 17zM488.5 560.5q-17.5 17.5 -17.5 42.5q0 30 23 52.5t53 22.5q26 0 43.5 -17t17.5 -43q0 -29 -24 -52t-53 -23q-25 0 -42.5 17.5z" />
    <glyph glyph-name="alpha" unicode="&#x3b1;" horiz-adv-x="600" 
d="M475 -12q-52 0 -79.5 22t-29.5 64q-39 -46 -75.5 -66t-80.5 -20q-84 0 -134 53t-50 147q0 76 30.5 146.5t88 115.5t136.5 45q48 0 89 -20t65 -56l14 64h127l-75 -338q-2 -10 -2 -13q0 -15 8.5 -23t24.5 -8q8 0 20 2l-16 -108q-30 -7 -61 -7zM414 326q-16 25 -46 40.5
t-67 15.5q-40 0 -72.5 -23t-51 -62t-18.5 -83q0 -51 30 -82t77 -31q32 0 61 16t50 41z" />
    <glyph glyph-name="beta" unicode="&#x3b2;" horiz-adv-x="586" 
d="M150 61l-56 -245h-127l143 632q18 79 63.5 130.5t104.5 75t119 23.5q97 0 151 -40.5t54 -114.5q0 -46 -26 -84t-67.5 -62.5t-86.5 -31.5q51 -10 86 -43.5t35 -96.5q0 -61 -34 -110.5t-88.5 -77.5t-112.5 -28q-106 0 -158 73zM378 132q37 31 37 78q0 34 -26.5 53t-71.5 19
h-39l25 113h35q57 0 91.5 27.5t34.5 72.5q0 32 -23.5 50t-64.5 18q-48 0 -87 -31t-51 -84l-67 -294q14 -24 42.5 -38.5t67.5 -14.5q60 0 97 31z" />
    <glyph glyph-name="gamma" unicode="&#x3b3;" horiz-adv-x="513" 
d="M443.5 233.5q-79.5 -132.5 -176.5 -228.5l-43 -189h-128l25 107q21 88 21 187q0 110 -27 207t-75 166h144q32 -51 52 -130.5t20 -153.5q0 -28 -3 -52q51 58 100.5 154.5t68.5 181.5h128q-27 -117 -106.5 -249.5z" />
    <glyph glyph-name="delta" unicode="&#x3b4;" horiz-adv-x="574" 
d="M450 432q39 -21 68 -63t29 -108q0 -68 -36.5 -131t-102.5 -102.5t-149 -39.5q-116 0 -175.5 58t-59.5 148q0 76 48 138t121 94q-42 35 -42 90q0 43 29 80.5t81.5 60t118.5 22.5q61 0 107.5 -17.5t78.5 -48.5l-71 -86q-20 23 -54 37t-77 14q-38 0 -62.5 -15.5t-24.5 -36.5
q0 -16 18.5 -27t59.5 -26q56 -20 95 -41zM348 121.5q34 20.5 53.5 54.5t19.5 72q0 35 -17 58t-42.5 37.5t-66.5 31.5q-64 -23 -100 -68.5t-36 -96.5q0 -47 29 -78t85 -31q41 0 75 20.5z" />
    <glyph glyph-name="epsilon" unicode="&#x3b5;" horiz-adv-x="504" 
d="M32 184q27 29 65.5 45.5t72.5 18.5q-46 8 -74.5 34t-28.5 63q0 43 32.5 77.5t90 53.5t128.5 19q69 0 120.5 -22t84.5 -59l-77 -72q-46 52 -130 52q-53 0 -86 -16t-33 -41q0 -21 22.5 -32.5t65.5 -11.5h100l-23 -98h-99q-57 0 -89 -15t-32 -45q0 -21 22.5 -33.5
t66.5 -12.5q45 0 93 14t86 41l43 -81q-47 -35 -107 -55t-126 -20q-109 0 -162 34.5t-53 93.5q0 39 27 68z" />
    <glyph glyph-name="zeta" unicode="&#x3b6;" horiz-adv-x="486" 
d="M77.5 42.5q-58.5 42.5 -58.5 123.5q0 112 91 214.5t244 175.5h-234l26 111h399l-21 -92q-158 -76 -263.5 -178t-105.5 -203q0 -45 32.5 -63t94.5 -18q67 0 97.5 -19.5t30.5 -60.5q0 -71 -96 -190h-140q33 31 64 75.5t31 64.5q0 17 -29 17q-104 0 -162.5 42.5z" />
    <glyph glyph-name="eta" unicode="&#x3b7;" 
d="M400 293q4 18 4 27q0 32 -22.5 47t-60.5 15q-30 0 -59 -16t-54 -40l-72 -326h-127l107 483h127l-14 -63q34 33 73.5 54t87.5 21q69 0 110 -33.5t41 -89.5q0 -15 -5 -40l-116 -516h-127z" />
    <glyph glyph-name="theta" unicode="&#x3b8;" horiz-adv-x="574" 
d="M518.5 608q60.5 -71 60.5 -199q0 -109 -40 -206t-111.5 -156t-161.5 -59q-103 0 -164 71t-61 198q0 109 40 206t112 156.5t162 59.5q103 0 163.5 -71zM257.5 516.5q-39.5 -49.5 -63.5 -125.5h253q2 26 2 38q0 63 -25.5 100t-78.5 37q-48 0 -87.5 -49.5zM362.5 152
q39.5 51 62.5 127h-254q-2 -28 -2 -42q0 -62 26 -99t79 -37q49 0 88.5 51z" />
    <glyph glyph-name="iota" unicode="&#x3b9;" horiz-adv-x="265" 
d="M117 483h128l-78 -338q-2 -10 -2 -13q0 -15 8.5 -23t24.5 -8q8 0 20 2l-16 -108q-30 -7 -61 -7q-112 0 -112 91q0 16 5 41z" />
    <glyph glyph-name="kappa" unicode="&#x3ba;" horiz-adv-x="535" 
d="M238 189l-75 -65l-27 -124h-127l107 483h127l-47 -207l224 207h162l-240 -219l139 -264h-154z" />
    <glyph glyph-name="lambda" unicode="&#x3bb;" horiz-adv-x="513" 
d="M316 650.5q39 -25.5 50 -89.5l99 -561h-132l-51 336l-202 -336h-140l307 488l-8 41q-4 20 -18.5 28t-41.5 8q-23 0 -41 -9l7 114q12 3 31 5.5t33 2.5q68 -2 107 -27.5z" />
    <glyph glyph-name="uni03BC" unicode="&#x3bc;" horiz-adv-x="591" 
d="M-35 -184l152 667h127l-66 -292q-3 -15 -3 -27q0 -32 19.5 -48t52.5 -16t65 16t56 40l72 327h128l-75 -338q-2 -10 -2 -13q0 -15 8.5 -23t24.5 -8q8 0 20 2l-16 -108q-30 -7 -61 -7q-105 0 -110 86q-32 -39 -72.5 -62.5t-82.5 -23.5q-22 0 -39.5 7.5t-24.5 19.5l-45 -199
h-128z" />
    <glyph glyph-name="nu" unicode="&#x3bd;" horiz-adv-x="513" 
d="M50 483h136l51 -356q65 73 115 170t70 186h128q-27 -119 -108 -253t-180 -230h-128z" />
    <glyph glyph-name="xi" unicode="&#x3be;" horiz-adv-x="486" 
d="M57 255.5q46 44.5 114 62.5q-37 7 -62 31.5t-25 67.5q0 41 37 81t89 58h-86l27 111h390l-26 -111h-190q-42 -11 -71 -38.5t-29 -60.5q0 -30 28 -47t75 -17h146l-25 -109h-144q-71 0 -112.5 -28t-41.5 -80q0 -34 33 -48.5t98 -14.5q67 0 97.5 -19.5t30.5 -60.5
q0 -71 -96 -190h-135q29 31 59.5 76t30.5 64q0 17 -26 17q-232 0 -232 143q0 68 46 112.5z" />
    <glyph glyph-name="omicron" unicode="&#x3bf;" horiz-adv-x="574" 
d="M63 348.5q36 66.5 100 106.5t143 40q75 0 129.5 -28.5t82.5 -78t28 -113.5q0 -75 -36 -141t-100 -106t-144 -40q-75 0 -129 28t-82 77.5t-28 113.5q0 75 36 141.5zM384 352q-30 30 -82 30q-42 0 -74.5 -23.5t-51 -62.5t-18.5 -82q0 -53 30 -83t83 -30q41 0 74 23.5t51 62
t18 82.5q0 53 -30 83z" />
    <glyph glyph-name="pi" unicode="&#x3c0;" horiz-adv-x="631" 
d="M446 372h-200l-84 -372h-128l85 372h-80l25 111h615l-26 -111h-80l-84 -372h-128z" />
    <glyph glyph-name="rho" unicode="&#x3c1;" horiz-adv-x="583" 
d="M94 -184h-127l96 426q25 116 99.5 184.5t185.5 68.5q65 0 112.5 -27.5t72.5 -75.5t25 -110q0 -69 -30.5 -137t-88 -112.5t-135.5 -44.5q-47 0 -88.5 20t-65.5 56zM399 350q-26 32 -70 32q-54 0 -90 -39t-50 -101l-19 -86q16 -25 46 -40t67 -15q41 0 73.5 23t50.5 61.5
t18 83.5q0 49 -26 81z" />
    <glyph glyph-name="uni03C2" unicode="&#x3c2;" horiz-adv-x="492" 
d="M65 352.5q37 65.5 101.5 104t142.5 38.5q71 0 120.5 -25.5t75.5 -69.5l-95 -73q-15 26 -41.5 40.5t-59.5 14.5q-44 0 -79 -22.5t-54 -61t-19 -84.5q0 -54 36 -77.5t112 -23.5q52 0 81.5 -21t29.5 -62q0 -67 -95 -187h-138q31 30 63 75t32 65q0 17 -29 17q-60 0 -110 24
t-80.5 71t-30.5 113q0 79 37 144.5z" />
    <glyph glyph-name="sigma" unicode="&#x3c3;" horiz-adv-x="574" 
d="M137 16q-54 28 -82 77.5t-28 113.5q0 76 40 139t111 100t159 37h273l-25 -113h-90q19 -19 29 -48t10 -62q0 -70 -34 -132.5t-95.5 -101t-138.5 -38.5q-75 0 -129 28zM323 370q-49 0 -86.5 -21.5t-57.5 -57.5t-20 -77q0 -53 29.5 -83t82.5 -30q41 0 73.5 23.5t51 61
t18.5 79.5q0 36 -11 63.5t-32 41.5h-48z" />
    <glyph glyph-name="tau" unicode="&#x3c4;" horiz-adv-x="482" 
d="M207 372h-156l26 111h440l-25 -111h-157l-49 -221q-1 -4 -1 -12q0 -19 12 -28.5t31 -9.5q12 0 23 3.5t17 8.5l5 -100q-14 -11 -38.5 -18t-54.5 -7q-60 0 -96 25t-36 75q0 18 4 35z" />
    <glyph glyph-name="upsilon" unicode="&#x3c5;" horiz-adv-x="577" 
d="M119 483h127l-60 -263q-5 -23 -5 -38q0 -38 21.5 -59.5t62.5 -21.5q48 0 86 30.5t59 82.5t21 113q0 32 -6.5 66t-18.5 58l123 44q16 -30 23.5 -72.5t7.5 -85.5q0 -97 -38 -177t-106.5 -126t-155.5 -46q-102 0 -155 48t-53 129q0 29 8 64z" />
    <glyph glyph-name="phi" unicode="&#x3c6;" horiz-adv-x="795" 
d="M728.5 133q-42.5 -62 -125.5 -100t-199 -44l-39 -173h-127l40 177q-123 14 -186.5 72t-63.5 156q0 93 66 162t182 112l31 -99q-69 -25 -107 -69.5t-38 -98.5q0 -108 141 -124l89 391h63q152 0 234 -58.5t82 -166.5q0 -75 -42.5 -137zM585.5 158q50.5 44 50.5 106
q0 52 -37.5 82t-105.5 33l-62 -276q104 11 154.5 55z" />
    <glyph glyph-name="chi" unicode="&#x3c7;" horiz-adv-x="504" 
d="M211 40l-163 -224h-144l249 343l-87 324h136l54 -205l148 205h145l-236 -324l95 -343h-136z" />
    <glyph glyph-name="psi" unicode="&#x3c8;" horiz-adv-x="795" 
d="M788 483l-59 -260q-22 -100 -106.5 -163t-217.5 -71l-40 -173h-127l40 177q-220 26 -220 194q0 30 8 68l53 228h127l-55 -243q-4 -13 -4 -34q0 -40 30 -66t87 -34l128 561h127l-128 -561q70 10 116 44.5t59 89.5l55 243h127z" />
    <glyph glyph-name="omega" unicode="&#x3c9;" horiz-adv-x="852" 
d="M405 125q-40 -67 -86 -102t-115 -35q-84 0 -132 56.5t-48 147.5q0 80 47.5 163.5t122.5 139.5l84 -76q-62 -48 -92.5 -104.5t-30.5 -113.5q0 -44 20 -72t59 -28q47 0 81.5 40t47.5 101l27 122h128l-27 -122q-6 -25 -6 -50q0 -41 19.5 -66t56.5 -25q42 0 74.5 29t50 76.5
t17.5 100.5q0 33 -9.5 65.5t-28.5 57.5l109 65q27 -29 42.5 -76.5t15.5 -102.5q0 -86 -35 -161.5t-95.5 -121t-133.5 -45.5q-140 0 -163 137z" />
    <glyph glyph-name="iotadieresis" unicode="&#x3ca;" horiz-adv-x="265" 
d="M117 483h128l-78 -338q-2 -10 -2 -13q0 -15 8.5 -23t24.5 -8q8 0 20 2l-16 -108q-30 -7 -61 -7q-112 0 -112 91q0 16 5 41zM54.5 560.5q-17.5 17.5 -17.5 42.5q0 30 23 52.5t53 22.5q26 0 43 -17t17 -43q0 -29 -23 -52t-53 -23q-25 0 -42.5 17.5zM265.5 560.5
q-17.5 17.5 -17.5 42.5q0 30 23 52.5t53 22.5q26 0 43 -17t17 -43q0 -29 -23 -52t-53 -23q-25 0 -42.5 17.5z" />
    <glyph glyph-name="upsilondieresis" unicode="&#x3cb;" horiz-adv-x="577" 
d="M119 483h127l-60 -263q-5 -23 -5 -38q0 -38 21.5 -59.5t62.5 -21.5q48 0 86 30.5t59 82.5t21 113q0 32 -6.5 66t-18.5 58l123 44q16 -30 23.5 -72.5t7.5 -85.5q0 -97 -38 -177t-106.5 -126t-155.5 -46q-102 0 -155 48t-53 129q0 29 8 64zM223.5 560.5
q-17.5 17.5 -17.5 42.5q0 30 23 52.5t53 22.5q26 0 43 -17t17 -43q0 -29 -23 -52t-53 -23q-25 0 -42.5 17.5zM434.5 560.5q-17.5 17.5 -17.5 42.5q0 30 23 52.5t53 22.5q26 0 43 -17t17 -43q0 -29 -23 -52t-53 -23q-25 0 -42.5 17.5z" />
    <glyph glyph-name="omicrontonos" unicode="&#x3cc;" horiz-adv-x="574" 
d="M63 348.5q36 66.5 100 106.5t143 40q75 0 129.5 -28.5t82.5 -78t28 -113.5q0 -75 -36 -141t-100 -106t-144 -40q-75 0 -129 28t-82 77.5t-28 113.5q0 75 36 141.5zM384 352q-30 30 -82 30q-42 0 -74.5 -23.5t-51 -62.5t-18.5 -82q0 -53 30 -83t83 -30q41 0 74 23.5t51 62
t18 82.5q0 53 -30 83zM393 765h105l-118 -212h-56z" />
    <glyph glyph-name="upsilontonos" unicode="&#x3cd;" horiz-adv-x="577" 
d="M119 483h127l-60 -263q-5 -23 -5 -38q0 -38 21.5 -59.5t62.5 -21.5q48 0 86 30.5t59 82.5t21 113q0 32 -6.5 66t-18.5 58l123 44q16 -30 23.5 -72.5t7.5 -85.5q0 -97 -38 -177t-106.5 -126t-155.5 -46q-102 0 -155 48t-53 129q0 29 8 64zM403 765h105l-118 -212h-56z" />
    <glyph glyph-name="omegatonos" unicode="&#x3ce;" horiz-adv-x="852" 
d="M405 125q-40 -67 -86 -102t-115 -35q-84 0 -132 56.5t-48 147.5q0 80 47.5 163.5t122.5 139.5l84 -76q-62 -48 -92.5 -104.5t-30.5 -113.5q0 -44 20 -72t59 -28q47 0 81.5 40t47.5 101l27 122h128l-27 -122q-6 -25 -6 -50q0 -41 19.5 -66t56.5 -25q42 0 74.5 29t50 76.5
t17.5 100.5q0 33 -9.5 65.5t-28.5 57.5l109 65q27 -29 42.5 -76.5t15.5 -102.5q0 -86 -35 -161.5t-95.5 -121t-133.5 -45.5q-140 0 -163 137zM533 765h105l-118 -212h-56z" />
    <glyph glyph-name="uni0401" unicode="&#x401;" horiz-adv-x="583" 
d="M159 667h472l-28 -125h-329l-31 -141h322l-28 -125h-322l-33 -151h329l-27 -125h-472zM265.5 727.5q-17.5 17.5 -17.5 42.5q0 30 23 52.5t53 22.5q26 0 43 -17t17 -43q0 -29 -23 -52t-53 -23q-25 0 -42.5 17.5zM476.5 727.5q-17.5 17.5 -17.5 42.5q0 30 23 52.5t53 22.5
q26 0 43 -17t17 -43q0 -29 -23 -52t-53 -23q-25 0 -42.5 17.5z" />
    <glyph glyph-name="uni0402" unicode="&#x402;" horiz-adv-x="776" 
d="M560.5 134q31.5 23 39.5 62l1 8q3 12 3 24q0 34 -27 52t-77 18q-67 0 -131 -22l-60 -276h-143l119 542h-195l27 125h532l-27 -125h-194l-32 -141q78 22 149 22q103 0 154.5 -45.5t51.5 -120.5q0 -26 -6 -53l-2 -8q-14 -65 -55 -112t-101.5 -71.5t-129.5 -24.5l27 123
q45 0 76.5 23z" />
    <glyph glyph-name="uni0403" unicode="&#x403;" horiz-adv-x="571" 
d="M159 667h472l-28 -125h-329l-120 -542h-142zM348 723l166 144h119l-194 -144h-91z" />
    <glyph glyph-name="uni0404" unicode="&#x404;" horiz-adv-x="687" 
d="M466 135q43 21 71 56l109 -74q-53 -68 -126.5 -98.5t-147.5 -30.5q-92 0 -167 37t-118 105t-43 157q0 115 53 204t142 138t193 49q115 0 189.5 -53t106.5 -136l-137 -46q-19 52 -63.5 80.5t-102.5 28.5q-69 0 -127 -41t-86 -110h326l-28 -125h-317q7 -72 57 -117t130 -45
q43 0 86 21z" />
    <glyph glyph-name="uni0405" unicode="&#x405;" horiz-adv-x="600" 
d="M87 216q35 -47 96 -75.5t129 -28.5q49 0 74.5 23.5t25.5 52.5q0 26 -28 43t-88 39q-64 23 -105.5 43.5t-72 56.5t-30.5 90q0 56 31.5 106t91 80.5t138.5 30.5q80 0 150.5 -28.5t114.5 -79.5l-88 -100q-36 41 -90.5 63t-108.5 22q-38 0 -63.5 -20t-25.5 -48
q0 -24 27.5 -39.5t87.5 -37.5q64 -23 107 -44.5t73.5 -58.5t30.5 -90q0 -62 -32 -114t-91.5 -83t-139.5 -31q-97 0 -178 34t-124 90z" />
    <glyph glyph-name="uni0406" unicode="&#x406;" horiz-adv-x="274" 
d="M159 667h142l-147 -667h-142z" />
    <glyph glyph-name="uni0407" unicode="&#x407;" horiz-adv-x="274" 
d="M159 667h142l-147 -667h-142zM98.5 727.5q-17.5 17.5 -17.5 42.5q0 30 23 52.5t53 22.5q26 0 43 -17t17 -43q0 -29 -23 -52t-53 -23q-25 0 -42.5 17.5zM309.5 727.5q-17.5 17.5 -17.5 42.5q0 30 23 52.5t53 22.5q26 0 43 -17t17 -43q0 -29 -23 -52t-53 -23
q-25 0 -42.5 17.5z" />
    <glyph glyph-name="uni0408" unicode="&#x408;" horiz-adv-x="486" 
d="M48 169q16 -25 44.5 -40t62.5 -15q47 0 76.5 28t41.5 79l98 446h142l-98 -448q-26 -119 -86.5 -175t-163.5 -56q-59 0 -111 19t-83 56z" />
    <glyph glyph-name="uni0409" unicode="&#x409;" horiz-adv-x="1081" 
d="M59.5 131q27.5 17 54.5 63t56 132l114 341h474l-53 -237h152q60 0 104.5 -25t68.5 -67t24 -93q0 -56 -27 -112t-89 -94.5t-159 -38.5h-310l119 542h-203l-76 -226q-45 -133 -97 -204.5t-110 -97.5t-133 -26l27 126q36 0 63.5 17zM638 125h147q54 0 87.5 30t33.5 75
q0 32 -23 53.5t-60 21.5h-145z" />
    <glyph glyph-name="uni040A" unicode="&#x40a;" horiz-adv-x="1081" 
d="M531 288h-314l-63 -288h-142l146 667h142l-56 -254h315l56 254h143l-56 -254h160q58 0 101 -23.5t66 -64.5t23 -90q0 -54 -26 -107.5t-85.5 -90.5t-153.5 -37h-318zM638 125h158q49 0 79 27t30 68q0 30 -21 49t-55 19h-155z" />
    <glyph glyph-name="uni040B" unicode="&#x40b;" horiz-adv-x="807" 
d="M600 219q0 79 -100 79q-67 0 -131 -22l-60 -276h-143l119 542h-195l27 125h532l-27 -125h-194l-32 -141q78 22 149 22q102 0 152.5 -45.5t50.5 -127.5q0 -34 -9 -73l-38 -177h-144l38 177q5 19 5 42z" />
    <glyph glyph-name="uni040C" unicode="&#x40c;" horiz-adv-x="636" 
d="M269 273l-69 -68l-46 -205h-142l147 667h142l-63 -286l291 286h183l-334 -313l205 -354h-167zM369 723l166 144h119l-194 -144h-91z" />
    <glyph glyph-name="uni040E" unicode="&#x40e;" horiz-adv-x="645" 
d="M741 667l-393 -539q-49 -68 -107.5 -104t-141.5 -36q-45 0 -83.5 13.5t-56.5 34.5l78 114q36 -36 79 -36q35 0 58 16.5t52 57.5l-138 479h156l88 -354l243 354h166zM319 721.5q-41 23.5 -63 64.5l65 47q14 -29 41 -45.5t64 -16.5q74 0 133 62l48 -47q-40 -41 -90.5 -64.5
t-103.5 -23.5t-94 23.5z" />
    <glyph glyph-name="uni040F" unicode="&#x40f;" horiz-adv-x="731" 
d="M612 0h-230l-28 -127h-142l28 127h-228l146 667h142l-119 -542h315l119 542h143z" />
    <glyph glyph-name="uni0410" unicode="&#x410;" horiz-adv-x="684" 
d="M463 113h-286l-67 -113h-169l405 667h178l110 -667h-154zM244 238h207l-40 287z" />
    <glyph glyph-name="uni0411" unicode="&#x411;" horiz-adv-x="624" 
d="M618 542h-345l-26 -118h142q65 0 112 -24.5t71.5 -66t24.5 -92.5q0 -55 -27 -110.5t-88.5 -93t-158.5 -37.5h-311l146 667h487zM181 125h152q53 0 84.5 29t31.5 73q0 31 -22 51.5t-57 20.5h-150z" />
    <glyph glyph-name="uni0412" unicode="&#x412;" horiz-adv-x="663" 
d="M159 667h324q56 0 97 -22t62.5 -58.5t21.5 -79.5q0 -44 -21 -82.5t-56 -63t-75 -28.5q45 -12 70.5 -50t25.5 -85q0 -50 -24.5 -95t-76.5 -74t-131 -29h-364zM492.5 527q-19.5 18 -48.5 18h-169l-32 -145h179q47 0 68.5 24.5t21.5 58.5q0 26 -19.5 44zM446 259
q-20 19 -53 19h-178l-34 -155h184q46 0 73.5 25t27.5 62q0 30 -20 49z" />
    <glyph glyph-name="uni0413" unicode="&#x413;" horiz-adv-x="571" 
d="M159 667h472l-28 -125h-329l-120 -542h-142z" />
    <glyph glyph-name="uni0414" unicode="&#x414;" horiz-adv-x="743" 
d="M61.5 136.5q26.5 16.5 53 60.5t55.5 129l114 341h474l-120 -542h61l-55 -248h-142l27 123h-416l-27 -123h-141l51 237q39 6 65.5 22.5zM186 125h310l92 417h-203l-76 -226q-43 -128 -123 -191z" />
    <glyph glyph-name="uni0415" unicode="&#x415;" horiz-adv-x="583" 
d="M159 667h472l-28 -125h-329l-31 -141h322l-28 -125h-322l-33 -151h329l-27 -125h-472z" />
    <glyph glyph-name="uni0416" unicode="&#x416;" horiz-adv-x="951" 
d="M692 354l205 -354h-164l-147 274l-42 -41l-51 -233h-143l51 233l-17 28l-254 -261h-185l360 354l-196 313h165l160 -281l62 281h143l-56 -255l257 255h186z" />
    <glyph glyph-name="uni0417" unicode="&#x417;" horiz-adv-x="610" 
d="M92 213q31 -47 87.5 -73t114.5 -26q59 0 92.5 26t33.5 66q0 31 -31.5 50.5t-97.5 19.5h-133l28 125h146q62 0 99.5 18.5t37.5 58.5q0 33 -37.5 53t-100.5 20q-45 0 -90 -13.5t-78 -40.5l-51 97q41 38 103.5 60.5t129.5 22.5q80 0 141 -20.5t95.5 -60t34.5 -93.5
q0 -43 -26.5 -78.5t-68 -58t-85.5 -28.5q56 -14 90 -50t34 -96q0 -58 -36 -104.5t-96.5 -73t-131.5 -26.5q-97 0 -179.5 37t-118.5 102z" />
    <glyph glyph-name="uni0418" unicode="&#x418;" horiz-adv-x="729" 
d="M159 667h142l-95 -434l404 434h146l-147 -667h-143l100 450l-417 -450h-137z" />
    <glyph glyph-name="uni0419" unicode="&#x419;" horiz-adv-x="729" 
d="M159 667h142l-95 -434l404 434h146l-147 -667h-143l100 450l-417 -450h-137zM367 721.5q-41 23.5 -63 64.5l65 47q14 -29 41 -45.5t64 -16.5q74 0 133 62l48 -47q-40 -41 -90.5 -64.5t-103.5 -23.5t-94 23.5z" />
    <glyph glyph-name="uni041A" unicode="&#x41a;" horiz-adv-x="636" 
d="M269 273l-69 -68l-46 -205h-142l147 667h142l-63 -286l291 286h183l-334 -313l205 -354h-167z" />
    <glyph glyph-name="uni041B" unicode="&#x41b;" horiz-adv-x="731" 
d="M59.5 131q27.5 17 54.5 63t56 132l114 341h474l-146 -667h-143l119 542h-203l-76 -226q-45 -133 -97 -204.5t-110 -97.5t-133 -26l27 126q36 0 63.5 17z" />
    <glyph glyph-name="uni041C" unicode="&#x41c;" horiz-adv-x="855" 
d="M698 481l-294 -481h-62l-82 481l-106 -481h-142l147 667h194l69 -417l255 417h205l-147 -667h-143z" />
    <glyph glyph-name="uni041D" unicode="&#x41d;" horiz-adv-x="731" 
d="M531 280h-315l-62 -280h-142l147 667h142l-57 -262h314l58 262h143l-147 -667h-143z" />
    <glyph glyph-name="uni041E" unicode="&#x41e;" horiz-adv-x="765" 
d="M95 484.5q51 89.5 140 141.5t197 52q92 0 166.5 -37t117.5 -104.5t43 -156.5q0 -108 -51 -197.5t-139.5 -142t-196.5 -52.5q-93 0 -167.5 37t-117.5 105t-43 157q0 108 51 197.5zM586.5 466q-24.5 41 -67 63.5t-96.5 22.5q-64 0 -116.5 -34t-83.5 -93t-31 -129
q0 -55 24.5 -96.5t67 -63.5t96.5 -22q63 0 116 34t84 93t31 129q0 55 -24.5 96z" />
    <glyph glyph-name="uni041F" unicode="&#x41f;" horiz-adv-x="731" 
d="M588 542h-314l-120 -542h-142l147 667h600l-147 -667h-143z" />
    <glyph glyph-name="uni0420" unicode="&#x420;" horiz-adv-x="624" 
d="M159 667h293q60 0 105 -25t69 -67t24 -93q0 -56 -27.5 -112t-89.5 -94.5t-159 -38.5h-167l-53 -237h-142zM468 392q33 30 33 75q0 33 -23 54t-60 21h-144l-40 -180h149q52 0 85 30z" />
    <glyph glyph-name="uni0421" unicode="&#x421;" horiz-adv-x="687" 
d="M97 491q53 89 142 138t193 49q115 0 189.5 -53t106.5 -136l-137 -46q-19 52 -63.5 80.5t-102.5 28.5q-62 0 -116 -33.5t-85.5 -92.5t-31.5 -130q0 -52 23 -93.5t66 -65t99 -23.5q43 0 86 21t71 56l109 -74q-53 -68 -126.5 -98.5t-147.5 -30.5q-92 0 -167 37t-118 105
t-43 157q0 115 53 204z" />
    <glyph glyph-name="uni0422" unicode="&#x422;" horiz-adv-x="582" 
d="M285 542h-195l28 125h532l-27 -125h-195l-119 -542h-143z" />
    <glyph glyph-name="uni0423" unicode="&#x423;" horiz-adv-x="645" 
d="M741 667l-393 -539q-49 -68 -107.5 -104t-141.5 -36q-45 0 -83.5 13.5t-56.5 34.5l78 114q36 -36 79 -36q35 0 58 16.5t52 57.5l-138 479h156l88 -354l243 354h166z" />
    <glyph glyph-name="uni0424" unicode="&#x424;" horiz-adv-x="855" 
d="M799.5 212q-49.5 -64 -138 -102.5t-202.5 -44.5l-15 -65h-142l16 69q-269 30 -269 240q0 80 49.5 144.5t138 103t202.5 44.5l15 66h142l-16 -70q269 -30 269 -241q0 -80 -49.5 -144zM236 232.5q38 -29.5 110 -38.5l64 278q-101 -10 -156.5 -53.5t-55.5 -109.5
q0 -47 38 -76.5zM644.5 247q55.5 43 55.5 110q0 47 -38 76.5t-110 38.5l-63 -278q100 10 155.5 53z" />
    <glyph glyph-name="uni0425" unicode="&#x425;" horiz-adv-x="668" 
d="M335 237l-214 -237h-178l321 351l-159 316h161l109 -221l195 221h179l-303 -333l171 -334h-161z" />
    <glyph glyph-name="uni0426" unicode="&#x426;" horiz-adv-x="743" 
d="M12 0l146 667h142l-119 -542h315l119 542h143l-120 -542h61l-55 -248h-142l27 123h-517z" />
    <glyph glyph-name="uni0427" unicode="&#x427;" horiz-adv-x="649" 
d="M238 439q0 -80 101 -80q71 0 131 22l63 286h142l-146 -667h-142l55 256q-76 -22 -148 -22q-102 0 -152.5 45t-50.5 127q0 34 9 74l41 187h143l-41 -187q-5 -25 -5 -41z" />
    <glyph glyph-name="uni0428" unicode="&#x428;" horiz-adv-x="983" 
d="M863 0h-851l146 667h142l-119 -542h212l119 542h143l-120 -542h212l119 542h143z" />
    <glyph glyph-name="uni0429" unicode="&#x429;" horiz-adv-x="994" 
d="M890 125h60l-54 -248h-143l27 123h-768l146 667h142l-119 -542h212l119 542h143l-120 -542h212l119 542h143z" />
    <glyph glyph-name="uni042A" unicode="&#x42a;" horiz-adv-x="778" 
d="M285 542h-195l27 125h338l-53 -237h152q60 0 104.5 -25t68.5 -67t24 -93q0 -56 -27 -112t-89 -94.5t-159 -38.5h-310zM335 125h147q54 0 87.5 30t33.5 75q0 32 -23 53.5t-60 21.5h-145z" />
    <glyph glyph-name="uni042B" unicode="&#x42b;" horiz-adv-x="867" 
d="M248 430h152q60 0 104.5 -25t68.5 -67t24 -93q0 -56 -27 -112t-89 -94.5t-159 -38.5h-310l146 667h142zM750 667h143l-146 -667h-143zM181 125h147q54 0 87.5 30t33.5 75q0 32 -23 53.5t-60 21.5h-145z" />
    <glyph glyph-name="uni042C" unicode="&#x42c;" horiz-adv-x="624" 
d="M248 430h152q60 0 104.5 -25t68.5 -67t24 -93q0 -56 -27 -112t-89 -94.5t-159 -38.5h-310l146 667h142zM181 125h147q54 0 87.5 30t33.5 75q0 32 -23 53.5t-60 21.5h-145z" />
    <glyph glyph-name="uni042D" unicode="&#x42d;" horiz-adv-x="687" 
d="M519.5 641q74.5 -37 117.5 -105t43 -157q0 -87 -31 -160t-86 -125q-53 -51 -123 -78.5t-147 -27.5q-115 0 -190 53t-107 136l137 46q19 -52 63.5 -80.5t103.5 -28.5q76 0 139 53q52 41 75 109h-325l28 125h310q-4 22 -14 45q-18 49 -62.5 77.5t-105.5 28.5q-43 0 -86 -21
t-71 -55l-110 74q53 67 127 97.5t148 30.5q92 0 166.5 -37z" />
    <glyph glyph-name="uni042E" unicode="&#x42e;" horiz-adv-x="1043" 
d="M875.5 641q74.5 -37 117.5 -104.5t43 -156.5q0 -108 -51 -197.5t-139.5 -142t-196.5 -52.5q-91 0 -165 36t-117.5 102t-45.5 154h-106l-61 -280h-142l146 667h142l-57 -262h95q24 79 77.5 141t129.5 97t164 35q92 0 166.5 -37zM773 148q53 34 84 93t31 129q0 55 -24.5 96
t-67 63.5t-96.5 22.5q-64 0 -116.5 -34t-83.5 -93t-31 -129q0 -83 52.5 -132.5t135.5 -49.5q63 0 116 34z" />
    <glyph glyph-name="uni042F" unicode="&#x42f;" horiz-adv-x="643" 
d="M192 255q-44 19 -75.5 63t-31.5 104q0 57 27 113t89 94t160 38h309l-147 -667h-142l52 237h-88l-183 -237h-179zM500 542h-148q-53 0 -86 -30t-33 -75q0 -32 23 -53.5t60 -21.5h145z" />
    <glyph glyph-name="uni0430" unicode="&#x430;" horiz-adv-x="586" 
d="M448 483h128l-107 -483h-128l14 60q-31 -36 -66.5 -54t-78.5 -18q-84 0 -134 53t-50 147q0 76 30.5 146.5t88 115.5t136.5 45q48 0 89 -20t65 -56zM189 132q30 -31 77 -31q33 0 62 15.5t49 41.5l37 168q-16 25 -46 40.5t-67 15.5q-40 0 -72.5 -23t-51 -62t-18.5 -83
q0 -51 30 -82z" />
    <glyph glyph-name="uni0431" unicode="&#x431;" horiz-adv-x="577" 
d="M45 320.5q16 57.5 37 96.5q51 93 121.5 144t179.5 67q51 8 74.5 17t26.5 22h132q-23 -104 -230 -130q-153 -20 -200 -121q35 37 78 57t91 20q90 0 140.5 -60.5t50.5 -157.5q0 -75 -36 -141t-100 -106t-144 -40q-113 0 -175 62t-62 166q0 47 16 104.5zM384 352
q-30 30 -82 30q-42 0 -74.5 -23.5t-51 -62.5t-18.5 -82q0 -53 30 -83t83 -30q41 0 74 23.5t51 62t18 82.5q0 53 -30 83z" />
    <glyph glyph-name="uni0432" unicode="&#x432;" horiz-adv-x="586" 
d="M115 483h294q62 0 97.5 -29.5t35.5 -77.5q0 -49 -30.5 -85t-78.5 -46q68 -28 68 -98q0 -40 -19 -73.5t-55.5 -53.5t-84.5 -20h-333zM394 311.5q14 13.5 14 32.5q0 16 -11.5 25.5t-31.5 9.5h-147l-17 -81h157q22 0 36 13.5zM360.5 119q15.5 15 15.5 36q0 18 -13 28.5
t-35 10.5h-149l-20 -90h162q24 0 39.5 15z" />
    <glyph glyph-name="uni0433" unicode="&#x433;" horiz-adv-x="454" 
d="M217 372l-81 -372h-127l106 483h373l-25 -111h-246z" />
    <glyph glyph-name="uni0434" unicode="&#x434;" horiz-adv-x="587" 
d="M25.5 122.5q16.5 11.5 33.5 41t37 85.5l82 234h391l-82 -372h53l-51 -234h-128l27 123h-297l-27 -123h-126l49 229q22 5 38.5 16.5zM136 111h224l56 261h-152l-44 -131q-28 -86 -84 -130z" />
    <glyph glyph-name="uni0435" unicode="&#x435;" horiz-adv-x="553" 
d="M64.5 349.5q36.5 66.5 100 106t142.5 39.5q62 0 111 -26t77.5 -75t28.5 -115q0 -20 -3 -42.5t-7 -35.5h-359v-12q0 -22 15 -45.5t45 -39t72 -15.5q33 0 66.5 9.5t55.5 26.5l40 -87q-35 -24 -80.5 -37t-90.5 -13q-115 0 -182.5 58t-67.5 159q0 78 36.5 144.5zM410 297
q0 40 -28.5 68.5t-82.5 28.5q-49 0 -85.5 -32.5t-45.5 -74.5h242v10z" />
    <glyph glyph-name="uni0436" unicode="&#x436;" horiz-adv-x="750" 
d="M556 264l139 -264h-150l-91 191l-34 -30l-35 -161h-128l35 160l-15 21l-164 -181h-166l254 264l-142 219h148l116 -186l40 186h128l-36 -164l176 164h164z" />
    <glyph glyph-name="uni0437" unicode="&#x437;" horiz-adv-x="504" 
d="M473 301.5q-26 -29.5 -63.5 -45.5t-70.5 -18q47 -8 77 -34t30 -63q0 -43 -32 -78t-87 -55t-122 -20q-72 0 -129.5 22.5t-89.5 58.5l76 74q53 -54 141 -54q49 0 81 17t32 43q0 21 -20.5 33.5t-62.5 12.5h-109l23 98h99q118 0 118 58q0 20 -21.5 31.5t-65.5 11.5
q-43 0 -88.5 -14t-85.5 -40l-47 80q47 35 107 55t126 20q109 0 159.5 -33t50.5 -92q0 -39 -26 -68.5z" />
    <glyph glyph-name="uni0438" unicode="&#x438;" horiz-adv-x="580" 
d="M115 483h127l-65 -292l264 292h128l-106 -483h-127l66 303l-271 -303h-122z" />
    <glyph glyph-name="uni0439" unicode="&#x439;" horiz-adv-x="580" 
d="M115 483h127l-65 -292l264 292h128l-106 -483h-127l66 303l-271 -303h-122zM255 554.5q-41 23.5 -63 64.5l65 47q14 -29 41 -45.5t64 -16.5q74 0 133 62l48 -47q-40 -41 -90.5 -64.5t-103.5 -23.5t-94 23.5z" />
    <glyph glyph-name="uni043A" unicode="&#x43a;" horiz-adv-x="535" 
d="M238 189l-75 -65l-27 -124h-127l107 483h127l-47 -207l224 207h162l-240 -219l139 -264h-154z" />
    <glyph glyph-name="uni043B" unicode="&#x43b;" horiz-adv-x="580" 
d="M40 127.5q26 35.5 56 121.5l82 234h391l-106 -483h-127l80 372h-152l-46 -138q-42 -126 -104 -186t-153 -60l23 104q30 0 56 35.5z" />
    <glyph glyph-name="uni043C" unicode="&#x43c;" horiz-adv-x="697" 
d="M521 314l-197 -314h-58l-62 314l-68 -314h-127l106 483h162l55 -288l181 288h173l-106 -483h-127z" />
    <glyph glyph-name="uni043D" unicode="&#x43d;" 
d="M119 483h127l-40 -175h200l40 175h127l-110 -483h-127l44 196h-199l-45 -196h-127z" />
    <glyph glyph-name="uni043E" unicode="&#x43e;" horiz-adv-x="574" 
d="M63 348.5q36 66.5 100 106.5t143 40q75 0 129.5 -28.5t82.5 -78t28 -113.5q0 -75 -36 -141t-100 -106t-144 -40q-75 0 -129 28t-82 77.5t-28 113.5q0 75 36 141.5zM384 352q-30 30 -82 30q-42 0 -74.5 -23.5t-51 -62.5t-18.5 -82q0 -53 30 -83t83 -30q41 0 74 23.5t51 62
t18 82.5q0 53 -30 83z" />
    <glyph glyph-name="uni043F" unicode="&#x43f;" 
d="M420 372h-199l-85 -372h-127l110 483h454l-110 -483h-127z" />
    <glyph glyph-name="uni0440" unicode="&#x440;" horiz-adv-x="583" 
d="M95 -184h-127l148 667h127l-14 -60q62 72 146 72q83 0 133 -53t50 -147q0 -75 -30 -146t-88 -116t-136 -45q-49 0 -89.5 20t-64.5 56zM395 351q-30 31 -77 31q-32 0 -60.5 -16t-50.5 -42l-37 -168q16 -25 46 -40t67 -15q41 0 73.5 23t50.5 61.5t18 83.5q0 51 -30 82z" />
    <glyph glyph-name="uni0441" unicode="&#x441;" horiz-adv-x="499" 
d="M65 352.5q37 65.5 101.5 104t142.5 38.5q71 0 120.5 -25.5t75.5 -69.5l-95 -73q-15 26 -41.5 40.5t-59.5 14.5q-44 0 -79 -22.5t-54 -61t-19 -84.5q0 -53 34.5 -83t86.5 -30q30 0 56 13t45 35l69 -85q-31 -33 -77.5 -54.5t-105.5 -21.5q-71 0 -125 27.5t-83 77.5t-29 115
q0 79 37 144.5z" />
    <glyph glyph-name="uni0442" unicode="&#x442;" horiz-adv-x="432" 
d="M179 372h-135l25 111h398l-25 -111h-135l-81 -372h-128z" />
    <glyph glyph-name="uni0443" unicode="&#x443;" horiz-adv-x="513" 
d="M43 -82q20 0 33.5 7.5t26.5 26.5l30 45l-86 486h132l51 -336l202 336h140l-352 -562q-39 -64 -82.5 -90.5t-104.5 -26.5q-46 0 -81 12l42 110q18 -8 49 -8z" />
    <glyph glyph-name="uni0444" unicode="&#x444;" horiz-adv-x="840" 
d="M449 667h127l-54 -245q55 73 134 73q73 0 112 -55t39 -133t-28.5 -151.5t-80.5 -120.5t-119 -47q-41 0 -78.5 19.5t-57.5 54.5l-54 -246h-127l54 246q-28 -40 -61.5 -57t-73.5 -17q-73 0 -112 55t-39 133t28.5 151.5t80.5 120.5t119 47q41 0 78.5 -19.5t57.5 -54.5z
M183.5 129.5q20.5 -28.5 57.5 -28.5q52 0 96 55l37 171q-10 24 -34 39.5t-54 15.5q-35 0 -63.5 -27t-44 -69t-15.5 -85t20.5 -71.5zM654.5 354q-20.5 28 -58.5 28q-26 0 -50.5 -15t-43.5 -40l-38 -171q9 -23 33.5 -39t54.5 -16q35 0 63 27t44 69t16 85q0 44 -20.5 72z" />
    <glyph glyph-name="uni0445" unicode="&#x445;" horiz-adv-x="504" 
d="M238 163l-147 -163h-145l225 248l-108 235h137l67 -149l133 149h146l-215 -235l119 -248h-138z" />
    <glyph glyph-name="uni0446" unicode="&#x446;" horiz-adv-x="587" 
d="M9 0l106 483h127l-82 -372h200l82 372h127l-82 -372h53l-51 -234h-128l27 123h-379z" />
    <glyph glyph-name="uni0447" unicode="&#x447;" horiz-adv-x="564" 
d="M198 352q-4 -16 -4 -31q0 -32 21 -45.5t65 -13.5q59 0 102 19l44 202h128l-106 -483h-128l39 179q-28 -13 -66.5 -21.5t-81.5 -8.5q-81 0 -118.5 28t-37.5 82q0 22 6 49l39 175h127z" />
    <glyph glyph-name="uni0448" unicode="&#x448;" horiz-adv-x="823" 
d="M706 0h-697l106 483h127l-82 -372h158l82 372h127l-82 -372h158l81 372h128z" />
    <glyph glyph-name="uni0449" unicode="&#x449;" horiz-adv-x="836" 
d="M730 111h53l-51 -234h-128l27 123h-622l106 483h127l-82 -372h158l82 372h127l-82 -372h158l81 372h128z" />
    <glyph glyph-name="uni044A" unicode="&#x44a;" horiz-adv-x="643" 
d="M179 372h-135l25 111h263l-37 -166h135q76 0 120 -38.5t44 -100.5q0 -46 -23 -87t-65.5 -66t-99.5 -25h-308zM249 107h151q28 0 46 17t18 42q0 21 -14.5 33t-40.5 12h-137z" />
    <glyph glyph-name="uni044B" unicode="&#x44b;" horiz-adv-x="776" 
d="M205 317h135q76 0 120 -38.5t44 -100.5q0 -46 -22.5 -87t-65 -66t-99.5 -25h-308l106 483h127zM638 483h128l-106 -483h-128zM159 107h151q29 0 46.5 17t17.5 42q0 21 -14.5 33t-40.5 12h-137z" />
    <glyph glyph-name="uni044C" unicode="&#x44c;" horiz-adv-x="553" 
d="M205 317h135q76 0 120 -38.5t44 -100.5q0 -46 -22.5 -87t-65 -66t-99.5 -25h-308l106 483h127zM159 107h151q29 0 46.5 17t17.5 42q0 21 -14.5 33t-40.5 12h-137z" />
    <glyph glyph-name="uni044D" unicode="&#x44d;" horiz-adv-x="499" 
d="M357 467.5q54 -27.5 83.5 -77.5t29.5 -115q0 -78 -37.5 -144t-101.5 -104.5t-142 -38.5q-72 0 -121.5 25.5t-75.5 69.5l90 68q15 -25 43.5 -40t61.5 -15q48 0 85 27t55 71h-200l22 98h189q-8 44 -40 69t-77 25q-31 0 -59.5 -12.5t-47.5 -33.5l-65 79q31 33 77.5 54.5
t105.5 21.5q71 0 125 -27.5z" />
    <glyph glyph-name="uni044E" unicode="&#x44e;" horiz-adv-x="809" 
d="M669.5 466.5q54.5 -28.5 82.5 -78t28 -113.5q0 -75 -36 -141t-100 -106t-143 -40q-109 0 -172 56.5t-68 148.5h-83l-42 -193h-127l106 483h127l-39 -179h74q30 84 100.5 137.5t162.5 53.5q75 0 129.5 -28.5zM579 124.5q33 23.5 51 62t18 82.5q0 53 -30 83t-82 30
q-41 0 -74 -23.5t-51.5 -62.5t-18.5 -82q0 -52 30.5 -82.5t82.5 -30.5q41 0 74 23.5z" />
    <glyph glyph-name="uni044F" unicode="&#x44f;" horiz-adv-x="573" 
d="M149 182q-36 14 -58.5 46t-22.5 77q0 46 23 87t65.5 66t99.5 25h308l-106 -483h-127l36 166h-94l-131 -166h-149zM413 376h-151q-28 0 -46 -17t-18 -42q0 -21 14.5 -33t40.5 -12h137z" />
    <glyph glyph-name="uni0451" unicode="&#x451;" horiz-adv-x="553" 
d="M64.5 349.5q36.5 66.5 100 106t142.5 39.5q62 0 111 -26t77.5 -75t28.5 -115q0 -20 -3 -42.5t-7 -35.5h-359v-12q0 -22 15 -45.5t45 -39t72 -15.5q33 0 66.5 9.5t55.5 26.5l40 -87q-35 -24 -80.5 -37t-90.5 -13q-115 0 -182.5 58t-67.5 159q0 78 36.5 144.5zM410 297
q0 40 -28.5 68.5t-82.5 28.5q-49 0 -85.5 -32.5t-45.5 -74.5h242v10zM210.5 560.5q-17.5 17.5 -17.5 42.5q0 30 23 52.5t53 22.5q26 0 43 -17t17 -43q0 -29 -23 -52t-53 -23q-25 0 -42.5 17.5zM421.5 560.5q-17.5 17.5 -17.5 42.5q0 30 23 52.5t53 22.5q26 0 43 -17t17 -43
q0 -29 -23 -52t-53 -23q-25 0 -42.5 17.5z" />
    <glyph glyph-name="uni0452" unicode="&#x452;" horiz-adv-x="584" 
d="M229 -83q17 -6 33 -6q57 0 74 76l67 306q4 14 4 27q0 31 -20.5 46.5t-50.5 15.5q-66 0 -124 -56l-72 -326h-127l116 528h-58l16 73h58l15 66h127l-14 -66h144l-15 -73h-146l-24 -108q36 34 75 54.5t87 20.5q67 0 109 -32.5t42 -90.5q0 -17 -5 -40l-77 -345
q-19 -88 -63 -135.5t-123 -47.5q-45 0 -75 11z" />
    <glyph glyph-name="uni0453" unicode="&#x453;" horiz-adv-x="454" 
d="M217 372l-81 -372h-127l106 483h373l-25 -111h-246zM260 556l166 144h119l-194 -144h-91z" />
    <glyph glyph-name="uni0454" unicode="&#x454;" horiz-adv-x="499" 
d="M336 109.5q29 12.5 47 33.5l65 -79q-31 -33 -77.5 -54.5t-105.5 -21.5q-71 0 -125 27.5t-83 77.5t-29 115q0 79 37 144.5t101.5 104t142.5 38.5q71 0 120.5 -25.5t75.5 -69.5l-89 -68q-16 25 -44.5 40t-61.5 15q-47 0 -83 -26t-55 -69h199l-21 -98h-191q7 -46 39.5 -71.5
t78.5 -25.5q30 0 59 12.5z" />
    <glyph glyph-name="uni0455" unicode="&#x455;" horiz-adv-x="477" 
d="M62 160q23 -28 71.5 -51.5t97.5 -23.5q31 0 50.5 15t19.5 35t-20.5 31.5t-68.5 28.5q-49 16 -80 30.5t-53.5 40.5t-22.5 66q0 43 23.5 80.5t68.5 60t107 22.5q61 0 115.5 -21.5t89.5 -57.5l-65 -81q-19 24 -59.5 43.5t-82.5 19.5q-32 0 -51 -13.5t-19 -33.5
q0 -16 20.5 -27t63.5 -25q49 -16 81.5 -31t56 -42.5t23.5 -68.5q0 -47 -25 -85.5t-72.5 -61t-111.5 -22.5q-67 0 -127.5 22.5t-100.5 64.5z" />
    <glyph glyph-name="uni0456" unicode="&#x456;" horiz-adv-x="253" 
d="M156.5 662.5q26.5 23.5 58.5 23.5q30 0 49.5 -19t19.5 -46q0 -39 -27 -62.5t-59 -23.5q-29 0 -48.5 19t-19.5 46q0 39 26.5 62.5zM116 483h127l-107 -483h-127z" />
    <glyph glyph-name="uni0457" unicode="&#x457;" horiz-adv-x="253" 
d="M116 483h127l-107 -483h-127zM51.5 560.5q-17.5 17.5 -17.5 42.5q0 30 23 52.5t53 22.5q26 0 43 -17t17 -43q0 -29 -23 -52t-53 -23q-25 0 -42.5 17.5zM262.5 560.5q-17.5 17.5 -17.5 42.5q0 30 23 52.5t53 22.5q26 0 43 -17t17 -43q0 -29 -23 -52t-53 -23
q-25 0 -42.5 17.5z" />
    <glyph glyph-name="uni0458" unicode="&#x458;" horiz-adv-x="253" 
d="M156.5 662.5q26.5 23.5 58.5 23.5q30 0 49.5 -19t19.5 -46q0 -39 -27 -62.5t-59 -23.5q-29 0 -48.5 19t-19.5 46q0 39 26.5 62.5zM-102 -83q16 -6 33 -6q57 0 74 76l111 496h127l-111 -496q-19 -88 -63 -135.5t-123 -47.5q-45 0 -75 11z" />
    <glyph glyph-name="uni0459" unicode="&#x459;" horiz-adv-x="880" 
d="M40 127.5q26 35.5 56 121.5l82 234h391l-37 -166h135q76 0 120 -38.5t44 -100.5q0 -46 -22.5 -87t-65 -66t-99.5 -25h-308l80 372h-152l-46 -138q-42 -126 -104 -186t-153 -60l23 104q30 0 56 35.5zM486 107h151q29 0 46.5 17t17.5 42q0 21 -14.5 33t-40.5 12h-137z" />
    <glyph glyph-name="uni045A" unicode="&#x45a;" horiz-adv-x="880" 
d="M115 483h127l-39 -176h200l39 176h127l-39 -176h142q73 0 116 -37t43 -97q0 -45 -22 -85t-63.5 -64t-96.5 -24h-313l42 196h-199l-43 -196h-127zM486 107h156q26 0 42 15t16 38q0 19 -13 29.5t-37 10.5h-143z" />
    <glyph glyph-name="uni045B" unicode="&#x45b;" horiz-adv-x="584" 
d="M504 461.5q41 -33.5 41 -90.5q0 -14 -5 -39l-73 -332h-127l63 290q5 20 5 30q0 32 -22.5 47t-60.5 15q-30 0 -60 -16.5t-54 -40.5l-71 -325h-128l116 528h-56l15 73h57l15 66h128l-15 -66h145l-14 -73h-147l-24 -108q35 34 74 54.5t87 20.5q70 0 111 -33.5z" />
    <glyph glyph-name="uni045C" unicode="&#x45c;" horiz-adv-x="535" 
d="M238 189l-75 -65l-27 -124h-127l107 483h127l-47 -207l224 207h162l-240 -219l139 -264h-154zM280 556l166 144h119l-194 -144h-91z" />
    <glyph glyph-name="uni045E" unicode="&#x45e;" horiz-adv-x="513" 
d="M43 -82q20 0 33.5 7.5t26.5 26.5l30 45l-86 486h132l51 -336l202 336h140l-352 -562q-39 -64 -82.5 -90.5t-104.5 -26.5q-46 0 -81 12l42 110q18 -8 49 -8zM219 554.5q-41 23.5 -63 64.5l65 47q14 -29 41 -45.5t64 -16.5q74 0 133 62l48 -47q-40 -41 -90.5 -64.5
t-103.5 -23.5t-94 23.5z" />
    <glyph glyph-name="uni045F" unicode="&#x45f;" horiz-adv-x="580" 
d="M463 0h-163l-28 -126h-128l28 126h-163l106 483h127l-82 -372h200l82 372h127z" />
    <glyph glyph-name="uni0490" unicode="&#x490;" horiz-adv-x="571" 
d="M158 667h329l27 123h143l-54 -248h-330l-119 -542h-142z" />
    <glyph glyph-name="uni0491" unicode="&#x491;" horiz-adv-x="454" 
d="M9 0l106 483h246l28 126h127l-53 -237h-246l-81 -372h-127z" />
    <glyph glyph-name="uni0492" unicode="&#x492;" horiz-adv-x="571" 
d="M274 542l-33 -151h172l-25 -115h-173l-61 -276h-142l61 276h-58l26 115h57l61 276h472l-28 -125h-329z" />
    <glyph glyph-name="uni0493" unicode="&#x493;" horiz-adv-x="454" 
d="M217 372l-18 -84h117l-19 -87h-117l-44 -201h-127l43 201h-54l20 87h54l43 195h373l-25 -111h-246z" />
    <glyph glyph-name="uni049A" unicode="&#x49a;" horiz-adv-x="665" 
d="M512 125h118l-55 -248h-143l27 123h-43l-147 273l-69 -68l-46 -205h-142l147 667h142l-63 -286l291 286h183l-334 -313z" />
    <glyph glyph-name="uni049B" unicode="&#x49b;" horiz-adv-x="577" 
d="M424 111h115l-52 -234h-127l27 123h-60l-89 189l-75 -65l-27 -124h-127l107 483h127l-47 -207l224 207h162l-240 -219z" />
    <glyph glyph-name="uni04B2" unicode="&#x4b2;" horiz-adv-x="706" 
d="M554 125h117l-55 -248h-143l27 123h-44l-121 237l-214 -237h-178l321 351l-159 316h161l109 -221l195 221h179l-303 -333z" />
    <glyph glyph-name="uni04B3" unicode="&#x4b3;" horiz-adv-x="552" 
d="M398 111h115l-51 -234h-128l27 123h-49l-74 163l-147 -163h-145l225 248l-108 235h137l67 -149l133 149h146l-215 -235z" />
    <glyph glyph-name="uni04E8" unicode="&#x4e8;" horiz-adv-x="765" 
d="M598.5 641q74.5 -37 117.5 -104.5t43 -156.5q0 -108 -51 -197.5t-139.5 -142t-196.5 -52.5q-93 0 -167.5 37t-117.5 105t-43 157q0 108 51 197.5t140 141.5t197 52q92 0 166.5 -37zM295.5 513q-57.5 -42 -84.5 -112h398q-10 72 -61 113t-125 41q-70 0 -127.5 -42z
M512.5 156.5q58.5 45.5 83.5 119.5h-403q7 -77 58.5 -121t128.5 -44q74 0 132.5 45.5z" />
    <glyph glyph-name="uni04E9" unicode="&#x4e9;" horiz-adv-x="574" 
d="M435.5 466.5q54.5 -28.5 82.5 -78t28 -113.5q0 -75 -36 -141t-100 -106t-144 -40q-75 0 -129 28t-82 77.5t-28 113.5q0 75 36 141.5t100 106.5t143 40q75 0 129.5 -28.5zM223 360.5q-35 -28.5 -52 -73.5h242q-4 48 -33.5 75t-77.5 27q-44 0 -79 -28.5zM351 123.5
q35 29.5 51 77.5h-244q4 -50 33.5 -78.5t79.5 -28.5q45 0 80 29.5z" />
    <glyph glyph-name="uni1E02" unicode="&#x1e02;" horiz-adv-x="663" 
d="M159 667h324q56 0 97 -22t62.5 -58.5t21.5 -79.5q0 -44 -21 -82.5t-56 -63t-75 -28.5q45 -12 70.5 -50t25.5 -85q0 -50 -24.5 -95t-76.5 -74t-131 -29h-364zM492.5 527q-19.5 18 -48.5 18h-169l-32 -145h179q47 0 68.5 24.5t21.5 58.5q0 26 -19.5 44zM446 259
q-20 19 -53 19h-178l-34 -155h184q46 0 73.5 25t27.5 62q0 30 -20 49zM395 727q-17 17 -17 43q0 30 23.5 53t53.5 23q25 0 42.5 -17.5t17.5 -43.5q0 -30 -23.5 -52.5t-53.5 -22.5q-26 0 -43 17z" />
    <glyph glyph-name="uni1E03" unicode="&#x1e03;" horiz-adv-x="586" 
d="M136 0h-127l147 667h127l-54 -244q62 72 146 72q83 0 133 -53t50 -147q0 -75 -30 -146t-88 -116t-136 -45q-49 0 -89.5 20t-64.5 56zM395 351q-30 31 -77 31q-32 0 -60.5 -16t-50.5 -42l-37 -168q16 -25 46 -40t67 -15q41 0 73.5 23t50.5 61.5t18 83.5q0 51 -30 82z
M368 727q-17 17 -17 43q0 30 23.5 53t53.5 23q25 0 42.5 -17.5t17.5 -43.5q0 -30 -23.5 -52.5t-53.5 -22.5q-26 0 -43 17z" />
    <glyph glyph-name="uni1E0A" unicode="&#x1e0a;" horiz-adv-x="718" 
d="M558.5 631q66.5 -36 107 -101.5t40.5 -149.5q0 -95 -45 -181.5t-142 -142.5t-245 -56h-262l147 667h258q75 0 141.5 -36zM436.5 158q58.5 33 90 89.5t31.5 123.5q0 48 -21.5 87t-59.5 61.5t-87 22.5h-116l-92 -417h118q78 0 136.5 33zM429 727q-17 17 -17 43
q0 30 23.5 53t53.5 23q25 0 42.5 -17.5t17.5 -43.5q0 -30 -23.5 -52.5t-53.5 -22.5q-26 0 -43 17z" />
    <glyph glyph-name="uni1E0B" unicode="&#x1e0b;" horiz-adv-x="586" 
d="M489 667h128l-148 -667h-128l14 60q-31 -36 -66.5 -54t-78.5 -18q-84 0 -134 53t-50 147q0 76 30.5 146.5t88 115.5t136.5 45q48 0 89 -20t65 -56zM189 132q30 -31 77 -31q33 0 62 15.5t49 41.5l37 168q-16 25 -46 40.5t-67 15.5q-40 0 -72.5 -23t-51 -62t-18.5 -83
q0 -51 30 -82zM353 727q-17 17 -17 43q0 30 23.5 53t53.5 23q25 0 42.5 -17.5t17.5 -43.5q0 -30 -23.5 -52.5t-53.5 -22.5q-26 0 -43 17z" />
    <glyph glyph-name="uni1E1E" unicode="&#x1e1e;" horiz-adv-x="571" 
d="M159 667h472l-28 -125h-329l-31 -141h322l-28 -125h-322l-61 -276h-142zM368 727q-17 17 -17 43q0 30 23.5 53t53.5 23q25 0 42.5 -17.5t17.5 -43.5q0 -30 -23.5 -52.5t-53.5 -22.5q-26 0 -43 17z" />
    <glyph glyph-name="uni1E1F" unicode="&#x1e1f;" horiz-adv-x="327" 
d="M120 372h-80l24 111h80l6 26q18 79 64 123.5t117 44.5q64 0 106 -27l-44 -86q-17 13 -46 13t-45.5 -17t-24.5 -51l-6 -26h99l-25 -111h-98l-82 -372h-128zM303 727q-17 17 -17 43q0 30 23.5 53t53.5 23q25 0 42.5 -17.5t17.5 -43.5q0 -30 -23.5 -52.5t-53.5 -22.5
q-26 0 -43 17z" />
    <glyph glyph-name="uni1E22" unicode="&#x1e22;" horiz-adv-x="731" 
d="M531 280h-315l-62 -280h-142l147 667h142l-57 -262h314l58 262h143l-147 -667h-143zM431 727q-17 17 -17 43q0 30 23.5 53t53.5 23q25 0 42.5 -17.5t17.5 -43.5q0 -30 -23.5 -52.5t-53.5 -22.5q-26 0 -43 17z" />
    <glyph glyph-name="uni1E23" unicode="&#x1e23;" horiz-adv-x="580" 
d="M399 290q5 20 5 30q0 32 -22.5 47t-60.5 15q-30 0 -59.5 -16.5t-53.5 -40.5l-72 -325h-127l147 667h127l-54 -247q34 33 73.5 54t87.5 21q69 0 110 -33.5t41 -89.5q0 -15 -5 -40l-73 -332h-127zM358 727q-17 17 -17 43q0 30 23.5 53t53.5 23q25 0 42.5 -17.5t17.5 -43.5
q0 -30 -23.5 -52.5t-53.5 -22.5q-26 0 -43 17z" />
    <glyph glyph-name="uni1E56" unicode="&#x1e56;" horiz-adv-x="624" 
d="M159 667h293q60 0 105 -25t69 -67t24 -93q0 -56 -27.5 -112t-89.5 -94.5t-159 -38.5h-167l-53 -237h-142zM468 392q33 30 33 75q0 33 -23 54t-60 21h-144l-40 -180h149q52 0 85 30zM391 727q-17 17 -17 43q0 30 23.5 53t53.5 23q25 0 42.5 -17.5t17.5 -43.5
q0 -30 -23.5 -52.5t-53.5 -22.5q-26 0 -43 17z" />
    <glyph glyph-name="uni1E57" unicode="&#x1e57;" horiz-adv-x="583" 
d="M95 -184h-127l148 667h127l-14 -60q62 72 146 72q83 0 133 -53t50 -147q0 -75 -30 -146t-88 -116t-136 -45q-49 0 -89.5 20t-64.5 56zM395 351q-30 31 -77 31q-32 0 -60.5 -16t-50.5 -42l-37 -168q16 -25 46 -40t67 -15q41 0 73.5 23t50.5 61.5t18 83.5q0 51 -30 82z
M331 560q-17 17 -17 43q0 30 23.5 53t53.5 23q25 0 42.5 -17.5t17.5 -43.5q0 -30 -23.5 -52.5t-53.5 -22.5q-26 0 -43 17z" />
    <glyph glyph-name="uni1E60" unicode="&#x1e60;" horiz-adv-x="600" 
d="M87 216q35 -47 96 -75.5t129 -28.5q49 0 74.5 23.5t25.5 52.5q0 26 -28 43t-88 39q-64 23 -105.5 43.5t-72 56.5t-30.5 90q0 56 31.5 106t91 80.5t138.5 30.5q80 0 150.5 -28.5t114.5 -79.5l-88 -100q-36 41 -90.5 63t-108.5 22q-38 0 -63.5 -20t-25.5 -48
q0 -24 27.5 -39.5t87.5 -37.5q64 -23 107 -44.5t73.5 -58.5t30.5 -90q0 -62 -32 -114t-91.5 -83t-139.5 -31q-97 0 -178 34t-124 90zM372 727q-17 17 -17 43q0 30 23.5 53t53.5 23q25 0 42.5 -17.5t17.5 -43.5q0 -30 -23.5 -52.5t-53.5 -22.5q-26 0 -43 17z" />
    <glyph glyph-name="uni1E61" unicode="&#x1e61;" horiz-adv-x="477" 
d="M62 160q23 -28 71.5 -51.5t97.5 -23.5q31 0 50.5 15t19.5 35t-20.5 31.5t-68.5 28.5q-49 16 -80 30.5t-53.5 40.5t-22.5 66q0 43 23.5 80.5t68.5 60t107 22.5q61 0 115.5 -21.5t89.5 -57.5l-65 -81q-19 24 -59.5 43.5t-82.5 19.5q-32 0 -51 -13.5t-19 -33.5
q0 -16 20.5 -27t63.5 -25q49 -16 81.5 -31t56 -42.5t23.5 -68.5q0 -47 -25 -85.5t-72.5 -61t-111.5 -22.5q-67 0 -127.5 22.5t-100.5 64.5zM272 560q-17 17 -17 43q0 30 23.5 53t53.5 23q25 0 42.5 -17.5t17.5 -43.5q0 -30 -23.5 -52.5t-53.5 -22.5q-26 0 -43 17z" />
    <glyph glyph-name="uni1E6A" unicode="&#x1e6a;" horiz-adv-x="582" 
d="M285 542h-195l28 125h532l-27 -125h-195l-119 -542h-143zM358 727q-17 17 -17 43q0 30 23.5 53t53.5 23q25 0 42.5 -17.5t17.5 -43.5q0 -30 -23.5 -52.5t-53.5 -22.5q-26 0 -43 17z" />
    <glyph glyph-name="uni1E6B" unicode="&#x1e6b;" horiz-adv-x="338" 
d="M63 126l54 247h-80l25 110h80l29 132h128l-29 -132h98l-26 -110h-98l-46 -210q-2 -12 -2 -20q0 -20 12 -31t35 -11q10 0 20 3t15 7l5 -102q-14 -10 -35.5 -15.5t-44.5 -5.5q-67 0 -105.5 26.5t-38.5 78.5q0 17 4 33zM221 727q-17 17 -17 43q0 30 23.5 53t53.5 23
q25 0 42.5 -17.5t17.5 -43.5q0 -30 -23.5 -52.5t-53.5 -22.5q-26 0 -43 17z" />
    <glyph glyph-name="Wgrave" unicode="&#x1e80;" horiz-adv-x="918" 
d="M506 458l-217 -458h-151l-44 667h156l10 -482l233 482h111l20 -482l223 482h163l-337 -667h-151zM406 867h117l102 -144h-89z" />
    <glyph glyph-name="wgrave" unicode="&#x1e81;" horiz-adv-x="769" 
d="M403 329l-174 -329h-136l-40 483h127l19 -325l178 325h113l33 -325l163 325h136l-254 -483h-135zM296 700h117l102 -144h-89z" />
    <glyph glyph-name="Wacute" unicode="&#x1e82;" horiz-adv-x="918" 
d="M506 458l-217 -458h-151l-44 667h156l10 -482l233 482h111l20 -482l223 482h163l-337 -667h-151zM493 723l166 144h119l-194 -144h-91z" />
    <glyph glyph-name="wacute" unicode="&#x1e83;" horiz-adv-x="769" 
d="M403 329l-174 -329h-136l-40 483h127l19 -325l178 325h113l33 -325l163 325h136l-254 -483h-135zM385 556l166 144h119l-194 -144h-91z" />
    <glyph glyph-name="Wdieresis" unicode="&#x1e84;" horiz-adv-x="918" 
d="M506 458l-217 -458h-151l-44 667h156l10 -482l233 482h111l20 -482l223 482h163l-337 -667h-151zM416.5 727.5q-17.5 17.5 -17.5 42.5q0 30 23 52.5t53 22.5q26 0 43 -17t17 -43q0 -29 -23 -52t-53 -23q-25 0 -42.5 17.5zM627.5 727.5q-17.5 17.5 -17.5 42.5
q0 30 23 52.5t53 22.5q26 0 43 -17t17 -43q0 -29 -23 -52t-53 -23q-25 0 -42.5 17.5z" />
    <glyph glyph-name="wdieresis" unicode="&#x1e85;" horiz-adv-x="769" 
d="M403 329l-174 -329h-136l-40 483h127l19 -325l178 325h113l33 -325l163 325h136l-254 -483h-135zM307.5 560.5q-17.5 17.5 -17.5 42.5q0 30 23 52.5t53 22.5q26 0 43 -17t17 -43q0 -29 -23 -52t-53 -23q-25 0 -42.5 17.5zM518.5 560.5q-17.5 17.5 -17.5 42.5
q0 30 23 52.5t53 22.5q26 0 43 -17t17 -43q0 -29 -23 -52t-53 -23q-25 0 -42.5 17.5z" />
    <glyph glyph-name="uni1E9E" unicode="&#x1e9e;" horiz-adv-x="707" 
d="M628 334q45 -46 45 -118q0 -22 -7 -57q-10 -46 -45 -85.5t-86.5 -62.5t-109.5 -23q-77 0 -132.5 24.5t-81.5 59.5l98 94q44 -52 118 -52q39 0 69 20t36 50q2 8 2 23q0 43 -38 65.5t-109 22.5h-54l23 107l145 132q-37 20 -85 20q-138 0 -172 -158l-88 -396h-144l89 401
q29 133 103 205.5t215 72.5q88 0 158 -30t104 -94l-174 -159q76 -16 121 -62z" />
    <glyph glyph-name="uni1EA0" unicode="&#x1ea0;" horiz-adv-x="684" 
d="M463 113h-286l-67 -113h-169l405 667h178l110 -667h-154zM244 238h207l-40 287zM208 -179q-17 17 -17 43q0 30 23.5 53t53.5 23q25 0 42.5 -17.5t17.5 -43.5q0 -30 -23.5 -52.5t-53.5 -22.5q-26 0 -43 17z" />
    <glyph glyph-name="uni1EA1" unicode="&#x1ea1;" horiz-adv-x="586" 
d="M448 483h128l-107 -483h-128l14 60q-31 -36 -66.5 -54t-78.5 -18q-84 0 -134 53t-50 147q0 76 30.5 146.5t88 115.5t136.5 45q48 0 89 -20t65 -56zM189 132q30 -31 77 -31q33 0 62 15.5t49 41.5l37 168q-16 25 -46 40.5t-67 15.5q-40 0 -72.5 -23t-51 -62t-18.5 -83
q0 -51 30 -82zM153 -179q-17 17 -17 43q0 30 23.5 53t53.5 23q25 0 42.5 -17.5t17.5 -43.5q0 -30 -23.5 -52.5t-53.5 -22.5q-26 0 -43 17z" />
    <glyph glyph-name="uni1EA2" unicode="&#x1ea2;" horiz-adv-x="684" 
d="M463 113h-286l-67 -113h-169l405 667h178l110 -667h-154zM244 238h207l-40 287zM411 808q21 12 48 12q29 0 51.5 -16.5t22.5 -45.5q0 -15 -6.5 -32t-17.5 -29h-57q29 26 29 54q0 12 -7.5 19t-19.5 7q-22 0 -36 -24l-40 20q12 23 33 35z" />
    <glyph glyph-name="uni1EA3" unicode="&#x1ea3;" horiz-adv-x="586" 
d="M448 483h128l-107 -483h-128l14 60q-31 -36 -66.5 -54t-78.5 -18q-84 0 -134 53t-50 147q0 76 30.5 146.5t88 115.5t136.5 45q48 0 89 -20t65 -56zM189 132q30 -31 77 -31q33 0 62 15.5t49 41.5l37 168q-16 25 -46 40.5t-67 15.5q-40 0 -72.5 -23t-51 -62t-18.5 -83
q0 -51 30 -82zM321 638q21 12 48 12q29 0 51.5 -16.5t22.5 -45.5q0 -15 -6.5 -32t-17.5 -29h-57q29 26 29 54q0 12 -7.5 19t-19.5 7q-22 0 -36 -24l-40 20q12 23 33 35z" />
    <glyph glyph-name="uni1EA4" unicode="&#x1ea4;" horiz-adv-x="684" 
d="M559 736l166 108h118l-194 -108h-90zM453 749l-91 -67h-79l123 108h114l63 -108h-77zM463 113h-286l-67 -113h-169l405 667h178l110 -667h-154zM244 238h207l-40 287z" />
    <glyph glyph-name="uni1EA5" unicode="&#x1ea5;" horiz-adv-x="586" 
d="M448 483h128l-107 -483h-128l14 60q-31 -36 -66.5 -54t-78.5 -18q-84 0 -134 53t-50 147q0 76 30.5 146.5t88 115.5t136.5 45q48 0 89 -20t65 -56zM189 132q30 -31 77 -31q33 0 62 15.5t49 41.5l37 168q-16 25 -46 40.5t-67 15.5q-40 0 -72.5 -23t-51 -62t-18.5 -83
q0 -51 30 -82zM377 645l-90 -89h-80l124 144h114l62 -144h-76zM483 626l166 144h119l-194 -144h-91z" />
    <glyph glyph-name="uni1EA6" unicode="&#x1ea6;" horiz-adv-x="684" 
d="M118 844h116l102 -108h-88zM454 749l-91 -67h-79l123 108h114l63 -108h-77zM463 113h-286l-67 -113h-169l405 667h178l110 -667h-154zM244 238h207l-40 287z" />
    <glyph glyph-name="uni1EA7" unicode="&#x1ea7;" horiz-adv-x="586" 
d="M448 483h128l-107 -483h-128l14 60q-31 -36 -66.5 -54t-78.5 -18q-84 0 -134 53t-50 147q0 76 30.5 146.5t88 115.5t136.5 45q48 0 89 -20t65 -56zM189 132q30 -31 77 -31q33 0 62 15.5t49 41.5l37 168q-16 25 -46 40.5t-67 15.5q-40 0 -72.5 -23t-51 -62t-18.5 -83
q0 -51 30 -82zM377 645l-90 -89h-80l124 144h114l62 -144h-76zM42 770h117l102 -144h-89z" />
    <glyph glyph-name="uni1EA8" unicode="&#x1ea8;" horiz-adv-x="684" 
d="M525 839q21 9 48 9q29 0 51.5 -12t22.5 -34q0 -24 -24 -46h-57q29 20 29 41q0 9 -7.5 14t-19.5 5q-23 0 -37 -18l-40 15q13 17 34 26zM453 749l-90 -67h-80l124 108h114l62 -108h-76zM463 113h-286l-67 -113h-169l405 667h178l110 -667h-154zM244 238h207l-40 287z" />
    <glyph glyph-name="uni1EA9" unicode="&#x1ea9;" horiz-adv-x="586" 
d="M448 483h128l-107 -483h-128l14 60q-31 -36 -66.5 -54t-78.5 -18q-84 0 -134 53t-50 147q0 76 30.5 146.5t88 115.5t136.5 45q48 0 89 -20t65 -56zM189 132q30 -31 77 -31q33 0 62 15.5t49 41.5l37 168q-16 25 -46 40.5t-67 15.5q-40 0 -72.5 -23t-51 -62t-18.5 -83
q0 -51 30 -82zM377 645l-90 -89h-80l124 144h114l62 -144h-76zM438 778q21 12 48 12q29 0 51.5 -16.5t22.5 -45.5q0 -15 -6.5 -32t-17.5 -29h-57q29 26 29 54q0 12 -7.5 19t-19.5 7q-22 0 -36 -24l-40 20q12 23 33 35z" />
    <glyph glyph-name="uni1EAA" unicode="&#x1eaa;" horiz-adv-x="684" 
d="M422 788q-9 3 -23 3q-31 0 -44 -31h-68q13 34 41.5 50.5t79.5 16.5q26 0 42 -5t32 -14q13 -7 23 -10.5t24 -3.5q31 0 45 30h68q-15 -33 -43.5 -50t-78.5 -17q-26 0 -41.5 5t-32.5 15q-15 8 -24 11zM452 723l-90 -45h-80l124 72h114l62 -72h-76zM463 113h-286l-67 -113
h-169l405 667h178l110 -667h-154zM244 238h207l-40 287z" />
    <glyph glyph-name="uni1EAB" unicode="&#x1eab;" horiz-adv-x="586" 
d="M448 483h128l-107 -483h-128l14 60q-31 -36 -66.5 -54t-78.5 -18q-84 0 -134 53t-50 147q0 76 30.5 146.5t88 115.5t136.5 45q48 0 89 -20t65 -56zM189 132q30 -31 77 -31q33 0 62 15.5t49 41.5l37 168q-16 25 -46 40.5t-67 15.5q-40 0 -72.5 -23t-51 -62t-18.5 -83
q0 -51 30 -82zM369 612l-90 -89h-80l124 144h114l62 -144h-76zM359.5 743q-9.5 7 -23.5 7q-31 0 -44 -62h-68q13 67 41.5 100.5t79.5 33.5q26 0 42 -10t32 -29q14 -15 23.5 -21.5t23.5 -6.5q30 0 45 61h68q-15 -67 -43.5 -100.5t-78.5 -33.5q-26 0 -41.5 10t-32.5 29
q-14 15 -23.5 22z" />
    <glyph glyph-name="uni1EAC" unicode="&#x1eac;" horiz-adv-x="684" 
d="M463 113h-286l-67 -113h-169l405 667h178l110 -667h-154zM244 238h207l-40 287zM207 -179q-17 17 -17 43q0 30 23.5 53t53.5 23q25 0 42.5 -17.5t17.5 -43.5q0 -30 -23.5 -52.5t-53.5 -22.5q-26 0 -43 17zM466 812l-90 -89h-80l124 144h114l62 -144h-76z" />
    <glyph glyph-name="uni1EAD" unicode="&#x1ead;" horiz-adv-x="586" 
d="M448 483h128l-107 -483h-128l14 60q-31 -36 -66.5 -54t-78.5 -18q-84 0 -134 53t-50 147q0 76 30.5 146.5t88 115.5t136.5 45q48 0 89 -20t65 -56zM189 132q30 -31 77 -31q33 0 62 15.5t49 41.5l37 168q-16 25 -46 40.5t-67 15.5q-40 0 -72.5 -23t-51 -62t-18.5 -83
q0 -51 30 -82zM153 -179q-17 17 -17 43q0 30 23.5 53t53.5 23q25 0 42.5 -17.5t17.5 -43.5q0 -30 -23.5 -52.5t-53.5 -22.5q-26 0 -43 17zM377 645l-90 -89h-80l124 144h114l62 -144h-76z" />
    <glyph glyph-name="uni1EAE" unicode="&#x1eae;" horiz-adv-x="684" 
d="M376 749l166 85h119l-194 -85h-91zM334 694q-41 16 -63 44l64 31q32 -42 106 -42q36 0 70.5 11t62.5 31l48 -31q-40 -28 -90.5 -44t-103.5 -16t-94 16zM463 113h-286l-67 -113h-169l405 667h178l110 -667h-154zM244 238h207l-40 287z" />
    <glyph glyph-name="uni1EAF" unicode="&#x1eaf;" horiz-adv-x="586" 
d="M448 483h128l-107 -483h-128l14 60q-31 -36 -66.5 -54t-78.5 -18q-84 0 -134 53t-50 147q0 76 30.5 146.5t88 115.5t136.5 45q48 0 89 -20t65 -56zM189 132q30 -31 77 -31q33 0 62 15.5t49 41.5l37 168q-16 25 -46 40.5t-67 15.5q-40 0 -72.5 -23t-51 -62t-18.5 -83
q0 -51 30 -82zM250 537.5q-41 23.5 -63 64.5l65 47q14 -29 41 -45.5t64 -16.5q74 0 133 62l48 -47q-40 -41 -90.5 -64.5t-103.5 -23.5t-94 23.5zM294 634l166 144h119l-194 -144h-91z" />
    <glyph glyph-name="uni1EB0" unicode="&#x1eb0;" horiz-adv-x="684" 
d="M313 838h117l102 -85h-89zM338 694q-41 16 -63 44l65 31q14 -20 40.5 -31t64.5 -11q73 0 133 42l48 -31q-40 -28 -90.5 -44t-103.5 -16t-94 16zM463 113h-286l-67 -113h-169l405 667h178l110 -667h-154zM244 238h207l-40 287z" />
    <glyph glyph-name="uni1EB1" unicode="&#x1eb1;" horiz-adv-x="586" 
d="M448 483h128l-107 -483h-128l14 60q-31 -36 -66.5 -54t-78.5 -18q-84 0 -134 53t-50 147q0 76 30.5 146.5t88 115.5t136.5 45q48 0 89 -20t65 -56zM189 132q30 -31 77 -31q33 0 62 15.5t49 41.5l37 168q-16 25 -46 40.5t-67 15.5q-40 0 -72.5 -23t-51 -62t-18.5 -83
q0 -51 30 -82zM251 541.5q-41 23.5 -63 64.5l65 47q14 -29 41 -45.5t64 -16.5q74 0 133 62l48 -47q-40 -41 -90.5 -64.5t-103.5 -23.5t-94 23.5zM230 780h117l102 -144h-89z" />
    <glyph glyph-name="uni1EB2" unicode="&#x1eb2;" horiz-adv-x="684" 
d="M466 821q30 0 52 -9.5t22 -26.5q0 -10 -6.5 -19.5t-17.5 -16.5h-57q29 15 29 32q0 7 -8 11t-19 4q-20 0 -36 -14l-40 11q25 28 81 28zM338 694q-41 16 -63 44l64 31q32 -42 106 -42q36 0 70.5 11t62.5 31l48 -31q-40 -28 -90.5 -44t-103.5 -16t-94 16zM463 113h-286
l-67 -113h-169l405 667h178l110 -667h-154zM244 238h207l-40 287z" />
    <glyph glyph-name="uni1EB3" unicode="&#x1eb3;" horiz-adv-x="586" 
d="M448 483h128l-107 -483h-128l14 60q-31 -36 -66.5 -54t-78.5 -18q-84 0 -134 53t-50 147q0 76 30.5 146.5t88 115.5t136.5 45q48 0 89 -20t65 -56zM189 132q30 -31 77 -31q33 0 62 15.5t49 41.5l37 168q-16 25 -46 40.5t-67 15.5q-40 0 -72.5 -23t-51 -62t-18.5 -83
q0 -51 30 -82zM251 541.5q-41 23.5 -63 64.5l65 47q14 -29 41 -45.5t64 -16.5q74 0 133 62l48 -47q-40 -41 -90.5 -64.5t-103.5 -23.5t-94 23.5zM338 755q21 12 48 12q29 0 51.5 -16.5t22.5 -45.5q0 -15 -6.5 -32t-17.5 -29h-57q29 26 29 54q0 12 -7.5 19t-19.5 7
q-22 0 -36 -24l-40 20q12 23 33 35z" />
    <glyph glyph-name="uni1EB4" unicode="&#x1eb4;" horiz-adv-x="684" 
d="M423 790.5q-10 3.5 -24 3.5q-30 0 -45 -31h-67q13 33 41 50t79 17q26 0 42 -5t33 -14q14 -8 23.5 -11.5t23.5 -3.5q29 0 44 31h69q-15 -34 -43 -50.5t-79 -16.5q-26 0 -41 4.5t-34 14.5q-12 8 -22 11.5zM334 691q-41 13 -63 36l65 26q14 -16 41 -25t64 -9q76 0 133 34
l48 -26q-40 -23 -90.5 -36t-103.5 -13t-94 13zM463 113h-286l-67 -113h-169l405 667h178l110 -667h-154zM244 238h207l-40 287z" />
    <glyph glyph-name="uni1EB5" unicode="&#x1eb5;" horiz-adv-x="586" 
d="M448 483h128l-107 -483h-128l14 60q-31 -36 -66.5 -54t-78.5 -18q-84 0 -134 53t-50 147q0 76 30.5 146.5t88 115.5t136.5 45q48 0 89 -20t65 -56zM189 132q30 -31 77 -31q33 0 62 15.5t49 41.5l37 168q-16 25 -46 40.5t-67 15.5q-40 0 -72.5 -23t-51 -62t-18.5 -83
q0 -51 30 -82zM251 541.5q-41 23.5 -63 64.5l65 47q14 -29 41 -45.5t64 -16.5q74 0 133 62l48 -47q-40 -41 -90.5 -64.5t-103.5 -23.5t-94 23.5zM358.5 738q-9.5 7 -23.5 7q-31 0 -44 -62h-68q13 67 41.5 100.5t79.5 33.5q26 0 42 -10t32 -29q14 -15 23.5 -21.5t23.5 -6.5
q30 0 45 61h68q-15 -67 -43.5 -100.5t-78.5 -33.5q-26 0 -41.5 10t-32.5 29q-14 15 -23.5 22z" />
    <glyph glyph-name="uni1EB6" unicode="&#x1eb6;" horiz-adv-x="684" 
d="M463 113h-286l-67 -113h-169l405 667h178l110 -667h-154zM244 238h207l-40 287zM343 721.5q-41 23.5 -63 64.5l65 47q14 -29 41 -45.5t64 -16.5q74 0 133 62l48 -47q-40 -41 -90.5 -64.5t-103.5 -23.5t-94 23.5zM208 -179q-17 17 -17 43q0 30 23.5 53t53.5 23
q25 0 42.5 -17.5t17.5 -43.5q0 -30 -23.5 -52.5t-53.5 -22.5q-26 0 -43 17z" />
    <glyph glyph-name="uni1EB7" unicode="&#x1eb7;" horiz-adv-x="586" 
d="M448 483h128l-107 -483h-128l14 60q-31 -36 -66.5 -54t-78.5 -18q-84 0 -134 53t-50 147q0 76 30.5 146.5t88 115.5t136.5 45q48 0 89 -20t65 -56zM189 132q30 -31 77 -31q33 0 62 15.5t49 41.5l37 168q-16 25 -46 40.5t-67 15.5q-40 0 -72.5 -23t-51 -62t-18.5 -83
q0 -51 30 -82zM254 554.5q-41 23.5 -63 64.5l65 47q14 -29 41 -45.5t64 -16.5q74 0 133 62l48 -47q-40 -41 -90.5 -64.5t-103.5 -23.5t-94 23.5zM154 -179q-17 17 -17 43q0 30 23.5 53t53.5 23q25 0 42.5 -17.5t17.5 -43.5q0 -30 -23.5 -52.5t-53.5 -22.5q-26 0 -43 17z" />
    <glyph glyph-name="uni1EB8" unicode="&#x1eb8;" horiz-adv-x="583" 
d="M159 667h472l-28 -125h-329l-31 -141h322l-28 -125h-322l-33 -151h329l-27 -125h-472zM167 -179q-17 17 -17 43q0 30 23.5 53t53.5 23q25 0 42.5 -17.5t17.5 -43.5q0 -30 -23.5 -52.5t-53.5 -22.5q-26 0 -43 17z" />
    <glyph glyph-name="uni1EB9" unicode="&#x1eb9;" horiz-adv-x="553" 
d="M64.5 349.5q36.5 66.5 100 106t142.5 39.5q62 0 111 -26t77.5 -75t28.5 -115q0 -20 -3 -42.5t-7 -35.5h-359v-12q0 -22 15 -45.5t45 -39t72 -15.5q33 0 66.5 9.5t55.5 26.5l40 -87q-35 -24 -80.5 -37t-90.5 -13q-115 0 -182.5 58t-67.5 159q0 78 36.5 144.5zM410 297
q0 40 -28.5 68.5t-82.5 28.5q-49 0 -85.5 -32.5t-45.5 -74.5h242v10zM152 -179q-17 17 -17 43q0 30 23.5 53t53.5 23q25 0 42.5 -17.5t17.5 -43.5q0 -30 -23.5 -52.5t-53.5 -22.5q-26 0 -43 17z" />
    <glyph glyph-name="uni1EBA" unicode="&#x1eba;" horiz-adv-x="583" 
d="M159 667h472l-28 -125h-329l-31 -141h322l-28 -125h-322l-33 -151h329l-27 -125h-472zM371 808q21 12 48 12q29 0 51.5 -16.5t22.5 -45.5q0 -15 -6.5 -32t-17.5 -29h-57q29 26 29 54q0 12 -7.5 19t-19.5 7q-22 0 -36 -24l-40 20q12 23 33 35z" />
    <glyph glyph-name="uni1EBB" unicode="&#x1ebb;" horiz-adv-x="553" 
d="M64.5 349.5q36.5 66.5 100 106t142.5 39.5q62 0 111 -26t77.5 -75t28.5 -115q0 -20 -3 -42.5t-7 -35.5h-359v-12q0 -22 15 -45.5t45 -39t72 -15.5q33 0 66.5 9.5t55.5 26.5l40 -87q-35 -24 -80.5 -37t-90.5 -13q-115 0 -182.5 58t-67.5 159q0 78 36.5 144.5zM410 297
q0 40 -28.5 68.5t-82.5 28.5q-49 0 -85.5 -32.5t-45.5 -74.5h242v10zM319 638q21 12 48 12q29 0 51.5 -16.5t22.5 -45.5q0 -15 -6.5 -32t-17.5 -29h-57q29 26 29 54q0 12 -7.5 19t-19.5 7q-22 0 -36 -24l-40 20q12 23 33 35z" />
    <glyph glyph-name="uni1EBC" unicode="&#x1ebc;" horiz-adv-x="583" 
d="M159 667h472l-28 -125h-329l-31 -141h322l-28 -125h-322l-33 -151h329l-27 -125h-472zM381.5 782q-9.5 7 -23.5 7q-31 0 -44 -62h-68q13 67 41.5 100.5t79.5 33.5q26 0 42 -10t32 -29q14 -15 23.5 -21.5t23.5 -6.5q30 0 45 61h68q-15 -67 -43.5 -100.5t-78.5 -33.5
q-26 0 -41.5 10t-32.5 29q-14 15 -23.5 22z" />
    <glyph glyph-name="uni1EBD" unicode="&#x1ebd;" horiz-adv-x="553" 
d="M64.5 349.5q36.5 66.5 100 106t142.5 39.5q62 0 111 -26t77.5 -75t28.5 -115q0 -20 -3 -42.5t-7 -35.5h-359v-12q0 -22 15 -45.5t45 -39t72 -15.5q33 0 66.5 9.5t55.5 26.5l40 -87q-35 -24 -80.5 -37t-90.5 -13q-115 0 -182.5 58t-67.5 159q0 78 36.5 144.5zM410 297
q0 40 -28.5 68.5t-82.5 28.5q-49 0 -85.5 -32.5t-45.5 -74.5h242v10zM328.5 615q-9.5 7 -23.5 7q-31 0 -44 -62h-68q13 67 41.5 100.5t79.5 33.5q26 0 42 -10t32 -29q14 -15 23.5 -21.5t23.5 -6.5q30 0 45 61h68q-15 -67 -43.5 -100.5t-78.5 -33.5q-26 0 -41.5 10t-32.5 29
q-14 15 -23.5 22z" />
    <glyph glyph-name="uni1EBE" unicode="&#x1ebe;" horiz-adv-x="583" 
d="M519 736l166 108h119l-194 -108h-91zM413 749l-90 -67h-80l124 108h114l62 -108h-76zM159 667h472l-28 -125h-329l-31 -141h322l-28 -125h-322l-33 -151h329l-27 -125h-472z" />
    <glyph glyph-name="uni1EBF" unicode="&#x1ebf;" horiz-adv-x="553" 
d="M64.5 349.5q36.5 66.5 100 106t142.5 39.5q62 0 111 -26t77.5 -75t28.5 -115q0 -20 -3 -42.5t-7 -35.5h-359v-12q0 -22 15 -45.5t45 -39t72 -15.5q33 0 66.5 9.5t55.5 26.5l40 -87q-35 -24 -80.5 -37t-90.5 -13q-115 0 -182.5 58t-67.5 159q0 78 36.5 144.5zM410 297
q0 40 -28.5 68.5t-82.5 28.5q-49 0 -85.5 -32.5t-45.5 -74.5h242v10zM374 645l-90 -89h-80l124 144h114l62 -144h-76zM479 626l166 144h119l-194 -144h-91z" />
    <glyph glyph-name="uni1EC0" unicode="&#x1ec0;" horiz-adv-x="583" 
d="M76 844h117l102 -108h-89zM413 749l-90 -67h-80l124 108h114l62 -108h-76zM159 667h472l-28 -125h-329l-31 -141h322l-28 -125h-322l-33 -151h329l-27 -125h-472z" />
    <glyph glyph-name="uni1EC1" unicode="&#x1ec1;" horiz-adv-x="553" 
d="M64.5 349.5q36.5 66.5 100 106t142.5 39.5q62 0 111 -26t77.5 -75t28.5 -115q0 -20 -3 -42.5t-7 -35.5h-359v-12q0 -22 15 -45.5t45 -39t72 -15.5q33 0 66.5 9.5t55.5 26.5l40 -87q-35 -24 -80.5 -37t-90.5 -13q-115 0 -182.5 58t-67.5 159q0 78 36.5 144.5zM410 297
q0 40 -28.5 68.5t-82.5 28.5q-49 0 -85.5 -32.5t-45.5 -74.5h242v10zM41 770h117l102 -144h-89zM376 645l-90 -89h-80l124 144h114l62 -144h-76z" />
    <glyph glyph-name="uni1EC2" unicode="&#x1ec2;" horiz-adv-x="583" 
d="M483 839q21 9 48 9q29 0 51.5 -12t22.5 -34q0 -24 -24 -46h-57q29 20 29 41q0 9 -7.5 14t-19.5 5q-23 0 -37 -18l-40 15q13 17 34 26zM412 749l-90 -67h-80l124 108h114l62 -108h-76zM159 667h472l-28 -125h-329l-31 -141h322l-28 -125h-322l-33 -151h329l-27 -125h-472z
" />
    <glyph glyph-name="uni1EC3" unicode="&#x1ec3;" horiz-adv-x="553" 
d="M64.5 349.5q36.5 66.5 100 106t142.5 39.5q62 0 111 -26t77.5 -75t28.5 -115q0 -20 -3 -42.5t-7 -35.5h-359v-12q0 -22 15 -45.5t45 -39t72 -15.5q33 0 66.5 9.5t55.5 26.5l40 -87q-35 -24 -80.5 -37t-90.5 -13q-115 0 -182.5 58t-67.5 159q0 78 36.5 144.5zM410 297
q0 40 -28.5 68.5t-82.5 28.5q-49 0 -85.5 -32.5t-45.5 -74.5h242v10zM435 778q21 12 48 12q29 0 51.5 -16.5t22.5 -45.5q0 -15 -6.5 -32t-17.5 -29h-57q29 26 29 54q0 12 -7.5 19t-19.5 7q-22 0 -36 -24l-40 20q12 23 33 35zM375 645l-90 -89h-80l124 144h114l62 -144h-76z
" />
    <glyph glyph-name="uni1EC4" unicode="&#x1ec4;" horiz-adv-x="583" 
d="M381.5 787.5q-9.5 3.5 -22.5 3.5q-32 0 -45 -31h-68q13 34 41.5 50.5t79.5 16.5q26 0 42 -5t33 -14q12 -8 22 -11.5t24 -3.5q30 0 45 31h68q-14 -33 -43 -50t-79 -17q-26 0 -41 5t-33 14q-14 8 -23.5 11.5zM414 723l-90 -45h-80l124 72h114l62 -72h-76zM159 667h472
l-28 -125h-329l-31 -141h322l-28 -125h-322l-33 -151h329l-27 -125h-472z" />
    <glyph glyph-name="uni1EC5" unicode="&#x1ec5;" horiz-adv-x="553" 
d="M64.5 349.5q36.5 66.5 100 106t142.5 39.5q62 0 111 -26t77.5 -75t28.5 -115q0 -20 -3 -42.5t-7 -35.5h-359v-12q0 -22 15 -45.5t45 -39t72 -15.5q33 0 66.5 9.5t55.5 26.5l40 -87q-35 -24 -80.5 -37t-90.5 -13q-115 0 -182.5 58t-67.5 159q0 78 36.5 144.5zM410 297
q0 40 -28.5 68.5t-82.5 28.5q-49 0 -85.5 -32.5t-45.5 -74.5h242v10zM369 612l-90 -89h-80l124 144h114l62 -144h-76zM357.5 743q-9.5 7 -23.5 7q-31 0 -44 -62h-68q13 67 41.5 100.5t79.5 33.5q26 0 42 -10t32 -29q14 -15 23.5 -21.5t23.5 -6.5q30 0 45 61h68
q-15 -67 -43.5 -100.5t-78.5 -33.5q-26 0 -41.5 10t-32.5 29q-14 15 -23.5 22z" />
    <glyph glyph-name="uni1EC6" unicode="&#x1ec6;" horiz-adv-x="583" 
d="M159 667h472l-28 -125h-329l-31 -141h322l-28 -125h-322l-33 -151h329l-27 -125h-472zM167 -179q-17 17 -17 43q0 30 23.5 53t53.5 23q25 0 42.5 -17.5t17.5 -43.5q0 -30 -23.5 -52.5t-53.5 -22.5q-26 0 -43 17zM427 812l-90 -89h-80l124 144h114l62 -144h-76z" />
    <glyph glyph-name="uni1EC7" unicode="&#x1ec7;" horiz-adv-x="553" 
d="M64.5 349.5q36.5 66.5 100 106t142.5 39.5q62 0 111 -26t77.5 -75t28.5 -115q0 -20 -3 -42.5t-7 -35.5h-359v-12q0 -22 15 -45.5t45 -39t72 -15.5q33 0 66.5 9.5t55.5 26.5l40 -87q-35 -24 -80.5 -37t-90.5 -13q-115 0 -182.5 58t-67.5 159q0 78 36.5 144.5zM410 297
q0 40 -28.5 68.5t-82.5 28.5q-49 0 -85.5 -32.5t-45.5 -74.5h242v10zM152 -179q-17 17 -17 43q0 30 23.5 53t53.5 23q25 0 42.5 -17.5t17.5 -43.5q0 -30 -23.5 -52.5t-53.5 -22.5q-26 0 -43 17zM376 645l-90 -89h-80l124 144h114l62 -144h-76z" />
    <glyph glyph-name="uni1EC8" unicode="&#x1ec8;" horiz-adv-x="274" 
d="M159 667h142l-147 -667h-142zM206 808q21 12 48 12q29 0 51.5 -16.5t22.5 -45.5q0 -15 -6.5 -32t-17.5 -29h-57q29 26 29 54q0 12 -7.5 19t-19.5 7q-22 0 -36 -24l-40 20q12 23 33 35z" />
    <glyph glyph-name="uni1EC9" unicode="&#x1ec9;" horiz-adv-x="253" 
d="M116 483h127l-107 -483h-127zM159 638q21 12 48 12q29 0 51.5 -16.5t22.5 -45.5q0 -15 -6.5 -32t-17.5 -29h-57q29 26 29 54q0 12 -7.5 19t-19.5 7q-22 0 -36 -24l-40 20q12 23 33 35z" />
    <glyph glyph-name="uni1ECA" unicode="&#x1eca;" horiz-adv-x="274" 
d="M159 667h142l-147 -667h-142zM2 -179q-17 17 -17 43q0 30 23.5 53t53.5 23q25 0 42.5 -17.5t17.5 -43.5q0 -30 -23.5 -52.5t-53.5 -22.5q-26 0 -43 17z" />
    <glyph glyph-name="uni1ECB" unicode="&#x1ecb;" horiz-adv-x="253" 
d="M156.5 662.5q26.5 23.5 58.5 23.5q30 0 49.5 -19t19.5 -46q0 -39 -27 -62.5t-59 -23.5q-29 0 -48.5 19t-19.5 46q0 39 26.5 62.5zM116 483h127l-107 -483h-127zM-7 -179q-17 17 -17 43q0 30 23.5 53t53.5 23q25 0 42.5 -17.5t17.5 -43.5q0 -30 -23.5 -52.5t-53.5 -22.5
q-26 0 -43 17z" />
    <glyph glyph-name="uni1ECC" unicode="&#x1ecc;" horiz-adv-x="765" 
d="M95 484.5q51 89.5 140 141.5t197 52q92 0 166.5 -37t117.5 -104.5t43 -156.5q0 -108 -51 -197.5t-139.5 -142t-196.5 -52.5q-93 0 -167.5 37t-117.5 105t-43 157q0 108 51 197.5zM586.5 466q-24.5 41 -67 63.5t-96.5 22.5q-64 0 -116.5 -34t-83.5 -93t-31 -129
q0 -55 24.5 -96.5t67 -63.5t96.5 -22q63 0 116 34t84 93t31 129q0 55 -24.5 96zM248 -179q-17 17 -17 43q0 30 23.5 53t53.5 23q25 0 42.5 -17.5t17.5 -43.5q0 -30 -23.5 -52.5t-53.5 -22.5q-26 0 -43 17z" />
    <glyph glyph-name="uni1ECD" unicode="&#x1ecd;" horiz-adv-x="574" 
d="M63 348.5q36 66.5 100 106.5t143 40q75 0 129.5 -28.5t82.5 -78t28 -113.5q0 -75 -36 -141t-100 -106t-144 -40q-75 0 -129 28t-82 77.5t-28 113.5q0 75 36 141.5zM384 352q-30 30 -82 30q-42 0 -74.5 -23.5t-51 -62.5t-18.5 -82q0 -53 30 -83t83 -30q41 0 74 23.5t51 62
t18 82.5q0 53 -30 83zM152 -179q-17 17 -17 43q0 30 23.5 53t53.5 23q25 0 42.5 -17.5t17.5 -43.5q0 -30 -23.5 -52.5t-53.5 -22.5q-26 0 -43 17z" />
    <glyph glyph-name="uni1ECE" unicode="&#x1ece;" horiz-adv-x="765" 
d="M95 484.5q51 89.5 140 141.5t197 52q92 0 166.5 -37t117.5 -104.5t43 -156.5q0 -108 -51 -197.5t-139.5 -142t-196.5 -52.5q-93 0 -167.5 37t-117.5 105t-43 157q0 108 51 197.5zM586.5 466q-24.5 41 -67 63.5t-96.5 22.5q-64 0 -116.5 -34t-83.5 -93t-31 -129
q0 -55 24.5 -96.5t67 -63.5t96.5 -22q63 0 116 34t84 93t31 129q0 55 -24.5 96zM453 808q21 12 48 12q29 0 51.5 -16.5t22.5 -45.5q0 -15 -6.5 -32t-17.5 -29h-57q29 26 29 54q0 12 -7.5 19t-19.5 7q-22 0 -36 -24l-40 20q12 23 33 35z" />
    <glyph glyph-name="uni1ECF" unicode="&#x1ecf;" horiz-adv-x="574" 
d="M63 348.5q36 66.5 100 106.5t143 40q75 0 129.5 -28.5t82.5 -78t28 -113.5q0 -75 -36 -141t-100 -106t-144 -40q-75 0 -129 28t-82 77.5t-28 113.5q0 75 36 141.5zM384 352q-30 30 -82 30q-42 0 -74.5 -23.5t-51 -62.5t-18.5 -82q0 -53 30 -83t83 -30q41 0 74 23.5t51 62
t18 82.5q0 53 -30 83zM319 638q21 12 48 12q29 0 51.5 -16.5t22.5 -45.5q0 -15 -6.5 -32t-17.5 -29h-57q29 26 29 54q0 12 -7.5 19t-19.5 7q-22 0 -36 -24l-40 20q12 23 33 35z" />
    <glyph glyph-name="uni1ED0" unicode="&#x1ed0;" horiz-adv-x="765" 
d="M600 736l166 108h119l-194 -108h-91zM494 749l-90 -67h-80l124 108h114l62 -108h-76zM95 484.5q51 89.5 140 141.5t197 52q92 0 166.5 -37t117.5 -104.5t43 -156.5q0 -108 -51 -197.5t-139.5 -142t-196.5 -52.5q-93 0 -167.5 37t-117.5 105t-43 157q0 108 51 197.5z
M586.5 466q-24.5 41 -67 63.5t-96.5 22.5q-64 0 -116.5 -34t-83.5 -93t-31 -129q0 -55 24.5 -96.5t67 -63.5t96.5 -22q63 0 116 34t84 93t31 129q0 55 -24.5 96z" />
    <glyph glyph-name="uni1ED1" unicode="&#x1ed1;" horiz-adv-x="574" 
d="M63 348.5q36 66.5 100 106.5t143 40q75 0 129.5 -28.5t82.5 -78t28 -113.5q0 -75 -36 -141t-100 -106t-144 -40q-75 0 -129 28t-82 77.5t-28 113.5q0 75 36 141.5zM384 352q-30 30 -82 30q-42 0 -74.5 -23.5t-51 -62.5t-18.5 -82q0 -53 30 -83t83 -30q41 0 74 23.5t51 62
t18 82.5q0 53 -30 83zM375 645l-90 -89h-80l124 144h114l62 -144h-76zM481 626l166 144h119l-194 -144h-91z" />
    <glyph glyph-name="uni1ED2" unicode="&#x1ed2;" horiz-adv-x="765" 
d="M157 844h117l102 -108h-89zM494 749l-90 -67h-80l124 108h114l62 -108h-76zM95 484.5q51 89.5 140 141.5t197 52q92 0 166.5 -37t117.5 -104.5t43 -156.5q0 -108 -51 -197.5t-139.5 -142t-196.5 -52.5q-93 0 -167.5 37t-117.5 105t-43 157q0 108 51 197.5zM586.5 466
q-24.5 41 -67 63.5t-96.5 22.5q-64 0 -116.5 -34t-83.5 -93t-31 -129q0 -55 24.5 -96.5t67 -63.5t96.5 -22q63 0 116 34t84 93t31 129q0 55 -24.5 96z" />
    <glyph glyph-name="uni1ED3" unicode="&#x1ed3;" horiz-adv-x="574" 
d="M63 348.5q36 66.5 100 106.5t143 40q75 0 129.5 -28.5t82.5 -78t28 -113.5q0 -75 -36 -141t-100 -106t-144 -40q-75 0 -129 28t-82 77.5t-28 113.5q0 75 36 141.5zM384 352q-30 30 -82 30q-42 0 -74.5 -23.5t-51 -62.5t-18.5 -82q0 -53 30 -83t83 -30q41 0 74 23.5t51 62
t18 82.5q0 53 -30 83zM41 770h117l102 -144h-89zM376 645l-90 -89h-80l124 144h114l62 -144h-76z" />
    <glyph glyph-name="uni1ED4" unicode="&#x1ed4;" horiz-adv-x="765" 
d="M564 839q21 9 48 9q30 0 52 -12t22 -34q0 -24 -24 -46h-57q29 20 29 41q0 9 -7.5 14t-19.5 5q-22 0 -36 -18l-40 15q12 17 33 26zM493 749l-90 -67h-80l124 108h114l62 -108h-76zM95 484.5q51 89.5 140 141.5t197 52q92 0 166.5 -37t117.5 -104.5t43 -156.5
q0 -108 -51 -197.5t-139.5 -142t-196.5 -52.5q-93 0 -167.5 37t-117.5 105t-43 157q0 108 51 197.5zM586.5 466q-24.5 41 -67 63.5t-96.5 22.5q-64 0 -116.5 -34t-83.5 -93t-31 -129q0 -55 24.5 -96.5t67 -63.5t96.5 -22q63 0 116 34t84 93t31 129q0 55 -24.5 96z" />
    <glyph glyph-name="uni1ED5" unicode="&#x1ed5;" horiz-adv-x="574" 
d="M63 348.5q36 66.5 100 106.5t143 40q75 0 129.5 -28.5t82.5 -78t28 -113.5q0 -75 -36 -141t-100 -106t-144 -40q-75 0 -129 28t-82 77.5t-28 113.5q0 75 36 141.5zM384 352q-30 30 -82 30q-42 0 -74.5 -23.5t-51 -62.5t-18.5 -82q0 -53 30 -83t83 -30q41 0 74 23.5t51 62
t18 82.5q0 53 -30 83zM375 645l-90 -89h-80l124 144h114l62 -144h-76zM436 778q21 12 48 12q29 0 51.5 -16.5t22.5 -45.5q0 -15 -6.5 -32t-17.5 -29h-57q29 26 29 54q0 12 -7.5 19t-19.5 7q-22 0 -36 -24l-40 20q12 23 33 35z" />
    <glyph glyph-name="uni1ED6" unicode="&#x1ed6;" horiz-adv-x="765" 
d="M460.5 787.5q-9.5 3.5 -23.5 3.5q-31 0 -44 -31h-68q13 34 41.5 50.5t79.5 16.5q26 0 42 -5t33 -14q12 -8 22 -11.5t24 -3.5q30 0 45 31h68q-14 -33 -43 -50t-79 -17q-26 0 -41 5t-33 14q-14 8 -23.5 11.5zM488 723l-90 -45h-80l123 72h114l63 -72h-77zM95 484.5
q51 89.5 140 141.5t197 52q92 0 166.5 -37t117.5 -104.5t43 -156.5q0 -108 -51 -197.5t-139.5 -142t-196.5 -52.5q-93 0 -167.5 37t-117.5 105t-43 157q0 108 51 197.5zM586.5 466q-24.5 41 -67 63.5t-96.5 22.5q-64 0 -116.5 -34t-83.5 -93t-31 -129q0 -55 24.5 -96.5
t67 -63.5t96.5 -22q63 0 116 34t84 93t31 129q0 55 -24.5 96z" />
    <glyph glyph-name="uni1ED7" unicode="&#x1ed7;" horiz-adv-x="574" 
d="M63 348.5q36 66.5 100 106.5t143 40q75 0 129.5 -28.5t82.5 -78t28 -113.5q0 -75 -36 -141t-100 -106t-144 -40q-75 0 -129 28t-82 77.5t-28 113.5q0 75 36 141.5zM384 352q-30 30 -82 30q-42 0 -74.5 -23.5t-51 -62.5t-18.5 -82q0 -53 30 -83t83 -30q41 0 74 23.5t51 62
t18 82.5q0 53 -30 83zM369 612l-90 -89h-80l124 144h114l62 -144h-76zM358.5 743q-9.5 7 -23.5 7q-31 0 -44 -62h-68q13 67 41.5 100.5t79.5 33.5q26 0 42 -10t32 -29q14 -15 23.5 -21.5t23.5 -6.5q30 0 45 61h68q-15 -67 -43.5 -100.5t-78.5 -33.5q-26 0 -41.5 10t-32.5 29
q-14 15 -23.5 22z" />
    <glyph glyph-name="uni1ED8" unicode="&#x1ed8;" horiz-adv-x="765" 
d="M95 484.5q51 89.5 140 141.5t197 52q92 0 166.5 -37t117.5 -104.5t43 -156.5q0 -108 -51 -197.5t-139.5 -142t-196.5 -52.5q-93 0 -167.5 37t-117.5 105t-43 157q0 108 51 197.5zM586.5 466q-24.5 41 -67 63.5t-96.5 22.5q-64 0 -116.5 -34t-83.5 -93t-31 -129
q0 -55 24.5 -96.5t67 -63.5t96.5 -22q63 0 116 34t84 93t31 129q0 55 -24.5 96zM249 -179q-17 17 -17 43q0 30 23.5 53t53.5 23q25 0 42.5 -17.5t17.5 -43.5q0 -30 -23.5 -52.5t-53.5 -22.5q-26 0 -43 17zM508 812l-90 -89h-80l124 144h114l62 -144h-76z" />
    <glyph glyph-name="uni1ED9" unicode="&#x1ed9;" horiz-adv-x="574" 
d="M63 348.5q36 66.5 100 106.5t143 40q75 0 129.5 -28.5t82.5 -78t28 -113.5q0 -75 -36 -141t-100 -106t-144 -40q-75 0 -129 28t-82 77.5t-28 113.5q0 75 36 141.5zM384 352q-30 30 -82 30q-42 0 -74.5 -23.5t-51 -62.5t-18.5 -82q0 -53 30 -83t83 -30q41 0 74 23.5t51 62
t18 82.5q0 53 -30 83zM152 -179q-17 17 -17 43q0 30 23.5 53t53.5 23q25 0 42.5 -17.5t17.5 -43.5q0 -30 -23.5 -52.5t-53.5 -22.5q-26 0 -43 17zM375 645l-90 -89h-80l124 144h114l62 -144h-76z" />
    <glyph glyph-name="uni1EDA" unicode="&#x1eda;" horiz-adv-x="765" 
d="M788.5 600.5q-28.5 -40.5 -72.5 -63.5q43 -68 43 -157q0 -108 -51 -197.5t-139.5 -142t-196.5 -52.5q-93 0 -167.5 37t-117.5 105t-43 157q0 108 51 197.5t140 141.5t197 52q79 0 146 -27.5t111 -77.5q21 12 38.5 28t23.5 32h-7q-18 0 -30.5 12t-12.5 34q0 24 19 42
t43 18q22 0 38 -15.5t16 -42.5q0 -40 -28.5 -80.5zM496 148q53 34 84 93t31 129q0 55 -24.5 96t-67 63.5t-96.5 22.5q-64 0 -116.5 -34t-83.5 -93t-31 -129q0 -55 24.5 -96.5t67 -63.5t96.5 -22q63 0 116 34zM423 723l166 144h119l-194 -144h-91z" />
    <glyph glyph-name="uni1EDB" unicode="&#x1edb;" horiz-adv-x="574" 
d="M573.5 470q-26.5 -39 -68.5 -63q41 -55 41 -132q0 -75 -36 -141t-100 -106t-144 -40q-75 0 -129 28t-82 77.5t-28 113.5q0 75 36 141.5t100 106.5t143 40q104 0 168 -54q20 11 37 27t23 32q-1 -1 -7 -1q-18 0 -31 12.5t-13 33.5q0 25 19 43t44 18q22 0 38 -15.5t16 -42.5
q0 -39 -26.5 -78zM345 124.5q33 23.5 51 62t18 82.5q0 53 -30 83t-82 30q-42 0 -74.5 -23.5t-51 -62.5t-18.5 -82q0 -53 30 -83t83 -30q41 0 74 23.5zM289 556l166 144h119l-194 -144h-91z" />
    <glyph glyph-name="uni1EDC" unicode="&#x1edc;" horiz-adv-x="765" 
d="M788.5 600.5q-28.5 -40.5 -72.5 -63.5q43 -68 43 -157q0 -108 -51 -197.5t-139.5 -142t-196.5 -52.5q-93 0 -167.5 37t-117.5 105t-43 157q0 108 51 197.5t140 141.5t197 52q79 0 146 -27.5t111 -77.5q21 12 38.5 28t23.5 32h-7q-18 0 -30.5 12t-12.5 34q0 24 19 42
t43 18q22 0 38 -15.5t16 -42.5q0 -40 -28.5 -80.5zM496 148q53 34 84 93t31 129q0 55 -24.5 96t-67 63.5t-96.5 22.5q-64 0 -116.5 -34t-83.5 -93t-31 -129q0 -55 24.5 -96.5t67 -63.5t96.5 -22q63 0 116 34zM335 867h117l102 -144h-89z" />
    <glyph glyph-name="uni1EDD" unicode="&#x1edd;" horiz-adv-x="574" 
d="M573.5 470q-26.5 -39 -68.5 -63q41 -55 41 -132q0 -75 -36 -141t-100 -106t-144 -40q-75 0 -129 28t-82 77.5t-28 113.5q0 75 36 141.5t100 106.5t143 40q104 0 168 -54q20 11 37 27t23 32q-1 -1 -7 -1q-18 0 -31 12.5t-13 33.5q0 25 19 43t44 18q22 0 38 -15.5t16 -42.5
q0 -39 -26.5 -78zM345 124.5q33 23.5 51 62t18 82.5q0 53 -30 83t-82 30q-42 0 -74.5 -23.5t-51 -62.5t-18.5 -82q0 -53 30 -83t83 -30q41 0 74 23.5zM202 700h117l102 -144h-89z" />
    <glyph glyph-name="uni1EDE" unicode="&#x1ede;" horiz-adv-x="765" 
d="M788.5 600.5q-28.5 -40.5 -72.5 -63.5q43 -68 43 -157q0 -108 -51 -197.5t-139.5 -142t-196.5 -52.5q-93 0 -167.5 37t-117.5 105t-43 157q0 108 51 197.5t140 141.5t197 52q79 0 146 -27.5t111 -77.5q21 12 38.5 28t23.5 32h-7q-18 0 -30.5 12t-12.5 34q0 24 19 42
t43 18q22 0 38 -15.5t16 -42.5q0 -40 -28.5 -80.5zM496 148q53 34 84 93t31 129q0 55 -24.5 96t-67 63.5t-96.5 22.5q-64 0 -116.5 -34t-83.5 -93t-31 -129q0 -55 24.5 -96.5t67 -63.5t96.5 -22q63 0 116 34zM453 808q21 12 48 12q29 0 51.5 -16.5t22.5 -45.5
q0 -15 -6.5 -32t-17.5 -29h-57q29 26 29 54q0 12 -7.5 19t-19.5 7q-22 0 -36 -24l-40 20q12 23 33 35z" />
    <glyph glyph-name="uni1EDF" unicode="&#x1edf;" horiz-adv-x="574" 
d="M573.5 470q-26.5 -39 -68.5 -63q41 -55 41 -132q0 -75 -36 -141t-100 -106t-144 -40q-75 0 -129 28t-82 77.5t-28 113.5q0 75 36 141.5t100 106.5t143 40q104 0 168 -54q20 11 37 27t23 32q-1 -1 -7 -1q-18 0 -31 12.5t-13 33.5q0 25 19 43t44 18q22 0 38 -15.5t16 -42.5
q0 -39 -26.5 -78zM345 124.5q33 23.5 51 62t18 82.5q0 53 -30 83t-82 30q-42 0 -74.5 -23.5t-51 -62.5t-18.5 -82q0 -53 30 -83t83 -30q41 0 74 23.5zM319 638q21 12 48 12q29 0 51.5 -16.5t22.5 -45.5q0 -15 -6.5 -32t-17.5 -29h-57q29 26 29 54q0 12 -7.5 19t-19.5 7
q-22 0 -36 -24l-40 20q12 23 33 35z" />
    <glyph glyph-name="uni1EE0" unicode="&#x1ee0;" horiz-adv-x="765" 
d="M788.5 600.5q-28.5 -40.5 -72.5 -63.5q43 -68 43 -157q0 -108 -51 -197.5t-139.5 -142t-196.5 -52.5q-93 0 -167.5 37t-117.5 105t-43 157q0 108 51 197.5t140 141.5t197 52q79 0 146 -27.5t111 -77.5q21 12 38.5 28t23.5 32h-7q-18 0 -30.5 12t-12.5 34q0 24 19 42
t43 18q22 0 38 -15.5t16 -42.5q0 -40 -28.5 -80.5zM496 148q53 34 84 93t31 129q0 55 -24.5 96t-67 63.5t-96.5 22.5q-64 0 -116.5 -34t-83.5 -93t-31 -129q0 -55 24.5 -96.5t67 -63.5t96.5 -22q63 0 116 34zM462.5 782q-9.5 7 -23.5 7q-31 0 -44 -62h-68q13 67 41.5 100.5
t79.5 33.5q26 0 42 -10t32 -29q14 -15 23.5 -21.5t23.5 -6.5q30 0 45 61h68q-15 -67 -43.5 -100.5t-78.5 -33.5q-26 0 -41.5 10t-32.5 29q-14 15 -23.5 22z" />
    <glyph glyph-name="uni1EE1" unicode="&#x1ee1;" horiz-adv-x="574" 
d="M573.5 470q-26.5 -39 -68.5 -63q41 -55 41 -132q0 -75 -36 -141t-100 -106t-144 -40q-75 0 -129 28t-82 77.5t-28 113.5q0 75 36 141.5t100 106.5t143 40q104 0 168 -54q20 11 37 27t23 32q-1 -1 -7 -1q-18 0 -31 12.5t-13 33.5q0 25 19 43t44 18q22 0 38 -15.5t16 -42.5
q0 -39 -26.5 -78zM345 124.5q33 23.5 51 62t18 82.5q0 53 -30 83t-82 30q-42 0 -74.5 -23.5t-51 -62.5t-18.5 -82q0 -53 30 -83t83 -30q41 0 74 23.5zM301.5 615q-9.5 7 -23.5 7q-31 0 -44 -62h-68q13 67 41.5 100.5t79.5 33.5q26 0 42 -10t32 -29q14 -15 23.5 -21.5
t23.5 -6.5q30 0 45 61h68q-15 -67 -43.5 -100.5t-78.5 -33.5q-26 0 -41.5 10t-32.5 29q-14 15 -23.5 22z" />
    <glyph glyph-name="uni1EE2" unicode="&#x1ee2;" horiz-adv-x="765" 
d="M788.5 600.5q-28.5 -40.5 -72.5 -63.5q43 -68 43 -157q0 -108 -51 -197.5t-139.5 -142t-196.5 -52.5q-93 0 -167.5 37t-117.5 105t-43 157q0 108 51 197.5t140 141.5t197 52q79 0 146 -27.5t111 -77.5q21 12 38.5 28t23.5 32h-7q-18 0 -30.5 12t-12.5 34q0 24 19 42
t43 18q22 0 38 -15.5t16 -42.5q0 -40 -28.5 -80.5zM496 148q53 34 84 93t31 129q0 55 -24.5 96t-67 63.5t-96.5 22.5q-64 0 -116.5 -34t-83.5 -93t-31 -129q0 -55 24.5 -96.5t67 -63.5t96.5 -22q63 0 116 34zM248 -179q-17 17 -17 43q0 30 23.5 53t53.5 23q25 0 42.5 -17.5
t17.5 -43.5q0 -30 -23.5 -52.5t-53.5 -22.5q-26 0 -43 17z" />
    <glyph glyph-name="uni1EE3" unicode="&#x1ee3;" horiz-adv-x="574" 
d="M573.5 470q-26.5 -39 -68.5 -63q41 -55 41 -132q0 -75 -36 -141t-100 -106t-144 -40q-75 0 -129 28t-82 77.5t-28 113.5q0 75 36 141.5t100 106.5t143 40q104 0 168 -54q20 11 37 27t23 32q-1 -1 -7 -1q-18 0 -31 12.5t-13 33.5q0 25 19 43t44 18q22 0 38 -15.5t16 -42.5
q0 -39 -26.5 -78zM345 124.5q33 23.5 51 62t18 82.5q0 53 -30 83t-82 30q-42 0 -74.5 -23.5t-51 -62.5t-18.5 -82q0 -53 30 -83t83 -30q41 0 74 23.5zM152 -179q-17 17 -17 43q0 30 23.5 53t53.5 23q25 0 42.5 -17.5t17.5 -43.5q0 -30 -23.5 -52.5t-53.5 -22.5q-26 0 -43 17
z" />
    <glyph glyph-name="uni1EE4" unicode="&#x1ee4;" horiz-adv-x="733" 
d="M71 266l88 401h144l-87 -397q-4 -12 -4 -33q1 -53 38.5 -88.5t105.5 -35.5q138 0 172 157l88 397h145l-89 -400q-29 -133 -103 -206t-213 -73q-141 0 -215.5 63t-74.5 170q0 20 5 45zM231 -179q-17 17 -17 43q0 30 23.5 53t53.5 23q25 0 42.5 -17.5t17.5 -43.5
q0 -30 -23.5 -52.5t-53.5 -22.5q-26 0 -43 17z" />
    <glyph glyph-name="uni1EE5" unicode="&#x1ee5;" 
d="M178 192q-4 -18 -4 -29q0 -31 22.5 -46.5t58.5 -15.5q56 0 115 57l72 325h127l-107 -483h-127l14 63q-35 -33 -74 -54t-87 -21q-69 0 -110 34t-41 90q0 8 1.5 19t3.5 20l73 332h128zM154 -179q-17 17 -17 43q0 30 23.5 53t53.5 23q25 0 42.5 -17.5t17.5 -43.5
q0 -30 -23.5 -52.5t-53.5 -22.5q-26 0 -43 17z" />
    </font>
</defs>
</svg>
